<svg width="497" height="497" fill="none" xmlns="http://www.w3.org/2000/svg"><path d="M248.082 0C111.07 0 0 111.058 0 248.082c0 137 111.07 248.07 248.082 248.07 137.006 0 248.076-111.07 248.076-248.07C496.158 111.058 385.088 0 248.082 0z" fill="url(#a)"/><g filter="url(#b)"><path d="M278.767 145.416c-3.126-4.003-7.276-6.006-12.451-6.006-4.591 0-7.716.879-9.375 2.637-1.662 1.758-5.226 6.445-10.693 14.063a120.028 120.028 0 01-18.823 20.654c-7.082 6.152-16.53 12.012-28.345 17.578-7.91 3.712-13.429 6.738-16.553 9.082-3.126 2.344-4.688 6.006-4.688 10.986 0 4.298 1.586 8.082 4.761 11.353 3.172 3.273 6.812 4.907 10.913 4.907 8.592 0 25.292-9.521 50.098-28.564v133.301c0 7.814 1.806 13.722 5.42 17.725 3.612 4.003 8.397 6.006 14.355 6.006 13.378 0 20.068-9.814 20.068-29.443V161.969c.001-7.031-1.562-12.547-4.687-16.553z" fill="#fff"/></g><defs><linearGradient id="a" x1="532" y1="-46.503" x2="-256" y2="899.997" gradientUnits="userSpaceOnUse"><stop stop-color="#FFC700"/><stop offset="1" stop-color="#FF4D00"/></linearGradient><filter id="b" x="177.839" y="133.41" width="125.615" height="239.728" filterUnits="userSpaceOnUse" color-interpolation-filters="sRGB"><feFlood flood-opacity="0" result="BackgroundImageFix"/><feColorMatrix in="SourceAlpha" values="0 0 0 0 0 0 0 0 0 0 0 0 0 0 0 0 0 0 127 0" result="hardAlpha"/><feOffset dx="10" dy="4"/><feGaussianBlur stdDeviation="5"/><feComposite in2="hardAlpha" operator="out"/><feColorMatrix values="0 0 0 0 0 0 0 0 0 0 0 0 0 0 0 0 0 0 0.25 0"/><feBlend in2="BackgroundImageFix" result="effect1_dropShadow_1561_2435"/><feBlend in="SourceGraphic" in2="effect1_dropShadow_1561_2435" result="shape"/></filter></defs></svg>