<svg width="497" height="497" fill="none" xmlns="http://www.w3.org/2000/svg"><path d="M248.082 0C111.07 0 0 111.058 0 248.082c0 137 111.07 248.07 248.082 248.07 137.006 0 248.076-111.07 248.076-248.07C496.158 111.058 385.088 0 248.082 0z" fill="url(#a)"/><g filter="url(#b)"><path d="M319.783 325.592c-4.005-3.124-9.814-4.688-17.432-4.688h-76.465c2.44-3.71 4.834-6.885 7.178-9.521 5.468-6.64 15.55-15.967 30.249-27.979 14.696-12.012 25.17-20.824 31.421-26.44 6.249-5.614 12.378-13.378 18.384-23.291 6.006-9.911 9.009-20.922 9.009-33.032 0-7.713-1.442-15.161-4.321-22.339-2.882-7.178-6.91-13.5-12.085-18.97a57.572 57.572 0 00-18.018-12.891c-10.547-4.688-23.291-7.031-38.232-7.031-12.403 0-23.218 1.831-32.446 5.493-9.228 3.662-16.846 8.473-22.852 14.429-6.006 5.958-10.524 12.598-13.55 19.922-3.028 7.324-4.541 14.355-4.541 21.094 0 5.566 1.611 9.961 4.834 13.184 3.223 3.223 7.274 4.834 12.158 4.834 5.566 0 9.789-1.758 12.671-5.273 2.879-3.516 5.468-8.544 7.764-15.088 2.293-6.542 3.93-10.547 4.907-12.012 7.324-11.229 17.381-16.846 30.176-16.846 6.054 0 11.646 1.369 16.772 4.102 5.127 2.735 9.178 6.569 12.158 11.499 2.978 4.933 4.468 10.524 4.468 16.772 0 5.763-1.392 11.646-4.175 17.651-2.783 6.005-6.837 11.865-12.158 17.578-5.324 5.713-11.989 11.403-19.995 17.065-4.493 3.028-11.964 9.352-22.412 18.97-10.451 9.62-22.169 21.167-35.156 34.644-3.126 3.321-6.006 7.887-8.643 13.696-2.637 5.812-3.955 10.474-3.955 13.989 0 5.47 2.051 10.231 6.152 14.282 4.102 4.054 9.814 6.079 17.139 6.079H306.6c6.445 0 11.254-1.659 14.429-4.98 3.172-3.319 4.761-7.372 4.761-12.158-.001-5.369-2.004-9.617-6.007-12.744z" fill="#fff"/></g><defs><linearGradient id="a" x1="248.079" y1="0" x2="43.5" y2="673.497" gradientUnits="userSpaceOnUse"><stop stop-color="#FFC700"/><stop offset="1" stop-color="#FF4D00"/></linearGradient><filter id="b" x="175.496" y="133.41" width="170.294" height="236.064" filterUnits="userSpaceOnUse" color-interpolation-filters="sRGB"><feFlood flood-opacity="0" result="BackgroundImageFix"/><feColorMatrix in="SourceAlpha" values="0 0 0 0 0 0 0 0 0 0 0 0 0 0 0 0 0 0 127 0" result="hardAlpha"/><feOffset dx="10" dy="4"/><feGaussianBlur stdDeviation="5"/><feComposite in2="hardAlpha" operator="out"/><feColorMatrix values="0 0 0 0 0 0 0 0 0 0 0 0 0 0 0 0 0 0 0.25 0"/><feBlend in2="BackgroundImageFix" result="effect1_dropShadow_1561_2436"/><feBlend in="SourceGraphic" in2="effect1_dropShadow_1561_2436" result="shape"/></filter></defs></svg>