<svg width="313" height="58" fill="none" xmlns="http://www.w3.org/2000/svg"><g clip-path="url(#clip0_1827_8239)"><path d="M48.568 0L42.83 5.738 62.966 25.77 42.83 45.907l5.738 5.634 25.77-25.77L48.569 0z" fill="#EF443B"/><path d="M-.208 25.803l25.821 25.82 25.821-25.82L25.614-.018-.209 25.803z" fill="#EF443B"/><path d="M110.727 44.963l-2.817-9.077H94.034l-2.817 9.077h-8.764L96.016 6.568h9.912l13.563 38.395h-8.764zm-4.695-15.86c-2.608-8.242-3.964-12.937-4.277-13.98-.313-1.043-.626-1.982-.731-2.608-.626 2.19-2.19 7.72-4.903 16.589h9.911zm44.551 15.859h-7.929V27.956c0-2.087-.417-3.651-1.148-4.695-.73-1.043-1.982-1.565-3.547-1.565-2.191 0-3.86.73-4.799 2.191-.939 1.46-1.461 3.965-1.461 7.408v13.772h-7.929V15.854h6.051l1.043 3.756h.418c.939-1.461 2.086-2.505 3.651-3.235s3.339-1.043 5.321-1.043c3.443 0 5.947.939 7.721 2.712 1.774 1.774 2.608 4.487 2.608 7.93v18.988zm3.294-29.218h8.764l5.53 16.485c.521 1.46.834 3.13.939 5.112h.208c.209-1.773.522-3.443 1.148-5.112l5.425-16.485h8.556l-12.416 32.97c-1.148 3.025-2.713 5.32-4.799 6.886-2.087 1.564-4.591 2.295-7.408 2.295-1.356 0-2.713-.105-4.069-.418v-6.364c.939.209 1.982.313 3.13.313 1.461 0 2.608-.417 3.652-1.252 1.043-.834 1.878-2.19 2.504-3.86l.521-1.46-11.685-29.11zm66.797 9.704c0 6.26-1.773 11.06-5.321 14.502-3.547 3.444-8.764 5.008-15.545 5.008h-10.851V6.773h11.998c6.26 0 11.06 1.67 14.503 4.904 3.443 3.339 5.216 7.93 5.216 13.772zm-8.451.209c0-8.242-3.651-12.312-10.85-12.312h-4.278v24.832h3.443c7.825.104 11.685-4.07 11.685-12.52zm27.699 19.826c-4.695 0-8.346-1.252-11.059-3.86-2.608-2.609-3.965-6.26-3.965-11.06 0-4.903 1.252-8.66 3.652-11.372 2.4-2.713 5.843-3.965 10.12-3.965 4.174 0 7.304 1.148 9.599 3.548 2.295 2.4 3.443 5.634 3.443 9.703v3.86h-18.884c.104 2.295.73 4.069 1.982 5.321 1.252 1.252 3.026 1.878 5.321 1.878 1.774 0 3.443-.209 5.008-.522 1.565-.417 3.234-.939 4.904-1.773v6.155c-1.357.73-2.922 1.252-4.487 1.565-1.46.313-3.338.522-5.634.522zm-1.147-24.623c-1.67 0-3.026.522-3.965 1.565-.939 1.044-1.461 2.609-1.669 4.591h11.163c0-1.982-.521-3.443-1.565-4.59-.939-1.044-2.295-1.566-3.964-1.566zm40.092 15.438c0 3.026-1.044 5.321-3.13 6.886-2.087 1.565-5.217 2.4-9.39 2.4-2.087 0-3.965-.105-5.426-.418-1.46-.313-2.921-.73-4.173-1.252v-6.572c1.461.73 3.13 1.252 5.008 1.773 1.878.522 3.443.73 4.904.73 2.921 0 4.382-.834 4.382-2.503 0-.627-.209-1.148-.626-1.566-.418-.417-1.044-.834-1.983-1.356-.939-.522-2.191-1.043-3.756-1.773-2.295-.94-3.86-1.774-4.903-2.609-1.044-.835-1.774-1.67-2.296-2.712-.521-1.044-.73-2.296-.73-3.86 0-2.61 1.043-4.591 3.026-6.052 1.982-1.46 4.903-2.087 8.555-2.087 3.547 0 6.99.73 10.225 2.295l-2.4 5.739a52.849 52.849 0 00-4.069-1.565 12.45 12.45 0 00-3.86-.626c-2.4 0-3.548.626-3.548 1.878 0 .73.418 1.356 1.148 1.878.73.522 2.4 1.252 5.008 2.295 2.295.94 3.965 1.774 5.008 2.608 1.043.835 1.878 1.774 2.4 2.818.313.939.626 2.19.626 3.651zm12.615-7.196l3.443-4.486 8.138-8.869h8.972l-11.581 12.625L312.87 44.96h-9.181l-8.451-11.79-3.443 2.713v9.077h-7.93V4.27h7.93v18.154l-.418 6.677h.105z" fill="#000"/></g><defs><clipPath id="clip0_1827_8239"><path fill="#fff" d="M0 0h313v57.801H0z"/></clipPath></defs></svg>