<svg width="117" height="117" fill="none" xmlns="http://www.w3.org/2000/svg"><circle cx="54.852" cy="54.225" r="54.226" fill="#266EF8" fill-opacity=".42"/><circle cx="62.507" cy="61.88" r="53.588" stroke="#626262" stroke-width="1.276"/><path d="M71.894 32.321H39.642c-9.676 0-16.126 4.838-16.126 16.126v22.577c0 11.288 6.45 16.126 16.126 16.126h32.252c9.675 0 16.126-4.838 16.126-16.126V48.447c0-11.288-6.45-16.126-16.126-16.126zm1.516 19.642l-10.095 8.063c-2.129 1.71-4.838 2.548-7.547 2.548-2.71 0-5.45-.839-7.547-2.548l-10.095-8.063c-1.032-.839-1.193-2.387-.387-3.419.839-1.032 2.355-1.225 3.387-.387L51.22 56.22c2.45 1.967 6.611 1.967 9.062 0l10.095-8.063c1.032-.838 2.58-.677 3.386.387a2.447 2.447 0 01-.354 3.419z" fill="#292D32"/></svg>