<svg xmlns="http://www.w3.org/2000/svg" width="562" height="433" fill="none"><path stroke="#6D6D6D" stroke-width="2" d="M62.46 114.709C33.734-44.627 176.462-2.741 247.386 39.616c203 100 264.667 177.841 245 241.985-32.5 106-171 151.015-282.5 119.515-88.5-25.002-3.052-137.5-146-137.5-76.192 0-88.932-77.302-6.062-137.276 3.607-2.61 5.424-7.249 4.634-11.631zm359.982-42.154c20.235 11.153-21.631 19.813-17.096 3.117 7.746-15.31 19.608-19.675 17.096-3.117z"/><path stroke="#6D6D6D" stroke-width="2" d="M41.568 296.686c17.488 23.763 24.722 7.88 19.28-6.301-5.853-11.476-30.309-7.575-19.28 6.301zm402.826 92.956c5.568-10.263 23.064-31.694 48.505-35.313 26.164 2.779 13.713 32.653 4.217 47.243-21.29 23.568-3.559-9.555-34.761 5.064s-24.975-5.238-17.961-16.994z"/><path fill="#E6666B" d="M316.156 292.205c-9.875-.632-21.263-2.292-30.245-4.787-1.682-.467-8.648-2.923-10.42-3.702-31.269-13.891-53.052-44.213-53.052-79.391 0-48.251 40.933-87.553 91.279-87.553 49.898 0 90.555 38.632 91.254 86.337h32.976c-.699-65.135-56.141-117.922-124.23-117.922-68.496 0-124.247 53.434-124.247 119.138 0 45.296 26.563 84.691 65.456 104.818 7.023 3.562 17.102 7.234 20.524 8.239 11.086 3.165 24.693 5.269 36.804 6.15 4.113.297 18.475.452 22.661.468H562v-31.499H335.298c-3.016 0-16.191-.109-19.142-.296zm19.142-49.459c-2.398 0-14.94-.078-17.256-.265-3.926-.32-9.616-.881-13.273-1.684-4.129-1.06-8.007-2.463-9.754-3.383-12.249-6.353-20.597-18.778-20.597-33.089 0-20.821 17.581-37.704 39.3-37.704 21.263 0 38.552 16.221 39.242 36.488h31.684c-.667-37.026-32.139-66.865-70.926-66.865-39.218 0-71.008 30.478-71.008 68.081 0 26.518 15.85 49.419 38.934 60.636 3.552 1.996 10.233 4.085 12.135 4.56 6.519 1.645 15.273 2.767 22.377 3.266 2.626.211 15.484.304 18.199.32v.047h227.637v-30.408H335.298zm-166.147 81.137h-33.196V116.842H87.447V85h81.704v238.883zM51 132.752v30.618h36.447v160.513h31.894V132.752H51zm452.344-45.528c-11.956 0-21.873 9.143-21.873 20.617s9.917 20.984 21.873 20.984c12.322 0 21.857-9.51 21.857-20.984 0-11.474-9.535-20.617-21.857-20.617zm0 38.218c-9.876 0-18.386-7.444-18.386-17.601 0-9.642 8.51-17.273 18.386-17.273 9.868 0 18.337 7.63 18.337 17.273 0 10.157-8.469 17.601-18.337 17.601z"/><path fill="#E6666B" d="M511.672 113.491c0-2.315-.357-4.466-3.121-5.316 3.463-1.154 3.804-3.328 3.804-4.646 0-5.324-5.04-6.002-7.112-6.002h-9.535v20.618h3.975v-8.458h3.129c4.503 0 4.877 1.988 4.877 3.804 0 3.516 0 4.178.862 4.654h3.983c-.862-.834-.52-1.481-.862-4.654zm-7.299-6.813h-4.69v-6.493h4.015c2.78 0 4.666.842 4.666 3.344 0 1.318-.675 3.149-3.991 3.149"/></svg>