<svg width="80" height="76" fill="none" xmlns="http://www.w3.org/2000/svg"><path d="M76.361 19.555c-3.4-3.418-9.081-5.127-17.323-5.127h-.96v-.146c0-6.109 0-13.673-15.043-13.673h-6.08c-15.043 0-15.043 7.6-15.043 13.673v.182h-.96c-8.282 0-13.922 1.71-17.323 5.127-3.96 4-3.84 9.382-3.44 13.055l.04.255.31 2.957c.056.545.38 1.037.883 1.336.96.57 2.565 1.512 3.527 1.998.56.327 1.16.618 1.76.909 6.842 3.418 14.363 5.709 22.004 6.836.36 3.419 2 7.419 10.762 7.419 8.761 0 10.482-3.964 10.762-7.492 8.161-1.2 16.042-3.781 23.164-7.563.24-.11.4-.218.6-.328 1.587-.815 3.233-1.82 4.734-2.804.452-.296.742-.755.803-1.258l.064-.52.2-1.709c.04-.218.04-.4.08-.654.32-3.673.24-8.691-3.52-12.473zm-32.005 24.91c0 3.854 0 4.436-4.921 4.436-4.92 0-4.92-.691-4.92-4.4v-4.582h9.84v4.546zM27.633 14.428v-.146c0-6.182 0-8.473 9.322-8.473h6.08c9.322 0 9.322 2.328 9.322 8.473v.182H27.633v-.036z" fill="#292D32"/><path d="M75.884 44.122c1.415-.612 3.044.407 2.903 1.826L77.35 60.325c-.84 7.273-4.121 14.692-21.724 14.692H25.142c-17.603 0-20.883-7.419-21.724-14.655L2.055 46.733c-.14-1.402 1.452-2.42 2.863-1.84 4.558 1.875 12.972 5.201 18.17 6.438a2.236 2.236 0 011.477 1.144c2.428 4.72 7.695 7.232 15.3 7.232 7.53 0 12.862-2.608 15.298-7.34.289-.56.821-.988 1.479-1.145 5.519-1.32 14.475-5.038 19.242-7.1z" fill="#292D32"/></svg>