<svg width="461" height="39" fill="none" xmlns="http://www.w3.org/2000/svg"><path d="M23.094 4.4h7.776V38h-7.776V4.4zM7.83 38H.054V4.4H7.83V38zm15.84-13.776H7.254v-6.576H23.67v6.576zM54.132 38v-5.04l-.48-1.104v-9.024c0-1.6-.496-2.848-1.488-3.744-.96-.896-2.448-1.344-4.464-1.344-1.376 0-2.736.224-4.08.672-1.312.416-2.432.992-3.36 1.728l-2.688-5.232c1.408-.992 3.104-1.76 5.088-2.304 1.984-.544 4-.816 6.048-.816 3.936 0 6.992.928 9.168 2.784 2.176 1.856 3.264 4.752 3.264 8.688V38h-7.008zm-7.872.384c-2.016 0-3.744-.336-5.184-1.008-1.44-.704-2.544-1.648-3.312-2.832-.768-1.184-1.152-2.512-1.152-3.984 0-1.536.368-2.88 1.104-4.032.768-1.152 1.968-2.048 3.6-2.688 1.632-.672 3.76-1.008 6.384-1.008h6.864V27.2h-6.048c-1.76 0-2.976.288-3.648.864-.64.576-.96 1.296-.96 2.16 0 .96.368 1.728 1.104 2.304.768.544 1.808.816 3.12.816 1.248 0 2.368-.288 3.36-.864.992-.608 1.712-1.488 2.16-2.64l1.152 3.456c-.544 1.664-1.536 2.928-2.976 3.792-1.44.864-3.296 1.296-5.568 1.296zM67.917 38V12.176h7.152v7.296L74.06 17.36c.768-1.824 2-3.2 3.696-4.128 1.696-.96 3.76-1.44 6.192-1.44v6.912a8.765 8.765 0 00-.864-.048 6.586 6.586 0 00-.816-.048c-2.048 0-3.712.592-4.992 1.776-1.248 1.152-1.872 2.96-1.872 5.424V38h-7.488zm31.385.384c-2.432 0-4.624-.544-6.576-1.632-1.952-1.12-3.504-2.672-4.656-4.656-1.12-1.984-1.68-4.32-1.68-7.008 0-2.72.56-5.072 1.68-7.056 1.152-1.984 2.704-3.52 4.656-4.608 1.952-1.088 4.144-1.632 6.576-1.632 2.176 0 4.08.48 5.712 1.44 1.632.96 2.896 2.416 3.792 4.368.896 1.952 1.344 4.448 1.344 7.488 0 3.008-.432 5.504-1.296 7.488-.864 1.952-2.112 3.408-3.744 4.368-1.6.96-3.536 1.44-5.808 1.44zm1.296-6.144c1.216 0 2.32-.288 3.312-.864.992-.576 1.776-1.392 2.352-2.448.608-1.088.912-2.368.912-3.84 0-1.504-.304-2.784-.912-3.84-.576-1.056-1.36-1.872-2.352-2.448-.992-.576-2.096-.864-3.312-.864-1.248 0-2.368.288-3.36.864-.992.576-1.792 1.392-2.4 2.448-.576 1.056-.864 2.336-.864 3.84 0 1.472.288 2.752.864 3.84.608 1.056 1.408 1.872 2.4 2.448.992.576 2.112.864 3.36.864zm6.768 5.76v-5.28l.144-7.68-.48-7.632V2.384h7.488V38h-7.152zm28.204 0V4.4h15.264c3.648 0 6.864.704 9.648 2.112 2.784 1.376 4.96 3.312 6.528 5.808 1.568 2.496 2.352 5.456 2.352 8.88 0 3.392-.784 6.352-2.352 8.88-1.568 2.496-3.744 4.448-6.528 5.856-2.784 1.376-6 2.064-9.648 2.064H135.57zm7.776-6.384h7.104c2.24 0 4.176-.416 5.808-1.248 1.664-.864 2.944-2.08 3.84-3.648.928-1.568 1.392-3.408 1.392-5.52 0-2.144-.464-3.984-1.392-5.52-.896-1.568-2.176-2.768-3.84-3.6-1.632-.864-3.568-1.296-5.808-1.296h-7.104v20.832zM174.698 38V12.176h7.488V38h-7.488zm3.744-29.424c-1.376 0-2.496-.4-3.36-1.2-.864-.8-1.296-1.792-1.296-2.976s.432-2.176 1.296-2.976c.864-.8 1.984-1.2 3.36-1.2s2.496.384 3.36 1.152c.864.736 1.296 1.696 1.296 2.88 0 1.248-.432 2.288-1.296 3.12-.832.8-1.952 1.2-3.36 1.2zm19.382 29.808c-2.208 0-4.336-.256-6.384-.768-2.016-.544-3.616-1.216-4.8-2.016l2.496-5.376c1.184.736 2.576 1.344 4.176 1.824 1.632.448 3.232.672 4.8.672 1.728 0 2.944-.208 3.648-.624.736-.416 1.104-.992 1.104-1.728 0-.608-.288-1.056-.864-1.344-.544-.32-1.28-.56-2.208-.72-.928-.16-1.952-.32-3.072-.48a42.835 42.835 0 01-3.312-.624 11.898 11.898 0 01-3.072-1.248 6.477 6.477 0 01-2.256-2.208c-.544-.928-.816-2.128-.816-3.6 0-1.632.464-3.072 1.392-4.32.96-1.248 2.336-2.224 4.128-2.928 1.792-.736 3.936-1.104 6.432-1.104 1.76 0 3.552.192 5.376.576 1.824.384 3.344.944 4.56 1.68l-2.496 5.328c-1.248-.736-2.512-1.232-3.792-1.488a16.199 16.199 0 00-3.648-.432c-1.664 0-2.88.224-3.648.672-.768.448-1.152 1.024-1.152 1.728 0 .64.272 1.12.816 1.44.576.32 1.328.576 2.256.768.928.192 1.936.368 3.024.528 1.12.128 2.24.336 3.36.624a11.13 11.13 0 013.024 1.248 6.08 6.08 0 012.256 2.16c.576.896.864 2.08.864 3.552 0 1.6-.48 3.024-1.44 4.272-.96 1.216-2.352 2.176-4.176 2.88-1.792.704-3.984 1.056-6.576 1.056zm23.004-5.664l.192-9.12 12.048-11.424h8.928l-11.568 11.76-3.888 3.168-5.712 5.616zM214.636 38V2.384h7.488V38h-7.488zm19.248 0l-8.736-10.848 4.704-5.808L242.956 38h-9.072zm37.601.576c-2.688 0-5.264-.352-7.728-1.056-2.464-.736-4.448-1.68-5.952-2.832l2.64-5.856c1.44 1.024 3.136 1.872 5.088 2.544 1.984.64 3.984.96 6 .96 1.536 0 2.768-.144 3.696-.432.96-.32 1.664-.752 2.112-1.296a2.861 2.861 0 00.672-1.872c0-.896-.352-1.6-1.056-2.112-.704-.544-1.632-.976-2.784-1.296a41.997 41.997 0 00-3.84-.96 54.465 54.465 0 01-4.176-1.152 17.82 17.82 0 01-3.792-1.728 8.717 8.717 0 01-2.832-2.784c-.704-1.152-1.056-2.624-1.056-4.416 0-1.92.512-3.664 1.536-5.232 1.056-1.6 2.624-2.864 4.704-3.792 2.112-.96 4.752-1.44 7.92-1.44 2.112 0 4.192.256 6.24.768 2.048.48 3.856 1.216 5.424 2.208l-2.4 5.904c-1.568-.896-3.136-1.552-4.704-1.968-1.568-.448-3.104-.672-4.608-.672-1.504 0-2.736.176-3.696.528-.96.352-1.648.816-2.064 1.392-.416.544-.624 1.184-.624 1.92 0 .864.352 1.568 1.056 2.112.704.512 1.632.928 2.784 1.248 1.152.32 2.416.64 3.792.96 1.408.32 2.8.688 4.176 1.104 1.408.416 2.688.976 3.84 1.68a8.274 8.274 0 012.784 2.784c.736 1.152 1.104 2.608 1.104 4.368a9.083 9.083 0 01-1.584 5.184c-1.056 1.568-2.64 2.832-4.752 3.792-2.08.96-4.72 1.44-7.92 1.44zm31.857-.192c-2.944 0-5.536-.576-7.776-1.728-2.208-1.152-3.92-2.72-5.136-4.704-1.216-2.016-1.824-4.304-1.824-6.864 0-2.592.592-4.88 1.776-6.864a12.705 12.705 0 014.944-4.704c2.08-1.152 4.432-1.728 7.056-1.728 2.528 0 4.8.544 6.816 1.632 2.048 1.056 3.664 2.592 4.848 4.608 1.184 1.984 1.776 4.368 1.776 7.152 0 .288-.016.624-.048 1.008-.032.352-.064.688-.096 1.008h-20.976v-4.368h17.04l-2.88 1.296c0-1.344-.272-2.512-.816-3.504a5.79 5.79 0 00-2.256-2.304c-.96-.576-2.08-.864-3.36-.864-1.28 0-2.416.288-3.408.864-.96.544-1.712 1.328-2.256 2.352-.544.992-.816 2.176-.816 3.552v1.152c0 1.408.304 2.656.912 3.744a6.497 6.497 0 002.64 2.448c1.152.544 2.496.816 4.032.816 1.376 0 2.576-.208 3.6-.624a8.757 8.757 0 002.88-1.872l3.984 4.32c-1.184 1.344-2.672 2.384-4.464 3.12-1.792.704-3.856 1.056-6.192 1.056zm33.162-26.592c2.048 0 3.872.416 5.472 1.248 1.632.8 2.912 2.048 3.84 3.744.928 1.664 1.392 3.808 1.392 6.432V38h-7.488V24.368c0-2.08-.464-3.616-1.392-4.608-.896-.992-2.176-1.488-3.84-1.488-1.184 0-2.256.256-3.216.768-.928.48-1.664 1.232-2.208 2.256-.512 1.024-.768 2.336-.768 3.936V38h-7.488V12.176h7.152v7.152l-1.344-2.16a9.565 9.565 0 013.984-3.984c1.728-.928 3.696-1.392 5.904-1.392zm28.051 26.592c-3.04 0-5.408-.768-7.104-2.304-1.696-1.568-2.544-3.888-2.544-6.96V6.464h7.488v22.56c0 1.088.288 1.936.864 2.544.576.576 1.36.864 2.352.864 1.184 0 2.192-.32 3.024-.96l2.016 5.28c-.768.544-1.696.96-2.784 1.248-1.056.256-2.16.384-3.312.384zm-13.632-19.872v-5.76h17.904v5.76h-17.904zM374.854 38V12.176h7.488V38h-7.488zm3.744-29.424c-1.376 0-2.496-.4-3.36-1.2-.864-.8-1.296-1.792-1.296-2.976s.432-2.176 1.296-2.976c.864-.8 1.984-1.2 3.36-1.2s2.496.384 3.36 1.152c.864.736 1.296 1.696 1.296 2.88 0 1.248-.432 2.288-1.296 3.12-.832.8-1.952 1.2-3.36 1.2zm26.39 3.216c2.048 0 3.872.416 5.472 1.248 1.632.8 2.912 2.048 3.84 3.744.928 1.664 1.392 3.808 1.392 6.432V38h-7.488V24.368c0-2.08-.464-3.616-1.392-4.608-.896-.992-2.176-1.488-3.84-1.488-1.184 0-2.256.256-3.216.768-.928.48-1.664 1.232-2.208 2.256-.512 1.024-.768 2.336-.768 3.936V38h-7.488V12.176h7.152v7.152l-1.344-2.16a9.565 9.565 0 013.984-3.984c1.728-.928 3.696-1.392 5.904-1.392zm30.495 26.592c-2.944 0-5.536-.576-7.776-1.728-2.208-1.152-3.92-2.72-5.136-4.704-1.216-2.016-1.824-4.304-1.824-6.864 0-2.592.592-4.88 1.776-6.864a12.705 12.705 0 014.944-4.704c2.08-1.152 4.432-1.728 7.056-1.728 2.528 0 4.8.544 6.816 1.632 2.048 1.056 3.664 2.592 4.848 4.608 1.184 1.984 1.776 4.368 1.776 7.152 0 .288-.016.624-.048 1.008-.032.352-.064.688-.096 1.008h-20.976v-4.368h17.04l-2.88 1.296c0-1.344-.272-2.512-.816-3.504a5.79 5.79 0 00-2.256-2.304c-.96-.576-2.08-.864-3.36-.864-1.28 0-2.416.288-3.408.864-.96.544-1.712 1.328-2.256 2.352-.544.992-.816 2.176-.816 3.552v1.152c0 1.408.304 2.656.912 3.744a6.497 6.497 0 002.64 2.448c1.152.544 2.496.816 4.032.816 1.376 0 2.576-.208 3.6-.624a8.757 8.757 0 002.88-1.872l3.984 4.32c-1.184 1.344-2.672 2.384-4.464 3.12-1.792.704-3.856 1.056-6.192 1.056zM452.948 38V2.384h7.488V38h-7.488z" fill="#22A1BF"/></svg>