<svg xmlns="http://www.w3.org/2000/svg" xml:space="preserve" id="Слой_1" x="0" y="0" version="1.1" viewBox="0 0 600 400"><style>.st0{fill:#d8effd}.st0,.st1,.st2,.st20,.st6,.st9{stroke:#000;stroke-width:2;stroke-miterlimit:10}.st1{fill:none}.st2{fill:#fff}.st6{fill:#ff9fba}.st9{fill:#b2ddf8}.st20{fill:#eaeaea}.st23{fill:#fff}.st30{stroke-linecap:round;fill:none}.st30,.st31,.st32,.st33{stroke:#000;stroke-width:2;stroke-miterlimit:10}.st31{fill:#fff;stroke-linejoin:round}.st32,.st33{fill:none;stroke-dasharray:4.0477,4.0477}.st33{stroke-dasharray:4.4185,4.4185}.st35{fill:#010002}</style><path d="M427.407 191.833h29.911m-29.911 9h36.765m-36.765 9h29.911" class="st1"/><path d="M528.107 362.705l-46.18 6.646a7.379 7.379 0 01-8.355-6.253l-15.02-104.371a7.379 7.379 0 016.252-8.355l46.18-6.646a7.379 7.379 0 018.355 6.252l15.02 104.372a7.379 7.379 0 01-6.252 8.355z" class="st2"/><path d="M511.42 269.428l24.7 31.402-14.843 37.093-39.546 5.69-24.701-31.4 14.844-37.094z" class="st2"/><path d="M504.49 286.745l13.169 16.742-7.914 19.776-21.084 3.034-13.169-16.742 7.914-19.776z" class="st0"/><circle cx="470.256" cy="259.888" r="4.47" class="st20" transform="rotate(-8.19 470.397 259.991)"/><circle cx="509.439" cy="254.249" r="4.47" class="st20" transform="rotate(-8.19 509.593 254.352)"/><circle cx="484.353" cy="357.847" r="4.47" class="st20" transform="rotate(-8.19 484.495 357.983)"/><circle cx="523.537" cy="352.208" r="4.47" class="st20" transform="rotate(-8.19 523.692 352.343)"/><path stroke-width="2" d="M494.057 341.86l15.613-2.246 1.49 10.355-15.613 2.246z" class="st2"/><path stroke-width="2" d="M471.996 275.32l7.92-1.14.503 3.495-7.92 1.139z" class="st0"/><path stroke-width="2" d="M479.812 274.195l7.92-1.139.503 3.494-7.92 1.14z" class="st0"/><path stroke-width="2" d="M487.628 273.07l7.92-1.139.503 3.494-7.92 1.14z" class="st0"/><path stroke-width="2" d="M495.445 271.946l7.919-1.14.503 3.495-7.92 1.14z" class="st0"/><path stroke-width="2" d="M503.26 270.822l7.92-1.14.503 3.494-7.92 1.14z" class="st0"/><path stroke-width="2" d="M481.32 340.126l7.919-1.139.503 3.494-7.92 1.14z" class="st6"/><path stroke-width="2" d="M489.136 339.002l7.919-1.14.503 3.494-7.92 1.14z" class="st6"/><path stroke-width="2" d="M496.951 337.877l7.92-1.14.503 3.495-7.92 1.14z" class="st6"/><path stroke-width="2" d="M504.767 336.752l7.92-1.139.503 3.494-7.92 1.14z" class="st6"/><path stroke-width="2" d="M512.584 335.628l7.919-1.14.503 3.494-7.92 1.14z" class="st6"/><path d="M495.202 349.675l14.854-4.401m-15.323 1.136l14.853-4.402m-44.642-37.356l-1.105 2.639m9.91-23.654l-7.781 18.571" class="st0"/><path stroke-width="2" d="M76.323 239.699l66.19 6.25-2.084 22.073-66.19-6.25z" class="st2"/><path stroke-width="2" d="M91.133 241.097l36.571 3.453-2.084 22.073-36.571-3.452z" class="st2"/><path stroke-width="2" d="M102.858 236.357l14.215 1.342-.547 5.796-14.215-1.343z" class="st0"/><path d="M100.74 365.264l-6.504-.614a4.26 4.26 0 01-3.84-4.641l9.018-95.5 14.986 1.416-9.018 95.5a4.26 4.26 0 01-4.641 3.839z" class="st20"/><path d="M102.441 289.464l.559-5.921m-3.516 37.232l2.338-24.761m-1.342 62.506l1.052-11.146" class="st2"/><path stroke-width="2" d="M72.372 243.742l3.538.334-1.288 13.64-3.538-.335zm-4.47 2.856l3.538.334-.674 7.141-3.538-.334z" class="st6"/><path stroke-width="2" d="M96.848 264.273l19.698 1.86-.33 3.506-19.699-1.86z" class="st2"/><path d="M200.104 251.708l-28.75 29.25h257.5l-29.25-29.375z" class="st31"/><path d="M171.354 280.458h257.5v13.25h-257.5z" class="st31"/><path d="M200.354 119.958h199.5v132h-199.5z" class="st2"/><path d="M200.354 119.958h199.5v15.693h-199.5z" class="st9"/><circle cx="299.521" cy="126.958" r="3" class="st9"/><path d="M342.088 174.715h41.162" class="st1"/><circle cx="349.319" cy="174.815" r="3.062" class="st6"/><path d="M342.088 182.098h41.162" class="st1"/><circle cx="370.166" cy="182.198" r="3.062" class="st6"/><path d="M342.088 189.333h41.162" class="st1"/><circle cx="358.409" cy="189.433" r="3.062" class="st6"/><path d="M158.712 79.43h2" class="st1"/><path d="M164.76 79.43h103.216" class="st32"/><path d="M270 79.43h2v2" class="st1"/><path d="M272 85.849v15.464" class="st33"/><path d="M272 103.522v2" class="st1"/><circle cx="159.138" cy="79.43" r="7.519" class="st23"/><path d="M159.138 87.95c4.697 0 8.52-3.823 8.52-8.52s-3.823-8.52-8.52-8.52c-4.697 0-8.52 3.823-8.52 8.52s3.823 8.52 8.52 8.52c4.697 0-4.697 0 0 0zm0-15.04c3.596 0 6.52 2.924 6.52 6.52s-2.924 6.52-6.52 6.52c-3.596 0-6.52-2.924-6.52-6.52s2.924-6.52 6.52-6.52c3.596 0-3.596 0 0 0z"/><path d="M156.58 337.949h2" class="st1"/><path d="M162.628 337.949h103.216" class="st32"/><path d="M267.868 337.949h2v-2" class="st1"/><path d="M269.868 331.531v-15.465" class="st33"/><path d="M269.868 313.857v-2" class="st1"/><circle cx="157.006" cy="337.949" r="7.519" class="st23"/><path d="M157.006 346.469c4.698 0 8.52-3.823 8.52-8.52s-3.823-8.52-8.52-8.52c-4.697 0-8.52 3.823-8.52 8.52s3.823 8.52 8.52 8.52c4.697 0-4.697 0 0 0zm0-15.04c3.596 0 6.52 2.924 6.52 6.52s-2.924 6.52-6.52 6.52c-3.595 0-6.52-2.924-6.52-6.52s2.924-6.52 6.52-6.52c3.596 0-3.596 0 0 0z"/><path d="M442.157 79.43h-2" class="st1"/><path d="M436.109 79.43H332.893" class="st32"/><path d="M330.869 79.43h-2v2" class="st1"/><path d="M328.869 85.849v15.464" class="st33"/><path d="M328.869 103.522v2" class="st1"/><circle cx="441.731" cy="79.43" r="7.519" class="st23"/><path d="M441.73 70.91c-4.697 0-8.519 3.823-8.519 8.52s3.823 8.52 8.52 8.52c4.697 0 8.52-3.823 8.52-8.52s-3.823-8.52-8.52-8.52c-4.697 0 4.697 0 0 0zm0 15.04c-3.595 0-6.519-2.924-6.519-6.52s2.924-6.52 6.52-6.52c3.596 0 6.52 2.924 6.52 6.52s-2.924 6.52-6.52 6.52c-3.596 0 3.596 0 0 0z"/><path d="M438.289 337.949h-2" class="st1"/><path d="M432.241 337.949H329.025" class="st32"/><path d="M327 337.949h-2v-2" class="st1"/><path d="M325.001 331.531v-15.465" class="st33"/><path d="M325.001 313.857v-2" class="st1"/><circle cx="437.863" cy="337.949" r="7.519" class="st23"/><path d="M437.863 329.43c-4.698 0-8.52 3.822-8.52 8.519s3.822 8.52 8.52 8.52c4.697 0 8.52-3.823 8.52-8.52s-3.823-8.52-8.52-8.52c-4.698 0 4.697 0 0 0zm0 15.038c-3.596 0-6.52-2.923-6.52-6.519s2.924-6.52 6.52-6.52c3.595 0 6.52 2.924 6.52 6.52s-2.925 6.52-6.52 6.52c-3.596 0 3.595 0 0 0z"/><path d="M129.565 185.857h37.267v24.044h-37.267z" class="st6"/><path d="M129.565 185.857l37.268 24.043m0-24.043L129.565 209.9" class="st1"/><path d="M364.269 144.8h16.283v10.505h-16.283z" class="st6"/><path d="M364.269 144.8l16.282 10.505m0-10.505l-16.282 10.505" class="st1"/><path d="M67.543 250.33s-25.876.365-24.21 45.684c1.667 45.32 5 41.956 5.667 62.505" fill="none" stroke="#000" stroke-width="4" stroke-miterlimit="10"/><path d="M235.591 142.868V245.33" class="st1"/><path d="M303.893 176.341c-12.07 0-21.891 9.82-21.891 21.89s9.82 21.89 21.89 21.89c12.072 0 21.892-9.82 21.892-21.89s-9.822-21.89-21.891-21.89z" class="st6"/><path d="M305.852 196.235l-.934-12.554c-.21-2.82-.44-3.297-1.025-3.297s-.815.478-1.025 3.297l-.934 12.554a3.183 3.183 0 00-1.243 2.517c0 1.198.666 2.23 1.64 2.778l.492 5.458c.233 2.567.518 3 1.07 3s.838-.433 1.07-3l.492-5.458a3.188 3.188 0 001.64-2.778 3.19 3.19 0 00-1.243-2.517zm-1.96-12.263l.871 11.713a3.164 3.164 0 00-.87-.134 3.2 3.2 0 00-.87.134l.87-11.713zm.031 22.923l-.03.322c-.01-.103-.021-.21-.03-.322l-.452-4.989c.158.024.317.048.482.048.164 0 .322-.024.48-.048l-.45 4.99z" class="st35"/><path d="M303.893 169.848c-15.65 0-28.383 12.732-28.383 28.383s12.732 28.383 28.383 28.383c15.65 0 28.383-12.732 28.383-28.383s-12.733-28.383-28.383-28.383zm0 54.679c-14.5 0-26.296-11.796-26.296-26.296s11.795-26.295 26.296-26.295c14.5 0 26.295 11.796 26.295 26.295s-11.796 26.296-26.295 26.296z" class="st35"/><path d="M293.523 188.267l.575-.575c.409-.409.3-.896-.244-1.091l-1.367-.49c-.542-.196-.81.082-.6.617l.515 1.305c.212.536.713.64 1.121.234zm20.482 0c.409.408.91.303 1.122-.233l.515-1.305c.212-.536-.057-.813-.599-.618l-1.368.49c-.542.196-.653.683-.245 1.091l.575.575zm-20.353 19.895c-.408-.408-.91-.302-1.121.233l-.515 1.305c-.212.536.058.813.6.618l1.366-.49c.542-.195.652-.684.244-1.092l-.574-.574zm21.602.233c-.212-.536-.714-.64-1.121-.233l-.574.574c-.408.408-.298.896.244 1.09l1.366.491c.543.195.811-.082.6-.618l-.515-1.304z" class="st35"/><path d="M257.75 187.25c-4.813 0-8.75-3.938-8.75-8.75 0-4.813 3.938-8.75 8.75-8.75 4.813 0 8.75 3.938 8.75 8.75 0 4.813-3.938 8.75-8.75 8.75z" class="st0"/><path d="M257.75 180.5c-1.1 0-2-.9-2-2s.9-2 2-2 2 .9 2 2-.9 2-2 2z"/><path d="M257.75 226.871c-4.813 0-8.75-3.938-8.75-8.75 0-4.813 3.938-8.75 8.75-8.75 4.813 0 8.75 3.938 8.75 8.75 0 4.813-3.938 8.75-8.75 8.75z" class="st0"/><path d="M257.75 220.121c-1.1 0-2-.9-2-2s.9-2 2-2 2 .9 2 2-.9 2-2 2z"/><path d="M266.818 280.458H330v5.958h-63.182z" class="st1"/><path d="M208.5 146.857h18.707m-18.707 5.834h12.476m-12.476 6.732h14.553M208.5 179.857h18.707m-18.707 5.834h12.476m-12.476 6.732h14.553M208.5 211.857h18.707m-18.707 5.834h12.476m-12.476 6.732h14.553" class="st31"/><path d="M341.113 211.857h42.138V225.5h-42.138z" class="st0"/><path d="M344.025 214.412h51.288v10.75h-51.288z" fill="none"/><text transform="translate(344.025 221.162)" font-size="9" font-family="Roboto-Medium">1245 km</text><path d="M260.75 174.125l-3 4.375-4.375-.623m4.375 45.248v-5.004l3.75-2" fill="none" stroke="#000" stroke-width="2" stroke-linecap="round" stroke-linejoin="bevel" stroke-miterlimit="10"/><circle cx="258.319" cy="197.815" r="3.062" class="st6"/><path d="M248.734 146.5h93.354v7.357h-93.354z" class="st0"/><path d="M526.459 120.623L466.03 104.87l13.522-51.867a8.847 8.847 0 0110.793-6.329l43.305 11.29a8.847 8.847 0 016.329 10.793l-13.521 51.866z" class="st2"/><path stroke-width="2" d="M468.547 105.542l55.43 14.452-1.768 6.781-55.43-14.452z" class="st2"/><path stroke-width="2" d="M464.558 136.626l6.084-23.335 47.714 12.44-6.084 23.335z" class="st0"/><path stroke-width="2" d="M466.845 149.683l3.042-11.668 37.06 9.663-3.041 11.668z" class="st2"/><path stroke-width="2" d="M464.559 136.626l1.427-5.475 47.715 12.44-1.428 5.475z" class="st2"/><path d="M485.693 55.495l-7.512 28.815m-1.317 5.051l-1.421 5.452m47.666 12.426l4.352-16.696m1.755-6.733l1.019-3.905m1.702-6.531l1.422-5.453" fill="#fff" stroke="#000" stroke-width="2" stroke-miterlimit="10" stroke-linecap="round"/><path stroke-width="2" d="M532.27 98.428l4.333 1.13-2.449 9.393-4.333-1.13z" class="st2"/><path d="M534.713 106.708c.337-.001 18.182 3.46 9.19 30.003-5.988 17.674-2.85 26.651-2.85 26.651" class="st30"/><path d="M536.038 101.629c.336-.001 22.204 6.466 13.212 33.01-5.987 17.674-2.507 26.755-2.507 26.755" class="st30"/><path d="M554.519 181.839l-7.123 2.393-8.298-19.451 10.288-3.458z" class="st9"/><path d="M542.288 172.257l9.1-2.93" class="st30"/><path d="M120.214 145.289H57.993a4.814 4.814 0 01-4.814-4.814V78.254a4.814 4.814 0 014.813-4.814h62.222a4.814 4.814 0 014.813 4.814v62.221a4.814 4.814 0 01-4.813 4.814z" class="st2"/><circle cx="62.917" cy="83.417" r="4.167" class="st6"/><circle cx="113.917" cy="83.417" r="4.167" class="st6"/><circle cx="62.917" cy="134.417" r="4.167" class="st6"/><circle cx="113.917" cy="134.417" r="4.167" class="st6"/><path d="M77.75 69h20.5v4.44h-20.5zm6 0v4.44M93 69v4.44m-18.263 67.388h28.731v8.922H74.737z" class="st2"/><path d="M77.97 149.75h22.267v8.922H77.97z" class="st9"/><path d="M88.615 26h.52c1.03 0 1.865.835 1.865 1.865V69h-4.25V27.865c0-1.03.835-1.865 1.865-1.865z" class="st2"/><path d="M59.537 85.847l6.86-4.719m49.977 5.649l-5.048-6.62m-46.169 57.769l-4.259-7.153m53.019-.523v8.333M86.75 31.667l4.25-3m-4.25 7l4.25-3m-4.25 7l4.25-3m-4.25 7l4.25-3" class="st9"/><path d="M98.262 126.683H79.944a8.16 8.16 0 01-8.16-8.16v-18.317a8.16 8.16 0 018.16-8.16h18.318a8.16 8.16 0 018.16 8.16v18.317a8.16 8.16 0 01-8.16 8.16z" class="st1"/></svg>