<svg version="1.1" id="Слой_1" xmlns="http://www.w3.org/2000/svg" x="0" y="0" viewBox="0 0 600 400" xml:space="preserve"><style>.st0{fill:#d8effd}.st0,.st1,.st2{stroke:#000;stroke-width:2;stroke-miterlimit:10}.st1{fill:none}.st2{fill:#fff}.st6{fill:#ff9fba}.st6,.st7,.st9{stroke:#000;stroke-width:2;stroke-miterlimit:10}.st7{fill:none;stroke-dasharray:6,6}.st9{fill:#b2ddf8}</style><path class="st1" d="M459.397 88.8h26.626m-26.626 9h32.728m-32.728 9h26.626"/><path class="st0" d="M328.52 123.358c0 21.047-38.109 60.86-38.109 60.86s-38.109-39.813-38.109-60.86 17.062-38.109 38.11-38.109 38.108 17.062 38.108 38.11z"/><circle class="st2" cx="290.411" cy="123.358" r="22.403"/><path class="st9" d="M443.642 97.456c0 10.815-19.58 31.271-19.58 31.271s-19.582-20.457-19.582-31.27 8.767-19.582 19.581-19.582c10.815 0 19.582 8.767 19.582 19.581z"/><circle class="st2" cx="424.062" cy="97.456" r="11.511"/><path class="st6" d="M472.334 207.836c0 7.923-14.346 22.91-14.346 22.91s-14.345-14.987-14.345-22.91 6.422-14.346 14.345-14.346 14.346 6.423 14.346 14.346z"/><circle class="st2" cx="457.988" cy="207.836" r="8.433"/><path class="st6" d="M189.395 70.954c0 7.923-14.346 22.91-14.346 22.91s-14.346-14.987-14.346-22.91 6.423-14.345 14.346-14.345 14.346 6.422 14.346 14.345z"/><circle class="st2" cx="175.049" cy="70.954" r="8.433"/><path class="st9" d="M162.05 167.606c0 11.364-20.576 32.861-20.576 32.861s-20.577-21.497-20.577-32.862 9.212-20.577 20.577-20.577 20.577 9.213 20.577 20.578z"/><circle class="st2" cx="141.474" cy="167.606" r="12.096"/><path class="st7" d="M175.049 100.955s37.228 14.665 45.023 33.779c10.34 25.35 4.204 32.06 24.928 47.266 18.087 13.27 45.411 10.787 45.411 10.787M300 189.78s39.274 2.716 56.137-16.032 24.314-27.588 40.588-32.668c16.275-5.08 28.092-5.908 28.092-5.908M141.474 208.5S77 250 63 227.5s0-34.713 17.834-28.293c16.352 5.886 22.494 36.96 17.166 48.876s-32.553 27.039-23.277 45.478S135 323.94 147 308.97s56-29.944 67-63.078 70.5-49.393 70.5-49.393"/><path class="st2" d="M157.616 213.758h198.135v107.82H157.616zm291.924 107.82h-84.927V232.22h42.463l42.464 42.463zm-253.399 0H449.54v25.109H196.141z"/><circle class="st2" cx="311.072" cy="344.379" r="16.985"/><circle class="st2" cx="311.072" cy="344.379" r="10.339"/><circle class="st2" cx="251.072" cy="344.379" r="16.985"/><circle class="st2" cx="251.072" cy="344.379" r="10.339"/><circle class="st2" cx="410.74" cy="344.379" r="16.985"/><circle class="st2" cx="410.769" cy="344.379" r="10.339"/><path class="st0" d="M372.736 238.605h29.91l38.77 39.14v8.493h-68.68z"/><path class="st1" d="M372.736 299.531h14.401m62.403 0h6.277v16.616h-6.277z"/><path class="st7" d="M457.988 240.5s5.864 24.836 22.387 26.168 39.25-3.251 43.625-35.448c2.97-21.851-6.875-44.053-27.375-63.614-20.014-19.098-84.074-14.106-113.856 22.142-19.762 24.052-88.984 5.459-88.984 5.459"/><circle class="st6" cx="256.466" cy="269.219" r="30.256"/><path fill="none" stroke="#000" stroke-width="2" stroke-linejoin="bevel" stroke-miterlimit="10" d="M261.813 274.566l8.555-20.319-20.318 8.555-7.486 19.25z"/><path class="st1" d="M250.05 262.802l11.763 11.764m-.107-35.291a5.348 5.348 0 10-10.48 0m5.24 0v5.347m0 49.193v5.347m29.943-29.943h-5.347m-49.192 0h-5.347m63.888-161.233v15.318l6.893 6.893m-28.339-6.893h3.064m36.764 0h3.064m-21.446 21.446v-3.064m0-36.764v-3.064m-189.129-11.14c6.7 6.698 6.7 17.559 0 24.257-6.698 6.7-17.56 6.7-24.258 0-6.699-6.698-6.699-17.558 0-24.257 6.699-6.7 17.56-6.7 24.258 0zm-12.129 3.829v12.173m0 2.213v2.214m22.901-19.551l34.137-10.989"/><path d="M136.886 90.285l-1.227-1.581 10.346-8.037-13.092-.493.075-1.998 18.582.7z"/><path class="st1" d="M271.512 43.14h37.799v24.387h-37.799zm0 0l37.799 24.387m0-24.387l-37.799 24.387"/></svg>