<svg version="1.1" id="Слой_1" xmlns="http://www.w3.org/2000/svg" x="0" y="0" viewBox="0 0 600 400" xml:space="preserve"><style>.st0{fill:#d8effd;stroke:#000;stroke-width:2;stroke-miterlimit:10}.st1{fill:#fff}.st1,.st4,.st6{stroke:#000;stroke-width:2;stroke-miterlimit:10}.st4{stroke-dasharray:6}.st4,.st6{fill:none}</style><path class="st0" d="M278 38l43.048 10 42.43-10 47.287 10 43.321-10 38.136 10L532 38l-10 146.833L532 356l-41.074 10-36.606-10-42.57 10-47.522-10-41.885 10L278 356l10-168.5zm85.603 0l.656 318m89.858-318l.328 318"/><path class="st1" d="M437.75 88.18c0 9.25-16.75 26.75-16.75 26.75s-16.75-17.5-16.75-26.75 7.5-16.75 16.75-16.75 16.75 7.5 16.75 16.75z"/><circle class="st1" cx="421" cy="88.18" r="9.847"/><path class="st1" d="M406.945 317.695c0 7.425-13.445 21.472-13.445 21.472s-13.445-14.047-13.445-21.472c0-7.425 6.02-13.445 13.445-13.445s13.445 6.02 13.445 13.445z"/><circle class="st1" cx="393.5" cy="317.695" r="7.904"/><path class="st1" d="M503.566 111.965c0 5.372-9.728 15.535-9.728 15.535s-9.728-10.163-9.728-15.536c0-5.372 4.356-9.727 9.728-9.727s9.728 4.355 9.728 9.728z"/><circle class="st1" cx="493.838" cy="111.965" r="5.719"/><circle cx="317.333" cy="88" r="16.57" fill="none" stroke="#000" stroke-width="2" stroke-miterlimit="10" stroke-dasharray="5.7825,5.7825"/><circle cx="493.217" cy="334.938" r="10.23" fill="none" stroke="#000" stroke-width="2" stroke-miterlimit="10" stroke-dasharray="6.4261,6.4261"/><path class="st4" d="M421 114.93s-23.667 10.57-23.667 27.57 33 31 27.78 56.333c-11.824 57.39-68.113 55.591-34.78 105.796"/><path class="st1" d="M325 150.167h145.667V247.5H325zM555.333 247.5h-76.666v-80.667H517l38.333 38.334zm-237 0h237v22.667h-237z"/><circle class="st1" cx="430.333" cy="268.083" r="15.333"/><circle class="st1" cx="430.333" cy="268.083" r="9.333"/><circle class="st1" cx="520.307" cy="268.083" r="15.333"/><circle class="st1" cx="520.333" cy="268.083" r="9.333"/><path class="st1" d="M127.25 260.25L98.5 289.5H356l-29.25-29.375z"/><path class="st1" d="M98.5 289H356v13.25H98.5zm29-160.5H327v132H127.5zm-.5 15h200"/><circle class="st1" cx="226.667" cy="135.5" r="3"/><circle class="st1" cx="317.333" cy="88" r="9.667"/><circle class="st1" cx="493.217" cy="334.938" r="5.968"/><path d="M44.694 55.333h62v40h-62zm0 0l62 40m0-40l-62 40M486 173.5h27l35 35.333v7.667h-62z" fill="#ff9fba" stroke="#000" stroke-width="2" stroke-miterlimit="10"/><path class="st6" d="M486 228.5h13m-12-19h61m7.333 19H561v15h-5.667z"/><path class="st4" d="M493.838 97.667s-4.61-18.834 9.609-24.167c14.22-5.333 24.475-10.667 19.553-21.333L518.078 41.5"/><path fill="none" stroke="#000" stroke-width="2" stroke-miterlimit="10" stroke-dasharray="6,6" d="M119 75.5h106"/><path d="M221 81.31l21.682-5.81L221 69.69z"/><g stroke="#000" stroke-width="2" stroke-miterlimit="10"><path d="M174.503 202s18.54 25.282 52.248 25.282S279 202 279 202s-18.54-25.282-52.249-25.282S174.503 202 174.503 202z" fill="#b2ddf8"/><circle cx="226.751" cy="202" r="11.798"/></g><path class="st0" d="M45 171h47.694v70.405H45zm19.305 4.542h9.084M45 227.778h47.694M45 180.084h47.694"/><circle cx="68.847" cy="234.591" r="2.271" fill="#d8effd" stroke="#000" stroke-width="2" stroke-linejoin="bevel" stroke-miterlimit="10"/><path class="st6" d="M45 335.5h48m-48 9h59m-59 9h48"/></svg>