<svg xmlns="http://www.w3.org/2000/svg" xml:space="preserve" id="Слой_1" x="0" y="0" version="1.1" viewBox="0 0 600 400"><style>.st0{fill:none}.st0,.st1,.st2{stroke:#000;stroke-width:2;stroke-miterlimit:10}.st1{fill:#d8effd}.st2{fill:#fff}</style><path d="M453.884 168.83a20.83 20.83 0 000-2.414l-3.876-.502c-.039-.447-.1-.887-.17-1.321l3.613-1.491a20.708 20.708 0 00-.622-2.33l-3.872.52c-.153-.418-.328-.83-.513-1.23l3.11-2.374a22.306 22.306 0 00-1.213-2.09l-3.609 1.507a18.365 18.365 0 00-.808-1.06l2.385-3.092a23.284 23.284 0 00-1.704-1.709l-3.097 2.385a19.528 19.528 0 00-1.056-.808l1.505-3.609a23.148 23.148 0 00-2.088-1.21l-2.373 3.11a19.9 19.9 0 00-1.232-.514l.518-3.872a20.95 20.95 0 00-2.331-.624l-1.49 3.618a17.236 17.236 0 00-1.318-.175l-.503-3.879a24.834 24.834 0 00-2.414 0l-.5 3.879c-.444.041-.884.1-1.318.175l-1.49-3.618c-.794.166-1.571.372-2.332.622l.52 3.874c-.416.155-.829.33-1.232.515l-2.371-3.11a22.04 22.04 0 00-2.087 1.209l1.504 3.61c-.362.26-.716.525-1.058.807l-3.096-2.385a23.676 23.676 0 00-1.705 1.709l2.384 3.092a18.6 18.6 0 00-.807 1.06l-3.611-1.507a22.687 22.687 0 00-1.207 2.088l3.109 2.376c-.185.4-.36.812-.515 1.23l-3.873-.52c-.248.76-.46 1.537-.624 2.33l3.618 1.491c-.074.434-.131.874-.175 1.321l-3.874.502a20.92 20.92 0 000 2.409l3.874.504c.044.444.1.887.175 1.318l-3.618 1.492c.164.79.376 1.567.624 2.328l3.873-.517c.154.416.33.828.515 1.23l-3.109 2.373c.364.72.771 1.417 1.209 2.084l3.61-1.502c.258.364.523.718.806 1.058l-2.384 3.095c.54.6 1.109 1.169 1.705 1.706l3.096-2.386c.342.283.696.553 1.059.809l-1.505 3.61c.67.439 1.366.842 2.087 1.208l2.371-3.108c.403.187.816.362 1.232.515l-.52 3.872c.76.25 1.539.456 2.332.622l1.49-3.616c.434.072.874.134 1.319.176l.499 3.876a24.832 24.832 0 002.414 0l.503-3.876a18.36 18.36 0 001.319-.176l1.489 3.616a21.716 21.716 0 002.33-.622l-.517-3.872c.417-.153.824-.328 1.232-.515l2.373 3.108c.72-.366 1.411-.769 2.088-1.209l-1.505-3.61c.363-.255.714-.525 1.056-.808l3.098 2.386a22.195 22.195 0 001.703-1.708l-2.385-3.093c.282-.34.55-.694.808-1.058l3.609 1.502a21.82 21.82 0 001.213-2.084l-3.11-2.372c.185-.405.36-.815.513-1.231l3.873.517c.25-.76.46-1.538.62-2.328l-3.613-1.492c.07-.431.132-.874.171-1.318l3.876-.5zm-23.613 12.231c-6.315-.775-11.284-5.891-11.827-12.276h11.827v12.276zm0-15.605h-11.709a13.555 13.555 0 0111.71-11.279v11.28zm1.586 3.008a1.148 1.148 0 11.005-2.297 1.148 1.148 0 01-.005 2.297zm1.742-14.287a13.553 13.553 0 0111.709 11.28h-11.709v-11.28zm0 26.884v-12.276h11.832c-.548 6.385-5.515 11.501-11.832 12.276z" fill="#ff9fba"/><path d="M412.837 208.988l7.678 7.191.661.62.902-.089a38.514 38.514 0 013.756-.182l.315.001c1.367.012 2.737.095 4.073.248l.898.102.67-.607 7.798-7.06a47.431 47.431 0 019.56 4.055l.346 10.515.03.905.699.574a38.818 38.818 0 015.706 5.803l.563.707.904.045 10.505.519a47.505 47.505 0 013.9 9.627l-7.19 7.679-.617.659.086.899a39.01 39.01 0 01-.068 8.147l-.102.898.606.67 7.06 7.797a47.467 47.467 0 01-4.055 9.561l-10.515.345-.905.03-.574.7a38.56 38.56 0 01-5.801 5.705l-.71.563-.044.904-.52 10.51a47.414 47.414 0 01-9.624 3.895l-7.681-7.19-.66-.616-.897.086c-1.269.12-2.52.182-3.719.182l-.361-.002a39.07 39.07 0 01-4.07-.248l-.897-.101-.67.606-7.794 7.062a47.46 47.46 0 01-9.562-4.057l-.347-10.515-.03-.905-.699-.574a38.861 38.861 0 01-5.71-5.803l-.562-.706-.903-.045-10.504-.519a47.612 47.612 0 01-3.9-9.628l7.194-7.678.62-.663-.09-.903a38.012 38.012 0 01-.182-4.068 39.3 39.3 0 01.247-4.073l.102-.899-.607-.67-7.06-7.795a47.494 47.494 0 014.055-9.562l10.515-.344.904-.03.574-.698a38.768 38.768 0 015.805-5.708l.709-.563.045-.905.518-10.507a47.547 47.547 0 019.626-3.897m.554-2.221a49.497 49.497 0 00-12.122 4.908l-.574 11.619a40.686 40.686 0 00-6.105 6.003l-11.626.381a49.457 49.457 0 00-5.108 12.041l7.808 8.621a41.092 41.092 0 00-.26 4.282 39.897 39.897 0 00.192 4.284l-7.955 8.491a49.58 49.58 0 004.91 12.125l11.617.574a40.788 40.788 0 006.003 6.101l.384 11.627a49.404 49.404 0 0012.041 5.109l8.62-7.81a40.867 40.867 0 008.564.072l8.493 7.95a49.405 49.405 0 0012.12-4.906l.576-11.62a40.5 40.5 0 006.103-6.003l11.627-.38a49.434 49.434 0 005.107-12.042L466 259.572c.16-1.406.25-2.832.26-4.28a40.82 40.82 0 00-.188-4.284l7.95-8.491a49.47 49.47 0 00-4.91-12.124l-11.617-.574a40.77 40.77 0 00-6-6.102l-.384-11.628a49.407 49.407 0 00-12.04-5.107l-8.622 7.808a41.049 41.049 0 00-8.566-.07l-8.49-7.953zm-267.975 34.35l7.678 7.19.66.617.898-.087a39.743 39.743 0 013.792-.182h.283a39.53 39.53 0 014.072.25l.9.104.672-.608 7.795-7.063a47.385 47.385 0 019.561 4.058l.345 10.513.03.904.698.575a38.733 38.733 0 015.707 5.804l.563.71.905.044 10.506.518a47.464 47.464 0 013.898 9.628l-7.19 7.676-.618.66.087.9a38.855 38.855 0 01-.068 8.144l-.103.899.608.67 7.061 7.797a47.443 47.443 0 01-4.056 9.562l-10.515.347-.903.03-.575.698a38.823 38.823 0 01-5.802 5.706l-.708.563-.045.904-.52 10.507a47.545 47.545 0 01-9.627 3.897l-7.678-7.19-.661-.619-.901.088c-1.24.122-2.491.183-3.72.183l-.355-.002a38.607 38.607 0 01-4.068-.249l-.899-.102-.67.607-7.797 7.062a47.395 47.395 0 01-9.562-4.057l-.344-10.512-.03-.904-.699-.574a38.774 38.774 0 01-5.707-5.805l-.564-.708-.904-.045-10.506-.519a47.498 47.498 0 01-3.897-9.628l7.19-7.679.618-.66-.088-.9a38.926 38.926 0 01-.182-4.071c.013-1.357.097-2.729.25-4.076l.102-.898-.607-.67-7.06-7.795a47.504 47.504 0 014.056-9.562l10.513-.344.905-.03.575-.699a38.714 38.714 0 015.802-5.707l.708-.563.045-.904.52-10.505a47.39 47.39 0 019.626-3.898m.554-2.22a49.364 49.364 0 00-12.123 4.907l-.575 11.617a40.644 40.644 0 00-6.103 6.003l-11.626.38a49.466 49.466 0 00-5.107 12.043l7.807 8.62a40.772 40.772 0 00-.07 8.566l-7.951 8.491a49.463 49.463 0 004.908 12.125l11.618.574a40.7 40.7 0 006.003 6.104l.381 11.624a49.359 49.359 0 0012.042 5.109l8.621-7.81a40.396 40.396 0 004.65.264 40.2 40.2 0 003.915-.192l8.49 7.951a49.506 49.506 0 0012.124-4.907l.575-11.62a40.762 40.762 0 006.102-6l11.627-.384a49.415 49.415 0 005.108-12.041l-7.81-8.622a40.645 40.645 0 00.072-8.564l7.952-8.488a49.417 49.417 0 00-4.909-12.126l-11.618-.573a40.659 40.659 0 00-6.002-6.104l-.382-11.625a49.344 49.344 0 00-12.041-5.11l-8.62 7.81a40.766 40.766 0 00-4.585-.264 41.56 41.56 0 00-3.983.192l-8.49-7.95z"/><path d="M297.263 349.799l-.672.04c-1.7.1-3.28.15-4.825.15-1.55 0-3.13-.05-4.827-.15l-.672-.04-5.458 11.449a90.606 90.606 0 01-13.396-2.644l-.657-12.667-.638-.218a79.022 79.022 0 01-8.93-3.702l-.607-.296-9.416 8.485a91.575 91.575 0 01-11.349-7.598l4.239-11.955-.506-.447a79.371 79.371 0 01-6.822-6.821l-.447-.505-11.956 4.237a91.328 91.328 0 01-7.596-11.348l8.486-9.42-.297-.606a78.743 78.743 0 01-3.704-8.927l-.219-.638-12.666-.66a90.555 90.555 0 01-2.645-13.393l11.452-5.46-.04-.671a80.124 80.124 0 01-.152-4.825c0-1.553.05-3.132.152-4.827l.04-.673-11.452-5.456a90.682 90.682 0 012.644-13.396l12.667-.658.22-.639a78.56 78.56 0 013.702-8.929l.296-.607-8.484-9.417a91.343 91.343 0 017.596-11.35l11.955 4.24.447-.506a79.332 79.332 0 016.823-6.823l.506-.448-4.239-11.954a91.082 91.082 0 0111.348-7.595l9.418 8.485.607-.297a78.377 78.377 0 018.928-3.704l.64-.22.656-12.665a90.675 90.675 0 0113.395-2.644l5.456 11.449.673-.04a81.976 81.976 0 014.828-.15c1.56 0 3.14.05 4.825.15l.672.04 5.457-11.45a90.635 90.635 0 0113.395 2.645l.66 12.665.638.22a78.727 78.727 0 018.928 3.704l.606.297 9.421-8.485a91.016 91.016 0 0111.345 7.595l-4.236 11.954.505.448a79.324 79.324 0 016.821 6.823l.448.506 11.957-4.24a91.737 91.737 0 017.596 11.35l-8.488 9.418.297.606a78.26 78.26 0 013.705 8.93l.219.638 12.668.658a90.884 90.884 0 012.644 13.396l-11.452 5.456.04.673c.102 1.704.152 3.283.152 4.827 0 1.54-.05 3.119-.152 4.825l-.04.673 11.452 5.458a90.957 90.957 0 01-2.646 13.392l-12.668.66-.219.64a78.517 78.517 0 01-3.703 8.928l-.297.607 8.489 9.417a91.153 91.153 0 01-7.6 11.348l-11.954-4.237-.447.505a79.431 79.431 0 01-6.822 6.82l-.505.448 4.236 11.956a91.61 91.61 0 01-11.345 7.597l-9.42-8.485-.606.296a79.119 79.119 0 01-8.929 3.702l-.639.22-.659 12.665a90.69 90.69 0 01-13.395 2.644l-5.456-11.45z" fill="#b2ddf8"/><path d="M303.312 182.167a89.691 89.691 0 0111.84 2.337l.588 11.27.07 1.347 1.276.44a77.64 77.64 0 018.815 3.657l1.213.594 1.004-.904 8.381-7.55a90.042 90.042 0 0110.03 6.715l-3.77 10.639-.45 1.271 1.01.894a78.245 78.245 0 016.735 6.737l.894 1.012 1.272-.451 10.64-3.773a90.62 90.62 0 016.716 10.033l-7.551 8.379-.905 1.004.594 1.214a77.18 77.18 0 013.657 8.813l.439 1.278 1.349.07 11.271.587a89.939 89.939 0 012.336 11.84l-10.192 4.857-1.217.58.081 1.345c.101 1.685.15 3.245.15 4.767 0 1.52-.049 3.078-.15 4.766l-.08 1.345 1.216.58 10.192 4.858a89.93 89.93 0 01-2.338 11.839l-11.271.588-1.349.07-.439 1.277a77.341 77.341 0 01-3.655 8.813l-.594 1.214.905 1.004 7.55 8.38a90.314 90.314 0 01-6.716 10.03l-10.639-3.77-1.272-.45-.894 1.01a78.366 78.366 0 01-6.735 6.735l-1.01.893.45 1.272 3.77 10.64a90.557 90.557 0 01-10.03 6.716l-8.38-7.55-1.004-.904-1.213.593a77.873 77.873 0 01-8.816 3.656l-1.276.439-.07 1.348-.587 11.27a89.465 89.465 0 01-11.841 2.336l-4.856-10.19-.58-1.217-1.344.08c-1.685.1-3.244.149-4.766.149-1.528 0-3.087-.049-4.767-.149l-1.345-.08-.58 1.216-4.858 10.191a89.542 89.542 0 01-11.842-2.337l-.584-11.269-.07-1.348-1.277-.44a77.776 77.776 0 01-8.816-3.655l-1.213-.592-1.003.904-8.378 7.55A90.554 90.554 0 01237 342.262l3.772-10.64.451-1.271-1.01-.894a78.342 78.342 0 01-6.737-6.735l-.894-1.01-1.272.45-10.64 3.77a90.382 90.382 0 01-6.715-10.03l7.55-8.381.905-1.004-.595-1.214a77.59 77.59 0 01-3.656-8.813l-.44-1.276-1.347-.07-11.27-.588a89.637 89.637 0 01-2.337-11.838l10.193-4.86 1.216-.58-.08-1.345a78.574 78.574 0 01-.15-4.765c0-1.533.049-3.092.15-4.766l.08-1.346-1.217-.58-10.192-4.856a89.775 89.775 0 012.337-11.841l11.27-.587 1.349-.07.439-1.277a77.607 77.607 0 013.655-8.815l.593-1.213-.904-1.004-7.549-8.378a90.427 90.427 0 016.716-10.034l10.638 3.773 1.272.451.894-1.01a78.098 78.098 0 016.737-6.738l1.011-.894-.45-1.272-3.773-10.64a90.149 90.149 0 0110.032-6.714l8.379 7.55 1.004.904 1.214-.594a77.32 77.32 0 018.814-3.657l1.277-.44.07-1.348.584-11.269a89.794 89.794 0 0111.842-2.337l4.856 10.19.58 1.216 1.344-.08a79.86 79.86 0 014.77-.147c1.537 0 3.096.048 4.765.147l1.345.08.58-1.216 4.856-10.19m-1.188-2.157l-5.474 11.487a82.358 82.358 0 00-4.884-.15 82.39 82.39 0 00-4.889.15l-5.473-11.487a91.389 91.389 0 00-14.952 2.952l-.66 12.708a79.027 79.027 0 00-9.042 3.752l-9.449-8.514a91.785 91.785 0 00-12.666 8.478l4.252 11.993a79.82 79.82 0 00-6.91 6.91l-11.994-4.253a92.059 92.059 0 00-8.478 12.668l8.513 9.448a79.326 79.326 0 00-3.75 9.043l-12.708.662a91.386 91.386 0 00-2.953 14.95l11.49 5.475a81.285 81.285 0 00-.154 4.887c0 1.64.057 3.267.154 4.885l-11.49 5.476a91.242 91.242 0 002.954 14.948l12.707.663a79.293 79.293 0 003.75 9.041l-8.513 9.45a92.036 92.036 0 008.478 12.666l11.995-4.25a80.078 80.078 0 006.909 6.907l-4.252 11.994c3.967 3.161 8.203 6 12.666 8.48l9.448-8.514a79.452 79.452 0 009.043 3.75l.66 12.706a91.165 91.165 0 0014.952 2.953l5.476-11.488a82.23 82.23 0 004.886.152c1.64 0 3.267-.056 4.884-.152l5.474 11.488a91.042 91.042 0 0014.95-2.953l.663-12.707a79.568 79.568 0 009.042-3.75l9.451 8.515a92.204 92.204 0 0012.663-8.479l-4.248-11.995a80.128 80.128 0 006.907-6.908l11.993 4.251a91.953 91.953 0 008.48-12.665l-8.515-9.45a79.065 79.065 0 003.75-9.042l12.71-.663a91.506 91.506 0 002.953-14.948l-11.489-5.476c.097-1.618.154-3.245.154-4.885 0-1.642-.057-3.271-.154-4.887l11.49-5.475a91.532 91.532 0 00-2.952-14.95l-12.71-.662a78.797 78.797 0 00-3.752-9.043l8.516-9.448a92.261 92.261 0 00-8.478-12.668l-11.996 4.253a79.974 79.974 0 00-6.907-6.91l4.248-11.993a91.66 91.66 0 00-12.663-8.478l-9.45 8.514a79.346 79.346 0 00-9.043-3.752l-.662-12.708a91.259 91.259 0 00-14.95-2.952z"/><path d="M222.856 183.978a66.47 66.47 0 00.146-4.343c0-1.46-.052-2.908-.146-4.345l-15.68-3.925a50.139 50.139 0 00-2.536-9.485l11.622-11.242a65.577 65.577 0 00-4.346-7.519l-15.553 4.446a50.73 50.73 0 00-6.938-6.939l4.445-15.554a65.566 65.566 0 00-7.517-4.345l-11.245 11.62a50.23 50.23 0 00-9.484-2.534l-3.925-15.68a68.049 68.049 0 00-4.344-.145c-1.46 0-2.909.053-4.344.144l-3.925 15.681a50.244 50.244 0 00-9.485 2.535l-11.244-11.621a65.457 65.457 0 00-7.518 4.345l4.446 15.554a50.81 50.81 0 00-6.94 6.94l-15.551-4.447a65.488 65.488 0 00-4.347 7.519l11.622 11.242a50.161 50.161 0 00-2.535 9.485l-15.68 3.925a66.806 66.806 0 00-.147 4.345c0 1.459.053 2.907.146 4.343l15.681 3.925a50.112 50.112 0 002.535 9.486l-11.622 11.244a65.597 65.597 0 004.347 7.516l15.553-4.443a50.801 50.801 0 006.938 6.936l-4.446 15.552a65.164 65.164 0 007.518 4.347l11.244-11.62a50.109 50.109 0 009.485 2.534l3.925 15.681c1.435.094 2.883.147 4.344.147 1.461 0 2.907-.053 4.344-.147l3.925-15.681a50.103 50.103 0 009.484-2.534l11.244 11.62a65.281 65.281 0 007.518-4.347l-4.445-15.552a50.798 50.798 0 006.937-6.936l15.554 4.443a65.723 65.723 0 004.346-7.516l-11.622-11.244a50.087 50.087 0 002.536-9.486l15.68-3.924z" class="st1"/><path d="M158.54 220.357c-.707 0-1.425-.02-2.13-.055l.11-2.072a37.78 37.78 0 004.079-.002l.11 2.072c-.718.037-1.447.057-2.169.057zm-6.406-.515a39.306 39.306 0 01-4.202-.917l.552-1.998a38.06 38.06 0 003.982.87l-.332 2.045zm12.852-.006l-.335-2.046a37.284 37.284 0 003.982-.874l.554 1.997a38.62 38.62 0 01-4.201.923zm-21.134-2.282a39.8 39.8 0 01-3.905-1.807l.97-1.831a37.963 37.963 0 003.702 1.712l-.767 1.926zm29.411-.013l-.767-1.926c1.256-.503 2.5-1.08 3.697-1.717l.974 1.831a39.697 39.697 0 01-3.904 1.811zm-37.002-4.013a39.89 39.89 0 01-3.424-2.604l1.34-1.58a38.084 38.084 0 003.248 2.469l-1.164 1.715zm44.588-.02l-1.165-1.715a37.975 37.975 0 003.243-2.47l1.343 1.58a40.458 40.458 0 01-3.421 2.605zm-51.137-5.54a40.064 40.064 0 01-2.788-3.275l1.649-1.257a37.915 37.915 0 002.643 3.105l-1.504 1.426zm57.68-.025l-1.506-1.426a37.59 37.59 0 002.641-3.107l1.65 1.255a40.095 40.095 0 01-2.785 3.278zm-62.887-6.805a39.789 39.789 0 01-2.02-3.795l1.88-.874a37.377 37.377 0 001.914 3.596l-1.774 1.073zm68.09-.03l-1.777-1.071a37.58 37.58 0 001.913-3.601l1.88.872a39.986 39.986 0 01-2.016 3.8zm-71.708-7.76a39.772 39.772 0 01-1.152-4.146l2.025-.445a37.537 37.537 0 001.091 3.928l-1.964.663zm75.32-.04l-1.966-.66a37.39 37.39 0 001.088-3.93l2.026.445a39.925 39.925 0 01-1.149 4.145zm-77.168-8.35a40.683 40.683 0 01-.234-4.293l2.074-.002c.001 1.357.076 2.729.221 4.071l-2.06.223zm79.005-.042l-2.06-.222c.144-1.342.217-2.713.217-4.07v-.082h2.074v.081a40.18 40.18 0 01-.23 4.293zm-76.951-8.325l-2.062-.221c.15-1.424.382-2.852.686-4.245l2.026.44a37.4 37.4 0 00-.65 4.026zm74.882-.118a37.575 37.575 0 00-.664-4.023l2.025-.447c.309 1.393.544 2.82.7 4.244l-2.06.226zm-73.148-7.839l-1.965-.658a39.118 39.118 0 011.589-3.998l1.881.868a37.617 37.617 0 00-1.505 3.788zm71.39-.11a37.363 37.363 0 00-1.518-3.784l1.879-.874a39.403 39.403 0 011.602 3.993l-1.964.665zm-67.977-7.281l-1.775-1.07a39.672 39.672 0 012.413-3.56l1.65 1.255a38.14 38.14 0 00-2.288 3.375zm64.54-.097a37.936 37.936 0 00-2.296-3.368l1.647-1.26a40.312 40.312 0 012.423 3.553l-1.774 1.075zm-59.614-6.389l-1.507-1.425a40.134 40.134 0 013.12-2.961l1.344 1.577a38.086 38.086 0 00-2.957 2.81zm54.671-.083a37.985 37.985 0 00-2.966-2.799l1.34-1.581a40.475 40.475 0 013.129 2.952l-1.503 1.428zm-48.474-5.2l-1.166-1.712a39.21 39.21 0 013.68-2.225l.975 1.829a37.682 37.682 0 00-3.489 2.109zm42.26-.063a37.847 37.847 0 00-3.496-2.1l.97-1.83a40.216 40.216 0 013.689 2.213l-1.163 1.718zm-35.075-3.764l-.771-1.926c1.329-.532 2.7-.996 4.075-1.377l.556 1.995a37.514 37.514 0 00-3.86 1.308zm27.876-.044a37.23 37.23 0 00-3.866-1.295l.55-1.997c1.38.378 2.752.839 4.08 1.367l-.764 1.925zm-20.035-2.142l-.337-2.046a40.552 40.552 0 014.277-.466l.113 2.069a38.146 38.146 0 00-4.053.443zm12.186-.018a38.509 38.509 0 00-4.054-.431l.107-2.07c1.43.075 2.87.228 4.277.453l-.33 2.048zM426.661 290.15c-.71 0-1.423-.022-2.128-.064l.125-2.069c1.338.08 2.709.08 4.035-.001l.132 2.068c-.714.044-1.443.067-2.164.067zm-6.39-.596a33.805 33.805 0 01-4.161-1.062l.639-1.973c1.27.413 2.584.75 3.907.998l-.385 2.037zm12.812-.006l-.386-2.037a31.654 31.654 0 003.907-1l.64 1.97a33.91 33.91 0 01-4.16 1.067zm-20.973-2.636a34.61 34.61 0 01-3.763-2.07l1.113-1.75a32.436 32.436 0 003.534 1.943l-.884 1.877zm29.13-.014l-.886-1.876a32.437 32.437 0 003.53-1.946l1.113 1.751a34.828 34.828 0 01-3.758 2.07zm-36.367-4.582a34.15 34.15 0 01-3.131-2.938l1.51-1.42c.916.977 1.91 1.905 2.943 2.76l-1.322 1.598zm43.596-.018l-1.324-1.597a32.943 32.943 0 002.942-2.76l1.512 1.419a35.062 35.062 0 01-3.13 2.938zm-49.47-6.226a34.509 34.509 0 01-2.306-3.62l1.817-1a32.322 32.322 0 002.165 3.4l-1.676 1.22zm55.337-.022l-1.676-1.22a32.32 32.32 0 002.167-3.405l1.813 1a34.183 34.183 0 01-2.304 3.625zm-59.476-7.479a33.91 33.91 0 01-1.331-4.085l2.008-.514a32.486 32.486 0 001.25 3.835l-1.926.764zm63.614-.033l-1.93-.762a32.236 32.236 0 001.248-3.843l2.009.518a34.605 34.605 0 01-1.327 4.087zm-65.751-8.27a35.393 35.393 0 01-.27-4.284l2.074-.003c0 1.348.088 2.703.254 4.028l-2.058.259zm67.876-.037l-2.056-.258c.165-1.328.25-2.683.25-4.028v-.075h2.074v.075a34.8 34.8 0 01-.268 4.286zm-65.826-8.277l-2.059-.256c.177-1.42.445-2.839.798-4.22l2.008.512a32.17 32.17 0 00-.747 3.964zm63.76-.108a31.93 31.93 0 00-.758-3.961l2.006-.52c.357 1.382.628 2.802.81 4.219l-2.059.262zm-61.77-7.695l-1.929-.762a33.912 33.912 0 011.826-3.89l1.816.998a31.408 31.408 0 00-1.714 3.654zm59.757-.101a32.174 32.174 0 00-1.726-3.642l1.816-1.003a33.95 33.95 0 011.835 3.878l-1.925.767zm-55.882-6.963l-1.678-1.217a34.29 34.29 0 012.736-3.31l1.513 1.417a32.36 32.36 0 00-2.57 3.11zm51.986-.079a32.83 32.83 0 00-2.58-3.103l1.51-1.421a34.86 34.86 0 012.742 3.303l-1.672 1.221zm-46.478-5.797l-1.325-1.595a34.414 34.414 0 013.47-2.531l1.112 1.748a32.119 32.119 0 00-3.257 2.379zm40.954-.061a32.468 32.468 0 00-3.267-2.37l1.107-1.752a34.61 34.61 0 013.478 2.52l-1.318 1.602zm-34.166-4.267l-.888-1.875a33.99 33.99 0 013.993-1.587l.642 1.971a32.249 32.249 0 00-3.747 1.491zm27.358-.044a32.142 32.142 0 00-3.753-1.48l.635-1.973c1.358.438 2.705.968 3.999 1.577l-.88 1.876zm-19.706-2.454l-.39-2.035a34.406 34.406 0 014.262-.541l.13 2.07a32.256 32.256 0 00-4.002.506zm12.043-.02a32.254 32.254 0 00-4.005-.493l.126-2.07c1.428.086 2.86.263 4.263.526l-.384 2.037zm-274.434 97.226a34.82 34.82 0 01-2.129-.062l.126-2.069c1.338.08 2.706.08 4.038-.003l.13 2.07c-.716.044-1.443.064-2.165.064zm-6.39-.592a34.111 34.111 0 01-4.162-1.066l.64-1.972c1.272.414 2.587.752 3.907 1l-.385 2.038zm12.814-.008l-.387-2.038a32.265 32.265 0 003.907-1l.64 1.971a34.559 34.559 0 01-4.16 1.067zm-20.973-2.638a34.532 34.532 0 01-3.765-2.07l1.111-1.751a31.838 31.838 0 003.538 1.946l-.884 1.875zm29.127-.013l-.885-1.875a32.5 32.5 0 003.531-1.946l1.113 1.75a34.406 34.406 0 01-3.76 2.07zm-36.366-4.581a34.395 34.395 0 01-3.131-2.939l1.51-1.42a32.18 32.18 0 002.942 2.758l-1.32 1.6zm43.596-.018l-1.323-1.597a32.864 32.864 0 002.941-2.761l1.511 1.417a34.855 34.855 0 01-3.129 2.941zm-49.468-6.226a34.694 34.694 0 01-2.307-3.622l1.815-1a32.386 32.386 0 002.167 3.4l-1.675 1.221zm55.336-.024l-1.677-1.217a32.438 32.438 0 002.166-3.408l1.816 1.002a34.202 34.202 0 01-2.305 3.623zm-59.477-7.479a34.28 34.28 0 01-1.33-4.082l2.008-.517c.334 1.3.755 2.59 1.25 3.835l-1.928.764zm63.614-.032l-1.927-.765a32.124 32.124 0 001.246-3.837l2.007.512a34.066 34.066 0 01-1.326 4.09zm-65.75-8.27a35.024 35.024 0 01-.27-4.284l2.073-.002c.003 1.345.088 2.7.256 4.027l-2.058.26zm67.877-.04l-2.058-.255c.166-1.329.25-2.681.25-4.03v-.073h2.074v.074c0 1.433-.09 2.874-.266 4.284zm-65.827-8.274l-2.058-.255c.175-1.42.444-2.84.795-4.22l2.01.512a31.873 31.873 0 00-.747 3.963zm63.76-.11a32.015 32.015 0 00-.76-3.96l2.008-.519c.356 1.382.628 2.802.809 4.219l-2.057.26zm-61.773-7.693l-1.928-.763a34.356 34.356 0 011.827-3.89l1.818 1a31.706 31.706 0 00-1.717 3.653zm59.76-.1a31.966 31.966 0 00-1.727-3.643l1.814-1.004a34.312 34.312 0 011.839 3.88l-1.927.768zm-55.882-6.962l-1.678-1.217a34.374 34.374 0 012.736-3.311l1.513 1.416a32.63 32.63 0 00-2.571 3.112zm51.985-.08a32.442 32.442 0 00-2.579-3.103l1.508-1.42a34.277 34.277 0 012.744 3.3l-1.673 1.223zm-46.477-5.798l-1.325-1.595a34.545 34.545 0 013.468-2.531l1.115 1.747a32.182 32.182 0 00-3.258 2.379zm40.952-.064a32.538 32.538 0 00-3.267-2.367l1.11-1.752a35.12 35.12 0 013.477 2.52l-1.32 1.6zm-34.165-4.264l-.887-1.875a33.937 33.937 0 013.992-1.587l.642 1.97a31.964 31.964 0 00-3.746 1.492zm27.36-.043a31.84 31.84 0 00-3.755-1.481l.637-1.973a33.9 33.9 0 013.998 1.576l-.88 1.878zm-19.706-2.456l-.39-2.034a33.79 33.79 0 014.26-.541l.132 2.07a32.543 32.543 0 00-4.002.505zm12.042-.02a32.698 32.698 0 00-4.003-.492l.123-2.07a34.31 34.31 0 014.263.526l-.383 2.036zm27.838 86.584l-1.082-1.767c.572-.35 1.151-.718 1.722-1.095l1.138 1.734c-.589.387-1.188.766-1.778 1.128zm-36.054 9.531a66.744 66.744 0 01-4.192-.262l.195-2.064c1.347.128 2.713.213 4.06.255l-.063 2.071zm4.2-.007l-.069-2.072a63.69 63.69 0 004.06-.264l.202 2.063c-1.39.135-2.8.228-4.192.273zm-12.559-.785a67.042 67.042 0 01-4.124-.797l.458-2.023c1.315.3 2.66.556 3.993.771l-.327 2.049zm20.917-.03l-.333-2.048a64.215 64.215 0 003.993-.78l.463 2.02c-1.36.313-2.748.584-4.123.809zm-29.105-1.827a65.659 65.659 0 01-3.989-1.319l.715-1.946a64.33 64.33 0 003.86 1.278l-.586 1.986zm37.291-.053l-.594-1.988a63.684 63.684 0 003.86-1.287l.719 1.943a64.347 64.347 0 01-3.985 1.332zm-45.173-2.839a66.193 66.193 0 01-3.784-1.822l.96-1.837a65.217 65.217 0 003.662 1.762l-.838 1.897zm53.049-.079l-.845-1.892a62.166 62.166 0 003.66-1.778l.965 1.834a64.118 64.118 0 01-3.78 1.837zm-60.491-3.808a65.343 65.343 0 01-3.515-2.293l1.189-1.7a62.637 62.637 0 003.402 2.223l-1.076 1.77zm-6.875-4.812a66.03 66.03 0 01-3.193-2.73l1.396-1.53a65.05 65.05 0 003.092 2.644l-1.295 1.616zm-6.207-5.654a65.986 65.986 0 01-2.823-3.114l1.579-1.343a64.436 64.436 0 002.736 3.018l-1.492 1.439zm-5.444-6.4a66.095 66.095 0 01-2.402-3.451l1.738-1.127a63.074 63.074 0 002.327 3.338l-1.663 1.24zm-4.577-7.046a64.843 64.843 0 01-1.937-3.732l1.87-.895a62.786 62.786 0 001.875 3.613l-1.808 1.014zm-3.628-7.577a65.341 65.341 0 01-1.439-3.951l1.97-.645c.422 1.283.89 2.571 1.392 3.821l-1.923.775zm-2.619-7.985a66.019 66.019 0 01-.918-4.1l2.037-.386c.253 1.327.552 2.661.888 3.97l-2.007.517zm-1.57-8.25a65.317 65.317 0 01-.386-4.183l2.068-.124c.081 1.348.208 2.71.374 4.051l-2.057.256zm1.57-8.375l-2.073-.006c.005-1.396.056-2.808.15-4.2l2.07.14a63.647 63.647 0 00-.147 4.067zm.552-8.112l-2.055-.275c.184-1.381.414-2.775.686-4.143l2.033.406a63.832 63.832 0 00-.664 4.012zm1.584-7.974l-2.003-.535c.36-1.347.767-2.7 1.213-4.02l1.964.66a63.938 63.938 0 00-1.174 3.895zm2.596-7.704l-1.918-.787c.53-1.29 1.109-2.58 1.72-3.833l1.863.908a62.464 62.464 0 00-1.665 3.712zm3.566-7.303l-1.799-1.03a64.579 64.579 0 012.2-3.576l1.73 1.14a63.198 63.198 0 00-2.13 3.466zm4.498-6.803l-1.653-1.253a66.23 66.23 0 011.301-1.658l1.61 1.306c-.427.525-.85 1.066-1.258 1.605z"/><path d="M202.949 332.536c-5.973 1.94-14.014 3.55-20.014 3.264l8.914 5.519 3.32 9.943c1.1-5.905 4.517-13.36 7.78-18.726z"/><circle cx="107.747" cy="246.553" r="7.794" transform="rotate(-48.008 107.75 246.562)"/><path d="M459.103 196.217a65.263 65.263 0 00-1.99-.445l.42-2.03c.686.143 1.378.298 2.055.46l-.485 2.015zm-1.706 125.455l-.415-2.03a62.046 62.046 0 003.955-.945l.547 2a66.251 66.251 0 01-4.087.975zm8.1-2.212l-.675-1.962a60.61 60.61 0 003.798-1.446l.8 1.915a64.9 64.9 0 01-3.923 1.493zm7.74-3.236l-.922-1.856a64.74 64.74 0 003.581-1.923l1.038 1.792a66.172 66.172 0 01-3.697 1.987zm7.263-4.207l-1.153-1.724a63.643 63.643 0 003.306-2.365l1.261 1.644a67.435 67.435 0 01-3.414 2.445zm6.664-5.103l-1.364-1.562a60.806 60.806 0 002.978-2.771l1.46 1.473a65.477 65.477 0 01-3.074 2.86zm5.961-5.912l-1.55-1.377a64.082 64.082 0 002.6-3.128l1.636 1.273a64.447 64.447 0 01-2.686 3.232zm5.16-6.628l-1.715-1.167a61.31 61.31 0 002.178-3.435l1.787 1.053a64.899 64.899 0 01-2.25 3.549zm4.267-7.237l-1.85-.935a63.693 63.693 0 001.721-3.69l1.905.814a64.837 64.837 0 01-1.776 3.81zm3.3-7.729l-1.952-.69a63.191 63.191 0 001.226-3.883l1.998.56a64.203 64.203 0 01-1.271 4.013zm2.275-8.091l-2.028-.43c.28-1.32.52-2.666.715-4.003l2.052.3a66.366 66.366 0 01-.74 4.133zm1.21-8.307l-2.068-.167c.108-1.342.178-2.71.2-4.063l2.072.036a65.508 65.508 0 01-.204 4.194zm-1.927-8.298a64.276 64.276 0 00-.318-4.054l2.059-.228c.153 1.382.263 2.79.329 4.185l-2.07.097zm-.896-8.08a60.052 60.052 0 00-.836-3.98l2.014-.49c.333 1.353.622 2.738.863 4.11l-2.04.36zm-1.928-7.898a61.905 61.905 0 00-1.34-3.835l1.932-.746c.503 1.298.97 2.632 1.389 3.962l-1.98.62zm-2.927-7.575a65.288 65.288 0 00-1.827-3.634l1.82-.99a67.408 67.408 0 011.888 3.752l-1.881.872zm-3.884-7.14a61.976 61.976 0 00-2.277-3.369l1.678-1.215a64.94 64.94 0 012.35 3.478l-1.751 1.105zm-4.767-6.584a63.074 63.074 0 00-2.692-3.053l1.51-1.42a65.817 65.817 0 012.78 3.153l-1.598 1.32zm-5.57-5.924a61.417 61.417 0 00-3.058-2.683l1.314-1.603a66.583 66.583 0 013.158 2.77l-1.414 1.516zm-6.284-5.167a63.073 63.073 0 00-3.374-2.269l1.099-1.756a64.81 64.81 0 013.487 2.344l-1.212 1.681zm-6.89-4.319a64.511 64.511 0 00-3.642-1.817l.867-1.884a64.202 64.202 0 013.758 1.879l-.982 1.822zm-7.391-3.394a63.547 63.547 0 00-3.847-1.334l.616-1.98c1.33.414 2.665.878 3.973 1.378l-.742 1.936zM451.126 322.64l-.22-2.064c.679-.07 1.358-.154 2.028-.244l.28 2.053c-.689.095-1.392.18-2.088.254z"/><path d="M444.883 193.429c5.594 2.851 12.419 7.4 16.457 11.844l-2.4-10.204 4.682-9.378c-4.955 3.397-12.641 6.253-18.739 7.738z"/><ellipse cx="451.399" cy="321.546" rx="7.794" ry="7.795" transform="rotate(-3.032 451.315 321.755)"/><path d="M289.856 337.802a69.114 69.114 0 01-4.183-.252l.186-2.063c1.342.12 2.706.201 4.058.243l-.061 2.072zm4.188-.003l-.062-2.071a65.328 65.328 0 004.056-.25l.189 2.066c-1.384.126-2.79.211-4.183.255zm-12.533-.755a68.736 68.736 0 01-4.121-.765l.442-2.024c1.314.285 2.659.534 3.994.738l-.315 2.05zm20.874-.013l-.317-2.05a66.48 66.48 0 003.995-.742l.442 2.022a65.67 65.67 0 01-4.12.77zm-29.06-1.767a68.24 68.24 0 01-3.996-1.266l.689-1.957a67.34 67.34 0 003.872 1.23l-.566 1.993zm37.245-.023l-.567-1.993a67.153 67.153 0 003.872-1.232l.69 1.955c-1.31.462-2.654.89-3.995 1.27zm-45.156-2.758a67.944 67.944 0 01-3.813-1.754l.924-1.858a67.154 67.154 0 003.697 1.703l-.808 1.91zm53.052-.028l-.81-1.908a64.732 64.732 0 003.686-1.7l.924 1.856a65.583 65.583 0 01-3.8 1.752zm-60.562-3.712a68.473 68.473 0 01-3.564-2.21l1.144-1.729a65.95 65.95 0 003.458 2.143l-1.038 1.796zm68.05-.024l-1.039-1.794a65.621 65.621 0 003.45-2.141l1.146 1.728a67.98 67.98 0 01-3.558 2.207zm-75.037-4.61a66.44 66.44 0 01-3.265-2.629l1.347-1.574a67.535 67.535 0 003.168 2.55l-1.25 1.653zm82.013-.023l-1.25-1.653a68.064 68.064 0 003.161-2.548l1.35 1.573a65.985 65.985 0 01-3.261 2.628zm-88.377-5.428a68.702 68.702 0 01-2.92-3.007l1.53-1.398a64.87 64.87 0 002.833 2.914l-1.443 1.491zm94.735-.023l-1.442-1.487a67.436 67.436 0 002.83-2.92l1.53 1.4a69.557 69.557 0 01-2.918 3.007zm-100.384-6.165a68.257 68.257 0 01-2.53-3.338l1.69-1.202a66.642 66.642 0 002.452 3.239l-1.612 1.301zm106.03-.024l-1.613-1.303a67.994 67.994 0 002.453-3.242l1.691 1.2a68.084 68.084 0 01-2.531 3.345zm-110.879-6.803a66.94 66.94 0 01-2.1-3.622l1.825-.984a66.999 66.999 0 002.036 3.513l-1.76 1.093zm115.73-.034l-1.763-1.095a64.081 64.081 0 002.038-3.52l1.825.983a67.261 67.261 0 01-2.1 3.632zm-119.702-7.334a67.103 67.103 0 01-1.635-3.85l1.931-.75a66.091 66.091 0 001.587 3.732l-1.883.868zm123.677-.054l-1.883-.867a69.409 69.409 0 001.588-3.748l1.934.75a70.641 70.641 0 01-1.64 3.865zm-126.71-7.75a67.01 67.01 0 01-1.15-4.028l2.01-.506a66.224 66.224 0 001.115 3.907l-1.975.627zm129.742-.075l-1.977-.626c.41-1.289.784-2.603 1.111-3.91l2.013.504a67.49 67.49 0 01-1.147 4.032zm-131.789-8.047a69.478 69.478 0 01-.643-4.141l2.058-.257c.165 1.34.375 2.69.623 4.016l-2.038.382zm133.825-.081l-2.036-.38a66.6 66.6 0 00.617-4.014l2.059.252a68.756 68.756 0 01-.64 4.142zm-134.854-8.233a69.052 69.052 0 01-.131-4.19l2.072-.001c.002 1.35.045 2.718.127 4.062l-2.068.129zm135.874-.08l-2.07-.127c.081-1.348.126-2.712.126-4.062v-.157h2.071v.15a69.72 69.72 0 01-.127 4.195zm-133.814-8.172l-2.07-.126c.084-1.39.21-2.793.377-4.172l2.059.247a67.275 67.275 0 00-.366 4.05zm131.736-.235a67.147 67.147 0 00-.379-4.045l2.056-.255a68.75 68.75 0 01.393 4.169l-2.07.131zm-130.757-7.83l-2.04-.376c.253-1.369.551-2.749.889-4.096l2.01.502a65.776 65.776 0 00-.86 3.97zm129.748-.229a62.945 62.945 0 00-.873-3.969l2.011-.508c.34 1.35.644 2.727.903 4.093l-2.04.384zm-127.784-7.653l-1.976-.624c.42-1.33.888-2.66 1.39-3.962l1.934.747a66.62 66.62 0 00-1.348 3.84zm125.792-.22a65.997 65.997 0 00-1.36-3.83l1.933-.753a66.631 66.631 0 011.401 3.949l-1.974.633zm-122.86-7.366l-1.885-.868a67.264 67.264 0 011.87-3.756l1.826.98a64.918 64.918 0 00-1.811 3.644zm119.91-.195a67.202 67.202 0 00-1.817-3.63l1.822-.985a69.57 69.57 0 011.877 3.743l-1.881.872zm-116.064-6.972l-1.765-1.09a67.904 67.904 0 012.317-3.498l1.69 1.198a65.992 65.992 0 00-2.242 3.39zm112.206-.166a63.637 63.637 0 00-2.252-3.38l1.69-1.202a69.98 69.98 0 012.322 3.485l-1.76 1.097zm-107.513-6.47l-1.616-1.299a68.777 68.777 0 012.727-3.184l1.533 1.395c-.91.999-1.8 2.037-2.644 3.088zm102.804-.146a65.431 65.431 0 00-2.65-3.078l1.528-1.401a67.662 67.662 0 012.734 3.175l-1.612 1.304zm-97.335-5.863l-1.445-1.488a68.33 68.33 0 013.094-2.825l1.351 1.573a65.625 65.625 0 00-3 2.74zm91.85-.128a64.305 64.305 0 00-3.008-2.735l1.348-1.577a70.447 70.447 0 013.102 2.821l-1.442 1.491zm-85.689-5.166l-1.253-1.652a65.806 65.806 0 013.414-2.426l1.148 1.723a67.728 67.728 0 00-3.309 2.355zm79.514-.114a65.785 65.785 0 00-3.325-2.346l1.145-1.73a66.832 66.832 0 013.425 2.42l-1.245 1.656zm-72.757-4.385l-1.039-1.794c1.2-.696 2.44-1.366 3.684-1.988l.926 1.853a66.592 66.592 0 00-3.571 1.93zm65.976-.1a67.331 67.331 0 00-3.587-1.921l.923-1.858a69.99 69.99 0 013.698 1.983l-1.034 1.796zm-58.72-3.53l-.813-1.908a66.135 66.135 0 013.899-1.518l.691 1.953a64.87 64.87 0 00-3.777 1.472zm51.435-.086a64.365 64.365 0 00-3.797-1.464l.685-1.957c1.314.46 2.63.968 3.918 1.511l-.806 1.91zm-43.785-2.624l-.572-1.993a66.716 66.716 0 014.065-1.025l.445 2.024c-1.32.289-2.642.624-3.938.994zm36.113-.064a65.958 65.958 0 00-3.944-.98l.438-2.027a66.98 66.98 0 014.07 1.012l-.564 1.995zm-28.182-1.68l-.318-2.047a67.36 67.36 0 014.156-.517l.193 2.063a66.728 66.728 0 00-4.031.502zm20.243-.035a65.088 65.088 0 00-4.035-.488l.187-2.063c1.387.123 2.784.293 4.159.502l-.31 2.05zm-12.156-.72l-.065-2.072a70.93 70.93 0 014.19-.007l-.06 2.072a68.703 68.703 0 00-4.065.007z" fill="#643d00"/><path d="M150.349 92.112h-2.764v-4.154h2.764v4.154zm0-8.307h-2.764v-4.152h2.764v4.152zm0-8.307h-2.764v-4.154h2.764v4.154zm0-8.307h-2.764v-4.152h2.764v4.152zm0-8.307h-2.764V54.73h2.764v4.153zm0-8.308h-2.764V46.67h3.011v2.765h-.247v1.141zm166.388-1.14h-4.152V46.67h4.152v2.765zm-8.305 0h-4.151V46.67h4.152v2.765zm-8.307 0h-4.155V46.67h4.155v2.765zm-8.307 0h-4.154V46.67h4.154v2.765zm-8.31 0h-4.152V46.67h4.153v2.765zm-8.304 0h-4.153V46.67h4.153v2.765zm-8.31 0h-4.152V46.67h4.152v2.765zm-8.305 0h-4.155V46.67h4.155v2.765zm-8.307 0h-4.154V46.67h4.154v2.765zm-8.307 0h-4.153V46.67h4.153v2.765zm-8.307 0h-4.155V46.67h4.155v2.765zm-8.308 0h-4.153V46.67h4.153v2.765zm-8.307 0h-4.154V46.67h4.154v2.765zm-8.307 0h-4.154V46.67h4.154v2.765zm-8.307 0h-4.154V46.67h4.154v2.765zm-8.308 0h-4.153V46.67h4.153v2.765zm-8.307 0h-4.153V46.67h4.153v2.765zm-8.307 0h-4.153V46.67h4.153v2.765zm-8.308 0h-4.152V46.67h4.153v2.765zm-8.305 0h-4.154V46.67h4.154v2.765z"/><path d="M304.296 40.54l14.322 8.267-14.322 8.27zm86.101 124.334h-4.155v-2.766h4.155v2.766zm-8.31 0h-4.151v-2.766h4.152v2.766zm-8.305 0h-4.156v-2.766h4.156v2.766zm-8.31 0h-4.151v-2.766h4.151v2.766zm-8.304 0h-4.155v-2.766h4.155v2.766zm-8.309 0h-4.153v-2.766h4.153v2.766zm-8.305 0h-4.155v-2.766h4.154v2.766zm-8.31 0h-4.152v-2.766h4.152v2.766zm-8.305 0h-4.153v-2.766h4.153v2.766zm-8.31 0h-4.152v-2.766h4.153v2.766zm-8.304 0h-4.155v-2.766h4.155v2.766zm-8.31 0h-4.152v-2.766h4.152v2.766zm-8.305 0h-4.152v-2.766h4.152v2.766zm-8.307 0h-4.154v-2.766h4.154v2.766zm-8.308 0h-4.155v-2.766h4.155v2.766zm-8.309 0h-4.153v-2.766h4.153v2.766zm-8.305 0h-4.152v-2.766h4.152v2.766zm-8.307 0h-4.155v-2.766h4.155v2.766zm-8.307 0h-4.153v-2.766h4.153v2.766zm-8.308 0h-4.153v-2.766h4.153v2.766z"/><circle cx="391.794" cy="163.49" r="5.196"/><path d="M337.113 45.661h86.671v61.392h-86.671z" class="st1"/><path d="M324.473 107.052h111.95v10.834h-111.95zm59.586-54.169h-7.222" class="st0"/><path d="M237.473 89.674h44.142v28.479h-44.142z" fill="#ff9fba" stroke="#000" stroke-width="2" stroke-miterlimit="10"/><path d="M237.473 89.674l44.142 28.479m0-28.479l-44.142 28.479" class="st0"/><path d="M459.871 62.811h36.77v54.28h-36.77z" class="st1"/><path d="M474.755 66.313h7.003m-21.887 40.272h36.771m-36.771-36.77h36.771" class="st0"/><circle cx="478.257" cy="111.838" r="1.751" fill="#d8effd" stroke="#000" stroke-width="2" stroke-linejoin="bevel" stroke-miterlimit="10"/><circle cx="291.818" cy="269.608" r="54.44" class="st2"/><circle cx="158.441" cy="180.598" r="32.276" class="st2"/><circle cx="158.56" cy="287.424" r="24.431" class="st2"/><circle cx="426.679" cy="256.555" r="24.431" class="st2"/></svg>