<svg xmlns="http://www.w3.org/2000/svg" xml:space="preserve" id="Слой_1" x="0" y="0" version="1.1" viewBox="0 0 600 400"><style>.st0{fill:#d8effd}.st0,.st1,.st12,.st2,.st6,.st9{stroke:#000;stroke-width:2;stroke-miterlimit:10}.st1{fill:none}.st2{fill:#fff}.st6{fill:#ff9fba}.st9{fill:#b2ddf8}.st12{fill:none;stroke-dasharray:1.9767,1.9767}</style><path d="M304.105 171.671h149.702v107.82H304.105zm243.491 107.82H462.67v-89.358h42.464l42.463 42.464zm-253.399 0h253.399V304.6H294.197z" class="st2"/><circle cx="409.129" cy="302.292" r="16.985" class="st2"/><circle cx="409.129" cy="302.292" r="10.339" class="st2"/><circle cx="349.129" cy="302.292" r="16.985" class="st2"/><circle cx="349.129" cy="302.292" r="10.339" class="st2"/><circle cx="508.796" cy="302.292" r="16.985" class="st2"/><circle cx="508.825" cy="302.292" r="10.339" class="st2"/><path d="M470.793 197.518h29.909l38.77 39.14v8.493h-68.68z" class="st0"/><path d="M470.793 258.444h14.4m62.403 0h6.277v16.616h-6.277z" class="st1"/><path d="M93.701 72.376h167.28v246.182H93.701z" class="st2"/><path d="M245.952 104.128v58.912H108.73v-58.912c0-9.146 7.414-16.56 16.56-16.56h104.101c9.146 0 16.56 7.414 16.56 16.56z" class="st0"/><path d="M81.286 318.558h190.381v19.322H81.286zm35.959-9.994h120.191v9.994H117.245zm60.095-174.222c-15.849 0-28.698 12.848-28.698 28.698h57.397c0-15.85-12.849-28.698-28.698-28.698z" class="st2"/><path d="M177.34 147.305c-8.69 0-15.735 7.894-15.735 15.735h31.471c0-7.841-7.045-15.735-15.735-15.735z" class="st2"/><path d="M185.621 149.859l23.738-37.787M81.286 259.737h12.415v37.775H81.286z" class="st1"/><path d="M54.821 161.08v92.662c0 13.869 11.243 25.112 25.112 25.112h1.353" fill="none" stroke="#000" stroke-width="8" stroke-miterlimit="10"/><path d="M46 123.98h17.961v37.754H46zm3.929 0v-11.56l21.823-21.824 4.17 4.17L58.59 113.08v10.9" class="st1"/><path d="M157.376 240.196h41.114v25.697h-41.114z" class="st6"/><path d="M164.228 240.196v-13.705c0-7.569 6.136-13.704 13.705-13.704s13.705 6.135 13.705 13.704v13.705" class="st1"/><circle cx="177.933" cy="252.188" r="3.426" class="st1"/><path d="M177.933 255.614v3.426M339.227 99.416h-35.814m50.936 31.835h-35.815m5.571-15.917h-20.692m50.936 0h-20.693" class="st1"/><circle cx="344.002" cy="99.416" r="4.775" class="st9"/><circle cx="313.759" cy="131.251" r="4.775" class="st9"/><circle cx="328.881" cy="115.334" r="4.775" class="st9"/><path d="M354.349 99.416h-5.571m-39.794 31.835h-5.571m97.578-36.5h47.266v38.118h-47.266zm0 6.099h47.266m-40.405-3.05h-3.049m9.148 0h-3.05m9.149 0H417m-12.197 10.673h20.583m-20.583 6.099h20.583m-20.583 6.099h20.583" class="st1"/><path d="M429.198 108.473h14.485v12.198h-14.485z" class="st6"/><path d="M366.045 114.93h1" class="st1"/><path d="M369.021 114.93H387.8" class="st12"/><path d="M388.788 114.93h1m70.257 0h1" class="st1"/><path d="M463.021 114.93H481.8" class="st12"/><path d="M482.788 114.93h1" class="st1"/><path d="M496.625 94.965h48v34h-48z" class="st0"/><path d="M489.625 128.964h62v6h-62zm33-29.999h-4" class="st1"/><path d="M401.75 219.207c0 12.579-22.777 36.374-22.777 36.374s-22.776-23.795-22.776-36.374c0-12.58 10.197-22.777 22.776-22.777s22.777 10.197 22.777 22.777z" class="st2"/><circle cx="378.973" cy="219.207" r="13.389" class="st2"/></svg>