<svg version="1.1" id="Слой_1" xmlns="http://www.w3.org/2000/svg" x="0" y="0" viewBox="0 0 600 400" xml:space="preserve"><style>.st0{fill:#d8effd}.st0,.st1,.st2,.st20,.st6,.st9{stroke:#000;stroke-width:2;stroke-miterlimit:10}.st1{fill:none}.st2{fill:#fff}.st6{fill:#ff9fba}.st9{fill:#b2ddf8}.st20{fill:#eaeaea}.st23{fill:#fff}.st30{stroke-linecap:round;fill:none}.st30,.st31,.st32,.st33{stroke:#000;stroke-width:2;stroke-miterlimit:10}.st31{fill:#fff;stroke-linejoin:round}.st32,.st33{fill:none;stroke-dasharray:4.0477,4.0477}.st33{stroke-dasharray:4.4185,4.4185}.st35{fill:#010002}</style><path class="st1" d="M427.407 191.833h29.911m-29.911 9h36.765m-36.765 9h29.911"/><path class="st2" d="M528.107 362.705l-46.18 6.646a7.379 7.379 0 01-8.355-6.253l-15.02-104.371a7.379 7.379 0 016.252-8.355l46.18-6.646a7.379 7.379 0 018.355 6.252l15.02 104.372a7.379 7.379 0 01-6.252 8.355z"/><path class="st2" d="M511.42 269.428l24.7 31.402-14.843 37.093-39.546 5.69-24.701-31.4 14.844-37.094z"/><path class="st0" d="M504.49 286.745l13.169 16.742-7.914 19.776-21.084 3.034-13.169-16.742 7.914-19.776z"/><circle transform="rotate(-8.19 470.397 259.991)" class="st20" cx="470.256" cy="259.888" r="4.47"/><circle transform="rotate(-8.19 509.593 254.352)" class="st20" cx="509.439" cy="254.249" r="4.47"/><circle transform="rotate(-8.19 484.495 357.983)" class="st20" cx="484.353" cy="357.847" r="4.47"/><circle transform="rotate(-8.19 523.692 352.343)" class="st20" cx="523.537" cy="352.208" r="4.47"/><path transform="rotate(-8.19 502.774 346.024)" class="st2" d="M494.739 340.661h15.774v10.462h-15.774z"/><path transform="rotate(-8.19 476.363 276.584)" class="st0" d="M472.221 274.711h8.001v3.53h-8.001z"/><path transform="rotate(-8.19 484.182 275.46)" class="st0" d="M480.037 273.586h8.001v3.53h-8.001z"/><path transform="rotate(-8.19 492.001 274.335)" class="st0" d="M487.853 272.461h8.001v3.53h-8.001z"/><path transform="rotate(-8.19 499.82 273.21)" class="st0" d="M495.669 271.336h8.001v3.53h-8.001z"/><path transform="rotate(-8.19 507.639 272.085)" class="st0" d="M503.485 270.211h8.001v3.53h-8.001z"/><path transform="rotate(-8.19 485.69 341.412)" class="st6" d="M481.547 339.517h8.001v3.53h-8.001z"/><path transform="rotate(-8.19 493.509 340.286)" class="st6" d="M489.363 338.392h8.001v3.53h-8.001z"/><path transform="rotate(-8.19 501.328 339.162)" class="st6" d="M497.179 337.267h8.001v3.53h-8.001z"/><path transform="rotate(-8.19 509.146 338.037)" class="st6" d="M504.995 336.142h8.001v3.53h-8.001z"/><path transform="rotate(-8.19 516.965 336.912)" class="st6" d="M512.811 335.017h8.001v3.53h-8.001z"/><path class="st0" d="M495.202 349.675l14.854-4.401m-15.323 1.136l14.853-4.402m-44.642-37.356l-1.105 2.639m9.91-23.654l-7.781 18.571"/><path transform="rotate(5.394 108.385 253.898)" class="st2" d="M75.128 242.769h66.482v22.171H75.128z"/><path transform="rotate(5.394 108.385 253.898)" class="st2" d="M90.003 242.769h36.733v22.171H90.003z"/><path transform="rotate(5.394 109.7 239.961)" class="st0" d="M102.546 237.01h14.278v5.821h-14.278z"/><path class="st20" d="M100.74 365.264l-6.504-.614a4.26 4.26 0 01-3.84-4.641l9.018-95.5 14.986 1.416-9.018 95.5a4.26 4.26 0 01-4.641 3.839z"/><path class="st2" d="M102.441 289.464l.559-5.921m-3.516 37.232l2.338-24.761m-1.342 62.506l1.052-11.146"/><path transform="rotate(5.394 73.501 250.766)" class="st6" d="M71.714 243.873h3.554v13.699h-3.554z"/><path transform="rotate(5.394 69.338 250.372)" class="st6" d="M67.551 246.743h3.554v7.173h-3.554z"/><path transform="rotate(5.394 106.54 266.995)" class="st2" d="M96.632 265.189h19.785v3.522H96.632z"/><path class="st31" d="M200.104 251.708l-28.75 29.25h257.5l-29.25-29.375z"/><path class="st31" d="M171.354 280.458h257.5v13.25h-257.5z"/><path class="st2" d="M200.354 119.958h199.5v132h-199.5z"/><path class="st9" d="M200.354 119.958h199.5v15.693h-199.5z"/><circle class="st9" cx="299.521" cy="126.958" r="3"/><path class="st1" d="M342.088 174.715h41.162"/><circle class="st6" cx="349.319" cy="174.815" r="3.062"/><path class="st1" d="M342.088 182.098h41.162"/><circle class="st6" cx="370.166" cy="182.198" r="3.062"/><path class="st1" d="M342.088 189.333h41.162"/><circle class="st6" cx="358.409" cy="189.433" r="3.062"/><path class="st1" d="M158.712 79.43h2"/><path class="st32" d="M164.76 79.43h103.216"/><path class="st1" d="M270 79.43h2v2"/><path class="st33" d="M272 85.849v15.464"/><path class="st1" d="M272 103.522v2"/><circle class="st23" cx="159.138" cy="79.43" r="7.519"/><path d="M159.138 87.95c4.697 0 8.52-3.823 8.52-8.52s-3.823-8.52-8.52-8.52c-4.697 0-8.52 3.823-8.52 8.52s3.823 8.52 8.52 8.52c4.697 0-4.697 0 0 0zm0-15.04c3.596 0 6.52 2.924 6.52 6.52s-2.924 6.52-6.52 6.52c-3.596 0-6.52-2.924-6.52-6.52s2.924-6.52 6.52-6.52c3.596 0-3.596 0 0 0z"/><path class="st1" d="M156.58 337.949h2"/><path class="st32" d="M162.628 337.949h103.216"/><path class="st1" d="M267.868 337.949h2v-2"/><path class="st33" d="M269.868 331.531v-15.465"/><path class="st1" d="M269.868 313.857v-2"/><circle class="st23" cx="157.006" cy="337.949" r="7.519"/><path d="M157.006 346.469c4.698 0 8.52-3.823 8.52-8.52s-3.823-8.52-8.52-8.52c-4.697 0-8.52 3.823-8.52 8.52s3.823 8.52 8.52 8.52c4.697 0-4.697 0 0 0zm0-15.04c3.596 0 6.52 2.924 6.52 6.52s-2.924 6.52-6.52 6.52c-3.595 0-6.52-2.924-6.52-6.52s2.924-6.52 6.52-6.52c3.596 0-3.596 0 0 0z"/><path class="st1" d="M442.157 79.43h-2"/><path class="st32" d="M436.109 79.43H332.893"/><path class="st1" d="M330.869 79.43h-2v2"/><path class="st33" d="M328.869 85.849v15.464"/><path class="st1" d="M328.869 103.522v2"/><circle class="st23" cx="441.731" cy="79.43" r="7.519"/><path d="M441.73 70.91c-4.697 0-8.519 3.823-8.519 8.52s3.823 8.52 8.52 8.52c4.697 0 8.52-3.823 8.52-8.52s-3.823-8.52-8.52-8.52c-4.697 0 4.697 0 0 0zm0 15.04c-3.595 0-6.519-2.924-6.519-6.52s2.924-6.52 6.52-6.52c3.596 0 6.52 2.924 6.52 6.52s-2.924 6.52-6.52 6.52c-3.596 0 3.596 0 0 0z"/><path class="st1" d="M438.289 337.949h-2"/><path class="st32" d="M432.241 337.949H329.025"/><path class="st1" d="M327 337.949h-2v-2"/><path class="st33" d="M325.001 331.531v-15.465"/><path class="st1" d="M325.001 313.857v-2"/><circle class="st23" cx="437.863" cy="337.949" r="7.519"/><path d="M437.863 329.43c-4.698 0-8.52 3.822-8.52 8.519s3.822 8.52 8.52 8.52c4.697 0 8.52-3.823 8.52-8.52s-3.823-8.52-8.52-8.52c-4.698 0 4.697 0 0 0zm0 15.038c-3.596 0-6.52-2.923-6.52-6.519s2.924-6.52 6.52-6.52c3.595 0 6.52 2.924 6.52 6.52s-2.925 6.52-6.52 6.52c-3.596 0 3.595 0 0 0z"/><path class="st6" d="M129.565 185.857h37.267v24.044h-37.267z"/><path class="st1" d="M129.565 185.857l37.268 24.043m0-24.043L129.565 209.9"/><path class="st6" d="M364.269 144.8h16.283v10.505h-16.283z"/><path class="st1" d="M364.269 144.8l16.282 10.505m0-10.505l-16.282 10.505"/><path d="M67.543 250.33s-25.876.365-24.21 45.684c1.667 45.32 5 41.956 5.667 62.505" fill="none" stroke="#000" stroke-width="4" stroke-miterlimit="10"/><path class="st1" d="M235.591 142.868V245.33"/><path class="st6" d="M303.893 176.341c-12.07 0-21.891 9.82-21.891 21.89s9.82 21.89 21.89 21.89c12.072 0 21.892-9.82 21.892-21.89s-9.822-21.89-21.891-21.89z"/><path class="st35" d="M305.852 196.235l-.934-12.554c-.21-2.82-.44-3.297-1.025-3.297s-.815.478-1.025 3.297l-.934 12.554a3.183 3.183 0 00-1.243 2.517c0 1.198.666 2.23 1.64 2.778l.492 5.458c.233 2.567.518 3 1.07 3s.838-.433 1.07-3l.492-5.458a3.188 3.188 0 001.64-2.778 3.19 3.19 0 00-1.243-2.517zm-1.96-12.263l.871 11.713a3.164 3.164 0 00-.87-.134 3.2 3.2 0 00-.87.134l.87-11.713zm.031 22.923l-.03.322c-.01-.103-.021-.21-.03-.322l-.452-4.989c.158.024.317.048.482.048.164 0 .322-.024.48-.048l-.45 4.99z"/><path class="st35" d="M303.893 169.848c-15.65 0-28.383 12.732-28.383 28.383s12.732 28.383 28.383 28.383c15.65 0 28.383-12.732 28.383-28.383s-12.733-28.383-28.383-28.383zm0 54.679c-14.5 0-26.296-11.796-26.296-26.296s11.795-26.295 26.296-26.295c14.5 0 26.295 11.796 26.295 26.295s-11.796 26.296-26.295 26.296z"/><path class="st35" d="M293.523 188.267l.575-.575c.409-.409.3-.896-.244-1.091l-1.367-.49c-.542-.196-.81.082-.6.617l.515 1.305c.212.536.713.64 1.121.234zm20.482 0c.409.408.91.303 1.122-.233l.515-1.305c.212-.536-.057-.813-.599-.618l-1.368.49c-.542.196-.653.683-.245 1.091l.575.575zm-20.353 19.895c-.408-.408-.91-.302-1.121.233l-.515 1.305c-.212.536.058.813.6.618l1.366-.49c.542-.195.652-.684.244-1.092l-.574-.574zm21.602.233c-.212-.536-.714-.64-1.121-.233l-.574.574c-.408.408-.298.896.244 1.09l1.366.491c.543.195.811-.082.6-.618l-.515-1.304z"/><path class="st0" d="M257.75 187.25c-4.813 0-8.75-3.938-8.75-8.75 0-4.813 3.938-8.75 8.75-8.75 4.813 0 8.75 3.938 8.75 8.75 0 4.813-3.938 8.75-8.75 8.75z"/><path d="M257.75 180.5c-1.1 0-2-.9-2-2s.9-2 2-2 2 .9 2 2-.9 2-2 2z"/><path class="st0" d="M257.75 226.871c-4.813 0-8.75-3.938-8.75-8.75 0-4.813 3.938-8.75 8.75-8.75 4.813 0 8.75 3.938 8.75 8.75 0 4.813-3.938 8.75-8.75 8.75z"/><path d="M257.75 220.121c-1.1 0-2-.9-2-2s.9-2 2-2 2 .9 2 2-.9 2-2 2z"/><path class="st1" d="M266.818 280.458H330v5.958h-63.182z"/><path class="st31" d="M208.5 146.857h18.707m-18.707 5.834h12.476m-12.476 6.732h14.553M208.5 179.857h18.707m-18.707 5.834h12.476m-12.476 6.732h14.553M208.5 211.857h18.707m-18.707 5.834h12.476m-12.476 6.732h14.553"/><path class="st0" d="M341.113 211.857h42.138V225.5h-42.138z"/><path fill="none" d="M344.025 214.412h51.288v10.75h-51.288z"/><text transform="translate(344.025 221.162)" font-size="9" font-family="Roboto-Medium">1245 km</text><path d="M260.75 174.125l-3 4.375-4.375-.623m4.375 45.248v-5.004l3.75-2" fill="none" stroke="#000" stroke-width="2" stroke-linecap="round" stroke-linejoin="bevel" stroke-miterlimit="10"/><circle class="st6" cx="258.319" cy="197.815" r="3.062"/><path class="st0" d="M248.734 146.5h93.354v7.357h-93.354z"/><path class="st2" d="M526.459 120.623L466.03 104.87l13.522-51.867a8.847 8.847 0 0110.793-6.329l43.305 11.29a8.847 8.847 0 016.329 10.793l-13.521 51.866z"/><path transform="rotate(14.613 495.296 116.116)" class="st2" d="M466.721 112.633h57.28v7.008h-57.28z"/><path transform="rotate(-75.387 491.42 131.185)" class="st0" d="M479.378 106.541h24.114v49.307h-24.114z"/><path transform="rotate(-75.387 486.858 148.685)" class="st2" d="M480.844 129.547h12.057v38.298h-12.057z"/><path transform="rotate(-75.387 489.092 140.114)" class="st2" d="M486.279 115.471h5.657v49.307h-5.657z"/><path d="M485.693 55.495l-7.512 28.815m-1.317 5.051l-1.421 5.452m47.666 12.426l4.352-16.696m1.755-6.733l1.019-3.905m1.702-6.531l1.422-5.453" fill="#fff" stroke="#000" stroke-width="2" stroke-miterlimit="10" stroke-linecap="round"/><path transform="rotate(14.613 533.122 103.648)" class="st2" d="M530.954 98.814h4.478v9.707h-4.478z"/><path class="st30" d="M534.713 106.708c.337-.001 18.182 3.46 9.19 30.003-5.988 17.674-2.85 26.651-2.85 26.651"/><path class="st30" d="M536.038 101.629c.336-.001 22.204 6.466 13.212 33.01-5.987 17.674-2.507 26.755-2.507 26.755"/><path class="st9" d="M554.519 181.839l-7.123 2.393-8.298-19.451 10.288-3.458z"/><path class="st30" d="M542.288 172.257l9.1-2.93"/><path class="st2" d="M120.214 145.289H57.993a4.814 4.814 0 01-4.814-4.814V78.254a4.814 4.814 0 014.813-4.814h62.222a4.814 4.814 0 014.813 4.814v62.221a4.814 4.814 0 01-4.813 4.814z"/><circle class="st6" cx="62.917" cy="83.417" r="4.167"/><circle class="st6" cx="113.917" cy="83.417" r="4.167"/><circle class="st6" cx="62.917" cy="134.417" r="4.167"/><circle class="st6" cx="113.917" cy="134.417" r="4.167"/><path class="st2" d="M77.75 69h20.5v4.44h-20.5zm6 0v4.44M93 69v4.44m-18.263 67.388h28.731v8.922H74.737z"/><path class="st9" d="M77.97 149.75h22.267v8.922H77.97z"/><path class="st2" d="M88.615 26h.52c1.03 0 1.865.835 1.865 1.865V69h-4.25V27.865c0-1.03.835-1.865 1.865-1.865z"/><path class="st9" d="M59.537 85.847l6.86-4.719m49.977 5.649l-5.048-6.62m-46.169 57.769l-4.259-7.153m53.019-.523v8.333M86.75 31.667l4.25-3m-4.25 7l4.25-3m-4.25 7l4.25-3m-4.25 7l4.25-3"/><path class="st1" d="M98.262 126.683H79.944a8.16 8.16 0 01-8.16-8.16v-18.317a8.16 8.16 0 018.16-8.16h18.318a8.16 8.16 0 018.16 8.16v18.317a8.16 8.16 0 01-8.16 8.16z"/></svg>