<svg version="1.1" id="Слой_1" xmlns="http://www.w3.org/2000/svg" x="0" y="0" viewBox="0 0 600 400" xml:space="preserve"><style>.st1{fill:none}.st1,.st10,.st2,.st3,.st7{stroke:#000;stroke-width:2;stroke-miterlimit:10}.st2{fill:#d8effd}.st3{fill:#fff}.st7{fill:#ff9fba}.st10{fill:#b2ddf8}.st16{fill:#ff9fba}</style><circle cx="288.748" cy="191.976" r="151.003" fill="none" stroke="#000" stroke-width="2" stroke-miterlimit="10" stroke-dasharray="8.0408,8.0408"/><path class="st3" d="M267.872 270.018h43.97v51.729h-43.97z"/><path class="st3" d="M291.796 147.161c-.867 0-1.73.02-2.59.047-30.29.98-55.605 19.256-55.605 58.149 0 39.444 24.782 71.5 55.606 72.38.432.011.862.041 1.297.041 31.427 0 56.901-32.423 56.901-72.421 0-39.997-24.182-58.196-55.609-58.196z"/><path d="M323.995 182.754s-20.044 32.979-56.902 29.744c0 0 12.287-3.879 12.287-10.346 0 0-9.053 6.465-18.105 8.406 0 0 6.466-8.406 5.172-12.286 0 0-20.69 4.527-21.338 14.226l-4.526 10.992-15.52-18.105s-8.844-59.353 37.068-72.932c45.91-13.58 66.516 17.738 66.516 17.738s15.516 7.785 21.92 52.18c0 0-11.056 7.539-9.761 17.24 0-.001-14.872-14.872-16.811-36.857z" fill="none" stroke="#13120d" stroke-width="2" stroke-miterlimit="10"/><ellipse transform="rotate(-81.669 349.122 210.982)" class="st3" cx="349.132" cy="210.995" rx="15.278" ry="7.542"/><ellipse transform="rotate(-5.526 230.64 209.906)" class="st3" cx="230.611" cy="209.883" rx="6.879" ry="14.992"/><path class="st7" d="M252.196 339.988v-36.011a77.08 77.08 0 00-19.777 9.941l-4 26.07h23.777zm101.94 0l-6.738-26.239c-5.616-4.63-12.16-8.475-19.777-10.979v37.218h26.515z"/><path class="st16" d="M245.61 347.705h-7.755a4.654 4.654 0 00-4.654 4.654v.775a4.654 4.654 0 004.654 4.654h7.756a4.654 4.654 0 004.653-4.654v-.775a4.653 4.653 0 00-4.653-4.654z"/><path class="st1" d="M245.61 347.705h-7.755a4.654 4.654 0 00-4.654 4.654v.775a4.654 4.654 0 004.654 4.654h7.756a4.654 4.654 0 004.653-4.654v-.775a4.653 4.653 0 00-4.653-4.654z"/><path class="st16" d="M344.886 346.93h-7.756a4.654 4.654 0 00-4.652 4.653v.776a4.653 4.653 0 004.652 4.653h7.756a4.653 4.653 0 004.654-4.653v-.776a4.653 4.653 0 00-4.654-4.653z"/><path class="st1" d="M344.886 346.93h-7.756a4.654 4.654 0 00-4.652 4.653v.776a4.653 4.653 0 004.652 4.653h7.756a4.653 4.653 0 004.654-4.653v-.776a4.653 4.653 0 00-4.654-4.653z"/><path class="st10" d="M344.886 346.93h-7.756a4.654 4.654 0 00-4.652 4.653v.776a4.653 4.653 0 004.652 4.653h7.756a4.653 4.653 0 004.654-4.653v-.776a4.653 4.653 0 00-4.654-4.653z"/><path class="st10" d="M228.263 343.478h125.64v27.944h25.153c-1.83-8.896-9.513-39.406-31.658-57.673v26.24h-19.777V302.77a60.963 60.963 0 00-6.35-1.715l-4.065-4.573c-7.308 3.651-16.55 5.833-26.602 5.833-10.513 0-20.139-2.387-27.595-6.347l-4.522 5.087.9.956c-1.536.318-4.048.92-7.191 1.966v36.011h-19.777v-26.07c-13.955 9.78-28.494 27.116-32.07 57.504h27.914v-27.944z"/><path class="st3" d="M228.263 343.478v27.944h60.96v-27.944h-60.96zm17.348 14.31h-7.756a4.654 4.654 0 01-4.654-4.654v-.775a4.654 4.654 0 014.654-4.654h7.756a4.653 4.653 0 014.653 4.654v.775a4.654 4.654 0 01-4.653 4.654zm43.612-14.31v27.944h64.68v-27.944h-64.68zm-63.345-156.716h120.987s10.88-70.503-59.188-70.503-61.799 70.503-61.799 70.503z"/><path class="st3" d="M348.706 185.124a2.463 2.463 0 00-1.841-.826H225.878a2.466 2.466 0 00-2.303 3.341c.125.33 3.186 8.159 13.076 15.922 5.723 4.493 12.59 8.066 20.408 10.62 9.678 3.163 20.858 4.767 33.229 4.767 12.394 0 23.184-1.611 32.069-4.788 7.237-2.588 13.246-6.216 17.863-10.786 8.03-7.946 9.053-15.986 9.093-16.325a2.465 2.465 0 00-.607-1.925z"/><path class="st7" d="M341.77 357.788h-7.756a4.654 4.654 0 01-4.653-4.654v-.775a4.654 4.654 0 014.653-4.654h7.756a4.653 4.653 0 014.654 4.654v.775a4.654 4.654 0 01-4.654 4.654z"/><path class="st1" d="M311.843 251.648c-3.765 3.927-12.61 6.685-22.922 6.685-10.083 0-18.764-2.636-22.664-6.425m16.272-32.96s-4.924 17.337-.215 20.762c4.71 3.425 10.703-.643 10.703-.643m-33.63 62.944s11.996 7.053 29.663 7.053m32.22-8.009s-4.279 5.012-16.266 6.296"/><path class="st3" d="M267.872 184.298c-1.599-54.128 19.805-68.039 19.805-68.039 27.174 19.42 24.166 68.01 24.166 68.01l-43.97.029z"/><path class="st3" d="M282.101 113.631h10.275v3.27h-10.275z"/><path transform="rotate(-6.419 424.165 238.719)" class="st3" d="M392.262 215.773h63.521v45.75h-63.521z"/><path class="st3" d="M497.688 253.377l-35.81 4.03-4.24-37.678 17.905-2.015 19.92 15.89z"/><path transform="rotate(-6.419 445.01 264.762)" class="st3" d="M391.099 259.356h107.522v10.654H391.099z"/><circle transform="rotate(-6.419 440.534 269.642)" class="st3" cx="440.385" cy="269.562" r="7.207"/><circle transform="rotate(-6.419 440.534 269.642)" class="st3" cx="440.385" cy="269.562" r="4.387"/><circle transform="rotate(-6.419 415.226 272.491)" class="st3" cx="415.085" cy="272.409" r="7.207"/><circle transform="rotate(-6.419 415.226 272.491)" class="st3" cx="415.085" cy="272.409" r="4.387"/><circle transform="rotate(-6.419 482.573 264.911)" class="st3" cx="482.41" cy="264.832" r="7.207"/><circle transform="rotate(-6.419 482.585 264.91)" class="st3" cx="482.422" cy="264.831" r="4.387"/><path class="st2" d="M461.414 222.457l12.61-1.42 18.206 14.665.403 3.58-28.959 3.26z"/><path class="st1" d="M464.305 248.147l6.072-.684"/><path transform="rotate(-6.419 498.574 247.93)" class="st1" d="M497.075 244.331h2.663v7.051h-2.663z"/><path transform="rotate(-83.852 142.79 240.38)" class="st2" d="M120.498 208.921h44.581v62.938h-44.581z"/><path transform="rotate(-83.852 139.983 266.453)" class="st3" d="M136.048 225.816h7.867v81.295h-7.867z"/><path class="st1" d="M147.221 223.723l-5.215-.561"/><path transform="rotate(-28.694 148.93 138.984)" class="st7" d="M130.465 111.706h36.961v54.562h-36.961z"/><path class="st7" d="M134.451 119.834l6.176-3.38m.134 46.073l32.424-17.744m-50.168-14.68l32.424-17.744"/><circle transform="rotate(-28.694 159.49 158.283)" class="st7" cx="159.508" cy="158.287" r="1.76"/><path class="st10" d="M434.87 115.47c-2.776-8.147-11.093-12.708-18.656-10.165s-11.47 11.212-8.726 19.371c3.548 10.556 22.866 22.763 22.866 22.763s8.11-21.427 4.516-31.968z"/><circle transform="rotate(-18.584 420.403 117.934)" class="st10" cx="420.463" cy="117.944" r="4.444"/><path class="st1" d="M415.25 140.795l-9.478 3.186-4.503 24.958 32.648-10.975 32.648-10.976-18.666-17.169-9.478 3.187"/><path class="st2" d="M201.044 44.692l-8.98 3.65-.35 32.006 53.632.586.35-32.005-8.899-3.846"/><path class="st1" d="M200.658 53.627l.293-26.816 36.33.398-.292 26.815"/><path class="st1" d="M192.064 48.342l26.632 17.104 27-16.517m-38.052-1.282l22.491.246m-7.634-13.925l7.785.085m-22.566 6.674l22.49.246"/><path class="st7" d="M341.602 72.17l29.729 5.468 7.407-40.278-59.457-10.935-7.408 40.278 16.303 2.998-2.116 11.508z"/><path class="st1" d="M325.971 38.561l42.196 7.761m-43.959 1.829l42.196 7.76m-43.96 1.83l42.196 7.76"/></svg>