<svg width="118" height="117" fill="none" xmlns="http://www.w3.org/2000/svg"><circle cx="55.166" cy="54.226" r="54.226" fill="#266EF8" fill-opacity=".42"/><circle cx="62.822" cy="61.881" r="53.588" stroke="#626262" stroke-width="1.276"/><path fill-rule="evenodd" clip-rule="evenodd" d="M55.208 33.234c13.322 0 24.19 11.502 24.19 25.778 0 8.297-7.193 18.77-22.666 31.078l-1.524 1.197C38.683 78.46 31.02 67.577 31.02 59.012c0-14.276 10.868-25.778 24.19-25.778zm0 14.513c-5.344 0-9.675 4.332-9.675 9.676 0 5.343 4.331 9.675 9.675 9.675s9.676-4.332 9.676-9.675a9.676 9.676 0 00-9.676-9.676z" fill="#292D32"/></svg>