<svg width="351" height="65" fill="none" xmlns="http://www.w3.org/2000/svg"><g clip-path="url(#a)"><path d="M43.808 33.666c0-5.654-4.617-10.238-10.454-10.238-5.84 0-10.452 4.566-10.452 10.238 0 2.095.653 4.138 1.868 5.841a9.968 9.968 0 004.91 3.65L25.572 64.18h15.421l-3.965-21.023c3.963-1.52 6.778-5.073 6.778-9.493l.002.002z" fill="#1A3967"/><path d="M66.437 33.512c0-17.683-14.77-32.046-32.935-32.046C15.336 1.466.56 15.815.56 33.512c0 11.745 6.484 21.965 16.146 27.47l2.073-13.699a18.825 18.825 0 01-5.046-12.681c0-10.511 8.794-19.062 19.603-19.062 10.807 0 19.606 8.55 19.606 19.064a18.915 18.915 0 01-5.026 12.832l2.09 13.699c9.872-5.511 16.43-15.874 16.43-27.618m44.114 11.745c6.639 0 11.952-5.22 11.952-11.598 0-6.376-5.335-11.573-11.952-11.573S98.6 27.309 98.6 33.686c0 6.378 5.333 11.6 11.952 11.6v-.024h-.002zm0 9.446c-11.95 0-21.686-9.422-21.686-21.094 0-11.67 9.737-21.093 21.686-21.093 11.952 0 21.688 9.422 21.688 21.093S122.5 54.708 110.55 54.708zm26.238-40.904v39.791a.705.705 0 00.199.527.686.686 0 00.522.198h7.71a.679.679 0 00.68-.44.674.674 0 00.043-.285V38.231h8.276s11.531-.579 11.531-12.686c0-12.105-11.663-12.608-11.663-12.608h-16.653c-.357 0-.645.29-.645.867zm15.048 5.34s6.057-.142 6.057 6.379c0 6.378-6.057 6.378-6.057 6.378h-6.026V19.606c0-.578.442-.446.442-.446l5.584-.014v-.002z" fill="#EA7D1F"/><path d="M284.392 13.804v39.791a.667.667 0 00.044.283.67.67 0 00.673.442h7.714a.678.678 0 00.681-.44.768.768 0 00.042-.285V38.23h8.286s11.535-.578 11.535-12.685c0-12.105-11.677-12.537-11.677-12.537h-16.653c-.217-.071-.645.218-.645.796zm15.05 5.34s6.054-.142 6.054 6.379c0 6.378-6.054 6.378-6.054 6.378H293.4V19.604c0-.578.441-.446.441-.446l5.601-.014z" fill="#1A3967"/><path d="M235.239 12.937h-5.914a.667.667 0 00-.677.442.646.646 0 00-.044.284v24.714l-15.05-25.44h-7.364a.934.934 0 00-.886.798v39.789a.675.675 0 00.106.412.687.687 0 00.615.315h5.914a.677.677 0 00.676-.444.667.667 0 00.041-.283V24.969l17.173 29.142.08.147h5.113a.674.674 0 00.673-.442.668.668 0 00.044-.283v-39.87a.587.587 0 00-.08-.483.557.557 0 00-.42-.244z" fill="#EA7D1F"/><path d="M349.063 12.936h-5.91a.677.677 0 00-.677.442.638.638 0 00-.044.283V38.38l-15.048-25.44h-7.37a.81.81 0 00-.812.472.837.837 0 00-.074.323v39.648a.694.694 0 00.721.721h5.932a.683.683 0 00.721-.72V24.966l17.297 29.144.077.147h5.096c.3.017.575-.163.675-.442a.652.652 0 00.044-.283V13.659a.664.664 0 00-.647-.725m-85.756 40.73l15.049-39.795a.72.72 0 00-.721-.938h-6.759a.8.8 0 00-.721.445l-9.875 26.093-9.876-26.103a.774.774 0 00-.721-.446h-6.771a.743.743 0 00-.731.602.736.736 0 00.008.337l15.208 39.804a.801.801 0 00.721.445h4.566a.764.764 0 00.647-.445" fill="#1A3967"/><path d="M170.597 53.522a.672.672 0 00.437.681.69.69 0 00.282.044h27.886a.679.679 0 00.523-.198.692.692 0 00.201-.527v-5.786a.676.676 0 00-.438-.679.701.701 0 00-.286-.046h-18.868a.671.671 0 01-.522-.198.696.696 0 01-.201-.523v-9.148a.7.7 0 01.44-.68.678.678 0 01.283-.043h12.541a.679.679 0 00.719-.727v-5.786a.667.667 0 00-.197-.525.685.685 0 00-.522-.2h-12.541a.67.67 0 01-.522-.198.707.707 0 01-.201-.523v-7.772a.7.7 0 01.201-.525.668.668 0 01.522-.198h18.883a.676.676 0 00.522-.202.686.686 0 00.201-.525v-5.786a.707.707 0 00-.199-.535.678.678 0 00-.534-.198h-27.883a.683.683 0 00-.729.723v40.08h.002z" fill="#EA7D1F"/></g><defs><clipPath id="a"><path fill="#fff" transform="translate(0 .604)" d="M0 0h351v63.959H0z"/></clipPath></defs></svg>