<svg width="80" height="79" fill="none" xmlns="http://www.w3.org/2000/svg"><path d="M58.433 25.268a2.525 2.525 0 00-.7 0c-5.166-.162-9.266-4.292-9.266-9.366 0-5.17 4.3-9.398 9.633-9.398 5.3 0 9.633 4.195 9.633 9.398-.033 5.074-4.133 9.204-9.3 9.366zM69.3 47.805c-3.733 2.439-8.967 3.35-13.8 2.732 1.267-2.667 1.933-5.626 1.967-8.748 0-3.252-.734-6.342-2.134-9.041 4.934-.65 10.167.26 13.934 2.7 5.266 3.381 5.266 8.942.033 12.357zM21.467 25.268c.233-.032.466-.032.7 0 5.166-.162 9.266-4.292 9.266-9.366 0-5.203-4.3-9.398-9.633-9.398-5.3 0-9.6 4.195-9.6 9.398 0 5.074 4.1 9.204 9.267 9.366zm.366 16.521c0 3.154.7 6.146 1.967 8.845-4.7.488-9.6-.488-13.2-2.797-5.267-3.414-5.267-8.975 0-12.39 3.567-2.341 8.6-3.284 13.333-2.764-1.366 2.732-2.1 5.821-2.1 9.106zM40.4 51.61a3.85 3.85 0 00-.867 0C33.4 51.415 28.5 46.504 28.5 40.455c.033-6.179 5.133-11.187 11.5-11.187 6.333 0 11.467 5.008 11.467 11.187-.034 6.05-4.9 10.96-11.067 11.155zm-10.833 6.732c-5.034 3.284-5.034 8.682 0 11.934 5.733 3.74 15.133 3.74 20.866 0 5.034-3.284 5.034-8.682 0-11.934-5.7-3.74-15.1-3.74-20.866 0z" fill="#292D32"/></svg>