<svg width="301" height="82" fill="none" xmlns="http://www.w3.org/2000/svg"><path fill-rule="evenodd" clip-rule="evenodd" d="M26.082.404c-8.104 1.105-13.293 3.765-15.602 8-2.086 3.824-2.195 4.851-2.196 20.839l-.001 14.596 1.145.11c.95.092 1.146.258 1.146.967v.857h8.418l.108-15.072.11-15.072 1.233-2.41c1.45-2.832 3.15-4.28 6.195-5.276 1.782-.582 3.096-.681 8.961-.675 6.355.007 7.027.069 8.915.822 1.535.613 2.271 1.16 2.963 2.203 1.836 2.768 1.964 3.923 2.132 19.213l.156 14.157h1.023c.858 0 1.024.143 1.024.88v.879h8.46l-.011-13.453c-.012-14.643-.242-17.679-1.55-20.532-1.271-2.77-2.354-4.013-5.408-6.208-3.378-2.426-5.334-3.294-9.421-4.179C40.244.262 29.88-.114 26.082.404zM204.43 43.487v23.741h8.811V51.271l4.428 7.715c2.436 4.243 4.55 7.837 4.698 7.988.148.15 2.599.23 5.445.176l5.176-.098-4.969-7.738a9340.502 9340.502 0 01-5.451-8.491c-.447-.699-.129-1.276 4.371-7.93 2.668-3.946 4.97-7.366 5.115-7.599.2-.324-.986-.424-5.01-.424h-5.273l-4.177 7.28-4.176 7.28-.092-14.841-.092-14.843h-8.804v23.741zM28.973 37.42c.114 14.834.137 15.268.928 17.469 1.118 3.114 2.556 5.062 5.11 6.923 2.934 2.14 5.864 3.491 9.616 4.438 2.835.715 3.936.788 11.591.765 7.553-.023 8.761-.108 11.28-.794 5.757-1.568 9.615-4.188 11.448-7.774 1.581-3.093 1.768-5.233 1.78-20.411l.01-14.245-1.068-.11c-.784-.08-1.068-.292-1.068-.791 0-.636-.281-.682-4.212-.682h-4.213l-.105 15.036-.106 15.036-.989 2.01c-1.23 2.5-3.513 4.546-5.952 5.332-3.068.988-8.705 1.4-13.008.95-6.455-.673-7.868-1.517-9.596-5.721-.738-1.8-.77-2.405-.873-16.552l-.105-14.684H38.4c-.805 0-1.04-.159-1.04-.703 0-.665-.235-.704-4.253-.704h-4.253l.118 15.212zm80.996 7.298v22.51h8.764c4.819 0 9.606-.16 10.636-.354 4.554-.862 8.408-3.843 9.882-7.643.6-1.55.788-2.773.794-5.192.009-3.707-.478-5.066-2.668-7.437-1.57-1.7-2.786-2.456-5.026-3.128l-1.41-.424 1.283-.538c1.741-.732 4.018-2.846 5.169-4.798.851-1.446.95-1.959.95-4.954 0-2.984-.101-3.51-.936-4.924-1.191-2.014-2.154-2.896-4.351-3.988-2.725-1.354-5.256-1.64-14.516-1.64h-8.571v22.51zm16.582-14.317c1.614.79 2.451 2.241 2.451 4.248 0 2.093-.813 3.733-2.382 4.807-1.06.725-1.771.886-4.376.988l-3.111.124V29.525l3.084.131c1.982.085 3.531.351 4.334.745zM100.19 34.56c-1.452.418-3.504 2.455-4.353 4.32l-.656 1.442-.008-2.726-.007-2.726h-8.812v32.358h8.771l.108-9.76c.103-9.292.147-9.837.9-11.364 1.16-2.348 2.634-3.321 5.025-3.316 1.066.002 2.374.138 2.907.301l.97.299V38.99c0-4.873.011-4.851-2.408-4.792-.711.018-1.808.18-2.437.362zm52.427.157c-1.26.273-3.123.833-4.141 1.245l-1.85.748v3.682c0 2.025.118 3.622.264 3.55 5.013-2.505 5.775-2.786 8.085-2.979 3.837-.321 5.565.785 6.261 4.006.283 1.314.773 1.13-5.813 2.175-5.179.821-7.184 1.592-9.085 3.489-1.988 1.984-2.65 4.216-2.47 8.33.126 2.877.269 3.47 1.195 4.966.647 1.044 1.717 2.108 2.778 2.762 1.569.968 1.998 1.065 4.749 1.065 2.687 0 3.213-.112 4.728-1 .937-.55 2.206-1.712 2.82-2.582l1.115-1.583.104 2.318.104 2.319h8.116l-.111-12.222c-.105-11.541-.154-12.325-.866-14.063-.865-2.111-2.179-3.792-3.853-4.929-2.579-1.753-7.557-2.284-12.13-1.297zm34.542-.187c-4.151.87-8.123 3.94-10.078 7.792-2.6 5.12-2.553 13.42.103 18.29 1.182 2.167 3.71 4.684 5.745 5.72 3.925 1.999 10.007 2.132 14.187.31l1.322-.576v-3.991c0-2.195-.059-3.992-.132-3.992-.073 0-.861.407-1.752.904-3.138 1.75-7.205 1.474-9.635-.655-3.265-2.86-3.796-8.897-1.15-13.06 2.245-3.533 7.658-4.445 11.313-1.907.515.357 1.031.65 1.146.65.115 0 .21-1.908.21-4.239v-4.238l-1.322-.552c-1.583-.66-7.654-.94-9.957-.456zm98.692.227c-.973.357-2.367 1.363-3.613 2.605l-2.028 2.024V34.87h-8.812V82h8.812l.004-9.233.004-9.232.903 1.143c.496.629 1.645 1.579 2.551 2.11 1.451.852 2.008.967 4.645.964 3.61-.004 5.546-.759 7.823-3.049 3.255-3.273 4.869-8.089 4.86-14.502-.013-10.089-3.731-15.53-10.857-15.889-1.929-.097-3.163.031-4.292.445zm-50.045 10.577c.008 11.51.277 14.406 1.609 17.31 1.771 3.86 3.783 5.101 8.281 5.107 2.756.004 3.177-.09 4.758-1.064.954-.587 2.29-1.815 2.968-2.73l1.234-1.66.104 2.465.103 2.466h8.781V34.87h-8.765l-.112 10.64c-.103 9.893-.16 10.723-.816 11.833-.986 1.671-2.305 2.55-4.101 2.733-1.947.198-3.449-.682-4.384-2.567-.61-1.23-.686-2.376-.796-12l-.121-10.639h-8.75l.007 10.464zm53.506-2.493c.519.375 1.315 1.423 1.77 2.329.688 1.368.829 2.196.835 4.905.011 5.01-.975 7.563-3.609 9.35-.99.672-1.551.801-2.925.673-2.163-.2-3.36-1.075-4.468-3.264-.774-1.527-.881-2.193-.881-5.433 0-2.361.179-4.137.497-4.924.754-1.87 2.113-3.533 3.337-4.087 1.444-.653 4.24-.421 5.444.45zM4.582 49.115v1.23h17.976v-2.46H4.582v1.23zm37.009 0v1.23h26.787v-2.46H41.591v1.23zm85.004-.869c2.955.82 4.655 3.93 3.839 7.024-.861 3.26-3.137 4.553-8.04 4.564l-3.261.008V47.884l3.084.002c1.697 0 3.667.163 4.378.36zM2.115 52.808v1.407h22.558V51.4H2.115v1.407zm41.59 0v1.407h22.558V51.4H43.705v1.407zm117.716.44c-.005.822-.153 2.115-.329 2.874-.855 3.678-4.652 5.822-7.421 4.19-1.962-1.157-2.406-4.22-.875-6.036 1.007-1.195 2.017-1.494 8.369-2.482.145-.023.26.631.256 1.453zM0 56.5v1.23h26.787v-2.46H0v1.23zm45.82 0v1.23h18.33v-2.46H45.82v1.23z" fill="#22A1BF"/></svg>