<svg width="28" height="28" fill="none" xmlns="http://www.w3.org/2000/svg"><path fill-rule="evenodd" clip-rule="evenodd" d="M23.176 5.139H4.09a1.363 1.363 0 00-1.363 1.363v14.996a1.363 1.363 0 001.363 1.363h19.086a1.364 1.364 0 001.363-1.363V6.502a1.363 1.363 0 00-1.363-1.363zM5.453 20.135V7.865h16.36v12.27H5.452z" fill="#fff"/><path fill-rule="evenodd" clip-rule="evenodd" d="M24.059 7.54l-9.604 8.18a1.363 1.363 0 01-1.774-.006l-9.482-8.18c-.957-.825-.373-2.395.89-2.395h19.086c1.268 0 1.849 1.578.884 2.4zm-16.302.325l5.821 5.021 5.892-5.02H7.757z" fill="#fff"/></svg>