<svg width="80" height="90" fill="none" xmlns="http://www.w3.org/2000/svg"><path d="M69.9 59.925c-.8 9.95-7.233 16.472-16.567 16.472h-30c-9.2 0-16.666-8.347-16.666-18.633V31.677c0-10.137 5.466-17.217 13.966-18.41a15.92 15.92 0 012.7-.223h30c.867 0 1.7.037 2.5.186C63.8 14.273 69.2 20.497 69.9 29.515c.1 1.081-.7 1.976-1.667 1.976h-5.166c-3.2 0-6.167 1.379-8.3 3.838-2.534 2.758-3.8 6.634-3.5 10.51.533 6.782 5.866 12.111 12.2 12.111h4.766c.967 0 1.767.895 1.667 1.975z" fill="#292D32"/><path d="M73.333 40.882v7.677c0 2.05-1.466 3.727-3.333 3.801h-6.533c-3.6 0-6.9-2.944-7.2-6.969-.2-2.347.6-4.546 2-6.074 1.233-1.416 2.933-2.236 4.8-2.236H70c1.867.074 3.333 1.751 3.333 3.801z" fill="#292D32"/></svg>