<svg xmlns="http://www.w3.org/2000/svg" width="440" height="107" fill="none"><path fill="#3C3C3C" fill-rule="evenodd" d="M143.337 7.674v7.673l1.78.377c2.403.509 8.589.338 10.201-.282l1.305-.502V0h-13.286v7.674zM257.686 51.98v51.98l1.304-.35c.718-.193 3.6-.348 6.406-.346l5.1.004V0h-12.81v51.98zm-59.547-27.637c-12.107 3.295-20.29 10.994-24.598 23.139-1.442 4.068-1.469 4.302-1.644 14.788l-.178 10.655h13.372v-9.131c0-7.984.124-9.5.986-12.075 2.664-7.959 9.204-13.57 17.548-15.059 11.033-1.967 22.478 6.046 24.895 17.432.538 2.533.682 8.102.689 26.537l.008 23.331 1.305-.363c.718-.2 3.608-.343 6.424-.318l5.119.044-.137-26.09-.137-26.091-1.259-3.683c-1.833-5.364-4.775-10.012-8.91-14.075-4.211-4.138-8.25-6.633-13.555-8.372-5.215-1.71-14.907-2.035-19.928-.669zm113.64-.136c-3.925.855-10.841 4.238-14.34 7.013-5.545 4.4-9.95 11.374-11.804 18.69-.901 3.554-.971 4.954-.809 16.058.172 11.87.208 12.258 1.5 15.954 2.231 6.387 3.951 9.11 8.832 13.986 5.034 5.03 8.755 7.3 14.637 8.926 17.049 4.715 33.904-2.855 41.822-18.783 2.693-5.415 3.329-9.477 3.333-21.264.003-11.22-.438-14.748-2.47-19.767-1.763-4.354-5.983-10.137-9.638-13.206-4.011-3.368-10.619-6.667-15.321-7.65-4.235-.884-11.583-.865-15.742.043zm84.69-.042c-11.275 2.794-19.882 9.776-24.453 19.838-3.018 6.643-3.047 6.969-3.057 34.603l-.009 25.095 1.898-.234c1.044-.13 3.98-.188 6.524-.13l4.626.105V80.317c0-13.657.197-24.17.482-25.676 1.068-5.657 5.258-11.912 9.946-14.852 12.568-7.879 29.173-1.223 33.052 13.248.49 1.83.636 7.886.64 26.646l.006 24.278 1.305-.354c.718-.194 3.717-.333 6.665-.31l5.36.043-.168-25.625c-.186-28.307-.112-27.558-3.407-34.622-3.835-8.225-11.364-14.814-20.583-18.012-3.046-1.057-4.654-1.293-9.812-1.443-4.399-.127-6.984.025-9.015.528zM.159 51.702c.178 28.17.123 27.614 3.392 34.483 3.366 7.073 9.135 12.906 16.186 16.365 5.652 2.773 8.946 3.493 15.895 3.478 5.428-.012 6.312-.144 10.438-1.551 5.892-2.009 10.47-4.906 14.584-9.228l3.335-3.504 2.473 2.803c4.965 5.63 12.366 9.68 20.17 11.038 6.7 1.166 11.666.779 17.957-1.4 4.922-1.704 8.216-3.865 12.652-8.298 4.542-4.539 7.017-8.419 8.908-13.965l1.292-3.788.138-25.843.139-25.844-3.264.42c-1.906.246-4.578.245-6.424-.002l-3.161-.422-.004 22.294c-.002 13.072-.207 23.567-.495 25.372-1.919 12.01-13.504 20.555-25.164 18.559-4.51-.772-7.96-2.484-11.389-5.652-3.27-3.023-4.913-5.586-6.18-9.652-.826-2.647-.894-4.684-.894-26.659 0-13.086-.106-23.899-.236-24.028-.13-.13-1.658-.044-3.398.188-1.84.246-4.52.248-6.407.005l-3.245-.418v22.795c0 14.326-.19 23.837-.514 25.603-2.258 12.341-14.85 20.568-26.748 17.476-8.018-2.085-14.575-8.648-16.36-16.377-.289-1.247-.485-11.473-.492-25.587l-.012-23.51-4.389.068c-2.413.037-5.413-.106-6.665-.318L0 26.217l.16 25.485zm153.142-24.895c-1.435.224-4.264.277-6.287.116l-3.677-.29v76.635l6.643.018 6.643.018V64.793c0-21.181-.16-38.485-.356-38.452-.196.032-1.53.242-2.966.466zM324.477 36.94c7.798 1.835 13.661 7.183 16.205 14.78.873 2.607.986 4.081.986 12.862 0 8.383-.138 10.36-.894 12.783-1.268 4.066-2.91 6.63-6.181 9.652-6.455 5.965-14.963 7.558-23.067 4.32-6.671-2.665-12.355-9.92-13.496-17.227-.625-3.996-.619-15.006.011-18.942 1.099-6.88 5.815-13.3 12.005-16.345 5.258-2.585 9.238-3.105 14.431-1.883zM200.274 88.66v15.259l1.542-.343c.849-.189 3.838-.343 6.643-.343h5.101V73.4h-13.286v15.26z" clip-rule="evenodd"/></svg>