<svg width="497" height="497" fill="none" xmlns="http://www.w3.org/2000/svg"><path d="M248.082 0C111.07 0 0 111.058 0 248.082c0 137 111.07 248.07 248.082 248.07 137.006 0 248.076-111.07 248.076-248.07C496.158 111.058 385.088 0 248.082 0Z" fill="url(#a)"/><g filter="url(#b)"><path d="M324.983 279.889c-4.541-2.051-10.572-3.076-18.091-3.076h-6.299V163.434c0-16.992-7.423-25.488-22.266-25.488-4.591 0-8.521 1.538-11.792 4.614-3.273 3.076-7.448 8.034-12.524 14.868l-77.637 103.857a1784.678 1784.678 0 0 0-5.42 7.178 112.065 112.065 0 0 0-4.248 6.079c-1.369 2.101-2.394 4.102-3.076 6.006-.685 1.904-1.025 3.786-1.025 5.64 0 7.228 2.318 12.941 6.958 17.139 4.637 4.2 11.595 6.299 20.874 6.299h73.535v27.246c0 7.324 1.685 12.868 5.054 16.626 3.369 3.758 7.787 5.64 13.257 5.64 5.566 0 10.009-1.831 13.33-5.493 3.319-3.662 4.98-9.251 4.98-16.772v-27.246h8.936c7.42 0 12.987-1.293 16.699-3.882 3.71-2.586 5.566-6.713 5.566-12.378.001-6.934-2.27-11.427-6.811-13.478Zm-61.01-3.076h-62.988l62.988-85.107v85.107Z" fill="#fff"/></g><defs><linearGradient id="a" x1="248.079" y1="0" x2="0" y2="801.997" gradientUnits="userSpaceOnUse"><stop stop-color="#FFB502"/><stop offset="1" stop-color="#FF4E53"/></linearGradient><filter id="b" x="162.605" y="131.946" width="189.189" height="241.192" filterUnits="userSpaceOnUse" color-interpolation-filters="sRGB"><feFlood flood-opacity="0" result="BackgroundImageFix"/><feColorMatrix in="SourceAlpha" values="0 0 0 0 0 0 0 0 0 0 0 0 0 0 0 0 0 0 127 0" result="hardAlpha"/><feOffset dx="10" dy="4"/><feGaussianBlur stdDeviation="5"/><feComposite in2="hardAlpha" operator="out"/><feColorMatrix values="0 0 0 0 0 0 0 0 0 0 0 0 0 0 0 0 0 0 0.25 0"/><feBlend in2="BackgroundImageFix" result="effect1_dropShadow_1561_2438"/><feBlend in="SourceGraphic" in2="effect1_dropShadow_1561_2438" result="shape"/></filter></defs></svg>