<svg xmlns="http://www.w3.org/2000/svg" width="80" height="79" fill="none"><path fill="#292D32" fill-rule="evenodd" d="M40.002 7.198c8.83 0 17.33 3.426 23.564 9.561 6.266 6.138 9.77 14.423 9.77 23.103 0 11.42-6.137 22.026-16.137 27.932-10 5.906-22.433 6.233-32.763.848h-.104c-.57-.224-1.077-.544-1.582-.863-.377-.238-.752-.475-1.151-.67a4.858 4.858 0 0 0-3.263-.16c-2.47.845-4.97 1.53-7.537 2.118-1.333.032-1.733-.75-1.733-2.023.6-2.578 1.4-5.127 2.336-7.604a3.947 3.947 0 0 0-.3-3.233l-.666-1.27a31.534 31.534 0 0 1-3.767-14.909v-.199a32.198 32.198 0 0 1 9.763-23.07c6.267-6.135 14.734-9.56 23.57-9.56Zm-15.37 36.84c-2.366 0-4.266-1.892-4.266-4.176 0-2.317 1.9-4.177 4.266-4.177 2.334 0 4.27 1.86 4.27 4.177 0 2.284-1.936 4.177-4.27 4.177Zm11.1-4.176c0 2.284 1.904 4.177 4.27 4.177 2.367 0 4.264-1.893 4.264-4.177 0-2.317-1.897-4.177-4.264-4.177-2.366 0-4.27 1.86-4.27 4.177Zm15.37 0c0 2.284 1.93 4.177 4.264 4.177 2.366 0 4.266-1.893 4.266-4.177 0-2.317-1.9-4.177-4.266-4.177-2.334 0-4.264 1.86-4.264 4.177Z" clip-rule="evenodd"/></svg>