<?xml version="1.0" encoding="utf-8"?>
<!-- Generator: Adobe Illustrator 19.2.0, SVG Export Plug-In . SVG Version: 6.00 Build 0)  -->
<svg version="1.1" id="Layer_1" xmlns="http://www.w3.org/2000/svg" xmlns:xlink="http://www.w3.org/1999/xlink" x="0px" y="0px"
	 viewBox="0 0 88.5 82.1963" style="enable-background:new 0 0 88.5 82.1963;" xml:space="preserve">
<g>
	<path d="M59.4178,59.3854c-1.8359-0.0029-3.5962-0.1836-5.2319-0.5361c-5.2534-1.1348-9.9844-4.5967-12.6558-9.2607
		c-2.6348-4.5986-3.1157-10.0845-1.354-15.4473c2.7642-8.4102,9.8374-13.6343,18.4595-13.6343c0.7046,0,1.4233,0.0356,2.1357,0.1069
		c8.0356,0.8018,14.5225,6.5474,16.5259,14.6377c0.2949,1.1914,0.4761,2.4087,0.6357,3.4824l0.0127,0.0854h2.4136l-0.0068-0.1064
		c-0.0322-0.5117-0.0737-1.0039-0.1455-1.4785c-0.9854-6.5225-4.0269-11.6294-9.0391-15.1787
		c-3.7373-2.6479-8.0698-4.0474-12.5293-4.0474c-6.8047,0-13.0684,3.2124-17.1851,8.814
		c-5.0811,6.9131-6.1411,14.2495-3.1499,21.8052c3.1772,8.0264,11.1646,13.2188,20.3486,13.2285
		c7.3457,0.0078,21.6934,0.0107,21.6934,0.0107l-0.0122-2.46C80.3333,59.4069,70.0487,59.4049,59.4178,59.3854z"/>
	<path d="M59.5662,49.2926c-0.5801,0-1.1602-0.0059-1.7383-0.041c-5.2422-0.3096-8.8442-4.3164-8.5649-9.5278
		c0.2676-5.0117,3.7983-8.6709,8.7856-9.106c0.2617-0.0225,0.5205-0.0337,0.7773-0.0337c4.2993,0,7.8379,3.0728,8.8057,7.646
		c0.0366,0.1724,0.0688,0.3462,0.0996,0.5205l0.0146,0.0825h2.4033l-0.0171-0.1147c-0.3613-2.4058-1.3564-4.5352-3.0425-6.5098
		c-2.1885-2.564-5.3506-4.0347-8.6758-4.0347c-1.3169,0-2.6284,0.2271-3.8984,0.6743c-4.3145,1.5205-7.5371,5.9258-7.6636,10.4751
		c-0.0933,3.438,1.0708,6.5815,3.2783,8.8511c2.2061,2.2695,5.3154,3.5195,8.7563,3.5215
		c7.0908,0.0039,20.9883,0.0049,20.9883,0.0049l0.4702-0.0029v-2.4033L59.5662,49.2926z"/>
	<polygon points="14.7542,20.5173 23.9368,20.5622 23.9368,62.5964 26.2327,62.5964 26.2327,18.0509 14.7542,18.0509 	"/>
	<polygon points="8.3333,28.0031 8.3333,30.5314 14.7279,30.5314 14.7279,62.6003 17.1956,62.6003 17.117,28.0031 	"/>
</g>
<path d="M88.5,82.1963H0V0h88.5V82.1963z M2.1352,80.1319h84.2296V2.0644H2.1352V80.1319z"/>
</svg>
