<svg xmlns="http://www.w3.org/2000/svg" xml:space="preserve" style="enable-background:new 0 0 88.5 82.1963" viewBox="0 0 88.5 82.196"><path d="M59.418 59.385a25.097 25.097 0 0 1-5.232-.536c-5.254-1.134-9.985-4.596-12.656-9.26-2.635-4.599-3.116-10.085-1.354-15.448 2.764-8.41 9.837-13.634 18.46-13.634.704 0 1.423.036 2.135.107 8.036.802 14.523 6.547 16.526 14.638.295 1.191.476 2.408.636 3.482l.013.085h2.413l-.007-.106a17.096 17.096 0 0 0-.145-1.478c-.985-6.523-4.027-11.63-9.04-15.18-3.737-2.647-8.069-4.047-12.529-4.047-6.804 0-13.068 3.213-17.185 8.814-5.08 6.914-6.14 14.25-3.15 21.806 3.178 8.026 11.165 13.218 20.35 13.228 7.345.008 21.693.01 21.693.01l-.013-2.46s-10.284-.001-20.915-.02z"/><path d="M59.566 49.293c-.58 0-1.16-.006-1.738-.041-5.242-.31-8.844-4.317-8.565-9.528.268-5.012 3.798-8.671 8.786-9.106.261-.023.52-.034.777-.034 4.3 0 7.838 3.073 8.806 7.646.036.173.068.346.1.52l.014.083h2.403l-.017-.115c-.361-2.405-1.356-4.535-3.043-6.51-2.188-2.563-5.35-4.034-8.675-4.034-1.317 0-2.629.227-3.899.674-4.314 1.52-7.537 5.926-7.663 10.475-.094 3.438 1.07 6.582 3.278 8.851 2.206 2.27 5.315 3.52 8.756 3.522 7.091.004 20.989.005 20.989.005l.47-.003v-2.403l-20.779-.002zM14.754 20.517l9.183.045v42.034h2.296V18.051H14.754z"/><path d="M8.333 28.003v2.528h6.395v32.07h2.468l-.079-34.598z"/><path d="M88.5 82.196H0V0h88.5v82.196zM2.135 80.132h84.23V2.064H2.135v78.068z"/></svg>