<?xml version="1.0" encoding="utf-8"?>
<!-- Generator: Adobe Illustrator 20.1.0, SVG Export Plug-In . SVG Version: 6.00 Build 0)  -->
<svg version="1.1" id="Слой_1" xmlns="http://www.w3.org/2000/svg" xmlns:xlink="http://www.w3.org/1999/xlink" x="0px" y="0px"
	 viewBox="0 0 600 400" style="enable-background:new 0 0 600 400;" xml:space="preserve">
<style type="text/css">
	.st0{fill:#D8EFFD;stroke:#000000;stroke-width:2;stroke-miterlimit:10;}
	.st1{fill:none;stroke:#000000;stroke-width:2;stroke-miterlimit:10;}
	.st2{fill:#FFFFFF;stroke:#000000;stroke-width:2;stroke-miterlimit:10;}
	.st3{fill:none;stroke:#000000;stroke-width:2;stroke-miterlimit:10;stroke-dasharray:5.7825,5.7825;}
	.st4{fill:none;stroke:#000000;stroke-width:2;stroke-miterlimit:10;stroke-dasharray:6.4261,6.4261;}
	.st5{fill:none;stroke:#000000;stroke-width:2;stroke-miterlimit:10;stroke-dasharray:6;}
	.st6{fill:#FF9FBA;stroke:#000000;stroke-width:2;stroke-miterlimit:10;}
	.st7{fill:none;stroke:#000000;stroke-width:2;stroke-miterlimit:10;stroke-dasharray:6,6;}
	.st8{fill:#D8EFFD;stroke:#000000;stroke-width:2;stroke-linejoin:bevel;stroke-miterlimit:10;}
	.st9{fill:#B2DDF8;stroke:#000000;stroke-width:2;stroke-miterlimit:10;}
	.st10{stroke:#000000;stroke-width:2;stroke-miterlimit:10;}
	.st11{fill:none;stroke:#000000;stroke-width:8;stroke-miterlimit:10;}
	.st12{fill:none;stroke:#000000;stroke-width:2;stroke-miterlimit:10;stroke-dasharray:1.9767,1.9767;}
	.st13{fill:none;stroke:#000000;stroke-width:2;stroke-linejoin:bevel;stroke-miterlimit:10;}
	.st14{fill:none;stroke:#000000;stroke-width:2;stroke-miterlimit:10;stroke-dasharray:8.0408,8.0408;}
	.st15{fill:none;stroke:#13120D;stroke-width:2;stroke-miterlimit:10;}
	.st16{fill:#FF9FBA;}
	.st17{fill:#B2DDF8;}
	.st18{fill:#643D00;}
	.st19{fill:#E5E5E5;stroke:#000000;stroke-width:2;stroke-miterlimit:10;}
	.st20{fill:#EAEAEA;stroke:#000000;stroke-width:2;stroke-miterlimit:10;}
	.st21{fill:#231F20;}
	.st22{fill:#BCBEC0;}
	.st23{fill:#FFFFFF;}
	.st24{fill:#E6E7E8;}
	.st25{fill:#D8EFFD;}
	.st26{fill:#F1F2F2;}
	.st27{fill:#FFA432;}
	.st28{fill:#18AFFE;}
	.st29{fill:#FFFFFF;stroke:#000000;stroke-width:2;stroke-linecap:round;stroke-miterlimit:10;}
	.st30{fill:none;stroke:#000000;stroke-width:2;stroke-linecap:round;stroke-miterlimit:10;}
	.st31{fill:#FFFFFF;stroke:#000000;stroke-width:2;stroke-linejoin:round;stroke-miterlimit:10;}
	.st32{fill:none;stroke:#000000;stroke-width:2;stroke-miterlimit:10;stroke-dasharray:4.0477,4.0477;}
	.st33{fill:none;stroke:#000000;stroke-width:2;stroke-miterlimit:10;stroke-dasharray:4.4185,4.4185;}
	.st34{fill:none;stroke:#000000;stroke-width:4;stroke-miterlimit:10;}
	.st35{fill:#010002;}
	.st36{fill:none;}
	.st37{font-family:'Roboto-Medium';}
	.st38{font-size:9px;}
	.st39{fill:none;stroke:#000000;stroke-width:2;stroke-linecap:round;stroke-linejoin:bevel;stroke-miterlimit:10;}
</style>
<g>
	<g>
		<line class="st1" x1="427.4066" y1="191.8333" x2="457.3177" y2="191.8333"/>
		<line class="st1" x1="427.4066" y1="200.8333" x2="464.1723" y2="200.8333"/>
		<line class="st1" x1="427.4066" y1="209.8333" x2="457.3177" y2="209.8333"/>
	</g>
	<g>
		<path class="st2" d="M528.1072,362.7049l-46.1801,6.646c-4.0338,0.5805-7.7744-2.2189-8.3549-6.2527l-15.0205-104.3717
			c-0.5805-4.0338,2.2189-7.7744,6.2527-8.3549l46.1801-6.646c4.0338-0.5805,7.7744,2.2189,8.3549,6.2527L534.3599,354.35
			C534.9404,358.3838,532.141,362.1244,528.1072,362.7049z"/>
		<polygon class="st2" points="511.4194,269.4281 536.1207,300.8299 521.2767,337.9228 481.7314,343.6139 457.03,312.2122 
			471.874,275.1193 		"/>
		<polygon class="st0" points="504.4894,286.7451 517.6588,303.4868 509.7448,323.2627 488.6613,326.2969 475.492,309.5552 
			483.406,289.7794 		"/>
		
			<ellipse transform="matrix(0.9898 -0.1424 0.1424 0.9898 -32.2247 69.6364)" class="st20" cx="470.2556" cy="259.888" rx="4.47" ry="4.47"/>
		
			<ellipse transform="matrix(0.9898 -0.1424 0.1424 0.9898 -31.0219 75.1605)" class="st20" cx="509.4392" cy="254.2489" rx="4.47" ry="4.47"/>
		
			<ellipse transform="matrix(0.9898 -0.1424 0.1424 0.9898 -46.0349 72.6435)" class="st20" cx="484.3533" cy="357.8471" rx="4.47" ry="4.47"/>
		
			<ellipse transform="matrix(0.9898 -0.1424 0.1424 0.9898 -44.832 78.1676)" class="st20" cx="523.5369" cy="352.208" rx="4.47" ry="4.47"/>
		
			<rect x="494.7391" y="340.6607" transform="matrix(0.9898 -0.1424 0.1424 0.9898 -44.1455 75.1245)" class="st2" width="15.7742" height="10.4616"/>
		<g>
			
				<rect x="472.2205" y="274.7107" transform="matrix(0.9898 -0.1424 0.1424 0.9898 -34.5267 70.6553)" class="st0" width="8.0009" height="3.53"/>
			
				<rect x="480.0366" y="273.5859" transform="matrix(0.9898 -0.1424 0.1424 0.9898 -34.2868 71.7572)" class="st0" width="8.0009" height="3.53"/>
			
				<rect x="487.8527" y="272.461" transform="matrix(0.9898 -0.1424 0.1424 0.9898 -34.0469 72.8592)" class="st0" width="8.0009" height="3.53"/>
			
				<rect x="495.6687" y="271.3362" transform="matrix(0.9898 -0.1424 0.1424 0.9898 -33.8069 73.9611)" class="st0" width="8.0009" height="3.53"/>
			
				<rect x="503.4848" y="270.2114" transform="matrix(0.9898 -0.1424 0.1424 0.9898 -33.567 75.063)" class="st0" width="8.0009" height="3.53"/>
		</g>
		<g>
			
				<rect x="481.547" y="339.5165" transform="matrix(0.9898 -0.1424 0.1424 0.9898 -43.663 72.6447)" class="st6" width="8.0009" height="3.53"/>
			
				<rect x="489.363" y="338.3917" transform="matrix(0.9898 -0.1424 0.1424 0.9898 -43.423 73.7466)" class="st6" width="8.0009" height="3.53"/>
			
				<rect x="497.1791" y="337.2668" transform="matrix(0.9898 -0.1424 0.1424 0.9898 -43.1831 74.8485)" class="st6" width="8.0009" height="3.53"/>
			
				<rect x="504.9952" y="336.142" transform="matrix(0.9898 -0.1424 0.1424 0.9898 -42.9432 75.9504)" class="st6" width="8.0009" height="3.53"/>
			
				<rect x="512.8113" y="335.0171" transform="matrix(0.9898 -0.1424 0.1424 0.9898 -42.7032 77.0523)" class="st6" width="8.0009" height="3.53"/>
		</g>
		<line class="st0" x1="495.2024" y1="349.6751" x2="510.0558" y2="345.2735"/>
		<line class="st0" x1="494.7325" y1="346.4098" x2="509.5859" y2="342.0081"/>
		<line class="st0" x1="464.9442" y1="304.6519" x2="463.8386" y2="307.2908"/>
		<line class="st0" x1="473.7494" y1="283.6368" x2="465.9683" y2="302.2079"/>
	</g>
	<g>
		
			<rect x="75.1282" y="242.7686" transform="matrix(0.9956 0.094 -0.094 0.9956 24.3463 -9.064)" class="st2" width="66.4816" height="22.1712"/>
		
			<rect x="90.0026" y="242.7686" transform="matrix(0.9956 0.094 -0.094 0.9956 24.3463 -9.064)" class="st2" width="36.7328" height="22.1712"/>
		
			<rect x="102.5457" y="237.0097" transform="matrix(0.9956 0.094 -0.094 0.9956 23.0421 -9.2494)" class="st0" width="14.2783" height="5.8208"/>
		<path class="st20" d="M100.7409,365.2639l-6.5052-0.6143c-2.3419-0.2212-4.061-2.2989-3.8399-4.6407l9.0184-95.4993
			l14.9858,1.4152l-9.0184,95.4993C105.1605,363.7659,103.0827,365.4851,100.7409,365.2639z"/>
		<line class="st2" x1="102.4407" y1="289.4643" x2="102.9999" y2="283.5428"/>
		<line class="st2" x1="99.4839" y1="320.7752" x2="101.8222" y2="296.014"/>
		<line class="st2" x1="100.4796" y1="358.5196" x2="101.5321" y2="347.3742"/>
		
			<rect x="71.7141" y="243.8732" transform="matrix(0.9956 0.094 -0.094 0.9956 23.8974 -5.7988)" class="st6" width="3.554" height="13.6986"/>
		
			<rect x="67.5514" y="246.743" transform="matrix(0.9956 0.094 -0.094 0.9956 23.842 -5.4092)" class="st6" width="3.554" height="7.1727"/>
		
			<rect x="96.6321" y="265.1889" transform="matrix(0.9956 0.094 -0.094 0.9956 25.5693 -8.8326)" class="st2" width="19.7846" height="3.5222"/>
	</g>
	<g>
		<g>
			<polygon class="st31" points="200.1044,251.7083 171.3544,280.9583 428.8544,280.9583 399.6044,251.5833 			"/>
			<rect x="171.3544" y="280.4583" class="st31" width="257.5" height="13.25"/>
			<rect x="200.3544" y="119.9584" class="st2" width="199.5" height="132"/>
			<rect x="200.3544" y="119.9584" class="st9" width="199.5" height="15.6926"/>
		</g>
		<g>
			<circle class="st9" cx="299.5211" cy="126.9584" r="3"/>
		</g>
	</g>
	<g>
		<line class="st1" x1="342.0882" y1="174.7151" x2="383.25" y2="174.7151"/>
		<circle class="st6" cx="349.3187" cy="174.8151" r="3.062"/>
		<line class="st1" x1="342.0882" y1="182.098" x2="383.25" y2="182.098"/>
		<circle class="st6" cx="370.1662" cy="182.198" r="3.062"/>
		<line class="st1" x1="342.0882" y1="189.3333" x2="383.25" y2="189.3333"/>
		<circle class="st6" cx="358.4089" cy="189.4333" r="3.062"/>
	</g>
	<g>
		<g>
			<line class="st1" x1="158.7122" y1="79.43" x2="160.7122" y2="79.43"/>
			<line class="st32" x1="164.7599" y1="79.43" x2="267.9762" y2="79.43"/>
			<polyline class="st1" points="270,79.43 272,79.43 272,81.43 			"/>
			<line class="st33" x1="272" y1="85.8485" x2="272" y2="101.3132"/>
			<line class="st1" x1="272" y1="103.5224" x2="272" y2="105.5224"/>
			<g>
				<g>
					<circle class="st23" cx="159.1381" cy="79.43" r="7.5195"/>
					<path d="M159.1382,87.9496c4.6972,0,8.5195-3.8223,8.5195-8.5196s-3.8223-8.5195-8.5195-8.5195
						c-4.6974,0-8.5196,3.8223-8.5196,8.5195S154.4408,87.9496,159.1382,87.9496
						C163.8353,87.9496,154.4408,87.9496,159.1382,87.9496z M159.1382,72.9105c3.5956,0,6.5195,2.9238,6.5195,6.5195
						s-2.9238,6.5196-6.5195,6.5196c-3.5958,0-6.5196-2.9239-6.5196-6.5196S155.5423,72.9105,159.1382,72.9105
						C162.7338,72.9105,155.5423,72.9105,159.1382,72.9105z"/>
				</g>
			</g>
		</g>
	</g>
	<g>
		<g>
			<line class="st1" x1="156.5803" y1="337.949" x2="158.5803" y2="337.949"/>
			<line class="st32" x1="162.628" y1="337.949" x2="265.8442" y2="337.949"/>
			<polyline class="st1" points="267.8681,337.949 269.8681,337.949 269.8681,335.949 			"/>
			<line class="st33" x1="269.8681" y1="331.5305" x2="269.8681" y2="316.0658"/>
			<line class="st1" x1="269.8681" y1="313.8566" x2="269.8681" y2="311.8566"/>
			<g>
				<g>
					<circle class="st23" cx="157.0062" cy="337.949" r="7.5195"/>
					<path d="M157.0063,346.4685c4.6972,0,8.5195-3.8223,8.5195-8.5195s-3.8223-8.5195-8.5195-8.5195
						c-4.6974,0-8.5196,3.8223-8.5196,8.5195S152.3089,346.4685,157.0063,346.4685
						C161.7034,346.4685,152.3089,346.4685,157.0063,346.4685z M157.0063,331.4294c3.5956,0,6.5195,2.9238,6.5195,6.5195
						s-2.9238,6.5195-6.5195,6.5195c-3.5958,0-6.5196-2.9238-6.5196-6.5195S153.4104,331.4294,157.0063,331.4294
						C160.6019,331.4294,153.4104,331.4294,157.0063,331.4294z"/>
				</g>
			</g>
		</g>
	</g>
	<g>
		<g>
			<line class="st1" x1="442.1567" y1="79.43" x2="440.1567" y2="79.43"/>
			<line class="st32" x1="436.109" y1="79.43" x2="332.8927" y2="79.43"/>
			<polyline class="st1" points="330.8688,79.43 328.8688,79.43 328.8688,81.43 			"/>
			<line class="st33" x1="328.8688" y1="85.8485" x2="328.8688" y2="101.3132"/>
			<line class="st1" x1="328.8688" y1="103.5224" x2="328.8688" y2="105.5224"/>
			<g>
				<g>
					<circle class="st23" cx="441.7307" cy="79.43" r="7.5195"/>
					<path d="M441.7307,70.9105c-4.6972,0-8.5195,3.8223-8.5195,8.5195s3.8223,8.5196,8.5195,8.5196
						c4.6974,0,8.5196-3.8223,8.5196-8.5196S446.4281,70.9105,441.7307,70.9105C437.0335,70.9105,446.4281,70.9105,441.7307,70.9105
						z M441.7307,85.9496c-3.5956,0-6.5195-2.9239-6.5195-6.5196s2.9238-6.5195,6.5195-6.5195c3.5958,0,6.5196,2.9238,6.5196,6.5195
						S445.3265,85.9496,441.7307,85.9496C438.1351,85.9496,445.3265,85.9496,441.7307,85.9496z"/>
				</g>
			</g>
		</g>
	</g>
	<g>
		<g>
			<line class="st1" x1="438.2886" y1="337.949" x2="436.2886" y2="337.949"/>
			<line class="st32" x1="432.2409" y1="337.949" x2="329.0246" y2="337.949"/>
			<polyline class="st1" points="327.0007,337.949 325.0007,337.949 325.0007,335.949 			"/>
			<line class="st33" x1="325.0007" y1="331.5305" x2="325.0007" y2="316.0658"/>
			<line class="st1" x1="325.0007" y1="313.8566" x2="325.0007" y2="311.8566"/>
			<g>
				<g>
					<circle class="st23" cx="437.8626" cy="337.949" r="7.5195"/>
					<path d="M437.8626,329.4294c-4.6972,0-8.5195,3.8223-8.5195,8.5195s3.8223,8.5195,8.5195,8.5195
						c4.6974,0,8.5196-3.8223,8.5196-8.5195S442.56,329.4294,437.8626,329.4294
						C433.1654,329.4294,442.56,329.4294,437.8626,329.4294z M437.8626,344.4685c-3.5956,0-6.5195-2.9238-6.5195-6.5195
						s2.9238-6.5195,6.5195-6.5195c3.5958,0,6.5196,2.9238,6.5196,6.5195S441.4584,344.4685,437.8626,344.4685
						C434.267,344.4685,441.4584,344.4685,437.8626,344.4685z"/>
				</g>
			</g>
		</g>
	</g>
	<g>
		<rect x="129.5651" y="185.8569" class="st6" width="37.2674" height="24.0435"/>
		<line class="st1" x1="129.5651" y1="185.8569" x2="166.8325" y2="209.9004"/>
		<line class="st1" x1="166.8325" y1="185.8569" x2="129.5651" y2="209.9004"/>
	</g>
	<g>
		<rect x="364.269" y="144.7998" class="st6" width="16.2826" height="10.5049"/>
		<line class="st1" x1="364.269" y1="144.7998" x2="380.5515" y2="155.3047"/>
		<line class="st1" x1="380.5515" y1="144.7998" x2="364.269" y2="155.3047"/>
	</g>
	<path class="st34" d="M67.5435,250.3293c0,0-25.8768,0.3653-24.2101,45.6846c1.6667,45.3194,5,41.9564,5.6667,62.5056"/>
	<line class="st1" x1="235.5906" y1="142.8683" x2="235.5906" y2="245.3301"/>
	<g>
		<g>
			<path class="st6" d="M303.8928,176.3411c-12.0695,0-21.8911,9.8203-21.8911,21.8899s9.8203,21.8901,21.8911,21.8901
				c12.0707,0,21.891-9.8203,21.891-21.8899S315.9623,176.3411,303.8928,176.3411z"/>
			<path class="st35" d="M305.8518,196.2354l-0.9341-12.5548c-0.2097-2.8191-0.4404-3.2962-1.0249-3.2962
				c-0.5845,0-0.8152,0.4771-1.0249,3.2962l-0.9341,12.5548c-0.7515,0.5855-1.2431,1.4895-1.2431,2.5165
				c0,1.1982,0.6659,2.2294,1.6397,2.7784l0.4926,5.4576c0.2328,2.5666,0.5177,3.0006,1.0698,3.0006
				c0.5521,0,0.8382-0.4331,1.0698-3.0006l0.4926-5.4576c0.9739-0.549,1.6397-1.5812,1.6397-2.7784
				C307.0949,197.7259,306.6033,196.8221,305.8518,196.2354z M303.8928,183.9717l0.8704,11.7138
				c-0.2786-0.0792-0.5667-0.1347-0.8704-0.1347c-0.3038,0-0.5918,0.0564-0.8705,0.1347L303.8928,183.9717z M303.9231,206.8951
				c-0.0103,0.1126-0.0209,0.2191-0.0303,0.3214c-0.0104-0.1023-0.0209-0.2088-0.0303-0.3214l-0.451-4.989
				c0.1576,0.024,0.3163,0.048,0.4811,0.048c0.1649,0,0.3226-0.024,0.4811-0.048L303.9231,206.8951z"/>
			<path class="st35" d="M303.8928,169.8481c-15.6507,0-28.383,12.7323-28.383,28.383s12.7323,28.383,28.383,28.383
				c15.6506,0,28.383-12.7323,28.383-28.383S319.5434,169.8481,303.8928,169.8481z M303.8928,224.5267
				c-14.5005,0-26.2956-11.7961-26.2956-26.2956c0-14.4995,11.7951-26.2956,26.2956-26.2956
				c14.5004,0,26.2956,11.7961,26.2956,26.2956S318.3921,224.5267,303.8928,224.5267z"/>
			<path class="st35" d="M293.5234,188.2667l0.5751-0.5751c0.4081-0.4082,0.2986-0.8956-0.2443-1.0907l-1.3672-0.4905
				c-0.5417-0.1952-0.8109,0.0825-0.5991,0.6179l0.5145,1.3047C292.6142,188.5693,293.1153,188.6737,293.5234,188.2667z"/>
			<path class="st35" d="M314.0054,188.2667c0.4082,0.4082,0.909,0.3038,1.1211-0.2328l0.5156-1.3047
				c0.2119-0.5365-0.0574-0.8131-0.5991-0.6179l-1.3684,0.4905c-0.5417,0.1952-0.6523,0.6826-0.2443,1.0907L314.0054,188.2667z"/>
			<path class="st35" d="M293.6518,208.1622c-0.4081-0.4082-0.909-0.3026-1.121,0.2328l-0.5145,1.3047
				c-0.2119,0.5365,0.0574,0.813,0.5991,0.6179l1.3663-0.4905c0.5427-0.1942,0.6523-0.6826,0.2443-1.0907L293.6518,208.1622z"/>
			<path class="st35" d="M315.2537,208.395c-0.2119-0.5365-0.7139-0.6409-1.1211-0.2328l-0.5739,0.5739
				c-0.4081,0.4082-0.2974,0.8956,0.2443,1.0907l1.3663,0.4905c0.5427,0.1942,0.8109-0.0825,0.5991-0.6179L315.2537,208.395z"/>
		</g>
	</g>
	<path class="st0" d="M257.75,187.25L257.75,187.25c-4.8125,0-8.75-3.9375-8.75-8.75v0c0-4.8125,3.9375-8.75,8.75-8.75l0,0
		c4.8125,0,8.75,3.9375,8.75,8.75v0C266.5,183.3125,262.5625,187.25,257.75,187.25z"/>
	<path d="M257.75,180.5L257.75,180.5c-1.1,0-2-0.9-2-2l0,0c0-1.1,0.9-2,2-2l0,0c1.1,0,2,0.9,2,2l0,0
		C259.75,179.6,258.85,180.5,257.75,180.5z"/>
	<path class="st0" d="M257.75,226.871L257.75,226.871c-4.8125,0-8.75-3.9375-8.75-8.75v0c0-4.8125,3.9375-8.75,8.75-8.75l0,0
		c4.8125,0,8.75,3.9375,8.75,8.75v0C266.5,222.9335,262.5625,226.871,257.75,226.871z"/>
	<path d="M257.75,220.121L257.75,220.121c-1.1,0-2-0.9-2-2v0c0-1.1,0.9-2,2-2l0,0c1.1,0,2,0.9,2,2v0
		C259.75,219.221,258.85,220.121,257.75,220.121z"/>
	<rect x="266.8181" y="280.4583" class="st1" width="63.1819" height="5.9583"/>
	<line class="st31" x1="208.5" y1="146.8569" x2="227.2066" y2="146.8569"/>
	<line class="st31" x1="208.5" y1="152.6909" x2="220.9761" y2="152.6909"/>
	<line class="st31" x1="208.5" y1="159.4229" x2="223.0529" y2="159.4229"/>
	<line class="st31" x1="208.5" y1="179.8569" x2="227.2066" y2="179.8569"/>
	<line class="st31" x1="208.5" y1="185.6909" x2="220.9761" y2="185.6909"/>
	<line class="st31" x1="208.5" y1="192.4229" x2="223.0529" y2="192.4229"/>
	<line class="st31" x1="208.5" y1="211.8569" x2="227.2066" y2="211.8569"/>
	<line class="st31" x1="208.5" y1="217.6909" x2="220.9761" y2="217.6909"/>
	<line class="st31" x1="208.5" y1="224.4229" x2="223.0529" y2="224.4229"/>
	<rect x="341.1125" y="211.8569" class="st0" width="42.1375" height="13.6431"/>
	<rect x="344.0249" y="214.4116" class="st36" width="51.2884" height="10.75"/>
	<text transform="matrix(1 0 0 1 344.0249 221.1616)" class="st37 st38">1245 km</text>
	<polyline class="st39" points="260.75,174.125 257.75,178.5 253.375,177.8771 	"/>
	<polyline class="st39" points="257.75,223.125 257.75,218.121 261.5,216.121 	"/>
	<circle class="st6" cx="258.3187" cy="197.8151" r="3.062"/>
	<rect x="248.7342" y="146.5" class="st0" width="93.3539" height="7.3569"/>
	<path class="st2" d="M526.4586,120.6231l-60.4275-15.7533l13.5215-51.8664c1.2326-4.7282,6.0648-7.5618,10.7929-6.3292
		l43.3053,11.2896c4.7281,1.2326,7.5618,6.0648,6.3292,10.7929L526.4586,120.6231z"/>
	
		<rect x="466.7212" y="112.6331" transform="matrix(0.9677 0.2523 -0.2523 0.9677 45.3185 -121.2069)" class="st2" width="57.2796" height="7.0076"/>
	
		<rect x="479.3784" y="106.541" transform="matrix(0.2523 -0.9677 0.9677 0.2523 240.5113 573.64)" class="st0" width="24.1143" height="49.3072"/>
	
		<rect x="480.8445" y="129.5466" transform="matrix(0.2523 -0.9677 0.9677 0.2523 220.1651 582.311)" class="st2" width="12.0571" height="38.2976"/>
	
		<rect x="486.2788" y="115.471" transform="matrix(0.2523 -0.9677 0.9677 0.2523 230.1294 578.0645)" class="st2" width="5.6573" height="49.3072"/>
	<line class="st29" x1="485.6927" y1="55.495" x2="478.1806" y2="84.31"/>
	<line class="st29" x1="476.864" y1="89.3605" x2="475.4426" y2="94.8127"/>
	<line class="st29" x1="523.1086" y1="107.2391" x2="527.4614" y2="90.5426"/>
	<line class="st29" x1="529.2165" y1="83.8101" x2="530.2345" y2="79.9052"/>
	<line class="st29" x1="531.9373" y1="73.3736" x2="533.3586" y2="67.9214"/>
	
		<rect x="530.9538" y="98.8137" transform="matrix(0.9677 0.2523 -0.2523 0.9677 43.3964 -131.1538)" class="st2" width="4.4775" height="9.7069"/>
	<path class="st30" d="M534.7134,106.7079c0.3367-0.001,18.1814,3.4601,9.1895,30.003c-5.9874,17.674-2.8496,26.6512-2.8496,26.6512
		"/>
	<path class="st30" d="M536.0375,101.629c0.3367-0.001,22.2043,6.4665,13.2125,33.0095
		c-5.9874,17.674-2.5068,26.7557-2.5068,26.7557"/>
	<polygon class="st9" points="554.5187,181.8385 547.3961,184.2321 539.0978,164.7809 549.3862,161.3235 	"/>
	<line class="st30" x1="542.2875" y1="172.2575" x2="551.3884" y2="169.3265"/>
	<g>
		<path class="st2" d="M120.2136,145.2888H57.9925c-2.6585,0-4.8136-2.1551-4.8136-4.8136V78.254
			c0-2.6585,2.1551-4.8136,4.8136-4.8136h62.2212c2.6585,0,4.8136,2.1551,4.8136,4.8136v62.2212
			C125.0273,143.1337,122.8721,145.2888,120.2136,145.2888z"/>
		<circle class="st6" cx="62.9167" cy="83.4167" r="4.1667"/>
		<circle class="st6" cx="113.9167" cy="83.4167" r="4.1667"/>
		<circle class="st6" cx="62.9167" cy="134.4167" r="4.1667"/>
		<circle class="st6" cx="113.9167" cy="134.4167" r="4.1667"/>
		<rect x="77.75" y="69" class="st2" width="20.5" height="4.4403"/>
		<line class="st2" x1="83.75" y1="69" x2="83.75" y2="73.4403"/>
		<line class="st2" x1="93" y1="69" x2="93" y2="73.4403"/>
		<rect x="74.7374" y="140.8276" class="st2" width="28.7314" height="8.9224"/>
		<rect x="77.9698" y="149.75" class="st9" width="22.2666" height="8.9224"/>
		<path class="st2" d="M88.6146,26h0.5208C90.1652,26,91,26.8348,91,27.8646V69h-4.25V27.8646C86.75,26.8348,87.5848,26,88.6146,26z
			"/>
		<line class="st9" x1="59.5373" y1="85.8475" x2="66.3967" y2="81.1282"/>
		<line class="st9" x1="116.3735" y1="86.7766" x2="111.326" y2="80.1568"/>
		<line class="st9" x1="65.1574" y1="137.9258" x2="60.8978" y2="130.7728"/>
		<line class="st9" x1="113.9167" y1="130.25" x2="113.9167" y2="138.5833"/>
		<line class="st9" x1="86.75" y1="31.6667" x2="91" y2="28.6667"/>
		<line class="st9" x1="86.75" y1="35.6667" x2="91" y2="32.6667"/>
		<line class="st9" x1="86.75" y1="39.6667" x2="91" y2="36.6667"/>
		<line class="st9" x1="86.75" y1="43.6667" x2="91" y2="40.6667"/>
		<path class="st1" d="M98.2617,126.6831H79.9444c-4.5066,0-8.1599-3.6533-8.1599-8.1599v-18.3172
			c0-4.5066,3.6533-8.1599,8.1599-8.1599h18.3172c4.5066,0,8.1599,3.6533,8.1599,8.1599v18.3172
			C106.4216,123.0298,102.7683,126.6831,98.2617,126.6831z"/>
	</g>
</g>
</svg>
