<?xml version="1.0" encoding="utf-8"?>
<!-- Generator: Adobe Illustrator 20.1.0, SVG Export Plug-In . SVG Version: 6.00 Build 0)  -->
<svg version="1.1" id="Слой_1" xmlns="http://www.w3.org/2000/svg" xmlns:xlink="http://www.w3.org/1999/xlink" x="0px" y="0px"
	 viewBox="0 0 600 400" style="enable-background:new 0 0 600 400;" xml:space="preserve">
<style type="text/css">
	.st0{fill:#D8EFFD;stroke:#000000;stroke-width:2;stroke-miterlimit:10;}
	.st1{fill:none;stroke:#000000;stroke-width:2;stroke-miterlimit:10;}
	.st2{fill:#FFFFFF;stroke:#000000;stroke-width:2;stroke-miterlimit:10;}
	.st3{fill:none;stroke:#000000;stroke-width:2;stroke-miterlimit:10;stroke-dasharray:5.7825,5.7825;}
	.st4{fill:none;stroke:#000000;stroke-width:2;stroke-miterlimit:10;stroke-dasharray:6.4261,6.4261;}
	.st5{fill:none;stroke:#000000;stroke-width:2;stroke-miterlimit:10;stroke-dasharray:6;}
	.st6{fill:#FF9FBA;stroke:#000000;stroke-width:2;stroke-miterlimit:10;}
	.st7{fill:none;stroke:#000000;stroke-width:2;stroke-miterlimit:10;stroke-dasharray:6,6;}
	.st8{fill:#D8EFFD;stroke:#000000;stroke-width:2;stroke-linejoin:bevel;stroke-miterlimit:10;}
	.st9{fill:#B2DDF8;stroke:#000000;stroke-width:2;stroke-miterlimit:10;}
	.st10{stroke:#000000;stroke-width:2;stroke-miterlimit:10;}
	.st11{fill:none;stroke:#000000;stroke-width:8;stroke-miterlimit:10;}
	.st12{fill:none;stroke:#000000;stroke-width:2;stroke-miterlimit:10;stroke-dasharray:1.9767,1.9767;}
	.st13{fill:none;stroke:#000000;stroke-width:2;stroke-linejoin:bevel;stroke-miterlimit:10;}
	.st14{fill:none;stroke:#000000;stroke-width:2;stroke-miterlimit:10;stroke-dasharray:8.0408,8.0408;}
	.st15{fill:none;stroke:#13120D;stroke-width:2;stroke-miterlimit:10;}
	.st16{fill:#FF9FBA;}
	.st17{fill:#B2DDF8;}
	.st18{fill:#643D00;}
	.st19{fill:#E5E5E5;stroke:#000000;stroke-width:2;stroke-miterlimit:10;}
	.st20{fill:#EAEAEA;stroke:#000000;stroke-width:2;stroke-miterlimit:10;}
	.st21{fill:#231F20;}
	.st22{fill:#BCBEC0;}
	.st23{fill:#FFFFFF;}
	.st24{fill:#E6E7E8;}
	.st25{fill:#D8EFFD;}
	.st26{fill:#F1F2F2;}
	.st27{fill:#FFA432;}
	.st28{fill:#18AFFE;}
	.st29{fill:#FFFFFF;stroke:#000000;stroke-width:2;stroke-linecap:round;stroke-miterlimit:10;}
	.st30{fill:none;stroke:#000000;stroke-width:2;stroke-linecap:round;stroke-miterlimit:10;}
	.st31{fill:#FFFFFF;stroke:#000000;stroke-width:2;stroke-linejoin:round;stroke-miterlimit:10;}
	.st32{fill:none;stroke:#000000;stroke-width:2;stroke-miterlimit:10;stroke-dasharray:4.0477,4.0477;}
	.st33{fill:none;stroke:#000000;stroke-width:2;stroke-miterlimit:10;stroke-dasharray:4.4185,4.4185;}
	.st34{fill:none;stroke:#000000;stroke-width:4;stroke-miterlimit:10;}
	.st35{fill:#010002;}
	.st36{fill:none;stroke:#000000;stroke-width:2;stroke-linecap:round;stroke-linejoin:bevel;stroke-miterlimit:10;}
	.st37{fill-rule:evenodd;clip-rule:evenodd;fill:#FFFFFF;}
	.st38{fill-rule:evenodd;clip-rule:evenodd;fill:#D1D1D1;}
	.st39{fill-rule:evenodd;clip-rule:evenodd;fill:#B2DDF8;stroke:#000000;stroke-width:2;stroke-miterlimit:10;}
	.st40{fill-rule:evenodd;clip-rule:evenodd;fill:#B2DDF8;}
	.st41{fill-rule:evenodd;clip-rule:evenodd;fill:#FF9FBA;stroke:#000000;stroke-width:2;stroke-miterlimit:10;}
	.st42{fill-rule:evenodd;clip-rule:evenodd;fill:#D4CBBA;}
	.st43{fill:#FF791F;stroke:#000000;stroke-width:2;stroke-miterlimit:10;}
</style>
<g>
	<g>
		<g>
			<path d="M136.055,176.3258c-0.5049-43.7616,16.744-87.5714,51.3029-119.5846c34.5589-32.0133,79.5589-45.8668,123.1536-42.0206
				l1.1658-1.0795c-3.035-0.2861-6.0869-0.4979-9.1575-0.615c-43.1038-1.6485-84.2706,13.5881-115.9148,42.9014
				c-31.6455,29.3141-49.981,69.1967-51.6293,112.3014c-0.1176,3.0702-0.139,6.1287-0.0867,9.1769L136.055,176.3258z"/>
			<path d="M434.7947,93.4194l0.8632-0.7996c-5.8546-9.9302-12.8135-19.3059-20.8363-27.9653
				c-11.4096-12.3175-24.4268-22.6082-38.6055-30.6933l-0.902,0.8353c14.0607,7.9413,27.1475,18.1461,38.6949,30.6114
				C422.0984,74.1403,429.0163,83.5442,434.7947,93.4194z"/>
			<path d="M455.4186,154.4189c6.1529,49.519-10.7574,101.2142-50.0773,137.6398c-64.877,60.0984-166.5522,56.2112-226.6502-8.6676
				c-11.5475-12.4648-20.7228-26.2932-27.567-40.9187l-0.9022,0.8353c6.9794,14.7546,16.2452,28.5192,27.6553,40.836
				c29.3142,31.648,69.1969,49.9821,112.3005,51.6293c43.1053,1.6494,84.2717-13.5858,115.9168-42.9016
				c31.6451-29.3121,49.9807-69.1954,51.6293-112.3c0.351-9.1652-0.0696-18.241-1.2193-27.1589L455.4186,154.4189z"/>
		</g>
		<g>
			<path d="M179.7778,110.5003c4.9008-8.9402,10.9055-17.4533,18.0426-25.3341c48.1958-53.2183,129.9963-58.301,184.3866-12.2433
				l0.7137-0.7881c-26.0315-22.071-58.945-33.2604-93.1964-31.5643c-35.7472,1.7703-68.6658,17.3549-92.6911,43.884
				c-7.2703,8.0276-13.4552,16.7706-18.5079,26.0458H179.7778z"/>
			<path d="M163.7017,166.7371h-1.1326c-0.2622,4.7276-0.285,9.4949-0.0477,14.2893c1.6958,34.25,16.0811,65.8996,40.6163,89.6229
				l0.7135-0.7884C175.1402,242.0648,161.5818,204.1057,163.7017,166.7371z"/>
			<path d="M414.1965,110.5003c-1.3475-2.4809-2.7764-4.9206-4.2829-7.3161l-0.7804,0.8606
				c1.3241,2.1215,2.5749,4.2763,3.7685,6.4555H414.1965z"/>
			<path d="M430.1213,166.7371h-1.1336c1.9887,34.3482-9.2392,69.4394-34.1049,96.8976
				c-40.7414,44.9862-105.4911,55.5656-157.401,29.9459l-0.7793,0.861c20.3106,10.1332,42.9829,14.9422,66.2757,13.7881
				c35.747-1.7696,68.6649-17.3551,92.6924-43.8827c24.0238-26.5269,36.2805-60.8253,34.5116-96.5731
				C430.1645,167.4281,430.1411,167.0829,430.1213,166.7371z"/>
		</g>
		<g>
			<path d="M350.5963,307.5695c1.9542-0.817,3.9158-1.6868,5.8308-2.5895l-0.4535-0.9592c-1.899,0.8954-3.8466,1.7608-5.7862,2.5705
				L350.5963,307.5695z"/>
			<path d="M180.0282,259.9505l-0.8503,0.6331c1.2647,1.6985,2.584,3.3889,3.9189,5.0222l0.8225-0.6704
				C182.5936,263.313,181.2849,261.635,180.0282,259.9505z"/>
			<path d="M172.9304,249.492l-0.9038,0.5569c1.107,1.7974,2.2702,3.5971,3.458,5.3447l0.878-0.5957
				C175.184,253.0612,174.0294,251.2769,172.9304,249.492z"/>
			<path d="M157.5448,214.8851l-1.0184,0.2982c0.5963,2.0356,1.2449,4.0814,1.9284,6.0818l1.0033-0.3422
				C158.78,218.9365,158.1361,216.9046,157.5448,214.8851z"/>
			<path d="M196.8632,278.8055l-0.7263,0.7738c1.5408,1.4457,3.1376,2.8789,4.7447,4.2609l0.6913-0.8031
				C199.9772,281.6647,198.3927,280.2409,196.8632,278.8055z"/>
			<path d="M166.7847,238.4392l-0.9509,0.4734c0.9467,1.8934,1.9484,3.7927,2.9772,5.6436l0.9269-0.5159
				C168.7164,242.2026,167.7226,240.318,166.7847,238.4392z"/>
			<path d="M161.6401,226.8685l-0.9877,0.3883c0.7738,1.9718,1.6016,3.9517,2.4611,5.8833l0.9685-0.4287
				C163.2305,230.7916,162.408,228.8271,161.6401,226.8685z"/>
			<path d="M338.6159,311.9557c2.0202-0.6382,4.0506-1.3307,6.0378-2.059l-0.3649-0.9958
				c-1.9718,0.7225-3.9887,1.4113-5.9931,2.0443L338.6159,311.9557z"/>
			<path d="M313.5948,316.4247l0.1378,1.0522c2.1008-0.2755,4.2221-0.6024,6.306-0.9687l-0.1828-1.0449
				C317.7854,315.8275,315.6791,316.1521,313.5948,316.4247z"/>
			<path d="M326.0677,314.2279l0.2286,1.0361c2.0678-0.4587,4.1532-0.9687,6.1961-1.5175l-0.2733-1.0237
				C330.1901,313.2651,328.1208,313.7729,326.0677,314.2279z"/>
			<path d="M206.4657,287.0562l-0.6551,0.8353c1.6659,1.308,3.3831,2.5969,5.103,3.8293l0.6175-0.8632
				C209.8242,289.6347,208.1204,288.3546,206.4657,287.0562z"/>
			<path d="M216.7604,294.435l-0.5798,0.8888c1.7745,1.1577,3.599,2.2906,5.4227,3.3684l0.5391-0.9138
				C220.3333,296.7079,218.5225,295.5854,216.7604,294.435z"/>
			<path d="M243.075,307.9512c-1.3316-0.5188-2.6601-1.0515-3.968-1.6055l-0.414,0.9767c1.4942,0.6353,3.0167,1.2405,4.5383,1.8267
				L243.075,307.9512z"/>
			<path d="M227.6679,300.8839l-0.4995,0.9357c1.8707,0.9966,3.7885,1.966,5.7008,2.8782l0.4566-0.957
				C231.4285,302.8337,229.5241,301.8716,227.6679,300.8839z"/>
			<path d="M188.0274,269.7466l-0.7914,0.7071c1.4085,1.5761,2.8727,3.1449,4.3499,4.6595l0.7593-0.7408
				C190.8783,272.8695,189.4258,271.3124,188.0274,269.7466z"/>
			<path d="M184.2712,83.609l-0.8194-0.674c-1.3466,1.6399-2.6718,3.3287-3.9392,5.0191l0.8503,0.6364
				C181.6197,86.9128,182.9357,85.2368,184.2712,83.609z"/>
			<path d="M201.2815,64.7413c-1.6055,1.3726-3.2043,2.8019-4.752,4.2481l0.7247,0.7754c1.5369-1.4358,3.1232-2.8548,4.7161-4.2168
				L201.2815,64.7413z"/>
			<path d="M191.9677,73.444c-1.4787,1.5093-2.9467,3.0733-4.3617,4.6515l0.7894,0.7089c1.4054-1.5664,2.8616-3.12,4.3296-4.618
				L191.9677,73.444z"/>
			<path d="M210.4135,57.5601c-1.4157,1.0253-2.8253,2.0761-4.1986,3.1484l0.6531,0.8359c1.2123-0.9465,2.4541-1.8744,3.7022-2.7857
				L210.4135,57.5601z"/>
			<path d="M269.8325,33.5084l-0.185-1.0451c-1.8804,0.3328-3.7751,0.7135-5.6486,1.1222l0.1381,1.0552
				C266.0247,34.2271,267.9362,33.8438,269.8325,33.5084z"/>
			<path d="M301.037,317.5253l0.1371,1.0551c2.067-0.093,4.1583-0.2286,6.2181-0.4081l-0.0923-1.0581
				C305.2258,317.2959,303.1173,317.4344,301.037,317.5253z"/>
			<path d="M175.798,93.143c-1.1947,1.7485-2.367,3.5472-3.4848,5.3476l0.9022,0.56c1.1087-1.787,2.2722-3.5738,3.4586-5.3095
				L175.798,93.143z"/>
			<path d="M169.0683,103.988c-1.0348,1.8454-2.0451,3.7416-3.0002,5.6361l0.9465,0.4783c0.9493-1.8812,1.9509-3.763,2.9788-5.5953
				L169.0683,103.988z"/>
			<path d="M154.9458,139.5097c-0.5151,2.0573-0.9899,4.1568-1.4129,6.2382l1.0407,0.2107
				c0.4191-2.0663,0.8908-4.1488,1.4016-6.1917L154.9458,139.5097z"/>
			<path d="M163.3177,115.3884c-0.8701,1.9339-1.7086,3.9129-2.4915,5.8827l0.985,0.392c0.7787-1.955,1.6107-3.92,2.4745-5.8389
				L163.3177,115.3884z"/>
			<path d="M158.5961,127.2596c-0.6952,2.0035-1.3561,4.0504-1.9615,6.0834l1.0171,0.303c0.6012-2.0184,1.2563-4.0497,1.9473-6.0386
				L158.5961,127.2596z"/>
			<path d="M433.1614,215.7512c0.6089-2.0356,1.1797-4.1093,1.6963-6.1639l-1.0295-0.2587c-0.5122,2.0393-1.08,4.0983-1.6838,6.1199
				L433.1614,215.7512z"/>
			<path d="M425.8201,116.3765l0.9702-0.429c-0.8573-1.9343-1.7703-3.8764-2.7156-5.7748l-0.9504,0.473
				C424.0622,112.5298,424.9686,114.4582,425.8201,116.3765z"/>
			<path d="M406.0198,84.1296l0.8229-0.6703c-1.3373-1.6406-2.728-3.2732-4.1335-4.851l-0.7921,0.7062
				C403.3123,80.8805,404.6928,82.5007,406.0198,84.1296z"/>
			<path d="M362.1371,302.1339c1.8663-0.9826,3.7385-2.0246,5.5608-3.09l-0.5341-0.9167c-1.8099,1.0603-3.6674,2.092-5.5212,3.0673
				L362.1371,302.1339z"/>
			<path d="M413.5656,94.2743l0.8778-0.595c-1.1849-1.75-2.4247-3.4968-3.6857-5.1935l-0.8522,0.6337
				C411.1571,90.8035,412.3881,92.5374,413.5656,94.2743z"/>
			<path d="M295.3476,31.2807l0.002-1.0606c-2.1151-0.0044-4.2606,0.0398-6.3795,0.1295l0.046,1.0601
				C291.1179,31.3202,293.2485,31.277,295.3476,31.2807z"/>
			<path d="M276.0916,32.5401l0.3085-0.0412c2.09-0.2724,4.2093-0.5021,6.2971-0.682l-0.092-1.0573
				c-2.1028,0.1815-4.2355,0.4131-6.3441,0.6882l-0.3065,0.0399L276.0916,32.5401z"/>
			<path d="M307.9966,31.8636l0.096-1.0565c-2.1089-0.1909-4.2507-0.3372-6.365-0.4345l-0.0487,1.0594
				C303.779,31.5291,305.9043,31.674,307.9966,31.8636z"/>
			<path d="M344.9886,40.3059l0.373-0.9936c-1.9934-0.7452-4.0228-1.4541-6.0352-2.1063l-0.3279,1.0095
				C340.9959,38.8626,343.0102,39.5664,344.9886,40.3059z"/>
			<path d="M332.9196,36.3934l0.2821-1.0238c-2.04-0.5626-4.1268-1.0874-6.2016-1.5613l-0.2348,1.0347
				C328.8228,35.3122,330.8942,35.8343,332.9196,36.3934z"/>
			<path d="M320.5435,33.5687l0.1913-1.0436c-2.0876-0.3788-4.2082-0.7157-6.3028-0.9996l-0.1422,1.0508
				C316.3698,32.859,318.4734,33.1931,320.5435,33.5687z"/>
			<path d="M420.1786,105.0406l0.9262-0.515c-1.0258-1.8498-2.1052-3.6994-3.2087-5.496l-0.9049,0.5556
				C418.0859,101.3688,419.1587,103.2045,420.1786,105.0406z"/>
			<path d="M402.1311,270.9659c1.4156-1.5754,2.8152-3.2014,4.1591-4.8354l-0.8192-0.6748
				c-1.3343,1.6223-2.7236,3.2373-4.1305,4.801L402.1311,270.9659z"/>
			<path d="M410.2346,261.1148c1.2691-1.6912,2.5221-3.4344,3.7187-5.1842l-0.8734-0.6001
				c-1.1907,1.7373-2.4327,3.4688-3.6938,5.1468L410.2346,261.1148z"/>
			<path d="M417.4433,250.5874c1.1196-1.7996,2.2129-3.6483,3.2527-5.4934l-0.9254-0.521
				c-1.0317,1.8319-2.1162,3.6674-3.2263,5.4524L417.4433,250.5874z"/>
			<path d="M373.1217,295.71c1.7718-1.146,3.5472-2.3477,5.2714-3.5729l-0.6133-0.8668c-1.7146,1.2185-3.474,2.4122-5.234,3.5465
				L373.1217,295.71z"/>
			<path d="M423.7017,239.4607c0.9584-1.8927,1.8846-3.8301,2.7573-5.7608l-0.968-0.4375
				c-0.8647,1.9176-1.7857,3.8418-2.7353,5.7198L423.7017,239.4607z"/>
			<path d="M383.5017,288.3319c1.6656-1.2969,3.3267-2.6525,4.9395-4.0286l-0.6888-0.8075
				c-1.6003,1.3666-3.2504,2.7112-4.9028,4.0001L383.5017,288.3319z"/>
			<path d="M393.1982,280.0622c1.5475-1.4457,3.0841-2.942,4.5658-4.45l-0.7584-0.7438c-1.4699,1.4977-2.9947,2.9845-4.532,4.4163
				L393.1982,280.0622z"/>
			<path d="M436.4376,152.7471l1.0493-0.1603c-0.3217-2.1028-0.6924-4.2173-1.1006-6.2838l-1.0427,0.2065
				C435.7502,148.5609,436.1188,150.6593,436.4376,152.7471z"/>
			<path d="M428.9555,227.8203c0.7863-1.9682,1.5388-3.9832,2.2371-5.9873l-1.0024-0.3488
				c-0.6924,1.9894-1.4398,3.9884-2.2202,5.9411L428.9555,227.8203z"/>
			<path d="M430.4305,128.1693l1.0053-0.3424c-0.6829-2.0044-1.4208-4.0208-2.1909-5.9911l-0.9877,0.3856
				C429.0229,124.1782,429.7534,126.179,430.4305,128.1693z"/>
			<path d="M433.977,140.3252l1.0309-0.2513c-0.5012-2.0539-1.0566-4.1276-1.6487-6.1622l-1.0207,0.297
				C432.9284,136.229,433.4795,138.2864,433.977,140.3252z"/>
			<path d="M438.8673,165.2694c-0.1341-2.1023-0.321-4.2406-0.5525-6.356l-1.0537,0.1154c0.2279,2.0986,0.4118,4.2219,0.5481,6.3095
				L438.8673,165.2694z"/>
			<path d="M436.2756,203.3509c0.4236-2.0744,0.8075-4.1869,1.1372-6.2789l-1.0478-0.1656
				c-0.3276,2.0759-0.7071,4.1737-1.1277,6.2327L436.2756,203.3509z"/>
			<path d="M438.2687,190.7499c0.2374-2.1022,0.4308-4.2404,0.5738-6.3544l-1.0588-0.0711
				c-0.1422,2.0971-0.3327,4.2177-0.5686,6.3067L438.2687,190.7499z"/>
			<path d="M439.1341,178.0214c0.0491-2.1176,0.0513-4.2646,0.0073-6.3793l-1.0603,0.0227
				c0.0432,2.0986,0.0403,4.2287-0.0081,6.3331L439.1341,178.0214z"/>
		</g>
	</g>
	<g>
		<path class="st2" d="M235.3174,225.0674c2.5082,0,4.5397,2.0334,4.5397,4.5394v6.073h1.3611v-17.1162v-2.1682v-2.5243
			c0-2.1191,1.8868-3.8345,4.2173-3.8345c2.3316,0,4.2206,1.7154,4.2206,3.8345v4.3877v0.3048v1.061h1.0278v-5.467
			c0-1.3072,1.8899-2.369,4.2193-2.369c2.3312,0,4.2217,1.0617,4.2217,2.369v5.467h1.0257v-2.506
			c0-1.3094,1.8889-2.3675,4.221-2.3675c2.3318,0,4.2212,1.0581,4.2212,2.3675v2.506h1.0279v-0.6668
			c0-1.3079,1.8877-2.3668,4.2193-2.3668c2.3307,0,4.2179,1.0588,4.2179,2.3668v5.6231l-0.1268,2.3602
			c-0.0803,8.0221-0.1352,17.2151-1.1552,19.2222c-0.8273,1.6171-2.8792,4.2477-3.5958,5.193c0,0-0.0278,7.4879-0.0295,15.9966
			h-30.5966c0.0368-3.7978,0.0716-7.3575,0.0925-10.1009l-9.7171-8.0404c-1.3845-0.9101-2.131-2.4723-2.1438-4.121h-0.0064v-15.4837
			C230.7793,227.1007,232.8125,225.0674,235.3174,225.0674z"/>
		<g>
			<polygon class="st6" points="233.9028,330.5249 233.9028,261.2548 278.9938,261.2548 278.9938,298.9956 278.5483,330.5249 			"/>
			
				<ellipse transform="matrix(0.0575 -0.9983 0.9983 0.0575 -11.2288 521.3257)" class="st2" cx="270.4809" cy="266.6096" rx="2.0566" ry="2.0579"/>
			<rect x="231.1371" y="271.489" class="st2" width="49.7626" height="115.1364"/>
		</g>
	</g>
	<path class="st2" d="M381.7842,98.5016c6.849,0,12.4156,5.5595,12.4156,12.4232V214.257c0,6.8629-5.5667,12.4178-12.4156,12.4178
		H211.2494c-6.8598,0-12.4193-5.5549-12.4193-12.4178v-103.332c0-6.8637,5.5595-12.4228,12.4193-12.4228L381.7842,98.5016z"/>
	<rect x="212.5495" y="110.4835" class="st2" width="168.0345" height="104.5917"/>
	<rect x="215.3881" y="111.951" class="st23" width="162.2473" height="101.2787"/>
	<path class="st23" d="M203.3614,162.5508c0-1.6663,1.3545-3.016,3.0198-3.016c1.6568,0,3.0131,1.3497,3.0131,3.016
		c0,1.6648-1.3563,3.0167-3.0131,3.0167C204.7159,165.5675,203.3614,164.2156,203.3614,162.5508z"/>
	<rect x="214.7389" y="111.8422" class="st37" width="163.6526" height="101.6923"/>
	<g>
		<rect x="212.5495" y="110.4835" class="st38" width="168.0345" height="104.4154"/>
		<g>
			<polygon class="st37" points="380.584,117.2097 260.4695,214.8989 270.5528,214.8989 380.584,125.4104 			"/>
			<rect x="348.7007" y="110.4835" class="st37" width="6.3181" height="104.4154"/>
			<rect x="212.5495" y="141.4762" class="st37" width="168.0345" height="6.3907"/>
			<ellipse class="st37" cx="351.8598" cy="144.6721" rx="18.6246" ry="18.8407"/>
			<ellipse class="st39" cx="351.8596" cy="144.6718" rx="12.5505" ry="12.6963"/>
			<polygon class="st37" points="313.0174,180.3616 316.5683,175.0726 243.6194,142.5779 240.0685,147.8669 			"/>
			<polygon class="st37" points="212.5495,192.2885 248.516,176.511 246.1318,170.5897 212.5495,185.3208 			"/>
			<polygon class="st37" points="229.2862,214.8989 212.5495,204.1766 212.5495,211.7408 217.479,214.8989 			"/>
			<polygon class="st37" points="217.0352,207.9949 219.4205,213.917 256.4601,195.5075 254.076,189.5862 			"/>
			<polygon class="st37" points="212.5495,163.0417 229.6712,159.3655 229.0048,153.0084 212.5495,156.541 			"/>
			<polygon class="st37" points="220.4236,185.9371 223.9747,180.6489 212.5495,171.3569 212.5495,179.5343 			"/>
			<polygon class="st37" points="329.4921,110.4835 351.8317,114.9869 351.9593,110.4835 			"/>
			<polygon class="st37" points="242.5428,110.4835 214.5004,142.3768 217.9749,146.6958 250.1956,110.4835 			"/>
			<polygon class="st37" points="212.5495,110.4835 212.5495,115.2619 239.1572,120.8324 243.6729,115.1718 221.2782,110.4835 			
				"/>
			<polygon class="st37" points="279.5152,110.4835 276.8247,143.4902 282.3084,146.6679 285.2582,110.4835 			"/>
			<polygon class="st37" points="285.3828,119.7917 284.8417,112.6698 240.6899,112.9545 234.0067,120.0766 			"/>
			<polygon class="st37" points="353.1968,121.7106 353.9779,114.4802 281.3304,112.5714 280.5495,119.8025 			"/>
			<polygon class="st37" points="319.2157,145.2528 326.1637,143.9811 325.924,117.2047 318.9607,119.2447 			"/>
			<polygon class="st37" points="353.2958,210.0423 353.0254,203.6534 289.2413,194.4457 287.5349,200.4652 			"/>
			<polygon class="st37" points="298.5919,214.8989 313.763,201.0697 305.7801,198.7001 288.0097,214.8989 			"/>
			<path class="st23" d="M236.8089,167.0623c9.3689,10.4145,18.2078,25.5941,22.3424,47.8366h6.8836
				c-4.2985-24.4019-13.9594-41.0433-24.2182-52.4463c-10.9841-12.2092-22.6144-18.3666-29.1056-21.6503l-0.1616,0.3274v7.2624
				C218.8242,151.7259,228.0594,157.3378,236.8089,167.0623z"/>
			<polygon class="st37" points="255.3151,188.2665 257.7002,194.1885 293.2956,169.2041 290.0537,164.5424 			"/>
			<polygon class="st37" points="380.584,181.4747 374.0252,192.6938 380.551,195.731 380.584,195.6746 			"/>
			<polygon class="st37" points="380.3942,214.8989 378.6502,190.9051 371.687,191.5814 373.4045,214.8989 			"/>
			<polygon class="st37" points="377.1313,197.1459 376.8609,188.2592 350.6337,201.0375 350.9048,209.9257 			"/>
			<polygon class="st37" points="353.0092,180.78 354.6638,173.7398 310.1436,173.7259 309.2379,180.7896 			"/>
			<polygon class="st40" points="288.0086,214.8989 302.1677,201.9916 288.4248,200.3634 270.5533,214.8989 			"/>
			<polygon class="st41" points="241.9128,119.7917 222.6189,141.4762 276.9883,141.4762 278.7868,119.4235 			"/>
			<path class="st41" d="M212.5495,171.3569l11.4252,9.292l17.4403-7.9913c-3.6328-4.4881-7.4896-8.9307-11.7438-13.292
				l-17.1217,3.6762V171.3569z"/>
			<polygon class="st42" points="217.479,214.8989 212.5495,211.7408 212.5495,214.8989 			"/>
			<polygon class="st37" points="212.5495,110.4835 212.5495,117.958 217.1101,111.0574 214.3726,110.4835 			"/>
			<ellipse class="st37" cx="255.4034" cy="191.5497" rx="10.2064" ry="10.3248"/>
			<ellipse class="st40" cx="255.4033" cy="191.5496" rx="6.3786" ry="6.4533"/>
		</g>
	</g>
	<g>
		<path class="st43" d="M328.263,130.5688c-8.1093,0.0531-14.6454,6.98-14.593,15.4692c0.022,3.4963,1.1566,6.7061,3.0493,9.2753
			l0,0h-0.0029l11.8075,16.569l11.5949-16.7145c1.8579-2.596,2.9515-5.8186,2.9303-9.3106
			C342.9945,137.3626,336.3748,130.5206,328.263,130.5688z"/>
		
			<ellipse transform="matrix(1 -0.0062 0.0062 1 -0.8926 2.0404)" class="st2" cx="328.3535" cy="144.8635" rx="8.2075" ry="8.2069"/>
	</g>
	<rect x="212.5495" y="110.4835" class="st1" width="168.0345" height="105.242"/>
	<g>
		<g>
			
				<rect x="379.7142" y="12.5002" transform="matrix(0.3659 -0.9306 0.9306 0.3659 213.2622 398.0093)" class="st17" width="38.0003" height="59.9997"/>
			<path d="M378.3126,15.1362l53.977,21.2246l-13.1739,33.503l-53.977-21.2246L378.3126,15.1362 M377.1832,12.5431l-14.6376,37.2255
				l57.6996,22.6884l14.6376-37.2255L377.1832,12.5431L377.1832,12.5431z"/>
		</g>
		<line class="st1" x1="377.1832" y1="12.5431" x2="420.2451" y2="72.4569"/>
		<line class="st1" x1="434.8828" y1="35.2314" x2="362.5456" y2="49.7686"/>
	</g>
	<g>
		<line class="st1" x1="40.1208" y1="180.7759" x2="72.3005" y2="190.2345"/>
		
			<ellipse transform="matrix(0.282 -0.9594 0.9594 0.282 -141.8817 175.9977)" class="st6" cx="46.6461" cy="182.7923" rx="2.892" ry="2.892"/>
		<line class="st1" x1="38.1544" y1="187.4659" x2="70.3341" y2="196.9245"/>
		
			<ellipse transform="matrix(0.282 -0.9594 0.9594 0.282 -141.4757 201.0254)" class="st6" cx="63.5706" cy="195.0349" rx="2.892" ry="2.892"/>
		<line class="st1" x1="36.2274" y1="194.0221" x2="68.4071" y2="203.4807"/>
		
			<ellipse transform="matrix(0.282 -0.9594 0.9594 0.282 -153.7944 191.414)" class="st6" cx="50.9897" cy="198.4596" rx="2.892" ry="2.892"/>
	</g>
	<g>
		<line class="st1" x1="464.3286" y1="107.0209" x2="493.8545" y2="102.2364"/>
		<line class="st1" x1="465.7682" y1="115.905" x2="502.0605" y2="110.024"/>
		<line class="st1" x1="467.2078" y1="124.7891" x2="496.7337" y2="120.0046"/>
	</g>
	<g>
		<g>
			<g>
				<path class="st2" d="M357.2841,198.7999c-2.314,0-4.1877,1.0522-4.1877,2.3499v0.6617h-1.0214v-0.1136v-1.9323v-0.4411
					c0-1.297-1.8751-2.3506-4.1884-2.3514c-2.3173,0.0007-4.1906,1.0544-4.1906,2.3514v0.4411v1.9323v0.1136h-1.0193v-1.9147
					v-1.9454v-1.5666c0-1.2999-1.8788-2.3529-4.1898-2.3529c-2.3133,0-4.1899,1.0529-4.1899,2.3529v1.5666v1.9454v1.9147h-1.02
					v-8.7424h-0.0084c0-0.0696,0.0084-0.1348,0.0084-0.2052v-11.4961c0-2.1037-1.8773-3.8066-4.1884-3.8066
					c-2.3144,0-4.1898,1.7037-4.1898,3.8066v11.4961c0,0.0703,0.007,0.1355,0.0128,0.2052h-0.0128v25.3098h-1.3483v-6.6555
					c0-2.4899-2.0187-4.5071-4.5086-4.5071c-2.4855,0-4.5049,2.0172-4.5049,4.5071v15.3694h0.0059
					c0.0125,1.637,0.7525,3.1889,2.1287,4.0938l9.6458,7.9796c-0.0205,2.7221-0.055,6.2562-0.0901,10.0284h30.3745
					c0-8.4486,0.0271-15.8801,0.0271-15.8801c0.713-0.9408,2.7507-3.5487,3.5707-5.1563
					c1.0156-1.9916,1.0672-11.1202,1.1482-19.0866l0.1268-2.3375v-2.1931v-0.6302v-1.5241v-1.2369
					C361.4747,199.8521,359.5999,198.7999,357.2841,198.7999z"/>
				<g>
					<rect x="317.6374" y="243.1405" class="st6" width="44.7642" height="143.4849"/>
					
						<ellipse transform="matrix(0.057 -0.9984 0.9984 0.057 85.7142 587.6622)" class="st2" cx="353.9512" cy="248.4561" rx="2.0396" ry="2.0419"/>
					<rect x="314.8932" y="253.2971" class="st2" width="49.4003" height="133.3283"/>
				</g>
			</g>
		</g>
	</g>
	<g>
		<g>
			
				<rect x="420.111" y="229.8739" transform="matrix(0.6084 -0.7936 0.7936 0.6084 -22.5305 456.8194)" class="st0" width="63.0835" height="42.734"/>
		</g>
		<line class="st1" x1="465.1373" y1="226.9627" x2="471.597" y2="231.9151"/>
		<line class="st1" x1="422.9336" y1="253.583" x2="456.8479" y2="279.5832"/>
		<line class="st1" x1="448.9338" y1="219.6687" x2="482.8481" y2="245.6689"/>
		
			<ellipse transform="matrix(0.6084 -0.7936 0.7936 0.6084 -44.6115 452.442)" class="st8" cx="436.1764" cy="271.428" rx="2.0349" ry="2.0349"/>
	</g>
	<g>
		<polygon class="st6" points="180.7488,73.7676 208.5788,61.9696 192.5943,24.2645 136.9344,47.8606 152.9189,85.5657 
			168.1805,79.0958 172.7475,89.8687 		"/>
		<line class="st1" x1="149.2005" y1="54.3105" x2="188.701" y2="37.5649"/>
		<line class="st1" x1="153.0063" y1="63.2879" x2="192.5069" y2="46.5423"/>
		<line class="st1" x1="156.8121" y1="72.2653" x2="196.3127" y2="55.5197"/>
	</g>
	<g>
		
			<rect x="107.8883" y="214.8559" transform="matrix(0.9046 -0.4262 0.4262 0.9046 -87.7792 82.0081)" class="st0" width="62.938" height="44.5811"/>
		
			<rect x="109.8863" y="256.9361" transform="matrix(0.9046 -0.4262 0.4262 0.9046 -96.8239 89.0337)" class="st2" width="81.2949" height="7.8672"/>
		<line class="st1" x1="134.465" y1="220.6086" x2="129.7203" y2="222.8439"/>
	</g>
	<g>
		<path class="st2" d="M555.4166,82.661c0,9.2508-16.75,26.75-16.75,26.75s-16.75-17.4992-16.75-26.75s7.4992-16.75,16.75-16.75
			S555.4166,73.4102,555.4166,82.661z"/>
		<circle class="st2" cx="538.6666" cy="82.661" r="9.8466"/>
	</g>
	<g>
		<path class="st2" d="M524.6115,316.1759c0,7.4254-13.4449,21.4717-13.4449,21.4717s-13.4449-14.0463-13.4449-21.4717
			s6.0195-13.4449,13.4449-13.4449C518.592,302.731,524.6115,308.7505,524.6115,316.1759z"/>
		<circle class="st2" cx="511.1666" cy="316.1759" r="7.9037"/>
	</g>
	<path class="st5" d="M538.6666,113.411c0,0-23.6667,10.57-23.6667,27.57s33,31,27.7803,56.3333
		c-11.8244,57.3894-68.1136,55.5907-34.7803,105.7953"/>
	<g>
		<circle class="st6" cx="54.8681" cy="89.019" r="18.6173"/>
		<polygon class="st13" points="58.1582,92.3092 63.4225,79.8065 50.9198,85.0707 46.3135,96.9155 		"/>
		<line class="st1" x1="50.9198" y1="85.0707" x2="58.1582" y2="92.3092"/>
		<path class="st1" d="M58.0924,70.5939c0.0428-0.2125,0.0658-0.433,0.0658-0.658c0-1.8168-1.4734-3.2902-3.2902-3.2902
			s-3.2902,1.4733-3.2902,3.2902c0,0.225,0.023,0.4455,0.0658,0.658"/>
		<line class="st1" x1="54.8681" y1="70.5939" x2="54.8681" y2="73.8841"/>
		<line class="st1" x1="54.8681" y1="104.1539" x2="54.8681" y2="107.4442"/>
		<line class="st1" x1="73.2932" y1="89.019" x2="70.003" y2="89.019"/>
		<line class="st1" x1="39.7331" y1="89.019" x2="36.4429" y2="89.019"/>
	</g>
	<g>
		
			<rect x="35.1975" y="294.4336" transform="matrix(0.9813 -0.1923 0.1923 0.9813 -58.5181 16.1394)" class="st1" width="37.3552" height="30.1252"/>
		<line class="st1" x1="33.5763" y1="303.037" x2="70.2341" y2="295.8527"/>
		<line class="st1" x1="38.434" y1="299.6291" x2="36.0691" y2="300.0926"/>
		<line class="st1" x1="43.1641" y1="298.7021" x2="40.7991" y2="299.1656"/>
		<line class="st1" x1="47.8941" y1="297.7751" x2="45.5292" y2="298.2386"/>
		<line class="st1" x1="37.6914" y1="308.3702" x2="53.6553" y2="305.2416"/>
		<line class="st1" x1="38.6184" y1="313.1003" x2="54.5823" y2="309.9716"/>
		<line class="st1" x1="39.5454" y1="317.8303" x2="55.5093" y2="314.7016"/>
		
			<rect x="57.4317" y="303.4714" transform="matrix(0.9813 -0.1923 0.1923 0.9813 -58.1131 17.9018)" class="st6" width="11.4476" height="9.64"/>
	</g>
</g>
</svg>
