<?xml version="1.0" encoding="utf-8"?>
<!-- Generator: Adobe Illustrator 20.1.0, SVG Export Plug-In . SVG Version: 6.00 Build 0)  -->
<svg version="1.1" id="Слой_1" xmlns="http://www.w3.org/2000/svg" xmlns:xlink="http://www.w3.org/1999/xlink" x="0px" y="0px"
	 viewBox="0 0 600 400" style="enable-background:new 0 0 600 400;" xml:space="preserve">
<style type="text/css">
	.st0{fill:#D8EFFD;stroke:#000000;stroke-width:2;stroke-miterlimit:10;}
	.st1{fill:none;stroke:#000000;stroke-width:2;stroke-miterlimit:10;}
	.st2{fill:#FFFFFF;stroke:#000000;stroke-width:2;stroke-miterlimit:10;}
	.st3{fill:none;stroke:#000000;stroke-width:2;stroke-miterlimit:10;stroke-dasharray:5.7825,5.7825;}
	.st4{fill:none;stroke:#000000;stroke-width:2;stroke-miterlimit:10;stroke-dasharray:6.4261,6.4261;}
	.st5{fill:none;stroke:#000000;stroke-width:2;stroke-miterlimit:10;stroke-dasharray:6;}
	.st6{fill:#FF9FBA;stroke:#000000;stroke-width:2;stroke-miterlimit:10;}
	.st7{fill:none;stroke:#000000;stroke-width:2;stroke-miterlimit:10;stroke-dasharray:6,6;}
	.st8{fill:#D8EFFD;stroke:#000000;stroke-width:2;stroke-linejoin:bevel;stroke-miterlimit:10;}
	.st9{fill:#B2DDF8;stroke:#000000;stroke-width:2;stroke-miterlimit:10;}
	.st10{stroke:#000000;stroke-width:2;stroke-miterlimit:10;}
	.st11{fill:none;stroke:#000000;stroke-width:8;stroke-miterlimit:10;}
	.st12{fill:none;stroke:#000000;stroke-width:2;stroke-miterlimit:10;stroke-dasharray:1.9767,1.9767;}
	.st13{fill:none;stroke:#000000;stroke-width:2;stroke-linejoin:bevel;stroke-miterlimit:10;}
</style>
<line class="st1" x1="459.3975" y1="88.8001" x2="486.0229" y2="88.8001"/>
<line class="st1" x1="459.3975" y1="97.8001" x2="492.1246" y2="97.8001"/>
<line class="st1" x1="459.3975" y1="106.8001" x2="486.0229" y2="106.8001"/>
<g>
	<path class="st0" d="M328.5202,123.3581c0,21.0471-38.1091,60.8608-38.1091,60.8608s-38.1091-39.8136-38.1091-60.8608
		s17.062-38.1091,38.1091-38.1091S328.5202,102.3109,328.5202,123.3581z"/>
	<circle class="st2" cx="290.4111" cy="123.3581" r="22.4027"/>
</g>
<g>
	<path class="st9" d="M443.6425,97.4561c0,10.8144-19.5811,31.2712-19.5811,31.2712s-19.5811-20.4569-19.5811-31.2712
		s8.7667-19.5811,19.5811-19.5811C434.8759,77.8751,443.6425,86.6418,443.6425,97.4561z"/>
	<circle class="st2" cx="424.0615" cy="97.4561" r="11.5109"/>
</g>
<g>
	<path class="st6" d="M472.334,207.8362c0,7.923-14.3457,22.9104-14.3457,22.9104s-14.3457-14.9874-14.3457-22.9104
		s6.4228-14.3457,14.3457-14.3457S472.334,199.9132,472.334,207.8362z"/>
	<circle class="st2" cx="457.9883" cy="207.8362" r="8.4332"/>
</g>
<g>
	<path class="st6" d="M189.3947,70.9544c0,7.923-14.3457,22.9104-14.3457,22.9104s-14.3457-14.9874-14.3457-22.9104
		s6.4228-14.3457,14.3457-14.3457C182.9719,56.6087,189.3947,63.0314,189.3947,70.9544z"/>
	<circle class="st2" cx="175.049" cy="70.9544" r="8.4332"/>
</g>
<g>
	<path class="st9" d="M162.0508,167.6055c0,11.3645-20.5771,32.8619-20.5771,32.8619s-20.5771-21.4975-20.5771-32.8619
		s9.2127-20.5771,20.5771-20.5771S162.0508,156.2411,162.0508,167.6055z"/>
	<circle class="st2" cx="141.4738" cy="167.6055" r="12.0964"/>
</g>
<path class="st7" d="M175.049,100.9554c0,0,37.2278,14.6643,45.0233,33.7785C230.4111,160.0845,224.2758,166.7948,245,182
	c18.0869,13.2703,45.4111,10.7866,45.4111,10.7866"/>
<path class="st7" d="M300,189.7793c0,0,39.274,2.7166,56.137-16.0314s24.3135-27.5884,40.5883-32.6682
	C413,136,424.8168,135.1723,424.8168,135.1723"/>
<path class="st7" d="M141.4738,208.5c0,0-64.4738,41.5-78.4738,19s0-34.7134,17.8344-28.2934
	c16.3513,5.8861,22.4934,36.9601,17.1656,48.8767s-32.5535,27.0386-23.2768,45.4776S135,323.9408,147,308.9704s56-29.943,67-63.0778
	S284.5,196.5,284.5,196.5"/>
<g>
	<g>
		<rect x="157.6158" y="213.7579" class="st2" width="198.1353" height="107.8199"/>
		<polygon class="st2" points="449.5396,321.5778 364.613,321.5778 364.613,232.2201 407.0763,232.2201 449.5396,274.6835 		"/>
		<rect x="196.1406" y="321.5778" class="st2" width="253.399" height="25.1088"/>
		<circle class="st2" cx="311.0722" cy="344.3787" r="16.9853"/>
		<circle class="st2" cx="311.0722" cy="344.3787" r="10.3389"/>
		<circle class="st2" cx="251.0722" cy="344.3787" r="16.9853"/>
		<circle class="st2" cx="251.0722" cy="344.3787" r="10.3389"/>
		<circle class="st2" cx="410.7399" cy="344.3787" r="16.9853"/>
		<circle class="st2" cx="410.7687" cy="344.3787" r="10.3389"/>
	</g>
	<polygon class="st0" points="372.7364,238.6051 402.6453,238.6051 441.4162,277.7451 441.4162,286.2379 372.7364,286.2379 	"/>
	<line class="st1" x1="372.7364" y1="299.5307" x2="387.137" y2="299.5307"/>
	<rect x="449.5396" y="299.5307" class="st1" width="6.2772" height="16.6161"/>
</g>
<path class="st7" d="M457.9883,240.5c0,0,5.8634,24.8356,22.3863,26.1678s39.25-3.2512,43.6254-35.4477
	c2.9695-21.8512-6.8754-44.0535-27.3754-63.6146c-20.014-19.0974-84.074-14.1055-113.8559,22.1424
	c-19.7617,24.0522-88.9839,5.4586-88.9839,5.4586"/>
<g>
	<circle class="st6" cx="256.4661" cy="269.2188" r="30.2557"/>
	<polygon class="st13" points="261.8131,274.5658 270.3683,254.2471 250.0496,262.8023 242.5638,282.0517 	"/>
	<line class="st1" x1="250.0496" y1="262.8023" x2="261.8131" y2="274.5658"/>
	<path class="st1" d="M261.7061,239.2754c0.0695-0.3454,0.1069-0.7037,0.1069-1.0694c0-2.9526-2.3944-5.347-5.347-5.347
		s-5.347,2.3944-5.347,5.347c0,0.3657,0.0374,0.724,0.1069,1.0694"/>
	<line class="st1" x1="256.4661" y1="239.2754" x2="256.4661" y2="244.6224"/>
	<line class="st1" x1="256.4661" y1="293.8151" x2="256.4661" y2="299.1622"/>
	<line class="st1" x1="286.4095" y1="269.2188" x2="281.0624" y2="269.2188"/>
	<line class="st1" x1="231.8697" y1="269.2188" x2="226.5227" y2="269.2188"/>
</g>
<g>
	<polyline class="st1" points="290.4111,107.9856 290.4111,123.3041 297.3044,130.1974 	"/>
	<line class="st1" x1="268.9652" y1="123.3041" x2="272.0289" y2="123.3041"/>
	<line class="st1" x1="308.7933" y1="123.3041" x2="311.857" y2="123.3041"/>
	<line class="st1" x1="290.4111" y1="144.75" x2="290.4111" y2="141.6863"/>
	<line class="st1" x1="290.4111" y1="104.9219" x2="290.4111" y2="101.8582"/>
</g>
<path class="st1" d="M101.2823,90.7181c6.6992,6.6981,6.6992,17.5584,0,24.257c-6.6987,6.6998-17.5595,6.6998-24.2581,0
	c-6.6992-6.6981-6.6992-17.5584,0-24.257C83.7228,84.0184,94.5831,84.0184,101.2823,90.7181z"/>
<line class="st1" x1="89.1532" y1="94.5467" x2="89.1532" y2="106.72"/>
<line class="st1" x1="89.1532" y1="108.9333" x2="89.1532" y2="111.1467"/>
<g>
	<g>
		<line class="st1" x1="112.0541" y1="91.5959" x2="146.1906" y2="80.6068"/>
		<g>
			<polygon points="136.8863,90.2848 135.6593,88.7039 146.0046,80.6667 132.9134,80.1741 132.9883,78.1761 151.5701,78.8751 			"/>
		</g>
	</g>
</g>
<g>
	<rect x="271.5116" y="43.14" class="st1" width="37.7991" height="24.3865"/>
	<line class="st1" x1="271.5116" y1="43.14" x2="309.3106" y2="67.5266"/>
	<line class="st1" x1="309.3106" y1="43.14" x2="271.5116" y2="67.5266"/>
</g>
</svg>
