<?xml version="1.0" encoding="utf-8"?>
<!-- Generator: Adobe Illustrator 20.1.0, SVG Export Plug-In . SVG Version: 6.00 Build 0)  -->
<svg version="1.1" id="Слой_1" xmlns="http://www.w3.org/2000/svg" xmlns:xlink="http://www.w3.org/1999/xlink" x="0px" y="0px"
	 viewBox="0 0 600 400" style="enable-background:new 0 0 600 400;" xml:space="preserve">
<style type="text/css">
	.st0{fill:#D8EFFD;stroke:#000000;stroke-width:2;stroke-miterlimit:10;}
	.st1{fill:#FFFFFF;stroke:#000000;stroke-width:2;stroke-miterlimit:10;}
	.st2{fill:none;stroke:#000000;stroke-width:2;stroke-miterlimit:10;stroke-dasharray:5.7825,5.7825;}
	.st3{fill:none;stroke:#000000;stroke-width:2;stroke-miterlimit:10;stroke-dasharray:6.4261,6.4261;}
	.st4{fill:none;stroke:#000000;stroke-width:2;stroke-miterlimit:10;stroke-dasharray:6;}
	.st5{fill:#FF9FBA;stroke:#000000;stroke-width:2;stroke-miterlimit:10;}
	.st6{fill:none;stroke:#000000;stroke-width:2;stroke-miterlimit:10;}
	.st7{fill:none;stroke:#000000;stroke-width:2;stroke-miterlimit:10;stroke-dasharray:6,6;}
	.st8{fill:#B2DDF8;stroke:#000000;stroke-width:2;stroke-miterlimit:10;}
	.st9{stroke:#000000;stroke-width:2;stroke-miterlimit:10;}
	.st10{fill:#D8EFFD;stroke:#000000;stroke-width:2;stroke-linejoin:bevel;stroke-miterlimit:10;}
	.st11{clip-path:url(#SVGID_2_);fill:#B2DDF8;}
	.st12{clip-path:url(#SVGID_2_);fill:#D8EFFD;}
	.st13{clip-path:url(#SVGID_2_);fill:#045699;}
	.st14{clip-path:url(#SVGID_2_);fill:#D4053F;}
	.st15{clip-path:url(#SVGID_2_);fill:#E51848;}
	.st16{clip-path:url(#SVGID_2_);}
	.st17{clip-path:url(#SVGID_4_);}
</style>
<g>
	<polygon class="st0" points="278,38 321.0475,48 363.478,38 410.7654,48 454.086,38 492.2218,48 532,38 522,184.8328 532,356 
		490.9261,366 454.3198,356 411.7491,366 364.228,356 322.3432,366 278,356 288,187.5003 	"/>
	<line class="st0" x1="363.603" y1="38" x2="364.2593" y2="356"/>
	<line class="st0" x1="454.1172" y1="38" x2="454.4448" y2="356"/>
</g>
<g>
	<path class="st1" d="M437.75,88.18c0,9.2508-16.75,26.75-16.75,26.75s-16.75-17.4992-16.75-26.75s7.4992-16.75,16.75-16.75
		S437.75,78.9292,437.75,88.18z"/>
	<circle class="st1" cx="421" cy="88.18" r="9.8466"/>
</g>
<g>
	<path class="st1" d="M406.9449,317.6949c0,7.4254-13.4449,21.4717-13.4449,21.4717s-13.4449-14.0463-13.4449-21.4717
		c0-7.4254,6.0195-13.4449,13.4449-13.4449S406.9449,310.2695,406.9449,317.6949z"/>
	<circle class="st1" cx="393.5" cy="317.6949" r="7.9037"/>
</g>
<g>
	<path class="st1" d="M503.5658,111.9645c0,5.3725-9.7278,15.5355-9.7278,15.5355s-9.7278-10.163-9.7278-15.5355
		c0-5.3725,4.3553-9.7278,9.7278-9.7278S503.5658,106.592,503.5658,111.9645z"/>
	<circle class="st1" cx="493.838" cy="111.9645" r="5.7186"/>
</g>
<g>
	<circle class="st2" cx="317.3333" cy="88" r="16.57"/>
</g>
<g>
	<circle class="st3" cx="493.2167" cy="334.9385" r="10.2302"/>
</g>
<path class="st4" d="M421,114.93c0,0-23.6667,10.57-23.6667,27.57s33,31,27.7803,56.3333
	C413.2892,256.2227,357,254.424,390.3333,304.6286"/>
<g>
	<rect x="325" y="150.1667" class="st1" width="145.6667" height="97.3333"/>
	<polygon class="st1" points="555.3333,247.5 478.6667,247.5 478.6667,166.8333 517,166.8333 555.3333,205.1667 	"/>
	<rect x="318.3333" y="247.5" class="st1" width="237" height="22.6667"/>
	<circle class="st1" cx="430.3333" cy="268.0833" r="15.3333"/>
	<circle class="st1" cx="430.3333" cy="268.0833" r="9.3333"/>
	<circle class="st1" cx="520.3073" cy="268.0833" r="15.3333"/>
	<circle class="st1" cx="520.3333" cy="268.0833" r="9.3333"/>
</g>
<g>
	<g>
		<polygon class="st1" points="127.25,260.25 98.5,289.5 356,289.5 326.75,260.125 		"/>
		<rect x="98.5" y="289" class="st1" width="257.5" height="13.25"/>
		<rect x="127.5" y="128.5" class="st1" width="199.5" height="132"/>
		<line class="st1" x1="127" y1="143.5" x2="327" y2="143.5"/>
	</g>
	<g>
		<circle class="st1" cx="226.6667" cy="135.5" r="3"/>
	</g>
</g>
<circle class="st1" cx="317.3333" cy="88" r="9.6667"/>
<circle class="st1" cx="493.2167" cy="334.9385" r="5.9681"/>
<g>
	<rect x="44.6936" y="55.3333" class="st5" width="62" height="40"/>
	<line class="st5" x1="44.6936" y1="55.3333" x2="106.6936" y2="95.3333"/>
	<line class="st5" x1="106.6936" y1="55.3333" x2="44.6936" y2="95.3333"/>
</g>
<polygon class="st5" points="486,173.5 513,173.5 548,208.8333 548,216.5 486,216.5 "/>
<line class="st6" x1="486" y1="228.5" x2="499" y2="228.5"/>
<line class="st6" x1="487" y1="209.5" x2="548" y2="209.5"/>
<rect x="555.3333" y="228.5" class="st6" width="5.6667" height="15"/>
<path class="st4" d="M493.838,97.6667c0,0-4.6108-18.8333,9.6089-24.1667C517.6667,68.1667,527.9224,62.8333,523,52.1667
	S518.0776,41.5,518.0776,41.5"/>
<g>
	<g>
		<line class="st7" x1="119" y1="75.5" x2="225" y2="75.5"/>
		<g>
			<polygon points="221,81.3105 242.6816,75.5 221,69.6895 			"/>
		</g>
	</g>
</g>
<g>
	<path class="st8" d="M174.5027,202c0,0,18.5398,25.2816,52.2486,25.2816S279,202,279,202s-18.5398-25.2816-52.2486-25.2816
		S174.5027,202,174.5027,202z"/>
	<circle class="st9" cx="226.7514" cy="202" r="11.7981"/>
</g>
<g>
	<g>
		<rect x="45" y="171" class="st0" width="47.6936" height="70.4049"/>
	</g>
	<line class="st0" x1="64.3046" y1="175.5423" x2="73.3891" y2="175.5423"/>
	<line class="st0" x1="45" y1="227.7781" x2="92.6936" y2="227.7781"/>
	<line class="st0" x1="45" y1="180.0845" x2="92.6936" y2="180.0845"/>
	<circle class="st10" cx="68.8468" cy="234.5915" r="2.2711"/>
</g>
<line class="st6" x1="45" y1="335.5" x2="93" y2="335.5"/>
<line class="st6" x1="45" y1="344.5" x2="104" y2="344.5"/>
<line class="st6" x1="45" y1="353.5" x2="93" y2="353.5"/>
</svg>
