<?xml version="1.0" encoding="utf-8"?>
<!-- Generator: Adobe Illustrator 20.1.0, SVG Export Plug-In . SVG Version: 6.00 Build 0)  -->
<svg version="1.1" id="Слой_1" xmlns="http://www.w3.org/2000/svg" xmlns:xlink="http://www.w3.org/1999/xlink" x="0px" y="0px"
	 viewBox="0 0 600 400" style="enable-background:new 0 0 600 400;" xml:space="preserve">
<style type="text/css">
	.st0{fill:#D8EFFD;stroke:#000000;stroke-width:2;stroke-miterlimit:10;}
	.st1{fill:none;stroke:#000000;stroke-width:2;stroke-miterlimit:10;}
	.st2{fill:#FFFFFF;stroke:#000000;stroke-width:2;stroke-miterlimit:10;}
	.st3{fill:none;stroke:#000000;stroke-width:2;stroke-miterlimit:10;stroke-dasharray:5.7825,5.7825;}
	.st4{fill:none;stroke:#000000;stroke-width:2;stroke-miterlimit:10;stroke-dasharray:6.4261,6.4261;}
	.st5{fill:none;stroke:#000000;stroke-width:2;stroke-miterlimit:10;stroke-dasharray:6;}
	.st6{fill:#FF9FBA;stroke:#000000;stroke-width:2;stroke-miterlimit:10;}
	.st7{fill:none;stroke:#000000;stroke-width:2;stroke-miterlimit:10;stroke-dasharray:6,6;}
	.st8{fill:#D8EFFD;stroke:#000000;stroke-width:2;stroke-linejoin:bevel;stroke-miterlimit:10;}
	.st9{fill:#B2DDF8;stroke:#000000;stroke-width:2;stroke-miterlimit:10;}
	.st10{stroke:#000000;stroke-width:2;stroke-miterlimit:10;}
	.st11{fill:none;stroke:#000000;stroke-width:8;stroke-miterlimit:10;}
	.st12{fill:none;stroke:#000000;stroke-width:2;stroke-miterlimit:10;stroke-dasharray:1.9767,1.9767;}
</style>
<g>
	<g>
		<g>
			<rect x="304.1054" y="171.6711" class="st2" width="149.7021" height="107.8199"/>
			<polygon class="st2" points="547.5961,279.491 462.6694,279.491 462.6694,190.1334 505.1328,190.1334 547.5961,232.5968 			"/>
			<rect x="294.1971" y="279.491" class="st2" width="253.399" height="25.1088"/>
			<circle class="st2" cx="409.1287" cy="302.292" r="16.9853"/>
			<circle class="st2" cx="409.1287" cy="302.292" r="10.3389"/>
			<circle class="st2" cx="349.1287" cy="302.292" r="16.9853"/>
			<circle class="st2" cx="349.1287" cy="302.292" r="10.3389"/>
			<circle class="st2" cx="508.7964" cy="302.292" r="16.9853"/>
			<circle class="st2" cx="508.8252" cy="302.292" r="10.3389"/>
		</g>
		<polygon class="st0" points="470.7928,197.5183 500.7018,197.5183 539.4727,236.6584 539.4727,245.1511 470.7928,245.1511 		"/>
		<line class="st1" x1="470.7928" y1="258.444" x2="485.1935" y2="258.444"/>
		<rect x="547.5961" y="258.444" class="st1" width="6.2772" height="16.6161"/>
	</g>
	<rect x="93.7009" y="72.3758" class="st2" width="167.2797" height="246.1821"/>
	<path class="st0" d="M245.9515,104.1282v58.9118H108.7299v-58.9118c0-9.1459,7.4142-16.5601,16.5601-16.5601h104.1015
		C238.5373,87.5682,245.9515,94.9824,245.9515,104.1282z"/>
	<rect x="81.2856" y="318.5579" class="st2" width="190.3811" height="19.3223"/>
	<rect x="117.245" y="308.564" class="st2" width="120.1914" height="9.9939"/>
	<g>
		<path class="st2" d="M177.3407,134.3418c-15.8496,0-28.6982,12.8486-28.6982,28.6982h57.3965
			C206.0389,147.1905,193.1903,134.3418,177.3407,134.3418z"/>
		<path class="st2" d="M177.3407,147.3047c-8.6904,0-15.7354,7.8942-15.7354,15.7354h31.4709
			C193.0761,155.1988,186.0311,147.3047,177.3407,147.3047z"/>
	</g>
	<line class="st1" x1="185.6213" y1="149.8586" x2="209.3591" y2="112.072"/>
	<rect x="81.2856" y="259.7371" class="st1" width="12.4153" height="37.7752"/>
	<path class="st11" d="M54.8214,161.0797v92.6621c0,13.8689,11.2429,25.1118,25.1118,25.1118h1.3524"/>
	<rect x="46" y="123.9799" class="st1" width="17.9612" height="37.754"/>
	<polyline class="st1" points="49.929,123.9799 49.929,112.4192 71.7523,90.5959 75.9226,94.7663 58.5897,113.0794 
		58.5897,123.9799 	"/>
	<g>
		<rect x="157.3759" y="240.1962" class="st6" width="41.1143" height="25.6965"/>
		<path class="st1" d="M164.2283,240.1962v-13.7048c0-7.5693,6.1355-13.7048,13.7048-13.7048s13.7048,6.1355,13.7048,13.7048
			v13.7048"/>
		<circle class="st1" cx="177.933" cy="252.1879" r="3.4262"/>
		<line class="st1" x1="177.933" y1="255.6141" x2="177.933" y2="259.0403"/>
	</g>
	<g>
		<line class="st1" x1="339.2271" y1="99.4163" x2="303.4127" y2="99.4163"/>
		<line class="st1" x1="354.3488" y1="131.2513" x2="318.5343" y2="131.2513"/>
		<line class="st1" x1="324.1054" y1="115.3338" x2="303.4127" y2="115.3338"/>
		<line class="st1" x1="354.3488" y1="115.3338" x2="333.6559" y2="115.3338"/>
		<circle class="st9" cx="344.0023" cy="99.4163" r="4.7753"/>
		<circle class="st9" cx="313.759" cy="131.2513" r="4.7753"/>
		<circle class="st9" cx="328.8807" cy="115.3338" r="4.7753"/>
		<line class="st1" x1="354.3488" y1="99.4163" x2="348.7776" y2="99.4163"/>
		<line class="st1" x1="308.9838" y1="131.2513" x2="303.4127" y2="131.2513"/>
	</g>
	<g>
		<rect x="400.9909" y="94.7507" class="st1" width="47.2658" height="38.1176"/>
		<line class="st1" x1="400.9909" y1="100.8495" x2="448.2568" y2="100.8495"/>
		<line class="st1" x1="407.8521" y1="97.8001" x2="404.8027" y2="97.8001"/>
		<line class="st1" x1="413.9509" y1="97.8001" x2="410.9015" y2="97.8001"/>
		<line class="st1" x1="420.0497" y1="97.8001" x2="417.0003" y2="97.8001"/>
		<line class="st1" x1="404.8027" y1="108.4731" x2="425.3862" y2="108.4731"/>
		<line class="st1" x1="404.8027" y1="114.5719" x2="425.3862" y2="114.5719"/>
		<line class="st1" x1="404.8027" y1="120.6707" x2="425.3862" y2="120.6707"/>
		<rect x="429.198" y="108.4731" class="st6" width="14.4847" height="12.1976"/>
	</g>
	<g>
		<g>
			<line class="st1" x1="366.0445" y1="114.93" x2="367.0445" y2="114.93"/>
			<line class="st12" x1="369.0212" y1="114.93" x2="387.7997" y2="114.93"/>
			<line class="st1" x1="388.7881" y1="114.93" x2="389.7881" y2="114.93"/>
		</g>
	</g>
	<g>
		<g>
			<line class="st1" x1="460.0445" y1="114.93" x2="461.0445" y2="114.93"/>
			<line class="st12" x1="463.0212" y1="114.93" x2="481.7997" y2="114.93"/>
			<line class="st1" x1="482.7881" y1="114.93" x2="483.7881" y2="114.93"/>
		</g>
	</g>
	<g>
		<rect x="496.6246" y="94.9645" class="st0" width="48" height="34"/>
		<rect x="489.6246" y="128.9645" class="st1" width="62" height="6"/>
		<line class="st1" x1="522.6246" y1="98.9645" x2="518.6246" y2="98.9645"/>
	</g>
	<g>
		<path class="st2" d="M401.75,219.2066c0,12.5792-22.7766,36.3745-22.7766,36.3745s-22.7766-23.7953-22.7766-36.3745
			c0-12.5792,10.1974-22.7766,22.7766-22.7766S401.75,206.6274,401.75,219.2066z"/>
		<circle class="st2" cx="378.9734" cy="219.2066" r="13.3894"/>
	</g>
</g>
</svg>
