<?xml version="1.0" encoding="utf-8"?>
<!-- Generator: Adobe Illustrator 20.1.0, SVG Export Plug-In . SVG Version: 6.00 Build 0)  -->
<svg version="1.1" id="Слой_1" xmlns="http://www.w3.org/2000/svg" xmlns:xlink="http://www.w3.org/1999/xlink" x="0px" y="0px"
	 viewBox="0 0 600 400" style="enable-background:new 0 0 600 400;" xml:space="preserve">
<style type="text/css">
	.st0{fill:none;stroke:#000000;stroke-width:2;stroke-miterlimit:10;stroke-dasharray:8.0408,8.0408;}
	.st1{fill:none;stroke:#000000;stroke-width:2;stroke-miterlimit:10;}
	.st2{fill:#D8EFFD;stroke:#000000;stroke-width:2;stroke-miterlimit:10;}
	.st3{fill:#FFFFFF;stroke:#000000;stroke-width:2;stroke-miterlimit:10;}
	.st4{fill:none;stroke:#000000;stroke-width:2;stroke-miterlimit:10;stroke-dasharray:5.7825,5.7825;}
	.st5{fill:none;stroke:#000000;stroke-width:2;stroke-miterlimit:10;stroke-dasharray:6.4261,6.4261;}
	.st6{fill:none;stroke:#000000;stroke-width:2;stroke-miterlimit:10;stroke-dasharray:6;}
	.st7{fill:#FF9FBA;stroke:#000000;stroke-width:2;stroke-miterlimit:10;}
	.st8{fill:none;stroke:#000000;stroke-width:2;stroke-miterlimit:10;stroke-dasharray:6,6;}
	.st9{fill:#D8EFFD;stroke:#000000;stroke-width:2;stroke-linejoin:bevel;stroke-miterlimit:10;}
	.st10{fill:#B2DDF8;stroke:#000000;stroke-width:2;stroke-miterlimit:10;}
	.st11{stroke:#000000;stroke-width:2;stroke-miterlimit:10;}
	.st12{fill:none;stroke:#000000;stroke-width:8;stroke-miterlimit:10;}
	.st13{fill:none;stroke:#000000;stroke-width:2;stroke-miterlimit:10;stroke-dasharray:1.9767,1.9767;}
	.st14{fill:none;stroke:#000000;stroke-width:2;stroke-linejoin:bevel;stroke-miterlimit:10;}
	.st15{fill:none;stroke:#13120D;stroke-width:2;stroke-miterlimit:10;}
	.st16{fill:#FF9FBA;}
</style>
<g>
	<circle class="st0" cx="288.7485" cy="191.9765" r="151.0033"/>
</g>
<g>
	<g>
		<g>
			<g>
				<g>
					<rect x="267.8723" y="270.0181" class="st3" width="43.9704" height="51.7287"/>
					<path class="st3" d="M291.7961,147.1613c-0.867,0-1.7298,0.0194-2.5896,0.0469
						c-30.2913,0.9804-55.6052,19.2555-55.6052,58.1487c0,39.4438,24.7812,71.4995,55.6052,72.3804
						c0.4326,0.0108,0.8621,0.0408,1.2972,0.0408c31.4274,0,56.9015-32.4234,56.9015-72.4213
						C347.4052,165.3602,323.2233,147.1613,291.7961,147.1613z"/>
					<path class="st15" d="M323.995,182.7538c0,0-20.0442,32.9787-56.9023,29.7444c0,0,12.2874-3.8792,12.2874-10.346
						c0,0-9.0531,6.4643-18.1055,8.4054c0,0,6.4659-8.4054,5.172-12.2855c0,0-20.6904,4.5274-21.3374,14.2261l-4.5266,10.9922
						l-15.5201-18.1053c0,0-8.8433-59.3534,37.0689-72.932c45.9091-13.5794,66.5157,17.7376,66.5157,17.7376
						s15.5159,7.7851,21.92,52.181c0,0-11.056,7.5381-9.7613,17.2384C340.8058,219.6099,325.9344,204.7389,323.995,182.7538z"/>
					
						<ellipse transform="matrix(0.1449 -0.9895 0.9895 0.1449 89.7855 525.8779)" class="st3" cx="349.1324" cy="210.9948" rx="15.278" ry="7.5422"/>
					
						<ellipse transform="matrix(0.9954 -0.0963 0.0963 0.9954 -19.1421 23.1862)" class="st3" cx="230.6112" cy="209.883" rx="6.8786" ry="14.9917"/>
				</g>
				<g>
					<path class="st7" d="M252.1959,339.9881v-36.0114c-5.3276,1.7717-12.4708,4.8207-19.7767,9.9415l-4.0002,26.07H252.1959z"/>
					<path class="st7" d="M354.1364,339.9881l-6.7384-26.2391c-5.6158-4.6309-12.1602-8.4747-19.7766-10.979v37.218H354.1364z"/>
				</g>
				<g>
					<g>
						<g>
							<path class="st16" d="M245.6109,347.7052h-7.7561c-2.5697,0-4.6536,2.0836-4.6536,4.6536v0.7754
								c0,2.57,2.0838,4.6541,4.6536,4.6541h7.7561c2.5705,0,4.6536-2.0841,4.6536-4.6541v-0.7754
								C250.2645,349.7888,248.1813,347.7052,245.6109,347.7052z"/>
							<path class="st1" d="M245.6109,347.7052h-7.7561c-2.5697,0-4.6536,2.0836-4.6536,4.6536v0.7754
								c0,2.57,2.0838,4.6541,4.6536,4.6541h7.7561c2.5705,0,4.6536-2.0841,4.6536-4.6541v-0.7754
								C250.2645,349.7888,248.1813,347.7052,245.6109,347.7052z"/>
						</g>
						<g>
							<path class="st16" d="M344.8864,346.9296h-7.7562c-2.5688,0-4.6526,2.0836-4.6526,4.6533v0.7758
								c0,2.5702,2.0839,4.6533,4.6526,4.6533h7.7562c2.5704,0,4.6536-2.0831,4.6536-4.6533v-0.7758
								C349.5399,349.0132,347.4568,346.9296,344.8864,346.9296z"/>
							<path class="st1" d="M344.8864,346.9296h-7.7562c-2.5688,0-4.6526,2.0836-4.6526,4.6533v0.7758
								c0,2.5702,2.0839,4.6533,4.6526,4.6533h7.7562c2.5704,0,4.6536-2.0831,4.6536-4.6533v-0.7758
								C349.5399,349.0132,347.4568,346.9296,344.8864,346.9296z"/>
						</g>
					</g>
				</g>
			</g>
			<g>
				<path class="st10" d="M344.8864,346.9296h-7.7562c-2.5688,0-4.6526,2.0836-4.6526,4.6533v0.7758
					c0,2.5702,2.0839,4.6533,4.6526,4.6533h7.7562c2.5704,0,4.6536-2.0831,4.6536-4.6533v-0.7758
					C349.5399,349.0132,347.4568,346.9296,344.8864,346.9296z"/>
				<path class="st10" d="M228.2633,343.4779h60.9598h64.6797v27.9437h25.1536c-1.8298-8.8956-9.5129-39.4058-31.6584-57.6725
					v26.2391h-19.7766v-37.218c-2.0386-0.6705-4.1541-1.2469-6.351-1.7149l-4.0646-4.5733
					c-7.3082,3.6515-16.5504,5.8333-26.6014,5.8333c-10.5132,0-20.1394-2.3871-27.5953-6.347l-4.5219,5.087l0.9003,0.9558
					c-1.5369,0.318-4.0487,0.9201-7.1915,1.9657v36.0114h-19.7767v-26.07c-13.9552,9.78-28.494,27.1159-32.0696,57.5034h27.9137
					V343.4779z"/>
				<path class="st3" d="M228.2633,343.4779v27.9437h60.9598v-27.9437H228.2633z M245.6109,357.7882h-7.7561
					c-2.5697,0-4.6536-2.0841-4.6536-4.6541v-0.7754c0-2.57,2.0838-4.6536,4.6536-4.6536h7.7561
					c2.5705,0,4.6536,2.0836,4.6536,4.6536v0.7754C250.2645,355.7041,248.1813,357.7882,245.6109,357.7882z"/>
				<path class="st3" d="M289.2231,343.4779v27.9437h64.6797v-27.9437H289.2231z"/>
			</g>
		</g>
		<g>
			<path class="st3" d="M225.8784,186.7622h120.9864c0,0,10.8793-70.503-59.188-70.503
				C217.6092,116.2592,225.8784,186.7622,225.8784,186.7622z"/>
		</g>
		<path class="st3" d="M348.706,185.1241c-0.4674-0.5259-1.1377-0.8264-1.8412-0.8264H225.8784
			c-0.8111,0-1.5693,0.3987-2.0297,1.0656c-0.4598,0.6677-0.5625,1.5186-0.2737,2.276c0.1253,0.3297,3.1858,8.1586,13.0756,15.9219
			c5.7236,4.4927,12.5895,8.0657,20.4082,10.6202c9.6785,3.1624,20.8581,4.7663,33.2292,4.7663
			c12.394,0,23.1836-1.611,32.0689-4.788c7.2368-2.5874,13.2464-6.2161,17.8633-10.7855c8.0289-7.946,9.0526-15.9865,9.0925-16.3252
			C349.3945,186.3501,349.1737,185.6501,348.706,185.1241z"/>
	</g>
	<path class="st7" d="M341.7704,357.7882h-7.7561c-2.5697,0-4.6536-2.0841-4.6536-4.6541v-0.7754
		c0-2.57,2.0838-4.6536,4.6536-4.6536h7.7561c2.5705,0,4.6536,2.0836,4.6536,4.6536v0.7754
		C346.424,355.7041,344.3409,357.7882,341.7704,357.7882z"/>
	<path class="st1" d="M311.8432,251.6481c-3.7648,3.9272-12.6104,6.6844-22.9224,6.6844c-10.0828,0-18.7635-2.6359-22.6638-6.4241"
		/>
	<path class="st1" d="M282.5286,218.9476c0,0-4.9232,17.3372-0.2141,20.7621c4.7092,3.4249,10.7028-0.6422,10.7028-0.6422"/>
	<path class="st1" d="M259.3875,302.011c0,0,11.996,7.0526,29.6627,7.0526"/>
	<path class="st1" d="M321.2704,301.0552c0,0-4.279,5.0116-16.2661,6.2959"/>
	<path class="st3" d="M267.8723,184.2977c-1.5989-54.1277,19.8045-68.0385,19.8045-68.0385
		c27.1741,19.4196,24.1658,68.0102,24.1658,68.0102L267.8723,184.2977z"/>
	<rect x="282.1005" y="113.6312" class="st3" width="10.2746" height="3.2702"/>
</g>
<g>
	<g>
		
			<rect x="392.2615" y="215.773" transform="matrix(0.9937 -0.1118 0.1118 0.9937 -24.0295 48.9183)" class="st3" width="63.5211" height="45.7498"/>
		<polygon class="st3" points="497.688,253.3766 461.8783,257.4068 457.6379,219.7287 475.5428,217.7136 495.4627,233.6035 		"/>
		
			<rect x="391.0995" y="259.3557" transform="matrix(0.9937 -0.1118 0.1118 0.9937 -26.8104 51.4121)" class="st3" width="107.5215" height="10.6541"/>
		
			<ellipse transform="matrix(0.9937 -0.1118 0.1118 0.9937 -27.3841 50.9422)" class="st3" cx="440.3846" cy="269.5616" rx="7.2072" ry="7.2071"/>
		
			<ellipse transform="matrix(0.9937 -0.1118 0.1118 0.9937 -27.3841 50.9422)" class="st3" cx="440.3846" cy="269.5616" rx="4.387" ry="4.387"/>
		
			<ellipse transform="matrix(0.9937 -0.1118 0.1118 0.9937 -27.8613 48.1306)" class="st3" cx="415.0853" cy="272.4089" rx="7.2071" ry="7.2071"/>
		
			<ellipse transform="matrix(0.9937 -0.1118 0.1118 0.9937 -27.8613 48.1306)" class="st3" cx="415.0853" cy="272.4089" rx="4.387" ry="4.387"/>
		
			<ellipse transform="matrix(0.9937 -0.1118 0.1118 0.9937 -26.5916 55.6125)" class="st3" cx="482.41" cy="264.832" rx="7.2072" ry="7.2071"/>
		
			<ellipse transform="matrix(0.9937 -0.1118 0.1118 0.9937 -26.5913 55.6138)" class="st3" cx="482.4221" cy="264.8306" rx="4.387" ry="4.387"/>
	</g>
	<polygon class="st2" points="461.4136,222.4571 474.0249,221.0378 492.2302,235.7016 492.6332,239.2825 463.674,242.5417 	"/>
	<line class="st1" x1="464.3048" y1="248.1467" x2="470.3769" y2="247.4633"/>
	
		<rect x="497.0752" y="244.331" transform="matrix(0.9937 -0.1118 0.1118 0.9937 -24.5927 57.295)" class="st1" width="2.6635" height="7.0505"/>
</g>
<g>
	
		<rect x="120.4981" y="208.9211" transform="matrix(0.1071 -0.9943 0.9943 0.1071 -111.506 356.6236)" class="st2" width="44.5811" height="62.938"/>
	
		<rect x="136.0477" y="225.8161" transform="matrix(0.1071 -0.9943 0.9943 0.1071 -139.9365 377.1145)" class="st3" width="7.8672" height="81.2949"/>
	<line class="st1" x1="147.2208" y1="223.7231" x2="142.0061" y2="223.1616"/>
</g>
<g>
	<g>
		
			<rect x="130.4654" y="111.7064" transform="matrix(0.8772 -0.4801 0.4801 0.8772 -48.4377 88.5686)" class="st7" width="36.961" height="54.5615"/>
	</g>
	<line class="st7" x1="134.4512" y1="119.8335" x2="140.627" y2="116.4537"/>
	<line class="st7" x1="140.7613" y1="162.5267" x2="173.1845" y2="144.7827"/>
	<line class="st7" x1="123.0173" y1="130.1035" x2="155.4406" y2="112.3595"/>
	
		<ellipse transform="matrix(0.8772 -0.4801 0.4801 0.8772 -56.4061 96.0085)" class="st7" cx="159.5078" cy="158.2866" rx="1.76" ry="1.76"/>
</g>
<g>
	<g>
		<path class="st10" d="M434.8702,115.4708c-2.7766-8.1476-11.0934-12.7084-18.6562-10.1659s-11.4692,11.2125-8.7263,19.3714
			c3.5487,10.5559,22.8665,22.7629,22.8665,22.7629S438.4642,126.0116,434.8702,115.4708z"/>
		
			<ellipse transform="matrix(0.9479 -0.3187 0.3187 0.9479 -15.665 140.1318)" class="st10" cx="420.463" cy="117.9441" rx="4.4444" ry="4.4444"/>
	</g>
	<polyline class="st1" points="415.2508,140.7948 405.7723,143.9813 401.2685,168.9393 433.9169,157.9636 466.5652,146.9878 
		447.8992,129.819 438.4206,133.0055 	"/>
</g>
<g>
	<g>
		<polyline class="st2" points="201.0443,44.6918 192.0642,48.3422 191.7142,80.348 245.3456,80.9344 245.6955,48.9286 
			245.6955,48.9286 236.7974,45.0827 		"/>
		<polyline class="st1" points="200.6577,53.6269 200.9508,26.8113 237.2817,27.2085 236.9886,54.0242 		"/>
		<polyline class="st1" points="192.0642,48.3422 218.696,65.4462 245.6955,48.9286 		"/>
	</g>
	<line class="st1" x1="207.644" y1="47.6474" x2="230.1346" y2="47.8933"/>
	<line class="st1" x1="222.5007" y1="33.9679" x2="230.2859" y2="34.053"/>
	<line class="st1" x1="207.7197" y1="40.7273" x2="230.2103" y2="40.9732"/>
</g>
<g>
	<polygon class="st7" points="341.6021,72.1704 371.331,77.6377 378.7383,37.3599 319.2805,26.4252 311.8732,66.703 
		328.1761,69.7013 326.0597,81.2092 	"/>
	<line class="st1" x1="325.9715" y1="38.5614" x2="368.1674" y2="46.3215"/>
	<line class="st1" x1="324.2078" y1="48.1514" x2="366.4037" y2="55.9115"/>
	<line class="st1" x1="322.4442" y1="57.7414" x2="364.64" y2="65.5015"/>
</g>
</svg>
