<?xml version="1.0" encoding="utf-8"?>
<!-- Generator: Adobe Illustrator 20.1.0, SVG Export Plug-In . SVG Version: 6.00 Build 0)  -->
<svg version="1.1" id="Слой_1" xmlns="http://www.w3.org/2000/svg" xmlns:xlink="http://www.w3.org/1999/xlink" x="0px" y="0px"
	 viewBox="0 0 600 400" style="enable-background:new 0 0 600 400;" xml:space="preserve">
<style type="text/css">
	.st0{fill:none;stroke:#000000;stroke-width:2;stroke-miterlimit:10;}
	.st1{fill:#D8EFFD;stroke:#000000;stroke-width:2;stroke-miterlimit:10;}
	.st2{fill:#FFFFFF;stroke:#000000;stroke-width:2;stroke-miterlimit:10;}
	.st3{fill:none;stroke:#000000;stroke-width:2;stroke-miterlimit:10;stroke-dasharray:5.7825,5.7825;}
	.st4{fill:none;stroke:#000000;stroke-width:2;stroke-miterlimit:10;stroke-dasharray:6.4261,6.4261;}
	.st5{fill:none;stroke:#000000;stroke-width:2;stroke-miterlimit:10;stroke-dasharray:6;}
	.st6{fill:#FF9FBA;stroke:#000000;stroke-width:2;stroke-miterlimit:10;}
	.st7{fill:none;stroke:#000000;stroke-width:2;stroke-miterlimit:10;stroke-dasharray:6,6;}
	.st8{fill:#D8EFFD;stroke:#000000;stroke-width:2;stroke-linejoin:bevel;stroke-miterlimit:10;}
	.st9{fill:#B2DDF8;stroke:#000000;stroke-width:2;stroke-miterlimit:10;}
	.st10{stroke:#000000;stroke-width:2;stroke-miterlimit:10;}
	.st11{fill:none;stroke:#000000;stroke-width:8;stroke-miterlimit:10;}
	.st12{fill:none;stroke:#000000;stroke-width:2;stroke-miterlimit:10;stroke-dasharray:1.9767,1.9767;}
	.st13{fill:none;stroke:#000000;stroke-width:2;stroke-linejoin:bevel;stroke-miterlimit:10;}
	.st14{fill:none;stroke:#000000;stroke-width:2;stroke-miterlimit:10;stroke-dasharray:8.0408,8.0408;}
	.st15{fill:none;stroke:#13120D;stroke-width:2;stroke-miterlimit:10;}
	.st16{fill:#FF9FBA;}
	.st17{fill:#B2DDF8;}
	.st18{fill:#643D00;}
</style>
<g>
	<path class="st16" d="M453.8843,168.8292c0.0229-0.4029,0.0357-0.8037,0.0357-1.2091c0-0.4051-0.0127-0.8079-0.0357-1.2045
		l-3.8762-0.5016c-0.0391-0.4471-0.1003-0.887-0.1709-1.321l3.6136-1.491c-0.1616-0.7931-0.3715-1.5704-0.6214-2.3308
		l-3.8727,0.5215c-0.153-0.4186-0.3282-0.83-0.5126-1.2308l3.1102-2.3742c-0.368-0.7204-0.7727-1.417-1.2138-2.0894l-3.6084,1.5067
		c-0.2584-0.3634-0.5262-0.7183-0.8083-1.0596l2.3852-3.0928c-0.5389-0.6002-1.1059-1.1671-1.7035-1.7081l-3.0975,2.3847
		c-0.3417-0.2822-0.6928-0.5474-1.0558-0.8079l1.5045-3.6093c-0.6766-0.4382-1.3685-0.8432-2.0876-1.2091l-2.3734,3.1098
		c-0.408-0.184-0.8152-0.3591-1.2317-0.5143l0.5176-3.8723c-0.7582-0.2521-1.5334-0.4578-2.3307-0.6244l-1.4893,3.6181
		c-0.4335-0.0743-0.8712-0.1334-1.3184-0.175l-0.5032-3.8787c-0.3995-0.0196-0.7999-0.031-1.2045-0.031
		c-0.4055,0-0.8067,0.0114-1.2097,0.031l-0.4989,3.8787c-0.4446,0.0416-0.8849,0.1007-1.3185,0.175l-1.4901-3.6181
		c-0.7939,0.1666-1.5717,0.3723-2.3325,0.6222l0.5202,3.8745c-0.4165,0.1551-0.8288,0.3302-1.2317,0.5143l-2.3716-3.1098
		c-0.7208,0.3659-1.417,0.771-2.0868,1.2091l1.5045,3.6093c-0.3621,0.2605-0.7165,0.5257-1.0583,0.8079l-3.0966-2.3847
		c-0.5959,0.5411-1.1654,1.108-1.7043,1.7081l2.3834,3.0928c-0.2831,0.3413-0.5474,0.6962-0.8066,1.0596l-3.611-1.5067
		c-0.436,0.6724-0.8432,1.369-1.207,2.0873l3.1086,2.3763c-0.1844,0.4008-0.3604,0.8122-0.5151,1.2308l-3.8727-0.5215
		c-0.2474,0.7603-0.4598,1.5377-0.6239,2.3308l3.6178,1.491c-0.074,0.434-0.1309,0.8738-0.1751,1.321l-3.8736,0.5016
		c-0.0229,0.3966-0.0357,0.7994-0.0357,1.2045c0,0.4055,0.0127,0.8062,0.0357,1.2049l3.8736,0.5036
		c0.0442,0.4445,0.1011,0.887,0.1751,1.3184l-3.6178,1.4918c0.1641,0.7901,0.3765,1.5675,0.6239,2.3278l3.8727-0.5169
		c0.1548,0.4162,0.3307,0.828,0.5151,1.2309l-3.1086,2.372c0.3639,0.7204,0.771,1.417,1.2088,2.0847l3.6093-1.5024
		c0.2592,0.3638,0.5236,0.7186,0.8066,1.0578l-2.3834,3.095c0.5389,0.5996,1.1084,1.1692,1.7043,1.706l3.0966-2.3852
		c0.3417,0.2826,0.6962,0.5521,1.0583,0.8084l-1.5045,3.6093c0.6698,0.4398,1.366,0.8432,2.0868,1.2087l2.3716-3.1077
		c0.4028,0.1866,0.8152,0.3618,1.2317,0.5151l-0.5202,3.872c0.7608,0.2495,1.5386,0.4556,2.3325,0.6217l1.4901-3.616
		c0.4336,0.0722,0.8738,0.1339,1.3185,0.1756l0.4989,3.8766c0.4029,0.0196,0.8042,0.0306,1.2097,0.0306
		c0.4046,0,0.805-0.011,1.2045-0.0306l0.5032-3.8766c0.4471-0.0417,0.8849-0.1033,1.3184-0.1756l1.4893,3.616
		c0.7931-0.1662,1.5725-0.3723,2.3307-0.6217l-0.5176-3.872c0.4165-0.1534,0.8237-0.3285,1.2317-0.5151l2.3734,3.1077
		c0.7191-0.3655,1.411-0.7688,2.0876-1.2087l-1.5045-3.6093c0.363-0.2563,0.714-0.5257,1.0558-0.8084l3.0975,2.3852
		c0.5976-0.5368,1.1646-1.1063,1.7035-1.7081l-2.3852-3.0928c0.2822-0.3392,0.5499-0.6941,0.8083-1.0578l3.6084,1.5024
		c0.4411-0.6677,0.8458-1.3643,1.2138-2.0847l-3.1102-2.372c0.1844-0.405,0.3596-0.8147,0.5126-1.2309l3.8727,0.5169
		c0.2499-0.7603,0.4598-1.5377,0.6214-2.3278l-3.6136-1.4918c0.0705-0.4314,0.1318-0.8738,0.1709-1.3184L453.8843,168.8292z
		 M430.2712,181.0613c-6.3149-0.7753-11.2842-5.8916-11.8274-12.2762h11.8274V181.0613z M430.2712,165.4563H418.562
		c0.9503-5.9132,5.725-10.5434,11.7093-11.2791V165.4563z M431.8566,168.4637c-0.6316,0-1.1458-0.5151-1.1458-1.1479
		c0-0.6376,0.5142-1.1497,1.1458-1.1497c0.635,0,1.1492,0.5121,1.1492,1.1497
		C433.0058,167.9486,432.4915,168.4637,431.8566,168.4637z M433.5991,154.1772c5.9843,0.7357,10.7589,5.3659,11.7084,11.2791
		h-11.7084V154.1772z M433.5991,181.0613v-12.2762h11.8317C444.8833,175.1696,439.9157,180.286,433.5991,181.0613z"/>
	<g>
		<path d="M412.837,208.9879l7.678,7.1915l0.6613,0.6194l0.9017-0.0887c1.2278-0.1208,2.4913-0.1821,3.7555-0.1821l0.3152,0.0012
			c1.3669,0.012,2.7373,0.0952,4.0729,0.2473l0.8984,0.1023l0.6703-0.6069l7.7975-7.0603c3.3278,0.9988,6.5348,2.3591,9.5596,4.055
			l0.3467,10.5158l0.0298,0.9041l0.6987,0.5746c2.0924,1.7209,4.0125,3.6731,5.7067,5.8025l0.5631,0.7077l0.9033,0.0446
			l10.5049,0.5189c1.6506,3.0633,2.959,6.2931,3.9001,9.6275l-7.1894,7.6783l-0.6172,0.6591l0.0862,0.8988
			c0.1312,1.367,0.1913,2.7378,0.1787,4.079c-0.0094,1.338-0.0927,2.7067-0.2473,4.0681l-0.1021,0.8982l0.6068,0.6701l7.0602,7.7967
			c-0.999,3.3282-2.3596,6.5359-4.0558,9.5619l-10.5145,0.3444l-0.905,0.0297l-0.5748,0.6996
			c-1.7232,2.0974-3.675,4.0171-5.8009,5.7056l-0.7089,0.563l-0.0448,0.9042l-0.5205,10.5095
			c-3.0559,1.6468-6.2844,2.9535-9.6239,3.8951l-7.681-7.189l-0.6587-0.6165l-0.898,0.0857
			c-1.2684,0.121-2.5194,0.1824-3.7184,0.1824l-0.3617-0.0018c-1.3164-0.0093-2.6856-0.0929-4.0697-0.2485l-0.8972-0.1009
			l-0.6691,0.6061l-7.7949,7.0616c-3.3283-0.9992-6.5357-2.3599-9.5619-4.0565l-0.3466-10.5149l-0.0298-0.9048l-0.6995-0.5747
			c-2.0854-1.7131-4.0063-3.6654-5.7093-5.8025l-0.563-0.7066l-0.9024-0.0446l-10.5042-0.5189
			c-1.6448-3.0523-2.9529-6.2822-3.8992-9.6284l7.1926-7.678l0.6205-0.6624l-0.09-0.9032
			c-0.1323-1.3278-0.1937-2.6967-0.1823-4.0679c0.012-1.3643,0.0952-2.7349,0.2474-4.0737l0.1021-0.8984l-0.607-0.6701
			l-7.0608-7.7953c0.9986-3.3264,2.3592-6.5338,4.0559-9.5614l10.5144-0.3448l0.9038-0.0297l0.5747-0.6982
			c1.7318-2.1036,3.6848-4.0241,5.8048-5.708l0.709-0.5631l0.0446-0.9043l0.5188-10.507
			C406.2683,211.2386,409.4973,209.931,412.837,208.9879 M413.3913,206.7667c-4.291,1.1059-8.3601,2.7686-12.1224,4.9086
			l-0.5737,11.6187c-2.2415,1.7804-4.2859,3.7933-6.105,6.003l-11.6267,0.3813c-2.2033,3.7278-3.9314,7.7684-5.1079,12.0412
			l7.8084,8.6206c-0.1598,1.4059-0.2474,2.834-0.2601,4.282c-0.0119,1.4455,0.0518,2.8757,0.1921,4.2837l-7.9547,8.4915
			c1.1084,4.291,2.7686,8.3601,4.9106,12.1249l11.6157,0.5738c1.7834,2.2381,3.7937,4.2859,6.0038,6.1015l0.3833,11.6268
			c3.7274,2.2042,7.7659,3.9314,12.0416,5.1087l8.6202-7.8093c1.406,0.1581,2.834,0.2508,4.2791,0.261
			c0.1253,0.0013,0.2507,0.0019,0.3758,0.0019c1.3181,0,2.6227-0.0688,3.9084-0.1914l8.4935,7.9495
			c4.2885-1.1033,8.3601-2.766,12.1206-4.9055l0.5755-11.6208c2.239-1.7783,4.2859-3.7912,6.1024-6.0021l11.6268-0.3808
			c2.2033-3.7265,3.9314-7.7685,5.1079-12.0416l-7.8075-8.6219c0.1598-1.4063,0.2499-2.8323,0.2601-4.2798
			c0.0136-1.4476-0.0527-2.8757-0.1878-4.2842l7.9504-8.491c-1.1042-4.2901-2.7695-8.3592-4.9106-12.1245l-11.6166-0.5738
			c-1.7808-2.2381-3.7937-4.2863-6.0013-6.1019l-0.3833-11.6276c-3.7257-2.2033-7.7685-3.9314-12.0391-5.107l-8.6227,7.8075
			c-1.4034-0.1598-2.834-0.2474-4.2816-0.2601c-0.111-0.0009-0.222-0.0013-0.3328-0.0013c-1.3326,0-2.6511,0.0638-3.9514,0.1917
			L413.3913,206.7667L413.3913,206.7667z"/>
	</g>
	<g>
		<path d="M145.416,241.1174l7.6777,7.1891l0.6594,0.6175l0.8992-0.0866c1.2595-0.1212,2.535-0.1827,3.7912-0.1827l0.2835,0.001
			c1.3729,0.0129,2.743,0.097,4.0721,0.25l0.9001,0.1036l0.6715-0.6084l7.7949-7.0624c3.3279,0.9987,6.5353,2.3598,9.5615,4.0574
			l0.3448,10.5133l0.0297,0.9042l0.6987,0.5747c2.0976,1.7256,4.0176,3.6784,5.7069,5.8043l0.5632,0.7087l0.9042,0.0446
			l10.5068,0.5181c1.6465,3.0547,2.954,6.2849,3.8975,9.6285l-7.1898,7.6756l-0.6185,0.6602l0.0875,0.9004
			c0.1314,1.3526,0.1922,2.7232,0.1806,4.0745c-0.0111,1.3491-0.0948,2.718-0.2489,4.0687l-0.1026,0.8989l0.6073,0.6705
			l7.0618,7.7967c-0.9983,3.3265-2.3589,6.5341-4.0564,9.562l-10.5146,0.3475l-0.9036,0.0298l-0.5746,0.6981
			c-1.7263,2.0974-3.6785,4.0171-5.8025,5.7059l-0.7081,0.563l-0.0447,0.9036l-0.5201,10.5074
			c-3.0587,1.6473-6.2883,2.9546-9.6268,3.8969l-7.6782-7.1901l-0.6608-0.6187l-0.901,0.0881
			c-1.2395,0.1212-2.4911,0.1827-3.7201,0.1827l-0.3549-0.0016c-1.3428-0.0103-2.7114-0.0941-4.0678-0.249l-0.899-0.1027
			l-0.6706,0.6075l-7.7965,7.062c-3.3234-0.9967-6.5308-2.3576-9.5615-4.0568l-0.3448-10.5121l-0.0297-0.9041l-0.6985-0.5747
			c-2.1-1.728-4.0204-3.6807-5.708-5.8041l-0.5631-0.7086l-0.9039-0.0446l-10.5061-0.5188c-1.6476-3.058-2.9551-6.2879-3.8976-9.628
			l7.1895-7.6792l0.6182-0.6603l-0.0876-0.9002c-0.1315-1.3523-0.1926-2.7225-0.1815-4.0707
			c0.0123-1.3573,0.0961-2.7286,0.2491-4.0759l0.102-0.8983l-0.6069-0.67l-7.0602-7.7944c0.9957-3.3194,2.3565-6.5276,4.0562-9.5622
			l10.5135-0.3444l0.9047-0.0296l0.5748-0.6992c1.7232-2.0961,3.6754-4.0164,5.8025-5.7075l0.7083-0.563l0.0447-0.9037
			l0.5196-10.5053C138.8469,243.3664,142.0765,242.0589,145.416,241.1174 M145.9705,238.8967
			c-4.2901,1.1034-8.3596,2.7656-12.1236,4.9077l-0.5746,11.6166c-2.2395,1.7804-4.2864,3.7933-6.1029,6.003l-11.6263,0.3808
			c-2.202,3.7291-3.9327,7.7693-5.1075,12.0424l7.8075,8.6194c-0.1598,1.4077-0.2486,2.834-0.2617,4.2833
			c-0.0119,1.4468,0.054,2.8757,0.1908,4.2825l-7.9504,8.4919c1.105,4.2917,2.7673,8.3609,4.9081,12.1249l11.6178,0.5737
			c1.7808,2.2407,3.7934,4.2859,6.003,6.1041l0.3813,11.6242c3.7278,2.2041,7.7684,3.9339,12.0416,5.1087l8.6215-7.8093
			c1.4059,0.1606,2.8332,0.2508,4.2795,0.2618c0.1234,0.0012,0.247,0.0017,0.3702,0.0017c1.3207,0,2.6269-0.0662,3.9148-0.1922
			l8.491,7.9513c4.291-1.1051,8.3601-2.7677,12.1236-4.9073l0.5751-11.6192c2.2386-1.7799,4.285-3.7928,6.1019-6.0003
			l11.6264-0.3842c2.2032-3.7266,3.9323-7.7684,5.1082-12.0416l-7.8092-8.6219c0.1602-1.4034,0.2499-2.8314,0.2617-4.2791
			c0.0124-1.4459-0.0531-2.8757-0.1899-4.2842l7.9512-8.4884c-1.1059-4.2944-2.7673-8.3635-4.9085-12.1257l-11.6183-0.5729
			c-1.7808-2.2411-3.7924-4.2867-6.0021-6.1046l-0.3813-11.625c-3.7278-2.2058-7.7685-3.934-12.0416-5.11l-8.6202,7.8101
			c-1.4064-0.1619-2.8353-0.2495-4.282-0.263c-0.1008-0.0007-0.2016-0.0011-0.3023-0.0011c-1.3444,0-2.6724,0.0658-3.9828,0.1919
			L145.9705,238.8967L145.9705,238.8967z"/>
	</g>
	<g>
		<path class="st17" d="M297.2632,349.7988l-0.6724,0.04c-1.7007,0.1006-3.2793,0.1494-4.8252,0.1494
			c-1.5503,0-3.1294-0.0488-4.8267-0.1494l-0.6719-0.04l-5.458,11.4492c-4.5347-0.5449-9.0337-1.4326-13.396-2.6436l-0.6567-12.667
			l-0.6387-0.2188c-3.0229-1.04-6.0273-2.2852-8.9292-3.7021l-0.6069-0.2959l-9.4165,8.4854
			c-3.9614-2.2432-7.7734-4.7949-11.3486-7.5977l4.2383-11.9551l-0.5054-0.4473c-2.4058-2.1289-4.7012-4.4238-6.8223-6.8213
			l-0.4473-0.5049l-11.9556,4.2373c-2.8071-3.5811-5.3589-7.3926-7.5962-11.3477l8.4858-9.4199l-0.2969-0.6064
			c-1.4092-2.8799-2.6548-5.8828-3.7036-8.9268l-0.2192-0.6387l-12.666-0.6602c-1.2109-4.3594-2.0991-8.8574-2.6445-13.3926
			l11.4517-5.459l-0.0405-0.6719c-0.1016-1.6973-0.1514-3.2754-0.1514-4.8252c0-1.5527,0.0498-3.1318,0.1514-4.8271l0.0405-0.6729
			l-11.4517-5.4561c0.5454-4.5361,1.4336-9.0342,2.644-13.3955l12.6665-0.6582l0.2197-0.6387
			c1.0396-3.0254,2.2852-6.0293,3.7021-8.9287l0.2964-0.6074l-8.4844-9.417c2.2363-3.9541,4.7881-7.7666,7.5962-11.3496
			l11.9546,4.2393l0.4473-0.5059c2.1245-2.4014,4.4204-4.6973,6.8232-6.8232l0.5054-0.4473l-4.2383-11.9546
			c3.5757-2.8042,7.3872-5.3555,11.3481-7.5952l9.4175,8.4858l0.6069-0.2969c2.8906-1.4146,5.8945-2.6611,8.9287-3.7046
			l0.6387-0.2197l0.6567-12.665c4.3569-1.21,8.8564-2.0981,13.3955-2.6445l5.4561,11.4492l0.6724-0.04
			c1.6616-0.0986,3.2861-0.1489,4.8286-0.1489c1.5605,0,3.1387,0.0488,4.8247,0.1489l0.6724,0.04l5.4561-11.4492
			c4.5391,0.5459,9.0381,1.4341,13.3955,2.644l0.6592,12.6655l0.6387,0.2192c3.0342,1.0449,6.0381,2.2915,8.9277,3.7051
			l0.6064,0.2969l9.4209-8.4858c3.957,2.2378,7.7676,4.7891,11.3447,7.5952l-4.2354,11.9546l0.5049,0.4473
			c2.4092,2.1328,4.7041,4.4287,6.8213,6.8232l0.4473,0.5059l11.957-4.2393c2.8066,3.583,5.3584,7.3955,7.5967,11.3496
			l-8.4883,9.418l0.2969,0.6064c1.417,2.8945,2.6631,5.8984,3.7051,8.9287l0.2188,0.6387l12.668,0.6582
			c1.2061,4.3428,2.0938,8.8418,2.6436,13.3955l-11.4512,5.4561l0.04,0.6729c0.1016,1.7041,0.1514,3.2832,0.1514,4.8271
			c0,1.541-0.0498,3.1191-0.1514,4.8252l-0.04,0.6729l11.4512,5.458c-0.5479,4.541-1.4375,9.0391-2.6455,13.3926l-12.668,0.6602
			l-0.2188,0.6387c-1.041,3.0273-2.2861,6.0312-3.7031,8.9287l-0.2969,0.6074l8.4883,9.417
			c-2.2422,3.9619-4.7949,7.7734-7.5996,11.3477l-11.9541-4.2373l-0.4473,0.5049c-2.1211,2.3975-4.416,4.6924-6.8213,6.8213
			l-0.5049,0.4473l4.2354,11.9561c-3.5781,2.8047-7.3887,5.3564-11.3447,7.5967l-9.4199-8.4854l-0.6064,0.2959
			c-2.8945,1.4131-5.8984,2.6592-8.9287,3.7021l-0.6387,0.2197l-0.6592,12.666c-4.3633,1.2109-8.8623,2.0986-13.3955,2.6436
			L297.2632,349.7988z"/>
		<path d="M303.3117,182.1672c4.0074,0.5147,7.9788,1.2986,11.8407,2.337l0.5872,11.2694l0.0702,1.3478l1.2761,0.4392
			c2.9971,1.0317,5.9629,2.2623,8.8148,3.6575l1.2136,0.5938l1.0039-0.9043l8.3808-7.5497
			c3.4817,2.0062,6.8452,4.2582,10.0292,6.7148l-3.7687,10.639l-0.4503,1.2714l1.0099,0.894
			c2.3763,2.1036,4.6422,4.3703,6.7345,6.7371l0.8943,1.0116l1.2725-0.4512l10.6401-3.7728
			c2.4549,3.1854,4.7072,6.5507,6.7153,10.0336l-7.5511,8.3784l-0.905,1.0042l0.5944,1.2141c1.4,2.8599,2.6304,5.8251,3.6569,8.8134
			l0.4388,1.2774l1.3488,0.0702l11.2717,0.5865c1.0353,3.8527,1.8187,7.8242,2.3355,11.8411l-10.1916,4.8559l-1.2169,0.5798
			l0.0807,1.3455c0.1011,1.6855,0.1503,3.2448,0.1503,4.7671c0,1.5193-0.0492,3.0782-0.1503,4.7655l-0.0806,1.3451l1.2164,0.5799
			l10.1919,4.8584c-0.5164,4.0096-1.3004,7.9797-2.338,11.8386l-11.2711,0.5881l-1.3483,0.0703l-0.4389,1.2768
			c-1.0294,2.9945-2.2592,5.9599-3.6555,8.8138l-0.5939,1.214l0.9048,1.0039l7.5511,8.3787
			c-2.0106,3.4867-4.2632,6.8508-6.7171,10.0316l-10.6384-3.7708l-1.2719-0.4508l-0.8942,1.0107
			c-2.0946,2.3677-4.3606,4.6336-6.7349,6.7348l-1.0101,0.8939l0.4503,1.2715l3.7686,10.6407
			c-3.185,2.4556-6.5485,4.7077-10.0295,6.7154l-8.3803-7.5497l-1.0034-0.9039l-1.2134,0.5929
			c-2.8554,1.3952-5.8213,2.625-8.8154,3.6553l-1.2763,0.4391l-0.0702,1.3479l-0.5872,11.2695
			c-3.8661,1.0399-7.8371,1.8237-11.8405,2.3369l-4.8564-10.1907l-0.5795-1.2159l-1.3446,0.0799
			c-1.6842,0.1-3.2431,0.1486-4.7657,0.1486c-1.5273,0-3.0867-0.0486-4.7672-0.1486l-1.3446-0.08l-0.5796,1.2159l-4.8579,10.1909
			c-4.0043-0.5135-7.9758-1.2972-11.842-2.3369l-0.5846-11.269l-0.07-1.3486l-1.277-0.4391
			c-2.9857-1.0265-5.9517-2.2563-8.8155-3.6552l-1.2134-0.5927l-1.0032,0.9041l-8.3778,7.5494
			c-3.4854-2.0101-6.8501-4.2627-10.0328-6.7166l3.7719-10.6387l0.451-1.272l-1.0108-0.8943
			c-2.3741-2.1003-4.6406-4.3662-6.7365-6.7348l-0.8941-1.0104l-1.2717,0.4507l-10.6392,3.7707
			c-2.4568-3.1864-4.7088-6.5504-6.7154-10.0315l7.5496-8.3806l0.9045-1.0041l-0.5942-1.2138
			c-1.3896-2.8388-2.6197-5.8039-3.6561-8.8129l-0.4394-1.2757l-1.3474-0.0703l-11.2697-0.5881
			c-1.0394-3.8642-1.8233-7.834-2.3378-11.8383l10.1927-4.8586l1.2168-0.58l-0.0809-1.3455
			c-0.1008-1.6761-0.1498-3.2348-0.1498-4.765c0-1.5332,0.049-3.0923,0.1498-4.7667l0.081-1.3458l-1.2172-0.58l-10.1924-4.8561
			c0.5143-4.0038,1.2979-7.975,2.3369-11.8409l11.2703-0.5865l1.3484-0.0702l0.439-1.2769c1.0279-2.9901,2.2576-5.9559,3.655-8.815
			l0.5931-1.2134l-0.904-1.0034l-7.5483-8.3786c2.0065-3.4816,4.2589-6.8468,6.7154-10.0336l10.638,3.7728l1.2721,0.4512
			l0.8944-1.011c2.1017-2.3759,4.3683-4.6425,6.7368-6.7368l1.0113-0.8943l-0.4511-1.2723L237,200.0725
			c3.1831-2.455,6.548-4.7072,10.0324-6.7147l8.3783,7.5495l1.0042,0.9048l1.214-0.5943c2.8511-1.3957,5.8167-2.6261,8.8142-3.6571
			l1.2769-0.4392l0.0699-1.3485l0.5846-11.2689c3.862-1.0381,7.8335-1.8219,11.8419-2.337l4.8553,10.1901l0.5794,1.2161
			l1.3447-0.0799c1.6685-0.0991,3.2288-0.1473,4.77-0.1473c1.5374,0,3.0963,0.0482,4.7657,0.1473l1.3446,0.0798l0.5795-1.2159
			L303.3117,182.1672 M302.1244,180.0098l-5.4743,11.4873c-1.6167-0.096-3.2445-0.1508-4.8842-0.1508
			c-1.6431,0-3.2727,0.0548-4.8885,0.1508l-5.4734-11.4873c-5.1223,0.5763-10.1188,1.5683-14.9521,2.9526l-0.6593,12.7071
			c-3.1077,1.0689-6.1258,2.324-9.043,3.752l-9.4481-8.5135c-4.4635,2.4774-8.6992,5.3153-12.6668,8.4778l4.2523,11.9935
			c-2.4422,2.1595-4.7495,4.4677-6.9099,6.9099l-11.9936-4.2536c-3.1613,3.9688-6,8.2046-8.4782,12.668l8.5123,9.4486
			c-1.4268,2.9194-2.6819,5.9375-3.7495,9.043l-12.7085,0.6614c-1.3831,4.8312-2.3763,9.8272-2.9522,14.9508l11.4895,5.4742
			c-0.0973,1.616-0.1534,3.2454-0.1534,4.8869c0,1.6406,0.0561,3.2675,0.1534,4.8851l-11.4895,5.4768
			c0.5759,5.1223,1.5691,10.1171,2.9534,14.9478l12.7072,0.6631c1.0689,3.1035,2.3226,6.1236,3.7507,9.0409l-8.5135,9.4507
			c2.4782,4.4627,5.317,8.6975,8.4782,12.6655l11.9944-4.251c2.1596,2.4405,4.4686,4.7483,6.9091,6.9073l-4.2523,11.994
			c3.9676,3.1613,8.2033,5.9995,12.6668,8.4799l9.4481-8.5139c2.9199,1.4263,5.9353,2.681,9.043,3.7495l0.6593,12.7071
			c4.8333,1.3847,9.8297,2.3776,14.9521,2.9522l5.4759-11.4873c1.6133,0.096,3.2429,0.1521,4.886,0.1521
			c1.6397,0,3.2675-0.0562,4.8842-0.1521l5.4743,11.4873c5.1257-0.5746,10.1188-1.5675,14.9504-2.9522l0.6621-12.7071
			c3.1052-1.0685,6.1237-2.3232,9.0427-3.7495l9.4507,8.5139c4.4635-2.4804,8.6967-5.3186,12.663-8.4782l-4.2485-11.9957
			c2.4396-2.1591,4.7483-4.4669,6.9073-6.9073l11.9932,4.251c3.163-3.9671,6.0012-8.2028,8.4807-12.6655l-8.5157-9.449
			c1.4281-2.919,2.6836-5.9391,3.7504-9.0426l12.7089-0.6631c1.3839-4.8307,2.3759-9.8255,2.9539-14.9478l-11.4891-5.4768
			c0.097-1.6176,0.1539-3.2445,0.1539-4.8851c0-1.6415-0.0569-3.2709-0.1539-4.8869l11.4891-5.4742
			c-0.5781-5.1236-1.5675-10.1196-2.9514-14.9508l-12.7097-0.6614c-1.0668-3.1055-2.324-6.1258-3.7521-9.043l8.5157-9.4486
			c-2.4796-4.4635-5.3178-8.6992-8.4782-12.668l-11.9957,4.2536c-2.159-2.4422-4.4678-4.7504-6.9073-6.9099l4.2485-11.9935
			c-3.9663-3.1626-8.1995-6.0004-12.663-8.4778l-9.4507,8.5135c-2.919-1.428-5.9375-2.6831-9.0427-3.752l-0.6621-12.7071
			C312.2432,181.5781,307.2501,180.5861,302.1244,180.0098L302.1244,180.0098z"/>
	</g>
	<path class="st1" d="M222.8561,183.9785c0.0939-1.4366,0.1462-2.8845,0.1462-4.3432c0-1.4608-0.0523-2.9084-0.1462-4.3454
		l-15.6805-3.9246c-0.5398-3.2786-1.3954-6.45-2.5352-9.4855l11.622-11.2422c-1.2856-2.6084-2.7388-5.1202-4.3463-7.5186
		l-15.5535,4.4461c-2.0826-2.5318-4.4066-4.8558-6.9371-6.9388l4.4448-15.554c-2.3984-1.6079-4.9106-3.0601-7.5177-4.3454
		l-11.2443,11.6208c-3.0333-1.139-6.2057-1.9933-9.4843-2.5343l-3.925-15.681c-1.4366-0.0918-2.883-0.1446-4.3441-0.1446
		c-1.4608,0-2.9084,0.0527-4.3441,0.1446l-3.9246,15.681c-3.2786,0.5411-6.4513,1.3953-9.4847,2.5343l-11.2442-11.6208
		c-2.6084,1.2853-5.1194,2.7375-7.5178,4.3454l4.4453,15.554c-2.5305,2.083-4.855,4.4069-6.9389,6.9388l-15.5522-4.4461
		c-1.6082,2.3984-3.0605,4.9102-4.3462,7.5186l11.622,11.2422c-1.1399,3.0355-1.995,6.2069-2.5352,9.4855l-15.681,3.9246
		c-0.0936,1.437-0.1458,2.8846-0.1458,4.3454c0,1.4587,0.0522,2.9066,0.1458,4.3432l15.681,3.9246
		c0.5402,3.279,1.3953,6.4522,2.5352,9.4856l-11.622,11.2443c1.2856,2.6062,2.738,5.1184,4.3462,7.5164l15.5535-4.4436
		c2.0825,2.5297,4.407,4.8533,6.9375,6.9359l-4.4453,15.5522c2.3984,1.61,4.9094,3.0622,7.5178,4.3475l11.2442-11.6208
		c3.0334,1.139,6.2061,1.995,9.4847,2.5343l3.9246,15.6815c1.4357,0.0939,2.8833,0.1466,4.3441,0.1466
		c1.4612,0,2.9076-0.0527,4.3441-0.1466l3.925-15.6815c3.2786-0.5393,6.451-1.3953,9.4843-2.5343l11.2443,11.6208
		c2.607-1.2853,5.1193-2.7375,7.5177-4.3475l-4.4448-15.5522c2.5305-2.0826,4.8545-4.4061,6.9371-6.9359l15.5535,4.4436
		c1.6074-2.3979,3.0606-4.9102,4.3463-7.5164l-11.622-11.2443c1.1398-3.0334,1.9954-6.2065,2.5352-9.4856L222.8561,183.9785z"/>
	<path d="M158.54,220.3566c-0.7072,0-1.4247-0.0196-2.1298-0.0544l0.1097-2.072c1.3498,0.0722,2.7286,0.0722,4.0789-0.0025
		l0.1105,2.072C159.991,220.337,159.2617,220.3566,158.54,220.3566z M152.1337,219.8424c-1.4124-0.2282-2.8264-0.5368-4.2018-0.9176
		l0.5521-1.9976c1.304,0.3587,2.6432,0.6524,3.9815,0.8696L152.1337,219.8424z M164.9858,219.8356l-0.3344-2.0456
		c1.3384-0.2168,2.6775-0.5122,3.982-0.8738l0.5538,1.9971C167.8109,219.297,166.3973,219.6078,164.9858,219.8356z
		 M143.8518,217.5536c-1.3273-0.5283-2.6414-1.137-3.905-1.8068l0.9711-1.831c1.1982,0.635,2.4431,1.2109,3.7007,1.7124
		L143.8518,217.5536z M173.263,217.5405l-0.7671-1.9254c1.2559-0.5036,2.5008-1.0795,3.6976-1.717l0.9738,1.8309
		C175.9036,216.4015,174.5903,217.0101,173.263,217.5405z M136.2606,213.5279c-1.1816-0.8016-2.3338-1.6776-3.424-2.6041
		l1.3413-1.579c1.0336,0.8781,2.1251,1.7061,3.2467,2.4681L136.2606,213.5279z M180.8487,213.5083l-1.165-1.7149
		c1.119-0.7599,2.2105-1.5921,3.2437-2.4702l1.3427,1.579C183.1804,211.8283,182.0294,212.7046,180.8487,213.5083z
		 M129.7119,207.9674c-0.9831-1.0362-1.9215-2.1379-2.7877-3.2743l1.6486-1.2572c0.8207,1.0774,1.7099,2.1221,2.6428,3.1056
		L129.7119,207.9674z M187.3918,207.9432l-1.5058-1.4259c0.9321-0.9835,1.8211-2.0278,2.6414-3.1077l1.6499,1.2551
		C189.3116,205.8032,188.3745,206.9048,187.3918,207.9432z M124.5051,201.1382c-0.7391-1.224-1.4192-2.5012-2.0201-3.7954
		l1.8802-0.8738c0.5691,1.2262,1.213,2.4375,1.9139,3.5961L124.5051,201.1382z M192.5945,201.1076l-1.7761-1.071
		c0.6996-1.1607,1.3434-2.3716,1.9129-3.6007l1.8803,0.8717C194.0119,198.6021,193.3327,199.8815,192.5945,201.1076z
		 M120.8868,193.3481c-0.4569-1.3558-0.8445-2.7486-1.1518-4.1461l2.0248-0.4445c0.2911,1.3226,0.6579,2.6436,1.0914,3.9272
		L120.8868,193.3481z M196.2063,193.3085l-1.9657-0.6613c0.4327-1.2836,0.7982-2.6041,1.0885-3.9292l2.026,0.445
		C197.0482,190.56,196.6615,191.9553,196.2063,193.3085z M119.0393,184.9573c-0.153-1.417-0.2321-2.8599-0.2342-4.2926
		l2.0742-0.0021c0.0012,1.3579,0.0756,2.729,0.221,4.0716L119.0393,184.9573z M198.0444,184.9157l-2.0605-0.2214
		c0.1446-1.3422,0.2176-2.7129,0.2176-4.0712v-0.0808h2.0733v0.0808C198.2749,182.0554,198.197,183.5008,198.0444,184.9157z
		 M121.0926,176.5913l-2.0618-0.2214c0.1509-1.4238,0.3821-2.8518,0.6864-4.2446l2.026,0.4403
		C121.4543,173.8865,121.2362,175.2398,121.0926,176.5913z M195.9751,176.4728c-0.1475-1.349-0.3715-2.7027-0.6639-4.0232
		l2.0251-0.4467c0.3086,1.3928,0.544,2.8209,0.7,4.2442L195.9751,176.4728z M122.8267,168.6342l-1.9649-0.6587
		c0.4544-1.3558,0.9891-2.701,1.5887-3.9973l1.8816,0.8675C123.7638,166.076,123.2576,167.3506,122.8267,168.6342z
		 M194.2164,168.5245c-0.4348-1.2831-0.9449-2.5556-1.5178-3.7843l1.879-0.8738c0.6048,1.2963,1.1433,2.6389,1.6023,3.9926
		L194.2164,168.5245z M126.2404,161.2427l-1.7757-1.0689c0.7357-1.2244,1.5475-2.4222,2.4133-3.5612l1.6507,1.2551
		C127.7092,158.9472,126.9396,160.0815,126.2404,161.2427z M190.7801,161.1462c-0.7009-1.1586-1.4739-2.2912-2.2964-3.3687
		l1.647-1.2589c0.8688,1.1364,1.6831,2.3325,2.4235,3.5522L190.7801,161.1462z M131.1663,154.7573l-1.5071-1.4255
		c0.9826-1.0383,2.0316-2.035,3.1192-2.961l1.3443,1.5768C133.0929,152.8257,132.0972,153.7722,131.1663,154.7573z
		 M185.8371,154.6745c-0.9334-0.9813-1.9312-1.9232-2.9657-2.7991l1.3405-1.5815c1.0907,0.9244,2.1429,1.9185,3.1277,2.9526
		L185.8371,154.6745z M137.3635,149.4748l-1.1662-1.7124c1.1815-0.8063,2.4188-1.5551,3.6794-2.2254l0.975,1.8288
		C139.6573,148.003,138.4835,148.7107,137.3635,149.4748z M179.6226,149.4115c-1.1225-0.7599-2.3002-1.4676-3.4958-2.1004
		l0.9704-1.831c1.2614,0.6677,2.5021,1.4128,3.6883,2.2144L179.6226,149.4115z M144.5484,145.6467l-0.7714-1.9253
		c1.3286-0.5321,2.6998-0.9962,4.0751-1.3775l0.5563,1.995C147.1053,144.7023,145.8065,145.1426,144.5484,145.6467z
		 M172.4244,145.6029c-1.2593-0.4998-2.5594-0.9355-3.8664-1.295l0.5505-1.9972c1.3787,0.3787,2.752,0.839,4.0802,1.3668
		L172.4244,145.6029z M152.3887,143.4608l-0.3362-2.046c1.4085-0.2295,2.8476-0.3876,4.2765-0.4662l0.1126,2.0694
		C155.0872,143.0928,153.7237,143.2419,152.3887,143.4608z M164.5748,143.443c-1.3338-0.2146-2.6968-0.3591-4.0539-0.4314
		l0.1071-2.0698c1.4302,0.0748,2.8693,0.2282,4.2765,0.4535L164.5748,143.443z"/>
	<path d="M426.6611,290.1508c-0.7098,0-1.423-0.023-2.1285-0.0646l0.125-2.069c1.338,0.0799,2.709,0.0799,4.0359-0.0016
		l0.1317,2.0689C428.1113,290.1278,427.3819,290.1508,426.6611,290.1508z M420.2706,289.5541
		c-1.4059-0.2643-2.8077-0.6231-4.1609-1.0618l0.6393-1.9737c1.27,0.4139,2.5841,0.7497,3.9068,0.9987L420.2706,289.5541z
		 M433.0831,289.5481l-0.3859-2.0367c1.3184-0.2491,2.6325-0.5865,3.9068-1.0013l0.64,1.9712
		C435.8865,288.9234,434.4883,289.2812,433.0831,289.5481z M412.1102,286.9122c-1.2887-0.6078-2.556-1.3048-3.7631-2.0707
		l1.1127-1.7494c1.1323,0.7175,2.3223,1.3729,3.5344,1.9433L412.1102,286.9122z M441.2393,286.8977l-0.8849-1.8752
		c1.2087-0.5721,2.3979-1.2257,3.5301-1.9465l1.1127,1.751C443.7919,285.5929,442.5262,286.2882,441.2393,286.8977z
		 M404.8731,282.316c-1.1034-0.9112-2.1548-1.899-3.1316-2.9385l1.5097-1.4196c0.9172,0.9767,1.91,1.9049,2.9436,2.7609
		L404.8731,282.316z M448.4688,282.2982l-1.3235-1.5972c1.032-0.856,2.0223-1.7842,2.942-2.7609l1.5114,1.4195
		C450.6211,280.3975,449.5678,281.3869,448.4688,282.2982z M398.9993,276.0717c-0.8407-1.1535-1.6159-2.3707-2.3061-3.6194
		l1.8165-1.0005c0.6452,1.1705,1.3745,2.3147,2.165,3.401L398.9993,276.0717z M454.3357,276.0504l-1.6754-1.2207
		c0.7906-1.0838,1.5181-2.2313,2.1667-3.4052l1.8131,1.0006C455.9525,273.6729,455.1773,274.8961,454.3357,276.0504z
		 M394.8605,268.571c-0.5278-1.3286-0.9766-2.6996-1.3319-4.0852l2.0086-0.5135c0.3357,1.298,0.7556,2.5875,1.2504,3.8345
		L394.8605,268.571z M458.4737,268.5378l-1.9296-0.7616c0.4947-1.2513,0.9146-2.5416,1.2479-3.843l2.0086,0.5176
		C459.4453,265.8322,458.999,267.2093,458.4737,268.5378z M392.7227,260.2679c-0.1751-1.4103-0.267-2.851-0.2695-4.2838
		l2.0741-0.0026c0,1.3478,0.0876,2.7027,0.2542,4.0279L392.7227,260.2679z M460.5995,260.2309l-2.0562-0.2584
		c0.1649-1.3278,0.2499-2.6827,0.2499-4.0279v-0.0744h2.0742v0.0744C460.8674,257.3747,460.7756,258.8181,460.5995,260.2309z
		 M394.7729,251.9541l-2.0587-0.2563c0.1768-1.4192,0.4446-2.8383,0.7973-4.2205l2.0086,0.5126
		C395.1886,249.2867,394.9396,250.6204,394.7729,251.9541z M458.5323,251.8465c-0.1666-1.3337-0.4249-2.6653-0.7574-3.9615
		l2.0061-0.5194c0.3571,1.3817,0.6282,2.8013,0.8101,4.2183L458.5323,251.8465z M396.7621,244.1507l-1.9279-0.762
		c0.521-1.3274,1.139-2.6372,1.8258-3.8902l1.8165,0.9988C397.8297,241.6738,397.2516,242.9021,396.7621,244.1507z M456.5203,244.05
		c-0.4973-1.2445-1.0761-2.4685-1.7264-3.6424l1.8157-1.003c0.6894,1.2483,1.3098,2.554,1.8352,3.8788L456.5203,244.05z
		 M400.6382,237.0874l-1.6779-1.2177c0.8364-1.1544,1.7587-2.2666,2.7354-3.3092l1.5131,1.4166
		C402.2889,234.9564,401.427,236.0032,400.6382,237.0874z M452.6237,237.0084c-0.7914-1.0817-1.6602-2.1264-2.5799-3.1035
		l1.5105-1.4212c0.9767,1.0401,1.9016,2.1506,2.7422,3.3029L452.6237,237.0084z M406.1465,231.2115l-1.3252-1.5951
		c1.0991-0.9129,2.2645-1.763,3.4689-2.5314l1.1128,1.7477C408.2723,229.5531,407.1775,230.3547,406.1465,231.2115z
		 M447.1003,231.1499c-1.0363-0.856-2.1361-1.6517-3.2676-2.3699l1.1076-1.7523c1.2045,0.7646,2.3767,1.612,3.4775,2.5211
		L447.1003,231.1499z M412.9339,226.8831l-0.8883-1.8748c1.2912-0.6107,2.6359-1.1454,3.9935-1.5874l0.6418,1.9713
		C415.4084,225.8083,414.1461,226.3099,412.9339,226.8831z M440.2923,226.8394c-1.2173-0.5713-2.4796-1.0685-3.753-1.4803
		l0.6342-1.9734c1.3583,0.4382,2.7057,0.9682,3.9994,1.5772L440.2923,226.8394z M420.5859,224.3845l-0.3893-2.0346
		c1.4008-0.2673,2.8331-0.4513,4.2612-0.541l0.1309,2.0694C423.2466,223.9641,421.9001,224.1325,420.5859,224.3845z
		 M432.6293,224.365c-1.3159-0.2474-2.6615-0.4119-4.0054-0.493l0.1266-2.0699c1.428,0.0855,2.8603,0.2631,4.2629,0.5258
		L432.6293,224.365z"/>
	<path d="M158.1953,321.591c-0.709,0-1.4251-0.0187-2.1289-0.062l0.1258-2.0689c1.338,0.0799,2.7057,0.0799,4.0377-0.0034
		l0.1292,2.0707C159.6437,321.5706,158.9166,321.591,158.1953,321.591z M151.8052,320.9986
		c-1.406-0.267-2.8069-0.6248-4.1622-1.0652l0.6393-1.9729c1.2729,0.4149,2.5879,0.7523,3.9072,0.9997L151.8052,320.9986z
		 M164.6186,320.9909l-0.3864-2.0375c1.3171-0.25,2.6313-0.5875,3.9072-1.0006l0.6405,1.9713
		C167.422,320.3652,166.0211,320.7223,164.6186,320.9909z M143.6457,318.3532c-1.2899-0.6078-2.5556-1.3031-3.7644-2.0698
		l1.111-1.7519c1.1348,0.7226,2.3248,1.3762,3.5374,1.9466L143.6457,318.3532z M172.7729,318.3397l-0.8849-1.8743
		c1.2109-0.5721,2.3993-1.2275,3.5311-1.9466l1.1131,1.7494C175.3273,317.034,174.0629,317.731,172.7729,318.3397z
		 M136.4072,313.7588c-1.1003-0.9095-2.154-1.899-3.1315-2.9386l1.5096-1.4204c0.9189,0.9775,1.9105,1.9057,2.9428,2.7583
		L136.4072,313.7588z M180.0034,313.741l-1.3232-1.5973c1.0341-0.856,2.0231-1.7876,2.9408-2.7609l1.5113,1.4171
		C182.1552,311.8385,181.1028,312.8297,180.0034,313.741z M130.5347,307.5145c-0.8411-1.1552-1.6167-2.3734-2.3066-3.6212
		l1.8148-1.0005c0.6469,1.1705,1.3762,2.3163,2.1671,3.401L130.5347,307.5145z M185.8707,307.4915l-1.6763-1.2173
		c0.7905-1.0863,1.519-2.2347,2.1659-3.4077l1.8156,1.0013C187.487,305.1173,186.7118,306.338,185.8707,307.4915z M126.3938,300.012
		c-0.5262-1.3252-0.9745-2.7005-1.3303-4.0818l2.0082-0.5168c0.3345,1.2997,0.7548,2.5892,1.2496,3.8345L126.3938,300.012z
		 M190.0082,299.9797l-1.9275-0.7642c0.4935-1.247,0.9134-2.5382,1.2462-3.8379l2.0073,0.5126
		C190.9803,297.275,190.5336,298.6529,190.0082,299.9797z M124.2586,291.7106c-0.1772-1.4145-0.2682-2.8553-0.2704-4.2851
		l2.0729-0.0016c0.0025,1.3447,0.0876,2.7005,0.2554,4.0274L124.2586,291.7106z M192.1346,291.6698l-2.0575-0.255
		c0.1662-1.3286,0.2508-2.681,0.2508-4.0291v-0.074h2.0728v0.074C192.4006,288.8188,192.311,290.2596,192.1346,291.6698z
		 M126.3076,283.3956l-2.058-0.2542c0.1756-1.4213,0.4442-2.84,0.7952-4.2213l2.0095,0.5125
		C126.7236,280.729,126.4721,282.0618,126.3076,283.3956z M190.0682,283.2859c-0.1696-1.3311-0.4246-2.6632-0.76-3.9594
		l2.0074-0.5194c0.3565,1.3822,0.6285,2.8017,0.8092,4.2188L190.0682,283.2859z M128.2954,275.5931l-1.9287-0.7634
		c0.5244-1.3269,1.139-2.6342,1.8276-3.8889l1.8177,0.9987C129.3651,273.1161,128.7867,274.3444,128.2954,275.5931z
		 M188.0545,275.4936c-0.4952-1.2436-1.0753-2.4676-1.726-3.6432l1.8136-1.0047c0.6924,1.2521,1.3107,2.556,1.8386,3.8795
		L188.0545,275.4936z M132.1728,268.531l-1.6776-1.2172c0.8377-1.1535,1.7575-2.2688,2.7354-3.3109l1.5135,1.4161
		C133.8252,266.4009,132.9604,267.4464,132.1728,268.531z M184.1583,268.4511c-0.7918-1.0829-1.6592-2.1276-2.579-3.1026
		l1.5079-1.4213c0.9792,1.0362,1.902,2.1489,2.744,3.3006L184.1583,268.4511z M137.681,262.653l-1.3252-1.5946
		c1.1008-0.9134,2.267-1.7656,3.4682-2.5318l1.1153,1.7477C139.8095,260.9955,138.7138,261.7937,137.681,262.653z
		 M178.6335,262.5893c-1.037-0.8534-2.1366-1.6516-3.2675-2.3669l1.1093-1.7528c1.2041,0.7647,2.3738,1.6121,3.4779,2.5208
		L178.6335,262.5893z M144.4685,258.3251l-0.8874-1.8747c1.2912-0.6107,2.6338-1.1454,3.9918-1.5874l0.6426,1.9707
		C146.9409,257.2494,145.6802,257.7517,144.4685,258.3251z M171.8277,258.2817c-1.2156-0.5721-2.4795-1.0689-3.7551-1.4811
		l0.6375-1.9729c1.3575,0.4382,2.7036,0.9682,3.9977,1.5768L171.8277,258.2817z M152.1218,255.8264l-0.3901-2.0345
		c1.3996-0.2695,2.8323-0.4513,4.2599-0.5411l0.1327,2.0695C154.7816,255.4056,153.436,255.5765,152.1218,255.8264z
		 M164.1642,255.8065c-1.3154-0.2453-2.6623-0.4115-4.0036-0.4927l0.1237-2.0698c1.4289,0.0855,2.8629,0.2631,4.2624,0.5257
		L164.1642,255.8065z"/>
	<g>
		<path d="M192.002,342.3897l-1.0816-1.7672c0.5716-0.3503,1.1509-0.7174,1.7213-1.0941l1.1386,1.7341
			C193.1912,341.6493,192.5924,342.0284,192.002,342.3897z"/>
		<path d="M155.9478,351.9211c-1.3906-0.0434-2.8012-0.1301-4.1919-0.2618l0.1951-2.0648c1.3469,0.1284,2.7133,0.2133,4.0602,0.2558
			L155.9478,351.9211z M160.1487,351.9142l-0.0693-2.0723c1.3481-0.0434,2.7137-0.1335,4.0598-0.2636l0.2014,2.0631
			C162.9512,351.7758,161.5406,351.8692,160.1487,351.9142z M147.589,351.1288c-1.3775-0.2219-2.7648-0.4887-4.1239-0.7964
			l0.4578-2.0232c1.3154,0.2993,2.6598,0.556,3.9935,0.771L147.589,351.1288z M168.5062,351.0999l-0.3329-2.0486
			c1.3316-0.2168,2.6742-0.4786,3.9927-0.7804l0.4632,2.0205C171.2693,350.6035,169.8815,350.8747,168.5062,351.0999z
			 M139.4006,349.2715c-1.3409-0.3953-2.681-0.8398-3.9884-1.3184l0.7149-1.9458c1.2649,0.4641,2.5637,0.8934,3.86,1.2776
			L139.4006,349.2715z M176.6921,349.2188l-0.5938-1.9874c1.2968-0.3851,2.5943-0.8212,3.8592-1.287l0.7191,1.9424
			C179.3714,348.3705,178.0312,348.8202,176.6921,349.2188z M131.5187,346.3805c-1.2763-0.5661-2.5501-1.1781-3.784-1.8224
			l0.9602-1.837c1.1935,0.6214,2.4256,1.2138,3.6619,1.7621L131.5187,346.3805z M184.5676,346.3015l-0.8441-1.8922
			c1.233-0.55,2.4639-1.1476,3.6598-1.7783l0.9644,1.8344C187.1126,345.1157,185.8414,345.7345,184.5676,346.3015z
			 M124.0766,342.4925c-1.1909-0.7225-2.3738-1.4952-3.5149-2.2925l1.1892-1.6992c1.1038,0.7727,2.2483,1.5215,3.4023,2.222
			L124.0766,342.4925z M117.2019,337.6813c-1.0884-0.8722-2.1624-1.7894-3.1931-2.7295l1.3962-1.5309
			c0.9975,0.9096,2.038,1.7979,3.0924,2.6445L117.2019,337.6813z M110.995,332.0269c-0.9711-1.0039-1.9207-2.0528-2.823-3.1137
			l1.579-1.343c0.8738,1.0285,1.794,2.0418,2.7359,3.0176L110.995,332.0269z M105.5514,325.6269
			c-0.8343-1.1203-1.6427-2.2814-2.4027-3.4511l1.7379-1.1271c0.737,1.1323,1.519,2.2569,2.327,3.338L105.5514,325.6269z
			 M100.9744,318.581c-0.6839-1.2181-1.335-2.4727-1.9377-3.7317l1.8705-0.8951c0.5815,1.2181,1.2135,2.4319,1.8747,3.6126
			L100.9744,318.581z M97.346,311.0038c-0.519-1.2937-1.003-2.6223-1.4387-3.9509l1.97-0.6452
			c0.4216,1.2836,0.8899,2.5714,1.3919,3.8217L97.346,311.0038z M94.7271,303.0195c-0.3476-1.349-0.657-2.7295-0.918-4.0997
			l2.0367-0.3867c0.2529,1.3269,0.5521,2.6614,0.8883,3.9696L94.7271,303.0195z M93.1562,294.769
			c-0.1725-1.383-0.3021-2.7907-0.385-4.183l2.0681-0.1241c0.0812,1.3482,0.2074,2.7099,0.3736,4.0513L93.1562,294.769z
			 M94.7271,286.3945l-2.0732-0.006c0.0051-1.3965,0.0557-2.8085,0.1508-4.2l2.0686,0.1403
			C94.7815,283.6761,94.7322,285.0455,94.7271,286.3945z M95.2787,278.2818l-2.0545-0.2746c0.184-1.3813,0.414-2.7753,0.6856-4.143
			l2.0337,0.4055C95.6808,275.5931,95.4568,276.9405,95.2787,278.2818z M96.8632,270.3076l-2.003-0.5346
			c0.3596-1.3465,0.7667-2.7006,1.2125-4.0207l1.9645,0.6614C97.607,267.6929,97.2113,269.0019,96.8632,270.3076z M99.4588,262.6037
			l-1.9177-0.787c0.53-1.2904,1.1085-2.5799,1.7205-3.8329l1.8625,0.9083C100.5315,260.1059,99.971,261.3533,99.4588,262.6037z
			 M103.0251,255.3007l-1.7991-1.0294c0.6907-1.2088,1.4315-2.4137,2.2008-3.5765l1.7294,1.1411
			C104.4115,252.9635,103.6945,254.1289,103.0251,255.3007z"/>
		<path d="M107.5226,248.4983l-1.6524-1.253c0.4216-0.5563,0.8594-1.1148,1.3009-1.658l1.6095,1.3052
			C108.354,247.4183,107.9311,247.9593,107.5226,248.4983z"/>
		<g>
			<path d="M202.9487,332.536c-5.9728,1.9406-14.0137,3.5498-20.0137,3.2641l8.9135,5.5185l3.3206,9.9437
				C196.2696,345.3571,199.6864,337.9015,202.9487,332.536z"/>
		</g>
		<g>
			
				<ellipse transform="matrix(0.669 -0.7432 0.7432 0.669 -147.5848 161.6797)" cx="107.7472" cy="246.5532" rx="7.7942" ry="7.7943"/>
		</g>
	</g>
	<g>
		<path d="M459.1035,196.2169c-0.6562-0.1577-1.3253-0.3065-1.9908-0.4445l0.4208-2.0299c0.686,0.142,1.3779,0.2975,2.0545,0.4595
			L459.1035,196.2169z"/>
		<path d="M457.3975,321.6718l-0.4156-2.0307c1.3226-0.2695,2.6521-0.5882,3.9552-0.9444l0.5474,2.0002
			C460.1354,321.0648,458.7602,321.3921,457.3975,321.6718z M465.4966,319.46l-0.6741-1.9619
			c1.2725-0.4352,2.5484-0.9223,3.798-1.446l0.7991,1.9151C468.1318,318.5054,466.8108,319.0086,465.4966,319.46z
			 M473.2371,316.2239l-0.9223-1.8564c1.207-0.5993,2.4116-1.247,3.5812-1.9228l1.0379,1.7927
			C475.7251,314.9361,474.4832,315.6059,473.2371,316.2239z M480.4997,312.0171l-1.1526-1.7239
			c1.1212-0.748,2.2347-1.547,3.3058-2.3656l1.2614,1.6448C482.8059,310.4198,481.6583,311.241,480.4997,312.0171z
			 M487.164,306.9135l-1.3643-1.5615c1.0209-0.8866,2.0214-1.8199,2.9785-2.7711l1.4603,1.4731
			C489.2491,305.034,488.2155,305.998,487.164,306.9135z M493.1253,301.0015l-1.5496-1.3762
			c0.8951-1.0124,1.7714-2.063,2.5985-3.1282l1.6364,1.2725C494.9546,298.8705,494.0527,299.9576,493.1253,301.0015z
			 M498.2841,294.3738l-1.7137-1.1663c0.7625-1.1178,1.4944-2.2747,2.1778-3.4358l1.7867,1.0531
			C499.8278,292.0234,499.0722,293.2169,498.2841,294.3738z M502.5522,287.1366l-1.8505-0.935
			c0.6112-1.2096,1.1909-2.4481,1.7214-3.69l1.9048,0.8144C503.7813,284.6069,503.1829,285.8904,502.5522,287.1366z
			 M505.8528,279.4081l-1.9533-0.6902c0.4488-1.2775,0.8619-2.5815,1.2265-3.8829l1.9977,0.5602
			C506.7463,276.7381,506.3195,278.088,505.8528,279.4081z M508.1267,271.3166l-2.0282-0.4293
			c0.2805-1.3201,0.5211-2.6665,0.7158-4.0028l2.052,0.3C508.6648,268.5616,508.4157,269.9531,508.1267,271.3166z M509.3371,263.01
			l-2.0681-0.1674c0.1079-1.3414,0.1777-2.7104,0.2006-4.0623l2.0715,0.0357C509.519,260.2135,509.4485,261.6237,509.3371,263.01z
			 M507.4102,254.7116c-0.0638-1.3512-0.1692-2.7159-0.318-4.0539l2.0588-0.2278c0.153,1.3817,0.2626,2.7898,0.3289,4.1851
			L507.4102,254.7116z M506.5142,246.632c-0.2321-1.3294-0.5143-2.6678-0.8365-3.9795l2.0146-0.4904
			c0.3332,1.3533,0.6222,2.7375,0.8628,4.1107L506.5142,246.632z M504.5863,238.7344c-0.403-1.2857-0.8534-2.5781-1.3405-3.835
			l1.9321-0.7467c0.5032,1.2984,0.9699,2.6325,1.3889,3.9621L504.5863,238.7344z M501.6588,231.1589
			c-0.5678-1.2245-1.1832-2.4469-1.8267-3.6339l1.8199-0.9899c0.6656,1.2245,1.3006,2.4885,1.888,3.7517L501.6588,231.1589z
			 M497.775,224.0185c-0.7174-1.1407-1.485-2.2755-2.2773-3.3682l1.678-1.2156c0.8185,1.1302,1.6091,2.2993,2.3511,3.4779
			L497.775,224.0185z M493.008,217.4351c-0.8594-1.0401-1.7639-2.0673-2.6921-3.053l1.5105-1.4195
			c0.958,1.0188,1.893,2.0788,2.7796,3.1519L493.008,217.4351z M487.4377,211.5112c-0.9852-0.9248-2.0146-1.8271-3.0576-2.6831
			l1.3141-1.6036c1.0779,0.8874,2.1422,1.8203,3.1579,2.7707L487.4377,211.5112z M481.1543,206.3443
			c-1.0932-0.7884-2.2322-1.553-3.3747-2.2692l1.0991-1.7565c1.1824,0.7407,2.3572,1.5292,3.4869,2.3439L481.1543,206.3443z
			 M474.2648,202.0252c-1.1918-0.6418-2.4167-1.2547-3.6424-1.8177l0.867-1.8837c1.2657,0.5827,2.5323,1.2138,3.758,1.879
			L474.2648,202.0252z M466.8729,198.6306c-1.2623-0.4841-2.5587-0.9328-3.8465-1.3337l0.6155-1.9797
			c1.3294,0.4135,2.6648,0.8781,3.973,1.3775L466.8729,198.6306z"/>
		<path d="M451.126,322.6391l-0.2194-2.063c0.6783-0.0705,1.3575-0.1538,2.0273-0.244l0.2805,2.0529
			C452.5251,322.4801,451.8222,322.5652,451.126,322.6391z"/>
		<g>
			<path d="M444.8833,193.4288c5.5933,2.8514,12.4182,7.4003,16.4566,11.8444l-2.3996-10.2039l4.682-9.378
				C458.6674,189.0882,450.9806,191.9438,444.8833,193.4288z"/>
		</g>
		<g>
			
				<ellipse transform="matrix(0.9986 -0.0525 0.0525 0.9986 -16.2603 24.1445)" cx="451.3994" cy="321.546" rx="7.7937" ry="7.795"/>
		</g>
	</g>
	<path class="st18" d="M289.8558,337.802c-1.3932-0.0416-2.8009-0.1266-4.183-0.2524l0.1862-2.0621
		c1.3422,0.1198,2.7064,0.2005,4.058,0.2422L289.8558,337.802z M294.0439,337.7986l-0.062-2.0707
		c1.349-0.0416,2.7116-0.1249,4.0564-0.2507l0.1887,2.0664C296.8431,337.6703,295.4363,337.7552,294.0439,337.7986z
		 M281.511,337.0438c-1.3754-0.2126-2.7643-0.4693-4.121-0.7651l0.442-2.0239c1.3142,0.2856,2.6589,0.5346,3.9943,0.7386
		L281.511,337.0438z M302.3853,337.031l-0.3171-2.0503c1.3363-0.2057,2.6768-0.4556,3.9943-0.742l0.4429,2.0222
		C305.147,336.5601,303.7632,336.8185,302.3853,337.031z M273.3244,335.2638c-1.3354-0.3774-2.681-0.805-3.9952-1.2657
		l0.6885-1.9567c1.2726,0.4463,2.5756,0.861,3.8719,1.2291L273.3244,335.2638z M310.5703,335.2409l-0.567-1.9934
		c1.2981-0.3698,2.6037-0.7854,3.8719-1.2317l0.6894,1.9551C313.2556,334.4333,311.9108,334.8608,310.5703,335.2409z
		 M265.4139,332.4833c-1.2815-0.5432-2.565-1.1314-3.8133-1.7545l0.9244-1.8573c1.2113,0.6027,2.455,1.1764,3.6968,1.7026
		L265.4139,332.4833z M318.4662,332.4553l-0.8093-1.9084c1.2402-0.5253,2.4796-1.0966,3.6849-1.6992l0.924,1.8557
		C321.0257,331.3231,319.7473,331.9147,318.4662,332.4553z M257.9039,328.7432c-1.2045-0.697-2.4026-1.4391-3.5638-2.21
		l1.1438-1.729c1.1255,0.7472,2.2904,1.4681,3.4579,2.1429L257.9039,328.7432z M325.9534,328.7194l-1.0379-1.7944
		c1.1637-0.6715,2.324-1.395,3.4494-2.1413l1.1458,1.7281C328.3521,327.2811,327.1545,328.0249,325.9534,328.7194z
		 M250.917,324.1088c-1.1106-0.8372-2.2097-1.7221-3.2654-2.6283l1.3469-1.5743c1.0273,0.8772,2.0915,1.7366,3.1689,2.5493
		L250.917,324.1088z M332.9296,324.0858l-1.2504-1.6524c1.0727-0.8135,2.137-1.6695,3.1621-2.5484l1.349,1.5734
		C335.1354,322.3654,334.0381,323.2494,332.9296,324.0858z M244.5528,318.6584c-1.0013-0.9691-1.9823-1.9815-2.9199-3.0074
		l1.5309-1.3975c0.9091,0.9954,1.8619,1.9772,2.8323,2.9139L244.5528,318.6584z M339.2878,318.6354l-1.4416-1.4876
		c0.9682-0.9393,1.9185-1.9211,2.8297-2.919l1.5293,1.3991C341.2675,316.6548,340.2858,317.6672,339.2878,318.6354z
		 M238.9039,312.4701c-0.8738-1.0795-1.7234-2.2058-2.5297-3.3381l1.689-1.2019c0.7837,1.1025,1.6074,2.1914,2.4528,3.2386
		L238.9039,312.4701z M344.9337,312.4464l-1.6125-1.3031c0.8458-1.0524,1.6737-2.1429,2.4532-3.242l1.6906,1.2003
		C346.6594,310.2354,345.8102,311.3617,344.9337,312.4464z M234.0553,305.6427c-0.7339-1.179-1.44-2.3971-2.0996-3.622
		l1.8246-0.9835c0.6397,1.1875,1.326,2.3682,2.0359,3.5132L234.0553,305.6427z M349.7849,305.6087l-1.763-1.0948
		c0.714-1.1492,1.4017-2.3325,2.0384-3.52l1.825,0.9835C351.2283,303.2014,350.5211,304.422,349.7849,305.6087z M230.0831,298.2754
		c-0.5822-1.2606-1.133-2.5552-1.6355-3.8506l1.9318-0.7498c0.487,1.2513,1.0217,2.5093,1.5865,3.7316L230.0831,298.2754z
		 M353.7597,298.221l-1.8828-0.8671c0.5644-1.2309,1.0991-2.4906,1.5879-3.7478l1.9338,0.7498
		C354.8945,295.6522,354.3419,296.9536,353.7597,298.221z M227.0498,290.4713c-0.4237-1.3235-0.8105-2.6828-1.1497-4.0284
		l2.0107-0.5057c0.3286,1.3039,0.7043,2.6215,1.114,3.9068L227.0498,290.4713z M356.7917,290.3964l-1.9763-0.6265
		c0.4097-1.2887,0.7838-2.6028,1.1109-3.9102l2.0129,0.5041C357.5992,287.7137,357.2159,289.0679,356.7917,290.3964z
		 M225.0033,282.3492c-0.255-1.3685-0.4718-2.7626-0.6431-4.1414l2.058-0.2567c0.1653,1.3396,0.3752,2.6895,0.6226,4.0164
		L225.0033,282.3492z M358.8284,282.2676l-2.0367-0.3792c0.2448-1.3201,0.4522-2.6716,0.6171-4.0147l2.0588,0.2525
		C359.2968,279.5126,359.0817,280.9049,358.8284,282.2676z M223.9739,274.035c-0.0855-1.3864-0.1305-2.7975-0.1313-4.1898
		l2.0728-0.0017c0.0012,1.3507,0.045,2.7185,0.1271,4.0623L223.9739,274.035z M359.8484,273.9543l-2.0698-0.1266
		c0.0807-1.3481,0.1249-2.7117,0.1249-4.0614v-0.1573h2.0715v0.1496C359.9751,271.1576,359.9318,272.5644,359.8484,273.9543z
		 M226.034,265.7829l-2.0698-0.1258c0.0833-1.3898,0.2091-2.7932,0.3766-4.172l2.0592,0.2474
		C226.2376,263.0713,226.1151,264.433,226.034,265.7829z M357.7701,265.5483c-0.0858-1.3499-0.2125-2.7117-0.3791-4.0453
		l2.0562-0.255c0.1717,1.3745,0.3051,2.7788,0.3927,4.1686L357.7701,265.5483z M227.0128,257.7186l-2.0393-0.3766
		c0.2529-1.3689,0.5508-2.7486,0.8883-4.0955l2.0104,0.5016C227.5471,255.055,227.2572,256.3891,227.0128,257.7186z
		 M356.7611,257.4891c-0.2456-1.3257-0.5414-2.6593-0.873-3.9688l2.0111-0.5083c0.3392,1.3494,0.6435,2.7269,0.9027,4.0929
		L356.7611,257.4891z M228.9772,249.8362l-1.9763-0.6239c0.4203-1.3299,0.8878-2.661,1.3907-3.9625l1.9338,0.7472
		C229.8383,247.2585,229.3848,248.551,228.9772,249.8362z M354.7695,249.6152c-0.4122-1.2836-0.8696-2.574-1.36-3.8286
		l1.9322-0.7535c0.5074,1.2942,0.9766,2.6241,1.4016,3.9488L354.7695,249.6152z M231.909,242.2497l-1.8849-0.8675
		c0.5818-1.2661,1.21-2.5293,1.8696-3.7559l1.8268,0.9792C233.0816,239.7965,232.4717,241.0209,231.909,242.2497z
		 M351.8199,242.0546c-0.5653-1.2219-1.179-2.4421-1.8183-3.6292l1.8224-0.9856c0.6613,1.2244,1.2921,2.4838,1.8769,3.7431
		L351.8199,242.0546z M235.7546,235.0834l-1.7643-1.091c0.7327-1.1824,1.5101-2.3605,2.3163-3.4974l1.6907,1.1981
		C237.2178,232.7948,236.4643,233.9359,235.7546,235.0834z M347.9608,234.9168c-0.7098-1.1432-1.4672-2.2798-2.2517-3.3793
		l1.689-1.2023c0.8075,1.1343,1.5879,2.3082,2.3231,3.4847L347.9608,234.9168z M240.4484,228.4472l-1.6167-1.2989
		c0.8722-1.0842,1.7898-2.1552,2.7269-3.1842l1.5331,1.395C242.1829,226.3578,241.2912,227.3962,240.4484,228.4472z
		 M343.2515,228.3006c-0.8449-1.0473-1.7391-2.0826-2.6495-3.0772l1.5283-1.4017c0.941,1.0268,1.8616,2.0962,2.7338,3.1757
		L343.2515,228.3006z M245.9171,222.4375l-1.4455-1.4871c0.9988-0.9703,2.0409-1.9211,3.0946-2.8255l1.3511,1.573
		C247.8969,220.5738,246.8853,221.4957,245.9171,222.4375z M337.7671,222.3104c-0.9698-0.9397-1.9814-1.8594-3.0082-2.7353
		l1.3481-1.5769c1.0566,0.9045,2.0987,1.8526,3.1018,2.8209L337.7671,222.3104z M252.0782,217.1439l-1.2534-1.6517
		c1.1063-0.8407,2.256-1.6576,3.4146-2.4264l1.1479,1.7235C254.2662,215.5386,253.1513,216.3291,252.0782,217.1439z
		 M331.5916,217.03c-1.0779-0.8126-2.1973-1.601-3.3245-2.3457l1.145-1.7302c1.1628,0.7688,2.3147,1.5815,3.4248,2.4205
		L331.5916,217.03z M258.8347,212.6455l-1.0384-1.794c1.2003-0.6966,2.44-1.3669,3.684-1.9887l0.9261,1.8531
		C261.202,211.3204,259.9997,211.9685,258.8347,212.6455z M324.8109,212.5448c-1.1747-0.6749-2.3784-1.321-3.5871-1.9211
		l0.9231-1.8573c1.2445,0.6201,2.4889,1.2861,3.6977,1.9822L324.8109,212.5448z M266.0905,209.0142l-0.8126-1.9075
		c1.2794-0.5457,2.5914-1.0561,3.8991-1.5181l0.6911,1.9538C268.6024,207.9911,267.3278,208.4859,266.0905,209.0142z
		 M317.5261,208.9288c-1.2461-0.5257-2.5229-1.0188-3.7971-1.4634l0.6851-1.9576c1.3142,0.4599,2.63,0.9678,3.9178,1.5113
		L317.5261,208.9288z M273.7409,206.3051l-0.5721-1.9933c1.3379-0.3833,2.7048-0.7268,4.0648-1.0251l0.4454,2.0239
		C276.3598,205.5996,275.0372,205.9346,273.7409,206.3051z M309.8537,206.2414c-1.2989-0.3659-2.6258-0.6966-3.9442-0.9813
		l0.4386-2.0257c1.3618,0.2932,2.7286,0.6329,4.0691,1.012L309.8537,206.2414z M281.6717,204.5617l-0.3179-2.0477
		c1.3711-0.2151,2.7686-0.3876,4.1567-0.5173l0.193,2.063C284.3586,204.1868,283.0012,204.3534,281.6717,204.5617z
		 M301.9153,204.5265c-1.332-0.204-2.6904-0.3681-4.0352-0.4884l0.1871-2.0634c1.3864,0.1232,2.7838,0.2937,4.1583,0.502
		L301.9153,204.5265z M289.7589,203.8056l-0.0646-2.072c1.3813-0.0434,2.7984-0.0455,4.1898-0.0064l-0.0595,2.0719
		C292.4731,203.7601,291.0994,203.7644,289.7589,203.8056z"/>
	<g>
		<path d="M150.3486,92.1124h-2.7639v-4.1545h2.7639V92.1124z M150.3486,83.8051h-2.7639V79.653h2.7639V83.8051z M150.3486,75.4981
			h-2.7639v-4.1545h2.7639V75.4981z M150.3486,67.1907h-2.7639v-4.1521h2.7639V67.1907z M150.3486,58.8837h-2.7639v-4.1524h2.7639
			V58.8837z M150.3486,50.5764h-2.7639v-3.9068h3.0117v2.7655h-0.2478V50.5764z M316.7373,49.4352h-4.1524v-2.7655h4.1524V49.4352z
			 M308.4325,49.4352h-4.1516v-2.7655h4.1516V49.4352z M300.1251,49.4352h-4.1549v-2.7655h4.1549V49.4352z M291.8177,49.4352
			h-4.1541v-2.7655h4.1541V49.4352z M283.5086,49.4352h-4.1524v-2.7655h4.1524V49.4352z M275.2038,49.4352h-4.1525v-2.7655h4.1525
			V49.4352z M266.8943,49.4352h-4.1524v-2.7655h4.1524V49.4352z M258.5894,49.4352h-4.155v-2.7655h4.155V49.4352z M250.282,49.4352
			h-4.1545v-2.7655h4.1545V49.4352z M241.9747,49.4352h-4.1524v-2.7655h4.1524V49.4352z M233.6677,49.4352h-4.1542v-2.7655h4.1542
			V49.4352z M225.3604,49.4352h-4.1537v-2.7655h4.1537V49.4352z M217.0529,49.4352h-4.1537v-2.7655h4.1537V49.4352z
			 M208.746,49.4352h-4.1542v-2.7655h4.1542V49.4352z M200.4386,49.4352h-4.1537v-2.7655h4.1537V49.4352z M192.1312,49.4352h-4.1537
			v-2.7655h4.1537V49.4352z M183.8242,49.4352h-4.1528v-2.7655h4.1528V49.4352z M175.5169,49.4352h-4.1524v-2.7655h4.1524V49.4352z
			 M167.2095,49.4352h-4.1524v-2.7655h4.1524V49.4352z M158.9038,49.4352h-4.1541v-2.7655h4.1541V49.4352z"/>
		<g>
			<polygon points="304.2957,40.5392 318.6175,48.8066 304.2957,57.077 			"/>
		</g>
	</g>
	<g>
		<path d="M390.397,164.8741h-4.1549v-2.7664h4.1549V164.8741z M382.0879,164.8741h-4.1524v-2.7664h4.1524V164.8741z
			 M373.7822,164.8741h-4.1567v-2.7664h4.1567V164.8741z M365.4723,164.8741h-4.1516v-2.7664h4.1516V164.8741z M357.1683,164.8741
			h-4.1549v-2.7664h4.1549V164.8741z M348.8592,164.8741h-4.1533v-2.7664h4.1533V164.8741z M340.5535,164.8741h-4.1549v-2.7664
			h4.1549V164.8741z M332.2436,164.8741h-4.1515v-2.7664h4.1515V164.8741z M323.9388,164.8741h-4.1524v-2.7664h4.1524V164.8741z
			 M315.6297,164.8741h-4.1524v-2.7664h4.1524V164.8741z M307.3249,164.8741h-4.1549v-2.7664h4.1549V164.8741z M299.0149,164.8741
			h-4.1524v-2.7664h4.1524V164.8741z M290.7101,164.8741h-4.1524v-2.7664h4.1524V164.8741z M282.4027,164.8741h-4.1541v-2.7664
			h4.1541V164.8741z M274.0953,164.8741h-4.1549v-2.7664h4.1549V164.8741z M265.7862,164.8741h-4.1529v-2.7664h4.1529V164.8741z
			 M257.4814,164.8741h-4.1528v-2.7664h4.1528V164.8741z M249.1736,164.8741h-4.1546v-2.7664h4.1546V164.8741z M240.8666,164.8741
			h-4.1524v-2.7664h4.1524V164.8741z M232.5593,164.8741h-4.1537v-2.7664h4.1537V164.8741z"/>
		<g>
			<circle cx="391.7938" cy="163.4902" r="5.1956"/>
		</g>
	</g>
</g>
<g>
	<rect x="337.1125" y="45.6606" class="st1" width="86.6708" height="61.3918"/>
	<rect x="324.4731" y="107.0524" class="st0" width="111.9498" height="10.8338"/>
	<line class="st0" x1="384.0592" y1="52.8832" x2="376.8366" y2="52.8832"/>
</g>
<g>
	<rect x="237.4733" y="89.674" class="st6" width="44.1422" height="28.4789"/>
	<line class="st0" x1="237.4733" y1="89.674" x2="281.6155" y2="118.1529"/>
	<line class="st0" x1="281.6155" y1="89.674" x2="237.4733" y2="118.1529"/>
</g>
<g>
	<g>
		<rect x="459.8714" y="62.8107" class="st1" width="36.7703" height="54.28"/>
	</g>
	<line class="st0" x1="474.7546" y1="66.3127" x2="481.7584" y2="66.3127"/>
	<line class="st0" x1="459.8714" y1="106.5848" x2="496.6417" y2="106.5848"/>
	<line class="st0" x1="459.8714" y1="69.8146" x2="496.6417" y2="69.8146"/>
	<circle class="st8" cx="478.2565" cy="111.8378" r="1.751"/>
</g>
<circle class="st2" cx="291.8177" cy="269.6081" r="54.4395"/>
<circle class="st2" cx="158.4408" cy="180.5983" r="32.2757"/>
<circle class="st2" cx="158.5597" cy="287.4239" r="24.4306"/>
<circle class="st2" cx="426.679" cy="256.5547" r="24.4306"/>
</svg>
