<svg xmlns="http://www.w3.org/2000/svg" xml:space="preserve" id="Слой_1" x="0" y="0" style="enable-background:new 0 0 600 400" version="1.1" viewBox="0 0 600 400"><style>.st0{fill:#d8effd;stroke:#000;stroke-width:2;stroke-miterlimit:10}.st1{fill:#fff}.st1,.st4,.st5,.st6{stroke:#000;stroke-width:2;stroke-miterlimit:10}.st4{fill:none;stroke-dasharray:6}.st5,.st6{fill:#ff9fba}.st6{fill:none}</style><path d="m278 38 43.048 10 42.43-10 47.287 10 43.321-10 38.136 10L532 38l-10 146.833L532 356l-41.074 10-36.606-10-42.57 10-47.522-10-41.885 10L278 356l10-168.5zM363.603 38l.656 318M454.117 38l.328 318" class="st0"/><path d="M437.75 88.18c0 9.25-16.75 26.75-16.75 26.75s-16.75-17.5-16.75-26.75 7.5-16.75 16.75-16.75 16.75 7.5 16.75 16.75z" class="st1"/><circle cx="421" cy="88.18" r="9.847" class="st1"/><path d="M406.945 317.695c0 7.425-13.445 21.472-13.445 21.472s-13.445-14.047-13.445-21.472c0-7.425 6.02-13.445 13.445-13.445s13.445 6.02 13.445 13.445z" class="st1"/><circle cx="393.5" cy="317.695" r="7.904" class="st1"/><path d="M503.566 111.965c0 5.372-9.728 15.535-9.728 15.535s-9.728-10.163-9.728-15.536c0-5.372 4.356-9.727 9.728-9.727s9.728 4.355 9.728 9.728z" class="st1"/><circle cx="493.838" cy="111.965" r="5.719" class="st1"/><circle cx="317.333" cy="88" r="16.57" style="fill:none;stroke:#000;stroke-width:2;stroke-miterlimit:10;stroke-dasharray:5.7825,5.7825"/><circle cx="493.217" cy="334.938" r="10.23" style="fill:none;stroke:#000;stroke-width:2;stroke-miterlimit:10;stroke-dasharray:6.4261,6.4261"/><path d="M421 114.93s-23.667 10.57-23.667 27.57 33 31 27.78 56.333c-11.824 57.39-68.113 55.591-34.78 105.796" class="st4"/><path d="M325 150.167h145.667V247.5H325zM555.333 247.5h-76.666v-80.667H517l38.333 38.334zM318.333 247.5h237v22.667h-237z" class="st1"/><circle cx="430.333" cy="268.083" r="15.333" class="st1"/><circle cx="430.333" cy="268.083" r="9.333" class="st1"/><circle cx="520.307" cy="268.083" r="15.333" class="st1"/><circle cx="520.333" cy="268.083" r="9.333" class="st1"/><path d="M127.25 260.25 98.5 289.5H356l-29.25-29.375z" class="st1"/><path d="M98.5 289H356v13.25H98.5zM127.5 128.5H327v132H127.5zM127 143.5h200" class="st1"/><circle cx="226.667" cy="135.5" r="3" class="st1"/><circle cx="317.333" cy="88" r="9.667" class="st1"/><circle cx="493.217" cy="334.938" r="5.968" class="st1"/><path d="M44.694 55.333h62v40h-62zM44.694 55.333l62 40M106.694 55.333l-62 40M486 173.5h27l35 35.333v7.667h-62z" class="st5"/><path d="M486 228.5h13M487 209.5h61M555.333 228.5H561v15h-5.667z" class="st6"/><path d="M493.838 97.667s-4.61-18.834 9.609-24.167c14.22-5.333 24.475-10.667 19.553-21.333L518.078 41.5" class="st4"/><path d="M119 75.5h106" style="fill:none;stroke:#000;stroke-width:2;stroke-miterlimit:10;stroke-dasharray:6,6"/><path d="m221 81.31 21.682-5.81L221 69.69z"/><path d="M174.503 202s18.54 25.282 52.248 25.282S279 202 279 202s-18.54-25.282-52.249-25.282S174.503 202 174.503 202z" style="fill:#b2ddf8;stroke:#000;stroke-width:2;stroke-miterlimit:10"/><circle cx="226.751" cy="202" r="11.798" style="stroke:#000;stroke-width:2;stroke-miterlimit:10"/><path d="M45 171h47.694v70.405H45zM64.305 175.542h9.084M45 227.778h47.694M45 180.084h47.694" class="st0"/><circle cx="68.847" cy="234.591" r="2.271" style="fill:#d8effd;stroke:#000;stroke-width:2;stroke-linejoin:bevel;stroke-miterlimit:10"/><path d="M45 335.5h48M45 344.5h59M45 353.5h48" class="st6"/></svg>