<svg xmlns="http://www.w3.org/2000/svg" xml:space="preserve" id="Слой_1" x="0" y="0" style="enable-background:new 0 0 600 400" version="1.1" viewBox="0 0 600 400"><style>.st0,.st1,.st2{fill:#d8effd;stroke:#000;stroke-width:2;stroke-miterlimit:10}.st1,.st2{fill:none}.st2{fill:#fff}.st6{fill:#ff9fba}.st6,.st7,.st9{stroke:#000;stroke-width:2;stroke-miterlimit:10}.st7{fill:none;stroke-dasharray:6,6}.st9{fill:#b2ddf8}</style><path d="M459.397 88.8h26.626M459.397 97.8h32.728M459.397 106.8h26.626" class="st1"/><path d="M328.52 123.358c0 21.047-38.109 60.86-38.109 60.86s-38.109-39.813-38.109-60.86 17.062-38.109 38.11-38.109 38.108 17.062 38.108 38.11z" class="st0"/><circle cx="290.411" cy="123.358" r="22.403" class="st2"/><path d="M443.642 97.456c0 10.815-19.58 31.271-19.58 31.271s-19.582-20.457-19.582-31.27 8.767-19.582 19.581-19.582c10.815 0 19.582 8.767 19.582 19.581z" class="st9"/><circle cx="424.062" cy="97.456" r="11.511" class="st2"/><path d="M472.334 207.836c0 7.923-14.346 22.91-14.346 22.91s-14.345-14.987-14.345-22.91 6.422-14.346 14.345-14.346 14.346 6.423 14.346 14.346z" class="st6"/><circle cx="457.988" cy="207.836" r="8.433" class="st2"/><path d="M189.395 70.954c0 7.923-14.346 22.91-14.346 22.91s-14.346-14.987-14.346-22.91 6.423-14.345 14.346-14.345 14.346 6.422 14.346 14.345z" class="st6"/><circle cx="175.049" cy="70.954" r="8.433" class="st2"/><path d="M162.05 167.606c0 11.364-20.576 32.861-20.576 32.861s-20.577-21.497-20.577-32.862 9.212-20.577 20.577-20.577 20.577 9.213 20.577 20.578z" class="st9"/><circle cx="141.474" cy="167.606" r="12.096" class="st2"/><path d="M175.049 100.955s37.228 14.665 45.023 33.779c10.34 25.35 4.204 32.06 24.928 47.266 18.087 13.27 45.411 10.787 45.411 10.787M300 189.78s39.274 2.716 56.137-16.032 24.314-27.588 40.588-32.668c16.275-5.08 28.092-5.908 28.092-5.908M141.474 208.5S77 250 63 227.5s0-34.713 17.834-28.293c16.352 5.886 22.494 36.96 17.166 48.876s-32.553 27.039-23.277 45.478S135 323.94 147 308.97s56-29.944 67-63.078 70.5-49.393 70.5-49.393" class="st7"/><path d="M157.616 213.758h198.135v107.82H157.616zM449.54 321.578h-84.927V232.22h42.463l42.464 42.463zM196.141 321.578H449.54v25.109H196.141z" class="st2"/><circle cx="311.072" cy="344.379" r="16.985" class="st2"/><circle cx="311.072" cy="344.379" r="10.339" class="st2"/><circle cx="251.072" cy="344.379" r="16.985" class="st2"/><circle cx="251.072" cy="344.379" r="10.339" class="st2"/><circle cx="410.74" cy="344.379" r="16.985" class="st2"/><circle cx="410.769" cy="344.379" r="10.339" class="st2"/><path d="M372.736 238.605h29.91l38.77 39.14v8.493h-68.68z" class="st0"/><path d="M372.736 299.531h14.401M449.54 299.531h6.277v16.616h-6.277z" class="st1"/><path d="M457.988 240.5s5.864 24.836 22.387 26.168 39.25-3.251 43.625-35.448c2.97-21.851-6.875-44.053-27.375-63.614-20.014-19.098-84.074-14.106-113.856 22.142-19.762 24.052-88.984 5.459-88.984 5.459" class="st7"/><circle cx="256.466" cy="269.219" r="30.256" class="st6"/><path d="m261.813 274.566 8.555-20.319-20.318 8.555-7.486 19.25z" style="fill:none;stroke:#000;stroke-width:2;stroke-linejoin:bevel;stroke-miterlimit:10"/><path d="m250.05 262.802 11.763 11.764M261.706 239.275a5.348 5.348 0 1 0-10.48 0M256.466 239.275v5.347M256.466 293.815v5.347M286.409 269.219h-5.347M231.87 269.219h-5.347M290.411 107.986v15.318l6.893 6.893M268.965 123.304h3.064M308.793 123.304h3.064M290.411 144.75v-3.064M290.411 104.922v-3.064M101.282 90.718c6.7 6.698 6.7 17.559 0 24.257-6.698 6.7-17.56 6.7-24.258 0-6.699-6.698-6.699-17.558 0-24.257 6.699-6.7 17.56-6.7 24.258 0zM89.153 94.547v12.173M89.153 108.933v2.214M112.054 91.596l34.137-10.989" class="st1"/><path d="m136.886 90.285-1.227-1.581 10.346-8.037-13.092-.493.075-1.998 18.582.7z"/><path d="M271.512 43.14h37.799v24.387h-37.799zM271.512 43.14l37.799 24.387M309.311 43.14l-37.799 24.387" class="st1"/></svg>