<svg xmlns="http://www.w3.org/2000/svg" xml:space="preserve" id="Слой_1" x="0" y="0" style="enable-background:new 0 0 600 400" version="1.1" viewBox="0 0 600 400"><style>.st1,.st10,.st2,.st3,.st7{fill:none;stroke:#000;stroke-width:2;stroke-miterlimit:10}.st10,.st2,.st3,.st7{fill:#d8effd}.st10,.st3,.st7{fill:#fff}.st10,.st7{fill:#ff9fba}.st10{fill:#b2ddf8}.st16{fill:#ff9fba}</style><circle cx="288.748" cy="191.976" r="151.003" style="fill:none;stroke:#000;stroke-width:2;stroke-miterlimit:10;stroke-dasharray:8.0408,8.0408"/><path d="M267.872 270.018h43.97v51.729h-43.97z" class="st3"/><path d="M291.796 147.161c-.867 0-1.73.02-2.59.047-30.29.98-55.605 19.256-55.605 58.149 0 39.444 24.782 71.5 55.606 72.38.432.011.862.041 1.297.041 31.427 0 56.901-32.423 56.901-72.421 0-39.997-24.182-58.196-55.609-58.196z" class="st3"/><path d="M323.995 182.754s-20.044 32.979-56.902 29.744c0 0 12.287-3.879 12.287-10.346 0 0-9.053 6.465-18.105 8.406 0 0 6.466-8.406 5.172-12.286 0 0-20.69 4.527-21.338 14.226l-4.526 10.992-15.52-18.105s-8.844-59.353 37.068-72.932c45.91-13.58 66.516 17.738 66.516 17.738s15.516 7.785 21.92 52.18c0 0-11.056 7.539-9.761 17.24 0-.001-14.872-14.872-16.811-36.857z" style="fill:none;stroke:#13120d;stroke-width:2;stroke-miterlimit:10"/><ellipse cx="349.132" cy="210.995" class="st3" rx="15.278" ry="7.542" transform="rotate(-81.669 349.122 210.982)"/><ellipse cx="230.611" cy="209.883" class="st3" rx="6.879" ry="14.992" transform="rotate(-5.526 230.64 209.906)"/><path d="M252.196 339.988v-36.011a77.08 77.08 0 0 0-19.777 9.941l-4 26.07h23.777zM354.136 339.988l-6.738-26.239c-5.616-4.63-12.16-8.475-19.777-10.979v37.218h26.515z" class="st7"/><path d="M245.61 347.705h-7.755a4.654 4.654 0 0 0-4.654 4.654v.775a4.654 4.654 0 0 0 4.654 4.654h7.756a4.654 4.654 0 0 0 4.653-4.654v-.775a4.653 4.653 0 0 0-4.653-4.654z" class="st16"/><path d="M245.61 347.705h-7.755a4.654 4.654 0 0 0-4.654 4.654v.775a4.654 4.654 0 0 0 4.654 4.654h7.756a4.654 4.654 0 0 0 4.653-4.654v-.775a4.653 4.653 0 0 0-4.653-4.654z" class="st1"/><path d="M344.886 346.93h-7.756a4.654 4.654 0 0 0-4.652 4.653v.776a4.653 4.653 0 0 0 4.652 4.653h7.756a4.653 4.653 0 0 0 4.654-4.653v-.776a4.653 4.653 0 0 0-4.654-4.653z" class="st16"/><path d="M344.886 346.93h-7.756a4.654 4.654 0 0 0-4.652 4.653v.776a4.653 4.653 0 0 0 4.652 4.653h7.756a4.653 4.653 0 0 0 4.654-4.653v-.776a4.653 4.653 0 0 0-4.654-4.653z" class="st1"/><path d="M344.886 346.93h-7.756a4.654 4.654 0 0 0-4.652 4.653v.776a4.653 4.653 0 0 0 4.652 4.653h7.756a4.653 4.653 0 0 0 4.654-4.653v-.776a4.653 4.653 0 0 0-4.654-4.653z" class="st10"/><path d="M228.263 343.478H353.903v27.944h25.153c-1.83-8.896-9.513-39.406-31.658-57.673v26.24h-19.777V302.77a60.963 60.963 0 0 0-6.35-1.715l-4.065-4.573c-7.308 3.651-16.55 5.833-26.602 5.833-10.513 0-20.139-2.387-27.595-6.347l-4.522 5.087.9.956c-1.536.318-4.048.92-7.191 1.966v36.011h-19.777v-26.07c-13.955 9.78-28.494 27.116-32.07 57.504h27.914v-27.944z" class="st10"/><path d="M228.263 343.478v27.944h60.96v-27.944h-60.96zm17.348 14.31h-7.756a4.654 4.654 0 0 1-4.654-4.654v-.775a4.654 4.654 0 0 1 4.654-4.654h7.756a4.653 4.653 0 0 1 4.653 4.654v.775a4.654 4.654 0 0 1-4.653 4.654zM289.223 343.478v27.944h64.68v-27.944h-64.68zM225.878 186.762h120.987s10.88-70.503-59.188-70.503-61.799 70.503-61.799 70.503z" class="st3"/><path d="M348.706 185.124a2.463 2.463 0 0 0-1.841-.826H225.878a2.466 2.466 0 0 0-2.303 3.341c.125.33 3.186 8.159 13.076 15.922 5.723 4.493 12.59 8.066 20.408 10.62 9.678 3.163 20.858 4.767 33.229 4.767 12.394 0 23.184-1.611 32.069-4.788 7.237-2.588 13.246-6.216 17.863-10.786 8.03-7.946 9.053-15.986 9.093-16.325a2.465 2.465 0 0 0-.607-1.925z" class="st3"/><path d="M341.77 357.788h-7.756a4.654 4.654 0 0 1-4.653-4.654v-.775a4.654 4.654 0 0 1 4.653-4.654h7.756a4.653 4.653 0 0 1 4.654 4.654v.775a4.654 4.654 0 0 1-4.654 4.654z" class="st7"/><path d="M311.843 251.648c-3.765 3.927-12.61 6.685-22.922 6.685-10.083 0-18.764-2.636-22.664-6.425M282.529 218.948s-4.924 17.337-.215 20.762c4.71 3.425 10.703-.643 10.703-.643M259.387 302.011s11.996 7.053 29.663 7.053M321.27 301.055s-4.279 5.012-16.266 6.296" class="st1"/><path d="M267.872 184.298c-1.599-54.128 19.805-68.039 19.805-68.039 27.174 19.42 24.166 68.01 24.166 68.01l-43.97.029z" class="st3"/><path d="M282.101 113.631h10.275v3.27h-10.275z" class="st3"/><path stroke-width="1.99994" d="m389.885 219.477 63.12-7.102 5.115 45.462L395 264.94z" class="st3"/><path d="m497.688 253.377-35.81 4.03-4.24-37.678 17.905-2.015 19.92 15.89z" class="st3"/><path stroke-width="1.99994" d="m390.82 265.41 106.845-12.022 1.191 10.587-106.844 12.021z" class="st3"/><circle cx="440.385" cy="269.562" r="7.207" class="st3" transform="rotate(-6.419 440.534 269.642)"/><circle cx="440.385" cy="269.562" r="4.387" class="st3" transform="rotate(-6.419 440.534 269.642)"/><circle cx="415.085" cy="272.409" r="7.207" class="st3" transform="rotate(-6.419 415.226 272.491)"/><circle cx="415.085" cy="272.409" r="4.387" class="st3" transform="rotate(-6.419 415.226 272.491)"/><circle cx="482.41" cy="264.832" r="7.207" class="st3" transform="rotate(-6.419 482.573 264.911)"/><circle cx="482.422" cy="264.831" r="4.387" class="st3" transform="rotate(-6.419 482.585 264.91)"/><path d="m461.414 222.457 12.61-1.42 18.206 14.665.403 3.58-28.959 3.26z" class="st2"/><path d="m464.305 248.147 6.072-.684" class="st1"/><path stroke-width="1.99994" d="m496.667 244.514 2.646-.298.788 7.007-2.646.297z" class="st1"/><path stroke-width="2.0001" d="m109.13 259.188 4.774-44.327 62.58 6.74-4.775 44.328z" class="st2"/><path stroke-width="2.0001" d="m99.163 266.027.843-7.822 80.831 8.706-.842 7.823z" class="st3"/><path d="m147.221 223.723-5.215-.561" class="st1"/><path stroke-width="1.99998" d="m119.636 123.92 32.422-17.744 26.196 47.862-32.423 17.745z" class="st7"/><path d="m134.451 119.834 6.176-3.38M140.761 162.527l32.424-17.744M123.017 130.103l32.424-17.744" class="st7"/><circle cx="159.508" cy="158.287" r="1.76" class="st7" transform="rotate(-28.694 159.49 158.283)"/><path d="M434.87 115.47c-2.776-8.147-11.093-12.708-18.656-10.165s-11.47 11.212-8.726 19.371c3.548 10.556 22.866 22.763 22.866 22.763s8.11-21.427 4.516-31.968z" class="st10"/><circle cx="420.463" cy="117.944" r="4.444" class="st10" transform="rotate(-18.584 420.403 117.934)"/><path d="m415.25 140.795-9.478 3.186-4.503 24.958 32.648-10.975 32.648-10.976-18.666-17.169-9.478 3.187" class="st1"/><path d="m201.044 44.692-8.98 3.65-.35 32.006 53.632.586.35-32.005-8.899-3.846" class="st2"/><path d="m200.658 53.627.293-26.816 36.33.398-.292 26.815" class="st1"/><path d="m192.064 48.342 26.632 17.104 27-16.517M207.644 47.647l22.491.246M222.501 33.968l7.785.085M207.72 40.727l22.49.246" class="st1"/><path d="m341.602 72.17 29.729 5.468 7.407-40.278-59.457-10.935-7.408 40.278 16.303 2.998-2.116 11.508z" class="st7"/><path d="m325.971 38.561 42.196 7.761M324.208 48.151l42.196 7.76M322.444 57.741l42.196 7.76" class="st1"/></svg>