<svg xmlns="http://www.w3.org/2000/svg" xml:space="preserve" id="Слой_1" x="0" y="0" style="enable-background:new 0 0 600 400" version="1.1" viewBox="0 0 600 400"><style>.st0,.st1,.st2,.st6{fill:#d8effd;stroke:#000;stroke-width:2;stroke-miterlimit:10}.st1,.st2,.st6{fill:none}.st2,.st6{fill:#fff}.st6{fill:#ff9fba}.st23{fill:#fff}.st37,.st40,.st41{fill-rule:evenodd;clip-rule:evenodd;fill:#fff}.st40,.st41{fill:#b2ddf8}.st41{fill:#ff9fba;stroke:#000;stroke-width:2;stroke-miterlimit:10}</style><path d="M136.055 176.326c-.505-43.762 16.744-87.572 51.303-119.585 34.559-32.013 79.559-45.867 123.153-42.02l1.166-1.08a164.233 164.233 0 0 0-9.157-.615c-43.104-1.648-84.27 13.588-115.915 42.901-31.646 29.315-49.981 69.197-51.63 112.302-.117 3.07-.138 6.129-.086 9.177l1.166-1.08zM434.795 93.42l.863-.8a162.759 162.759 0 0 0-20.836-27.966c-11.41-12.317-24.427-22.608-38.606-30.693l-.902.835a159.812 159.812 0 0 1 38.695 30.612 160.328 160.328 0 0 1 20.786 28.011zM455.419 154.419c6.153 49.519-10.758 101.214-50.078 137.64-64.877 60.098-166.552 56.21-226.65-8.668a159.789 159.789 0 0 1-27.567-40.919l-.902.836c6.98 14.754 16.245 28.519 27.655 40.836 29.314 31.648 69.197 49.982 112.3 51.629 43.106 1.65 84.272-13.586 115.918-42.902 31.645-29.312 49.98-69.195 51.629-112.3.35-9.165-.07-18.24-1.22-27.159l-1.085 1.007z"/><path d="M179.778 110.5a132.805 132.805 0 0 1 18.042-25.334c48.196-53.218 129.997-58.3 184.387-12.243l.714-.788c-26.032-22.071-58.945-33.26-93.197-31.565-35.747 1.77-68.665 17.355-92.69 43.884a134.96 134.96 0 0 0-18.509 26.046h1.253zM163.702 166.737h-1.133a136.293 136.293 0 0 0-.048 14.29c1.696 34.25 16.082 65.899 40.617 89.622l.713-.788c-28.71-27.796-42.27-65.755-40.15-103.124zM414.197 110.5a132.857 132.857 0 0 0-4.283-7.316l-.78.86a131.381 131.381 0 0 1 3.768 6.456h1.295zM430.121 166.737h-1.133c1.988 34.348-9.24 69.44-34.105 96.898C354.14 308.62 289.392 319.2 237.482 293.58l-.78.86c20.311 10.134 42.983 14.943 66.276 13.789 35.747-1.77 68.665-17.355 92.693-43.883 24.023-26.527 36.28-60.825 34.511-96.573-.018-.346-.04-.691-.06-1.037zM350.596 307.57a143.999 143.999 0 0 0 5.831-2.59l-.453-.96c-1.9.896-3.847 1.762-5.787 2.571l.41.978zM180.028 259.95l-.85.634a141.727 141.727 0 0 0 3.919 5.022l.822-.67a143.966 143.966 0 0 1-3.89-4.986zM172.93 249.492l-.903.557a142.369 142.369 0 0 0 3.458 5.345l.878-.596a143.122 143.122 0 0 1-3.433-5.306zM157.545 214.885l-1.019.298a144.737 144.737 0 0 0 1.929 6.082l1.003-.342a144.199 144.199 0 0 1-1.913-6.038zM196.863 278.805l-.726.774a147.856 147.856 0 0 0 4.745 4.261l.69-.803a146.686 146.686 0 0 1-4.709-4.231zM166.785 238.44l-.951.473a146.82 146.82 0 0 0 2.977 5.643l.927-.516a143.538 143.538 0 0 1-2.953-5.6zM161.64 226.869l-.988.388a143.362 143.362 0 0 0 2.462 5.883l.968-.429a145.164 145.164 0 0 1-2.442-5.843zM338.616 311.956c2.02-.639 4.05-1.331 6.038-2.06l-.365-.995a140.364 140.364 0 0 1-5.993 2.044l.32 1.01zM313.595 316.425l.138 1.052c2.1-.276 4.222-.602 6.306-.969l-.183-1.045c-2.07.364-4.177.69-6.261.962zM326.068 314.228l.228 1.036c2.068-.459 4.153-.969 6.196-1.518l-.273-1.023a147.69 147.69 0 0 1-6.151 1.505zM206.466 287.056l-.655.836a146.1 146.1 0 0 0 5.103 3.829l.617-.863a145.785 145.785 0 0 1-5.065-3.802zM216.76 294.435l-.58.889a144.786 144.786 0 0 0 5.423 3.368l.54-.914c-1.81-1.07-3.62-2.193-5.383-3.343zM243.075 307.951a147.108 147.108 0 0 1-3.968-1.605l-.414.976c1.494.636 3.017 1.24 4.538 1.827l-.156-1.198zM227.668 300.884l-.5.936c1.871.996 3.789 1.966 5.701 2.878l.457-.957a148.03 148.03 0 0 1-5.658-2.857zM188.027 269.747l-.791.707a146.94 146.94 0 0 0 4.35 4.66l.76-.742a143.543 143.543 0 0 1-4.319-4.625zM184.271 83.609l-.82-.674a145.175 145.175 0 0 0-3.938 5.02l.85.635a144.145 144.145 0 0 1 3.908-4.981zM201.281 64.741a145.024 145.024 0 0 0-4.752 4.248l.725.776a144.491 144.491 0 0 1 4.716-4.217l-.689-.807zM191.968 73.444a144.828 144.828 0 0 0-4.362 4.652l.79.708a144.495 144.495 0 0 1 4.329-4.618l-.757-.742zM210.413 57.56a145.638 145.638 0 0 0-4.198 3.148l.653.836a144.122 144.122 0 0 1 3.702-2.785l-.156-1.199zM269.832 33.508l-.185-1.045c-1.88.333-3.775.714-5.648 1.123l.138 1.055c1.888-.414 3.8-.797 5.695-1.133zM301.037 317.525l.137 1.055c2.067-.093 4.158-.228 6.218-.408l-.092-1.058c-2.074.182-4.183.32-6.263.411zM175.798 93.143a146.414 146.414 0 0 0-3.485 5.348l.902.56a143.77 143.77 0 0 1 3.459-5.31l-.876-.598zM169.068 103.988a145.47 145.47 0 0 0-3 5.636l.947.478c.949-1.88 1.95-3.763 2.978-5.595l-.925-.519zM154.946 139.51c-.515 2.057-.99 4.157-1.413 6.238l1.04.21c.42-2.066.891-4.148 1.402-6.191l-1.03-.257zM163.318 115.388a144.293 144.293 0 0 0-2.492 5.883l.985.392c.779-1.955 1.61-3.92 2.475-5.839l-.968-.436zM158.596 127.26a144.097 144.097 0 0 0-1.961 6.083l1.017.303c.6-2.018 1.256-4.05 1.947-6.039l-1.003-.347zM433.161 215.751a144.9 144.9 0 0 0 1.697-6.164l-1.03-.258c-.512 2.039-1.08 4.098-1.684 6.12l1.017.302zM425.82 116.376l.97-.429a143.038 143.038 0 0 0-2.715-5.774l-.95.473a144.183 144.183 0 0 1 2.695 5.73zM406.02 84.13l.823-.67a146.166 146.166 0 0 0-4.134-4.852l-.792.706a143.904 143.904 0 0 1 4.103 4.816zM362.137 302.134a143.916 143.916 0 0 0 5.56-3.09l-.533-.917a139.078 139.078 0 0 1-5.521 3.068l.494.939zM413.566 94.274l.877-.595a145.527 145.527 0 0 0-3.685-5.193l-.852.633a146.349 146.349 0 0 1 3.66 5.155z"/><path d="m295.348 31.28.002-1.06c-2.116-.004-4.261.04-6.38.13l.046 1.06c2.102-.09 4.232-.133 6.332-.13zM276.092 32.54l.308-.041c2.09-.273 4.21-.502 6.297-.682l-.092-1.057c-2.103.181-4.235.413-6.344.688l-.306.04.137 1.052zM307.997 31.864l.096-1.057c-2.11-.19-4.251-.337-6.365-.434l-.05 1.059c2.101.097 4.226.242 6.319.432zM344.989 40.306l.373-.994a144.809 144.809 0 0 0-6.036-2.106l-.327 1.01c1.997.647 4.011 1.35 5.99 2.09zM332.92 36.393l.282-1.023A144.258 144.258 0 0 0 327 33.808l-.235 1.035c2.058.47 4.13.991 6.155 1.55zM320.543 33.569l.192-1.044a143.174 143.174 0 0 0-6.303-1l-.142 1.051c2.08.283 4.183.617 6.253.993zM420.179 105.04l.926-.514c-1.026-1.85-2.105-3.7-3.209-5.496l-.905.555a146.136 146.136 0 0 1 3.188 5.456zM402.131 270.966a146.496 146.496 0 0 0 4.16-4.836l-.82-.674a143.393 143.393 0 0 1-4.13 4.8l.79.71zM410.235 261.115a145.807 145.807 0 0 0 3.718-5.184l-.873-.6a145.793 145.793 0 0 1-3.694 5.146l.849.638zM417.443 250.587c1.12-1.8 2.213-3.648 3.253-5.493l-.925-.521a146.468 146.468 0 0 1-3.227 5.452l.9.562zM373.122 295.71a146.525 146.525 0 0 0 5.271-3.573l-.613-.867a140.018 140.018 0 0 1-5.234 3.547l.576.893zM423.702 239.46c.958-1.892 1.884-3.83 2.757-5.76l-.968-.438a143.055 143.055 0 0 1-2.735 5.72l.946.479zM383.502 288.332a142.954 142.954 0 0 0 4.94-4.029l-.69-.807c-1.6 1.366-3.25 2.711-4.902 4l.652.836zM393.198 280.062a149.67 149.67 0 0 0 4.566-4.45l-.758-.744a141.658 141.658 0 0 1-4.532 4.417l.724.777zM436.438 152.747l1.049-.16a148.332 148.332 0 0 0-1.1-6.284l-1.043.206c.406 2.052.775 4.15 1.094 6.238zM428.955 227.82a143.361 143.361 0 0 0 2.238-5.987l-1.003-.349c-.692 1.99-1.44 3.989-2.22 5.941l.985.395zM430.43 128.17l1.006-.343c-.683-2.005-1.421-4.02-2.191-5.991l-.988.385a141.144 141.144 0 0 1 2.173 5.948zM433.977 140.325l1.03-.251a146.178 146.178 0 0 0-1.648-6.162l-1.02.297c.59 2.02 1.14 4.077 1.638 6.116zM438.867 165.27c-.134-2.103-.32-4.241-.552-6.357l-1.054.116c.228 2.098.412 4.222.548 6.31l1.058-.07zM436.276 203.35a142.09 142.09 0 0 0 1.137-6.278l-1.048-.166a141.494 141.494 0 0 1-1.128 6.233l1.039.212zM438.269 190.75c.237-2.102.43-4.24.574-6.355l-1.06-.07a142.135 142.135 0 0 1-.568 6.306l1.054.119zM439.134 178.021c.05-2.117.051-4.264.007-6.379l-1.06.023c.043 2.098.04 4.228-.008 6.333l1.061.023z"/><path d="M235.317 225.067a4.54 4.54 0 0 1 4.54 4.54v6.073h1.361V213.87c0-2.119 1.887-3.834 4.218-3.834s4.22 1.715 4.22 3.834v5.753h1.028v-5.466c0-1.308 1.89-2.37 4.22-2.37s4.22 1.062 4.22 2.37v5.467h1.027v-2.506c0-1.31 1.888-2.368 4.22-2.368s4.222 1.058 4.222 2.368v2.506h1.028v-.667c0-1.308 1.887-2.367 4.219-2.367 2.33 0 4.218 1.059 4.218 2.367v5.623l-.127 2.36c-.08 8.022-.135 17.215-1.155 19.222-.827 1.617-2.88 4.248-3.596 5.193 0 0-.028 7.488-.03 15.997h-30.596c.037-3.798.072-7.358.092-10.101l-9.717-8.04c-1.384-.91-2.13-2.473-2.143-4.121h-.007v-15.484a4.54 4.54 0 0 1 4.538-4.54z" class="st2"/><path d="M233.903 330.525v-69.27h45.09v37.74l-.445 31.53z" class="st6"/><ellipse cx="270.481" cy="266.61" class="st2" rx="2.057" ry="2.058" transform="rotate(-86.704 270.506 266.622)"/><path d="M231.137 271.489H280.9v115.136h-49.763zM381.784 98.502c6.85 0 12.416 5.56 12.416 12.423v103.332c0 6.863-5.567 12.418-12.416 12.418H211.25c-6.86 0-12.419-5.555-12.419-12.418V110.925c0-6.864 5.56-12.423 12.42-12.423h170.534z" class="st2"/><path d="M212.549 110.484h168.035v104.592H212.549z" class="st2"/><path d="M215.388 111.951h162.247V213.23H215.388zM203.361 162.55a3.02 3.02 0 0 1 3.02-3.015 3.019 3.019 0 0 1 3.013 3.016 3.02 3.02 0 0 1-3.013 3.017 3.02 3.02 0 0 1-3.02-3.017z" class="st23"/><path d="M214.739 111.842h163.653v101.692H214.739z" class="st37"/><path d="M212.549 110.484h168.035v104.415H212.549z" style="fill-rule:evenodd;clip-rule:evenodd;fill:#d1d1d1"/><path d="m380.584 117.21-120.115 97.689h10.084l110.031-89.489z" class="st37"/><path d="M348.701 110.484h6.318v104.415h-6.318z" class="st37"/><path d="M212.549 141.476h168.035v6.391H212.549z" class="st37"/><ellipse cx="351.86" cy="144.672" class="st37" rx="18.625" ry="18.841"/><ellipse cx="351.86" cy="144.672" rx="12.55" ry="12.696" style="fill-rule:evenodd;clip-rule:evenodd;fill:#b2ddf8;stroke:#000;stroke-width:2;stroke-miterlimit:10"/><path d="m313.017 180.362 3.551-5.29-72.949-32.494-3.55 5.289zM212.55 192.288l35.966-15.777-2.384-5.921-33.583 14.73zM229.286 214.899l-16.737-10.722v7.564l4.93 3.158z" class="st37"/><path d="m217.035 207.995 2.386 5.922 37.04-18.41-2.385-5.92zM212.55 163.042l17.121-3.677-.666-6.357-16.456 3.533zM220.424 185.937l3.55-5.288-11.424-9.292v8.177zM329.492 110.484l22.34 4.503.127-4.503zM242.543 110.484 214.5 142.377l3.475 4.319 32.22-36.212z" class="st37"/><path d="M212.55 110.484v4.778l26.607 5.57 4.516-5.66-22.395-4.688zM279.515 110.484l-2.69 33.006 5.483 3.178 2.95-36.184z" class="st37"/><path d="m285.383 119.792-.541-7.122-44.152.284-6.683 7.123z" class="st37"/><path d="m353.197 121.71.78-7.23-72.647-1.909-.78 7.231z" class="st37"/><path d="m319.216 145.253 6.948-1.272-.24-26.776-6.963 2.04zM353.296 210.042l-.27-6.389-63.785-9.207-1.706 6.02z" class="st37"/><path d="m298.592 214.899 15.171-13.83-7.983-2.369-17.77 16.199z" class="st37"/><path d="M236.809 167.062c9.369 10.415 18.208 25.594 22.342 47.837h6.884c-4.299-24.402-13.96-41.043-24.218-52.446-10.984-12.21-22.615-18.367-29.106-21.65l-.162.327v7.262c6.275 3.334 15.51 8.946 24.26 18.67z" class="st23"/><path d="m255.315 188.267 2.385 5.922 35.596-24.985-3.242-4.662zM380.584 181.475l-6.559 11.219 6.526 3.037.033-.056z" class="st37"/><path d="m380.394 214.899-1.744-23.994-6.963.676 1.717 23.318z" class="st37"/><path d="m377.131 197.146-.27-8.887-26.227 12.779.27 8.888zM353.01 180.78l1.654-7.04-44.52-.014-.906 7.064z" class="st37"/><path d="m288.009 214.899 14.159-12.907-13.743-1.629-17.872 14.536z" class="st40"/><path d="m241.913 119.792-19.294 21.684h54.37l1.798-22.052zM212.55 171.357l11.425 9.292 17.44-7.991c-3.633-4.488-7.49-8.931-11.744-13.292l-17.121 3.676v8.315z" class="st41"/><path d="m217.479 214.899-4.93-3.158v3.158z" style="fill-rule:evenodd;clip-rule:evenodd;fill:#d4cbba"/><path d="M212.55 110.484v7.474l4.56-6.9-2.737-.575z" class="st37"/><ellipse cx="255.403" cy="191.55" class="st37" rx="10.206" ry="10.325"/><ellipse cx="255.403" cy="191.55" class="st40" rx="6.379" ry="6.453"/><path d="M328.263 130.569c-8.11.053-14.645 6.98-14.593 15.469.022 3.496 1.157 6.706 3.05 9.275h-.004l11.808 16.57 11.595-16.715c1.858-2.596 2.951-5.819 2.93-9.31-.054-8.495-6.674-15.337-14.786-15.29z" style="fill:#ff791f;stroke:#000;stroke-width:2;stroke-miterlimit:10"/><circle cx="328.353" cy="144.863" r="8.207" class="st2" transform="translate(-.893 2.04)"/><path d="M212.549 110.484h168.035v105.242H212.549z" class="st1"/><path d="M379.714 12.5h38v60h-38z" style="fill:#b2ddf8" transform="rotate(-68.536 398.732 42.503)"/><path d="m378.313 15.136 53.977 21.225-13.174 33.503-53.977-21.225 13.174-33.503m-1.13-2.593L362.546 49.77l57.7 22.688 14.637-37.225-57.7-22.689z"/><path d="m377.183 12.543 43.062 59.914M434.883 35.231l-72.337 14.538M40.121 180.776l32.179 9.458" class="st1"/><circle cx="46.646" cy="182.792" r="2.892" class="st6" transform="rotate(-73.62 46.645 182.794)"/><path d="m38.154 187.466 32.18 9.458" class="st1"/><circle cx="63.571" cy="195.035" r="2.892" class="st6" transform="rotate(-73.62 63.57 195.037)"/><path d="m36.227 194.022 32.18 9.459" class="st1"/><circle cx="50.99" cy="198.46" r="2.892" class="st6" transform="rotate(-73.62 50.989 198.462)"/><path d="m464.329 107.021 29.525-4.785M465.768 115.905l36.292-5.881M467.208 124.789l29.526-4.784" class="st1"/><path d="M357.284 198.8c-2.314 0-4.188 1.052-4.188 2.35v.661h-1.021V199.326c0-1.297-1.875-2.351-4.188-2.352-2.318 0-4.191 1.054-4.191 2.351v2.487h-1.02v-5.426c0-1.3-1.878-2.353-4.19-2.353-2.312 0-4.189 1.053-4.189 2.353v5.426h-1.02v-8.742h-.008c0-.07.008-.135.008-.205v-11.496c0-2.104-1.877-3.807-4.188-3.807-2.315 0-4.19 1.704-4.19 3.807v11.496c0 .07.007.135.013.205h-.013v25.31h-1.349v-6.656a4.507 4.507 0 0 0-9.013 0v15.37h.006c.012 1.637.752 3.189 2.129 4.094l9.645 7.98c-.02 2.721-.055 6.255-.09 10.028h30.375c0-8.449.027-15.88.027-15.88.713-.941 2.75-3.55 3.57-5.157 1.016-1.991 1.068-11.12 1.149-19.086l.127-2.338v-5.584c0-1.298-1.875-2.35-4.19-2.35z" class="st2"/><path d="M317.637 243.141h44.764v143.485h-44.764z" class="st6"/><ellipse cx="353.951" cy="248.456" class="st2" rx="2.04" ry="2.042" transform="rotate(-86.732 353.933 248.451)"/><path d="M314.893 253.297h49.4v133.328h-49.4z" class="st2"/><path stroke-width="1.99996" d="m415.493 263.275 38.38-50.064 33.914 26-38.38 50.063z" class="st0"/><path d="m465.137 226.963 6.46 4.952M422.934 253.583l33.914 26M448.934 219.669l33.914 26" class="st1"/><circle cx="436.176" cy="271.428" r="2.035" style="fill:#d8effd;stroke:#000;stroke-width:2;stroke-linejoin:bevel;stroke-miterlimit:10" transform="rotate(-52.526 436.171 271.442)"/><path d="m180.749 73.768 27.83-11.798-15.985-37.706-55.66 23.597 15.985 37.705 15.261-6.47 4.567 10.773z" class="st6"/><path d="m149.201 54.31 39.5-16.745M153.006 63.288l39.501-16.746M156.812 72.265l39.501-16.745" class="st1"/><path stroke-width="1.99994" d="m101.388 230.385 56.934-26.824 19 40.328-56.934 26.824z" class="st0"/><path stroke-width="1.99994" d="m112.085 274.625 73.54-34.648 3.352 7.116-73.539 34.648z" class="st2"/><path d="m134.465 220.609-4.745 2.235" class="st1"/><path d="M555.417 82.661c0 9.25-16.75 26.75-16.75 26.75s-16.75-17.5-16.75-26.75 7.499-16.75 16.75-16.75 16.75 7.5 16.75 16.75z" class="st2"/><circle cx="538.667" cy="82.661" r="9.847" class="st2"/><path d="M524.611 316.176c0 7.425-13.444 21.472-13.444 21.472s-13.445-14.047-13.445-21.472 6.02-13.445 13.445-13.445c7.425 0 13.445 6.02 13.445 13.445z" class="st2"/><circle cx="511.167" cy="316.176" r="7.904" class="st2"/><path d="M538.667 113.411S515 123.981 515 140.981s33 31 27.78 56.333c-11.824 57.39-68.113 55.591-34.78 105.796" style="fill:none;stroke:#000;stroke-width:2;stroke-miterlimit:10;stroke-dasharray:6"/><circle cx="54.868" cy="89.019" r="18.617" class="st6"/><path d="m58.158 92.31 5.264-12.504-12.502 5.265-4.607 11.844z" style="fill:none;stroke:#000;stroke-width:2;stroke-linejoin:bevel;stroke-miterlimit:10"/><path d="m50.92 85.071 7.238 7.238M58.092 70.594a3.29 3.29 0 1 0-6.449 0M54.868 70.594v3.29M54.868 104.154v3.29M73.293 89.019h-3.29M39.733 89.019h-3.29" class="st1"/><path stroke-width="1.99992" d="m32.64 298.3 36.657-7.184 5.793 29.561-36.657 7.184z" class="st1"/><path d="m33.576 303.037 36.658-7.184M38.434 299.629l-2.365.464M43.164 298.702l-2.365.464M47.894 297.775l-2.365.464M37.691 308.37l15.964-3.128M38.618 313.1l15.964-3.128M39.545 317.83l15.964-3.128" class="st1"/><path stroke-width="1.99992" d="m56.602 304.654 11.234-2.202 1.854 9.46-11.234 2.201z" class="st6"/></svg>