<svg width="80" height="79" viewBox="0 0 80 79" fill="none" xmlns="http://www.w3.org/2000/svg">
<path d="M58.4333 25.2683C58.2 25.2358 57.9667 25.2358 57.7333 25.2683C52.5667 25.1057 48.4667 20.9756 48.4667 15.9024C48.4667 10.7317 52.7667 6.50407 58.1 6.50407C63.4 6.50407 67.7333 10.6992 67.7333 15.9024C67.7 20.9756 63.6 25.1057 58.4333 25.2683Z" fill="#292D32"/>
<path d="M69.3 47.8049C65.5667 50.2439 60.3334 51.1545 55.5 50.5366C56.7667 47.8699 57.4334 44.9106 57.4667 41.7886C57.4667 38.5366 56.7334 35.4472 55.3334 32.748C60.2667 32.0976 65.5 33.0081 69.2667 35.4472C74.5334 38.8293 74.5334 44.3902 69.3 47.8049Z" fill="#292D32"/>
<path d="M21.4667 25.2683C21.7 25.2358 21.9333 25.2358 22.1667 25.2683C27.3333 25.1057 31.4333 20.9756 31.4333 15.9024C31.4333 10.6992 27.1333 6.50407 21.8 6.50407C16.5 6.50407 12.2 10.6992 12.2 15.9024C12.2 20.9756 16.3 25.1057 21.4667 25.2683Z" fill="#292D32"/>
<path d="M21.8334 41.7886C21.8334 44.9431 22.5334 47.9349 23.8 50.6341C19.1 51.1219 14.2 50.1463 10.6 47.8374C5.33336 44.4228 5.33336 38.8618 10.6 35.4471C14.1667 33.1057 19.2 32.1626 23.9334 32.6829C22.5667 35.4146 21.8334 38.5041 21.8334 41.7886Z" fill="#292D32"/>
<path d="M40.4 51.6098C40.1333 51.5772 39.8333 51.5772 39.5333 51.6098C33.4 51.4146 28.5 46.5041 28.5 40.4553C28.5333 34.2764 33.6333 29.2683 40 29.2683C46.3333 29.2683 51.4667 34.2764 51.4667 40.4553C51.4333 46.5041 46.5667 51.4146 40.4 51.6098Z" fill="#292D32"/>
<path d="M29.5666 58.3415C24.5333 61.626 24.5333 67.0244 29.5666 70.2764C35.3 74.0163 44.7 74.0163 50.4333 70.2764C55.4666 66.9919 55.4666 61.5935 50.4333 58.3415C44.7333 54.6016 35.3333 54.6016 29.5666 58.3415Z" fill="#292D32"/>
</svg>
