<svg width="117" height="117" fill="none" xmlns="http://www.w3.org/2000/svg"><circle cx="54.851" cy="54.226" r="54.226" fill="#266EF8" fill-opacity=".42"/><circle cx="62.506" cy="61.881" r="53.588" stroke="#626262" stroke-width="1.276"/><path d="m73.3 67.766 8.54 8.54a2.94 2.94 0 0 1 0 4.16c-6.21 6.209-16.04 6.907-23.064 1.639l-5.081-3.811a74.182 74.182 0 0 1-14.836-14.836l-3.81-5.081c-5.27-7.025-4.571-16.855 1.638-23.064a2.94 2.94 0 0 1 4.16 0l8.54 8.54a3.225 3.225 0 0 1 0 4.562l-3.294 3.293a1.72 1.72 0 0 0-.322 1.985A39.552 39.552 0 0 0 63.46 71.381a1.72 1.72 0 0 0 1.985-.322l3.293-3.293a3.225 3.225 0 0 1 4.561 0Z" fill="#292D32"/><path fill-rule="evenodd" clip-rule="evenodd" d="M81.84 80.466a2.941 2.941 0 0 0 0-4.16l-8.54-8.54a3.225 3.225 0 0 0-4.562 0l-2.557 2.557 12.594 12.594a17.67 17.67 0 0 0 3.065-2.451ZM34.236 38.378 46.83 50.972l2.557-2.557a3.225 3.225 0 0 0 0-4.561l-8.54-8.541a2.94 2.94 0 0 0-4.159 0l-.002.002a17.67 17.67 0 0 0-2.45 3.063Z" fill="#292D32"/></svg>