<svg xmlns="http://www.w3.org/2000/svg" width="80" height="80" fill="none"><path fill="#292D32" d="M40.488 0C23.528 0 9.78 13.846 9.78 30.927c0 1.509.108 2.993.316 4.446.38 1.018.81 2.013 1.286 2.98 4.409 8.96 12.775 15.591 22.785 17.58 2.043.406 4.156.619 6.322.619 1.851 0 3.665-.156 5.43-.455 10.22-1.732 18.829-8.282 23.433-17.26a32.608 32.608 0 0 0 1.529-3.463c.208-1.453.315-2.938.315-4.447C71.196 13.847 57.448 0 40.488 0ZM70.605 46.746c-5.682 7.572-14.117 12.936-23.813 14.58a37.484 37.484 0 0 1-3.092.392c.295.522.62 1.089.973 1.705l6.28 10.954c.79 1.38 1.522 2.656 2.22 3.552.682.878 1.965 2.229 3.967 2.056 2.028-.175 3.049-1.755 3.555-2.75.513-1.006.982-2.39 1.487-3.879l.915-2.697c.508-1.495.813-2.38 1.112-2.994.136-.28.232-.418.284-.483a.44.44 0 0 1 .042-.045l.005-.003.005-.003.01-.005s.022-.008.06-.014c.082-.014.248-.028.557-.007.678.047 1.591.223 3.13.528l2.778.55c1.531.304 2.957.586 4.079.642 1.108.056 2.977-.044 4.141-1.725 1.15-1.66.63-3.455.217-4.49-.422-1.055-1.154-2.331-1.945-3.711l-6.474-11.294-.493-.859ZM36.35 61.627a37.39 37.39 0 0 1-3.202-.493c-9.572-1.901-17.837-7.444-23.32-15.132-.311.53-.639 1.102-.992 1.718L2.428 58.9C1.637 60.279.905 61.555.483 62.61.07 63.645-.45 65.439.7 67.1c1.164 1.681 3.033 1.78 4.141 1.725 1.122-.056 2.548-.338 4.08-.642l2.776-.55c1.54-.305 2.453-.481 3.13-.528.31-.021.476-.007.558.007.038.006.06.014.06.014l.01.005.01.006s.017.016.042.045c.052.065.148.202.284.483.299.615.604 1.5 1.111 2.994l.916 2.697c.505 1.488.974 2.873 1.487 3.88.506.993 1.526 2.574 3.555 2.749 2.003.173 3.285-1.178 3.968-2.056.697-.896 1.429-2.172 2.22-3.552l6.279-10.954c.374-.652.715-1.248 1.023-1.796Z"/></svg>